<svg width="131" height="55" viewBox="0 0 131 55" fill="none" xmlns="http://www.w3.org/2000/svg">
<path d="M131 25.1873V54.2526H116.467V25.1873C116.467 22.5069 115.514 20.2301 113.609 18.357C111.736 16.4516 109.459 15.4989 106.779 15.4989C104.098 15.4989 101.806 16.4516 99.9001 18.357C98.027 20.2301 97.0904 22.5069 97.0904 25.1873V54.2526H82.5579V25.1873C82.5579 22.5069 81.6052 20.2301 79.6998 18.357C77.8267 16.4516 75.5499 15.4989 72.8694 15.4989C70.189 15.4989 67.8961 16.4516 65.9907 18.357C64.1176 20.2301 63.1811 22.5069 63.1811 25.1873V54.2526H48.6484V25.1873C48.6484 18.5023 51.0059 12.8023 55.721 8.08728C60.4683 3.33994 66.1845 0.966309 72.8694 0.966309C79.4899 0.966309 85.1414 3.27536 89.8242 7.89352C94.5069 3.27536 100.158 0.966309 106.779 0.966309C113.464 0.966309 119.164 3.33994 123.879 8.08728C128.626 12.8023 131 18.5023 131 25.1873Z" fill="#141B4D"/>
<path d="M16.9547 0.966309H38.7525L38.7536 15.4989H16.9547C16.2766 15.4989 15.6952 15.7411 15.2108 16.2256C14.7586 16.6777 14.5326 17.2429 14.5326 17.921C14.5326 18.5992 14.7586 19.1805 15.2108 19.6649C15.6952 20.117 16.2766 20.3431 16.9547 20.3431H26.6431C31.3258 20.3431 35.3143 22.0063 38.6083 25.3326C41.9346 28.6267 43.5978 32.6151 43.5978 37.2978C43.5978 41.9806 41.9346 45.9851 38.6083 49.3116C35.3143 52.6054 31.3258 54.2526 26.6431 54.2526H2.52541V39.7199H26.6431C27.3213 39.7199 27.8864 39.4938 28.3386 39.0417C28.823 38.5573 29.0652 37.976 29.0652 37.2978C29.0652 36.6197 28.823 36.0545 28.3386 35.6024C27.8864 35.1179 27.3213 34.8757 26.6431 34.8757H16.9547C12.272 34.8757 8.26745 33.2287 4.94109 29.9346C1.64703 26.6083 0 22.6037 0 17.921C0 13.2383 1.64703 9.24992 4.94109 5.95583C8.26745 2.62948 12.272 0.966309 16.9547 0.966309Z" fill="#FF6000"/>
</svg>
