<svg width="134" height="54" viewBox="0 0 134 54" fill="none" xmlns="http://www.w3.org/2000/svg">
<path d="M133.949 24.221V53.2863H119.416V24.221C119.416 21.5406 118.464 19.2638 116.558 17.3907C114.685 15.4853 112.409 14.5326 109.728 14.5326C107.048 14.5326 104.755 15.4853 102.849 17.3907C100.976 19.2638 100.04 21.5406 100.04 24.221V53.2863H85.5071V24.221C85.5071 21.5406 84.5544 19.2638 82.649 17.3907C80.7759 15.4853 78.4991 14.5326 75.8187 14.5326C73.1382 14.5326 70.8453 15.4853 68.9399 17.3907C67.0668 19.2638 66.1303 21.5406 66.1303 24.221V53.2863H51.5977V24.221C51.5977 17.536 53.9552 11.836 58.6702 7.12097C63.4175 2.37364 69.1337 0 75.8187 0C82.4391 0 88.0907 2.30905 92.7734 6.92721C97.4561 2.30905 103.108 0 109.728 0C116.413 0 122.113 2.37364 126.828 7.12097C131.576 11.836 133.949 17.536 133.949 24.221Z" fill="#67707E"/>
<path d="M16.9547 0H38.7525L38.7536 14.5326H16.9547C16.2766 14.5326 15.6952 14.7748 15.2108 15.2592C14.7586 15.7114 14.5326 16.2766 14.5326 16.9547C14.5326 17.6329 14.7586 18.2142 15.2108 18.6986C15.6952 19.1507 16.2766 19.3768 16.9547 19.3768H26.6431C31.3258 19.3768 35.3143 21.04 38.6083 24.3663C41.9346 27.6604 43.5978 31.6488 43.5978 36.3315C43.5978 41.0142 41.9346 45.0188 38.6083 48.3453C35.3143 51.639 31.3258 53.2862 26.6431 53.2862H2.52541V38.7536H26.6431C27.3213 38.7536 27.8864 38.5275 28.3386 38.0754C28.823 37.591 29.0652 37.0097 29.0652 36.3315C29.0652 35.6534 28.823 35.0882 28.3386 34.6361C27.8864 34.1516 27.3213 33.9094 26.6431 33.9094H16.9547C12.272 33.9094 8.26745 32.2624 4.94109 28.9683C1.64703 25.642 0 21.6374 0 16.9547C0 12.272 1.64703 8.28361 4.94109 4.98952C8.26745 1.66318 12.272 0 16.9547 0Z" fill="#67707E"/>
</svg>
