<svg width="664" height="296" viewBox="0 0 664 296" fill="none" xmlns="http://www.w3.org/2000/svg">
<path d="M12.5694 287.755H5.22363V265.064H12.802C15.0253 265.064 16.9347 265.518 18.5302 266.426C20.1256 267.328 21.3481 268.624 22.1975 270.315C23.0543 271.999 23.4827 274.02 23.4827 276.376C23.4827 278.739 23.0506 280.771 22.1864 282.47C21.3296 284.168 20.0887 285.476 18.4637 286.392C16.8387 287.3 14.8739 287.755 12.5694 287.755ZM8.64721 284.763H12.381C14.1094 284.763 15.5461 284.438 16.691 283.788C17.8358 283.131 18.6927 282.182 19.2614 280.941C19.8302 279.692 20.1145 278.171 20.1145 276.376C20.1145 274.596 19.8302 273.085 19.2614 271.844C18.7001 270.603 17.8617 269.662 16.7464 269.019C15.631 268.376 14.2461 268.055 12.5915 268.055H8.64721V284.763Z" fill="white"/>
<path d="M27.4741 287.755V270.736H30.7869V287.755H27.4741ZM29.1471 268.111C28.571 268.111 28.0761 267.918 27.6625 267.534C27.2562 267.143 27.0531 266.678 27.0531 266.138C27.0531 265.592 27.2562 265.126 27.6625 264.742C28.0761 264.351 28.571 264.155 29.1471 264.155C29.7233 264.155 30.2145 264.351 30.6207 264.742C31.0344 265.126 31.2412 265.592 31.2412 266.138C31.2412 266.678 31.0344 267.143 30.6207 267.534C30.2145 267.918 29.7233 268.111 29.1471 268.111Z" fill="white"/>
<path d="M42.3789 294.491C41.0272 294.491 39.8638 294.314 38.8888 293.959C37.9212 293.605 37.1309 293.136 36.5178 292.552C35.9047 291.968 35.4468 291.33 35.1439 290.635L37.9914 289.461C38.1908 289.786 38.4567 290.129 38.7891 290.491C39.1289 290.861 39.5868 291.174 40.163 291.433C40.7465 291.691 41.4962 291.821 42.4121 291.821C43.6678 291.821 44.7056 291.514 45.5255 290.901C46.3454 290.295 46.7553 289.328 46.7553 287.998V284.652H46.5448C46.3454 285.014 46.0573 285.417 45.6806 285.86C45.3113 286.303 44.8016 286.687 44.1516 287.012C43.5016 287.337 42.6559 287.5 41.6144 287.5C40.2701 287.5 39.0587 287.186 37.9803 286.558C36.9093 285.923 36.0599 284.988 35.432 283.755C34.8116 282.514 34.5013 280.989 34.5013 279.179C34.5013 277.369 34.8079 275.818 35.4209 274.526C36.0414 273.233 36.8908 272.243 37.9692 271.556C39.0476 270.862 40.2701 270.515 41.6366 270.515C42.6928 270.515 43.5459 270.692 44.1959 271.047C44.8459 271.394 45.3519 271.8 45.7138 272.265C46.0832 272.731 46.3675 273.141 46.567 273.495H46.8107V270.736H50.057V288.131C50.057 289.594 49.7172 290.794 49.0377 291.732C48.3582 292.67 47.4385 293.364 46.2789 293.815C45.1266 294.266 43.8266 294.491 42.3789 294.491ZM42.3457 284.752C43.2985 284.752 44.1036 284.53 44.761 284.087C45.4258 283.637 45.928 282.994 46.2678 282.159C46.615 281.317 46.7885 280.309 46.7885 279.135C46.7885 277.99 46.6187 276.982 46.2789 276.11C45.9391 275.238 45.4405 274.559 44.7832 274.071C44.1258 273.576 43.3133 273.329 42.3457 273.329C41.3485 273.329 40.5175 273.588 39.8528 274.105C39.188 274.614 38.6857 275.309 38.3459 276.188C38.0135 277.066 37.8474 278.049 37.8474 279.135C37.8474 280.25 38.0172 281.229 38.357 282.071C38.6968 282.913 39.1991 283.57 39.8638 284.043C40.536 284.516 41.3633 284.752 42.3457 284.752Z" fill="white"/>
<path d="M54.4999 287.755V270.736H57.8127V287.755H54.4999ZM56.1729 268.111C55.5968 268.111 55.1019 267.918 54.6883 267.534C54.282 267.143 54.0789 266.678 54.0789 266.138C54.0789 265.592 54.282 265.126 54.6883 264.742C55.1019 264.351 55.5968 264.155 56.1729 264.155C56.7491 264.155 57.2403 264.351 57.6465 264.742C58.0601 265.126 58.267 265.592 58.267 266.138C58.267 266.678 58.0601 267.143 57.6465 267.534C57.2403 267.918 56.7491 268.111 56.1729 268.111Z" fill="white"/>
<path d="M70.2135 270.736V273.395H60.9177V270.736H70.2135ZM63.4106 266.659H66.7234V282.758C66.7234 283.4 66.8194 283.884 67.0115 284.209C67.2035 284.527 67.451 284.745 67.7538 284.863C68.064 284.974 68.4001 285.029 68.7621 285.029C69.028 285.029 69.2606 285.011 69.4601 284.974C69.6595 284.937 69.8146 284.907 69.9254 284.885L70.5237 287.622C70.3317 287.695 70.0584 287.769 69.7038 287.843C69.3493 287.924 68.9061 287.969 68.3743 287.976C67.5027 287.991 66.6902 287.836 65.9368 287.511C65.1834 287.186 64.574 286.684 64.1087 286.004C63.6433 285.324 63.4106 284.471 63.4106 283.445V266.659Z" fill="white"/>
<path d="M78.8306 288.131C77.7522 288.131 76.7772 287.932 75.9056 287.533C75.034 287.127 74.3434 286.539 73.8337 285.771C73.3314 285.003 73.0803 284.061 73.0803 282.946C73.0803 281.986 73.265 281.195 73.6343 280.575C74.0036 279.955 74.5022 279.463 75.13 279.101C75.7579 278.739 76.4596 278.466 77.2351 278.282C78.0107 278.097 78.801 277.957 79.6062 277.861C80.6255 277.742 81.4528 277.646 82.088 277.572C82.7232 277.491 83.1849 277.362 83.4729 277.185C83.761 277.007 83.905 276.719 83.905 276.32V276.243C83.905 275.275 83.6317 274.526 83.0851 273.994C82.5459 273.462 81.7408 273.196 80.6698 273.196C79.5545 273.196 78.6755 273.443 78.0329 273.938C77.3976 274.426 76.9582 274.969 76.7144 275.567L73.601 274.858C73.9704 273.824 74.5096 272.989 75.2187 272.354C75.9351 271.711 76.7587 271.246 77.6894 270.958C78.6201 270.663 79.5988 270.515 80.6255 270.515C81.305 270.515 82.0252 270.596 82.786 270.759C83.5542 270.914 84.2707 271.202 84.9354 271.623C85.6076 272.044 86.1579 272.646 86.5863 273.429C87.0147 274.204 87.2289 275.213 87.2289 276.453V287.755H83.9937V285.428H83.8607C83.6465 285.856 83.3252 286.277 82.8968 286.691C82.4684 287.105 81.9181 287.448 81.2459 287.721C80.5738 287.995 79.7687 288.131 78.8306 288.131ZM79.5508 285.472C80.4667 285.472 81.2496 285.291 81.8996 284.929C82.557 284.567 83.0556 284.095 83.3954 283.511C83.7425 282.92 83.9161 282.289 83.9161 281.616V279.423C83.7979 279.541 83.5689 279.652 83.2292 279.755C82.8968 279.851 82.5164 279.936 82.088 280.01C81.6596 280.076 81.2422 280.139 80.836 280.198C80.4297 280.25 80.09 280.294 79.8167 280.331C79.1741 280.413 78.5868 280.549 78.055 280.741C77.5306 280.933 77.1096 281.21 76.792 281.572C76.4817 281.927 76.3266 282.399 76.3266 282.99C76.3266 283.81 76.6295 284.431 77.2351 284.852C77.8408 285.265 78.6127 285.472 79.5508 285.472Z" fill="white"/>
<path d="M94.9541 265.064V287.755H91.6413V265.064H94.9541Z" fill="white"/>
<path d="M106.815 268.011V265.064H124.376V268.011H117.296V287.755H113.884V268.011H106.815Z" fill="white"/>
<path d="M132.857 288.098C131.181 288.098 129.736 287.74 128.525 287.023C127.321 286.299 126.39 285.284 125.733 283.976C125.083 282.662 124.758 281.122 124.758 279.356C124.758 277.613 125.083 276.077 125.733 274.747C126.39 273.418 127.306 272.38 128.481 271.634C129.663 270.888 131.044 270.515 132.625 270.515C133.585 270.515 134.515 270.674 135.417 270.991C136.318 271.309 137.127 271.807 137.843 272.487C138.559 273.166 139.125 274.049 139.538 275.135C139.952 276.213 140.159 277.524 140.159 279.068V280.243H126.631V277.761H136.912C136.912 276.889 136.735 276.117 136.381 275.445C136.026 274.766 135.527 274.23 134.885 273.839C134.25 273.447 133.504 273.251 132.647 273.251C131.716 273.251 130.904 273.48 130.209 273.938C129.522 274.389 128.99 274.98 128.614 275.711C128.244 276.435 128.06 277.222 128.06 278.071V280.01C128.06 281.147 128.259 282.115 128.658 282.913C129.064 283.711 129.629 284.32 130.353 284.741C131.077 285.155 131.923 285.361 132.89 285.361C133.518 285.361 134.091 285.273 134.608 285.095C135.125 284.911 135.572 284.638 135.948 284.276C136.325 283.914 136.613 283.467 136.813 282.935L139.948 283.5C139.697 284.423 139.246 285.232 138.596 285.926C137.954 286.613 137.145 287.149 136.17 287.533C135.202 287.91 134.098 288.098 132.857 288.098Z" fill="white"/>
<path d="M151.003 288.098C149.356 288.098 147.937 287.725 146.748 286.979C145.566 286.226 144.658 285.188 144.023 283.866C143.387 282.543 143.07 281.029 143.07 279.323C143.07 277.595 143.395 276.069 144.045 274.747C144.695 273.418 145.611 272.38 146.793 271.634C147.974 270.888 149.367 270.515 150.97 270.515C152.262 270.515 153.414 270.755 154.426 271.235C155.438 271.708 156.254 272.372 156.875 273.229C157.503 274.086 157.876 275.087 157.994 276.232H154.77C154.593 275.434 154.186 274.747 153.551 274.171C152.923 273.595 152.081 273.307 151.025 273.307C150.102 273.307 149.293 273.551 148.598 274.038C147.912 274.518 147.376 275.205 146.992 276.099C146.608 276.985 146.416 278.034 146.416 279.245C146.416 280.486 146.604 281.557 146.981 282.459C147.358 283.36 147.889 284.058 148.576 284.553C149.271 285.047 150.087 285.295 151.025 285.295C151.653 285.295 152.222 285.18 152.731 284.951C153.248 284.715 153.68 284.379 154.027 283.943C154.382 283.507 154.629 282.983 154.77 282.37H157.994C157.876 283.47 157.518 284.453 156.919 285.317C156.321 286.181 155.52 286.861 154.515 287.356C153.518 287.851 152.347 288.098 151.003 288.098Z" fill="white"/>
<path d="M164.849 277.65V287.755H161.537V265.064H164.805V273.506H165.016C165.414 272.59 166.024 271.863 166.844 271.324C167.664 270.784 168.735 270.515 170.057 270.515C171.224 270.515 172.243 270.755 173.115 271.235C173.994 271.715 174.673 272.432 175.153 273.384C175.641 274.33 175.885 275.512 175.885 276.93V287.755H172.572V277.329C172.572 276.08 172.251 275.113 171.608 274.426C170.965 273.732 170.072 273.384 168.927 273.384C168.144 273.384 167.442 273.551 166.822 273.883C166.209 274.215 165.725 274.703 165.37 275.345C165.023 275.981 164.849 276.749 164.849 277.65Z" fill="white"/>
<path d="M183.618 277.65V287.755H180.305V270.736H183.485V273.506H183.696C184.087 272.605 184.7 271.881 185.535 271.335C186.377 270.788 187.437 270.515 188.715 270.515C189.874 270.515 190.89 270.759 191.762 271.246C192.633 271.726 193.309 272.443 193.789 273.395C194.269 274.348 194.509 275.526 194.509 276.93V287.755H191.197V277.329C191.197 276.095 190.875 275.131 190.233 274.437C189.59 273.735 188.707 273.384 187.585 273.384C186.816 273.384 186.133 273.551 185.535 273.883C184.944 274.215 184.475 274.703 184.128 275.345C183.788 275.981 183.618 276.749 183.618 277.65Z" fill="white"/>
<path d="M206.121 288.098C204.525 288.098 203.133 287.732 201.944 287.001C200.755 286.27 199.831 285.247 199.174 283.932C198.516 282.617 198.188 281.081 198.188 279.323C198.188 277.558 198.516 276.014 199.174 274.692C199.831 273.37 200.755 272.343 201.944 271.612C203.133 270.88 204.525 270.515 206.121 270.515C207.716 270.515 209.109 270.88 210.298 271.612C211.487 272.343 212.41 273.37 213.068 274.692C213.725 276.014 214.054 277.558 214.054 279.323C214.054 281.081 213.725 282.617 213.068 283.932C212.41 285.247 211.487 286.27 210.298 287.001C209.109 287.732 207.716 288.098 206.121 288.098ZM206.132 285.317C207.166 285.317 208.023 285.044 208.702 284.497C209.382 283.951 209.884 283.223 210.209 282.314C210.541 281.406 210.708 280.405 210.708 279.312C210.708 278.226 210.541 277.229 210.209 276.32C209.884 275.405 209.382 274.67 208.702 274.116C208.023 273.562 207.166 273.285 206.132 273.285C205.09 273.285 204.226 273.562 203.539 274.116C202.86 274.67 202.354 275.405 202.021 276.32C201.696 277.229 201.534 278.226 201.534 279.312C201.534 280.405 201.696 281.406 202.021 282.314C202.354 283.223 202.86 283.951 203.539 284.497C204.226 285.044 205.09 285.317 206.132 285.317Z" fill="white"/>
<path d="M221.064 265.064V287.755H217.751V265.064H221.064Z" fill="white"/>
<path d="M232.689 288.098C231.094 288.098 229.702 287.732 228.512 287.001C227.323 286.27 226.4 285.247 225.743 283.932C225.085 282.617 224.757 281.081 224.757 279.323C224.757 277.558 225.085 276.014 225.743 274.692C226.4 273.37 227.323 272.343 228.512 271.612C229.702 270.88 231.094 270.515 232.689 270.515C234.285 270.515 235.677 270.88 236.866 271.612C238.056 272.343 238.979 273.37 239.636 274.692C240.294 276.014 240.622 277.558 240.622 279.323C240.622 281.081 240.294 282.617 239.636 283.932C238.979 285.247 238.056 286.27 236.866 287.001C235.677 287.732 234.285 288.098 232.689 288.098ZM232.701 285.317C233.735 285.317 234.591 285.044 235.271 284.497C235.951 283.951 236.453 283.223 236.778 282.314C237.11 281.406 237.276 280.405 237.276 279.312C237.276 278.226 237.11 277.229 236.778 276.32C236.453 275.405 235.951 274.67 235.271 274.116C234.591 273.562 233.735 273.285 232.701 273.285C231.659 273.285 230.795 273.562 230.108 274.116C229.428 274.67 228.922 275.405 228.59 276.32C228.265 277.229 228.103 278.226 228.103 279.312C228.103 280.405 228.265 281.406 228.59 282.314C228.922 283.223 229.428 283.951 230.108 284.497C230.795 285.044 231.659 285.317 232.701 285.317Z" fill="white"/>
<path d="M251.455 294.491C250.104 294.491 248.94 294.314 247.965 293.959C246.998 293.605 246.207 293.136 245.594 292.552C244.981 291.968 244.523 291.33 244.221 290.635L247.068 289.461C247.267 289.786 247.533 290.129 247.866 290.491C248.205 290.861 248.663 291.174 249.24 291.433C249.823 291.691 250.573 291.821 251.489 291.821C252.744 291.821 253.782 291.514 254.602 290.901C255.422 290.295 255.832 289.328 255.832 287.998V284.652H255.621C255.422 285.014 255.134 285.417 254.757 285.86C254.388 286.303 253.878 286.687 253.228 287.012C252.578 287.337 251.732 287.5 250.691 287.5C249.347 287.5 248.135 287.186 247.057 286.558C245.986 285.923 245.136 284.988 244.509 283.755C243.888 282.514 243.578 280.989 243.578 279.179C243.578 277.369 243.884 275.818 244.497 274.526C245.118 273.233 245.967 272.243 247.046 271.556C248.124 270.862 249.347 270.515 250.713 270.515C251.769 270.515 252.622 270.692 253.272 271.047C253.922 271.394 254.428 271.8 254.79 272.265C255.16 272.731 255.444 273.141 255.644 273.495H255.887V270.736H259.134V288.131C259.134 289.594 258.794 290.794 258.114 291.732C257.435 292.67 256.515 293.364 255.355 293.815C254.203 294.266 252.903 294.491 251.455 294.491ZM251.422 284.752C252.375 284.752 253.18 284.53 253.838 284.087C254.502 283.637 255.005 282.994 255.344 282.159C255.692 281.317 255.865 280.309 255.865 279.135C255.865 277.99 255.695 276.982 255.355 276.11C255.016 275.238 254.517 274.559 253.86 274.071C253.202 273.576 252.39 273.329 251.422 273.329C250.425 273.329 249.594 273.588 248.929 274.105C248.265 274.614 247.762 275.309 247.423 276.188C247.09 277.066 246.924 278.049 246.924 279.135C246.924 280.25 247.094 281.229 247.434 282.071C247.773 282.913 248.276 283.57 248.94 284.043C249.613 284.516 250.44 284.752 251.422 284.752Z" fill="white"/>
<path d="M263.576 287.755V270.736H266.889V287.755H263.576ZM265.249 268.111C264.673 268.111 264.178 267.918 263.765 267.534C263.359 267.143 263.155 266.678 263.155 266.138C263.155 265.592 263.359 265.126 263.765 264.742C264.178 264.351 264.673 264.155 265.249 264.155C265.826 264.155 266.317 264.351 266.723 264.742C267.137 265.126 267.344 265.592 267.344 266.138C267.344 266.678 267.137 267.143 266.723 267.534C266.317 267.918 265.826 268.111 265.249 268.111Z" fill="white"/>
<path d="M278.681 288.098C277.004 288.098 275.56 287.74 274.349 287.023C273.145 286.299 272.214 285.284 271.557 283.976C270.907 282.662 270.582 281.122 270.582 279.356C270.582 277.613 270.907 276.077 271.557 274.747C272.214 273.418 273.13 272.38 274.304 271.634C275.486 270.888 276.867 270.515 278.448 270.515C279.408 270.515 280.339 270.674 281.24 270.991C282.141 271.309 282.95 271.807 283.666 272.487C284.383 273.166 284.948 274.049 285.362 275.135C285.775 276.213 285.982 277.524 285.982 279.068V280.243H272.454V277.761H282.736C282.736 276.889 282.559 276.117 282.204 275.445C281.849 274.766 281.351 274.23 280.708 273.839C280.073 273.447 279.327 273.251 278.47 273.251C277.539 273.251 276.727 273.48 276.033 273.938C275.346 274.389 274.814 274.98 274.437 275.711C274.068 276.435 273.883 277.222 273.883 278.071V280.01C273.883 281.147 274.083 282.115 274.482 282.913C274.888 283.711 275.453 284.32 276.177 284.741C276.901 285.155 277.746 285.361 278.714 285.361C279.342 285.361 279.914 285.273 280.431 285.095C280.948 284.911 281.395 284.638 281.772 284.276C282.149 283.914 282.437 283.467 282.636 282.935L285.772 283.5C285.52 284.423 285.07 285.232 284.42 285.926C283.777 286.613 282.968 287.149 281.993 287.533C281.026 287.91 279.922 288.098 278.681 288.098Z" fill="white"/>
<path d="M302.41 274.891L299.408 275.423C299.282 275.039 299.083 274.673 298.809 274.326C298.544 273.979 298.182 273.695 297.724 273.473C297.266 273.251 296.693 273.141 296.006 273.141C295.068 273.141 294.285 273.351 293.657 273.772C293.03 274.186 292.716 274.721 292.716 275.379C292.716 275.947 292.926 276.405 293.347 276.753C293.768 277.1 294.448 277.384 295.386 277.606L298.089 278.226C299.655 278.588 300.822 279.146 301.59 279.899C302.359 280.653 302.743 281.631 302.743 282.835C302.743 283.855 302.447 284.763 301.856 285.561C301.273 286.351 300.457 286.972 299.408 287.422C298.366 287.873 297.159 288.098 295.785 288.098C293.879 288.098 292.324 287.692 291.12 286.879C289.916 286.059 289.178 284.896 288.904 283.389L292.106 282.902C292.306 283.736 292.716 284.368 293.336 284.796C293.957 285.217 294.765 285.428 295.763 285.428C296.848 285.428 297.716 285.203 298.366 284.752C299.016 284.294 299.341 283.736 299.341 283.079C299.341 282.547 299.142 282.1 298.743 281.738C298.352 281.376 297.75 281.103 296.937 280.918L294.056 280.287C292.468 279.925 291.294 279.349 290.533 278.559C289.78 277.768 289.403 276.767 289.403 275.556C289.403 274.551 289.684 273.672 290.245 272.919C290.806 272.166 291.582 271.578 292.572 271.157C293.561 270.729 294.695 270.515 295.973 270.515C297.812 270.515 299.26 270.914 300.316 271.711C301.372 272.502 302.071 273.562 302.41 274.891Z" fill="white"/>
<path d="M322.741 270.736V273.395H313.124V270.736H322.741ZM315.761 287.755V268.764C315.761 267.701 315.994 266.818 316.459 266.116C316.924 265.407 317.541 264.879 318.309 264.532C319.078 264.177 319.912 264 320.813 264C321.478 264 322.047 264.055 322.52 264.166C322.992 264.27 323.343 264.366 323.572 264.454L322.797 267.136C322.642 267.091 322.442 267.039 322.198 266.98C321.955 266.914 321.659 266.881 321.312 266.881C320.507 266.881 319.931 267.08 319.584 267.479C319.244 267.878 319.074 268.454 319.074 269.207V287.755H315.761Z" fill="white"/>
<path d="M332.657 288.098C331.062 288.098 329.67 287.732 328.48 287.001C327.291 286.27 326.368 285.247 325.711 283.932C325.053 282.617 324.724 281.081 324.724 279.323C324.724 277.558 325.053 276.014 325.711 274.692C326.368 273.37 327.291 272.343 328.48 271.612C329.67 270.88 331.062 270.515 332.657 270.515C334.253 270.515 335.645 270.88 336.834 271.612C338.024 272.343 338.947 273.37 339.604 274.692C340.262 276.014 340.59 277.558 340.59 279.323C340.59 281.081 340.262 282.617 339.604 283.932C338.947 285.247 338.024 286.27 336.834 287.001C335.645 287.732 334.253 288.098 332.657 288.098ZM332.669 285.317C333.703 285.317 334.559 285.044 335.239 284.497C335.919 283.951 336.421 283.223 336.746 282.314C337.078 281.406 337.244 280.405 337.244 279.312C337.244 278.226 337.078 277.229 336.746 276.32C336.421 275.405 335.919 274.67 335.239 274.116C334.559 273.562 333.703 273.285 332.669 273.285C331.627 273.285 330.763 273.562 330.076 274.116C329.396 274.67 328.89 275.405 328.558 276.32C328.233 277.229 328.071 278.226 328.071 279.312C328.071 280.405 328.233 281.406 328.558 282.314C328.89 283.223 329.396 283.951 330.076 284.497C330.763 285.044 331.627 285.317 332.669 285.317Z" fill="white"/>
<path d="M344.288 287.755V270.736H347.49V273.44H347.667C347.978 272.524 348.524 271.804 349.307 271.279C350.098 270.747 350.991 270.482 351.988 270.482C352.195 270.482 352.439 270.489 352.72 270.504C353.008 270.518 353.233 270.537 353.396 270.559V273.728C353.263 273.691 353.026 273.65 352.686 273.606C352.347 273.554 352.007 273.528 351.667 273.528C350.884 273.528 350.186 273.695 349.573 274.027C348.967 274.352 348.487 274.806 348.133 275.39C347.778 275.966 347.601 276.623 347.601 277.362V287.755H344.288Z" fill="white"/>
<path d="M364.785 287.755V265.064H373.095C374.705 265.064 376.039 265.33 377.095 265.861C378.151 266.386 378.941 267.099 379.466 268C379.99 268.893 380.252 269.902 380.252 271.024C380.252 271.97 380.079 272.768 379.732 273.418C379.385 274.06 378.919 274.577 378.336 274.969C377.76 275.353 377.124 275.634 376.43 275.811V276.032C377.183 276.069 377.918 276.313 378.635 276.764C379.359 277.207 379.957 277.838 380.43 278.658C380.902 279.478 381.139 280.475 381.139 281.65C381.139 282.809 380.866 283.851 380.319 284.774C379.78 285.69 378.945 286.418 377.815 286.957C376.685 287.489 375.241 287.755 373.483 287.755H364.785ZM368.209 284.818H373.15C374.79 284.818 375.965 284.501 376.674 283.866C377.383 283.23 377.737 282.436 377.737 281.484C377.737 280.767 377.556 280.11 377.194 279.511C376.833 278.913 376.315 278.437 375.643 278.082C374.979 277.728 374.188 277.55 373.272 277.55H368.209V284.818ZM368.209 274.88H372.796C373.564 274.88 374.255 274.732 374.868 274.437C375.488 274.141 375.979 273.728 376.341 273.196C376.711 272.657 376.895 272.022 376.895 271.29C376.895 270.352 376.567 269.566 375.909 268.93C375.252 268.295 374.244 267.978 372.885 267.978H368.209V274.88Z" fill="white"/>
<path d="M392.268 288.098C390.591 288.098 389.147 287.74 387.936 287.023C386.732 286.299 385.801 285.284 385.144 283.976C384.494 282.662 384.169 281.122 384.169 279.356C384.169 277.613 384.494 276.077 385.144 274.747C385.801 273.418 386.717 272.38 387.892 271.634C389.074 270.888 390.455 270.515 392.036 270.515C392.996 270.515 393.926 270.674 394.828 270.991C395.729 271.309 396.538 271.807 397.254 272.487C397.97 273.166 398.536 274.049 398.949 275.135C399.363 276.213 399.57 277.524 399.57 279.068V280.243H386.041V277.761H396.323C396.323 276.889 396.146 276.117 395.791 275.445C395.437 274.766 394.938 274.23 394.296 273.839C393.661 273.447 392.914 273.251 392.058 273.251C391.127 273.251 390.314 273.48 389.62 273.938C388.933 274.389 388.401 274.98 388.025 275.711C387.655 276.435 387.471 277.222 387.471 278.071V280.01C387.471 281.147 387.67 282.115 388.069 282.913C388.475 283.711 389.04 284.32 389.764 284.741C390.488 285.155 391.334 285.361 392.301 285.361C392.929 285.361 393.502 285.273 394.019 285.095C394.536 284.911 394.983 284.638 395.359 284.276C395.736 283.914 396.024 283.467 396.224 282.935L399.359 283.5C399.108 284.423 398.657 285.232 398.007 285.926C397.365 286.613 396.556 287.149 395.581 287.533C394.613 287.91 393.509 288.098 392.268 288.098Z" fill="white"/>
<path d="M411.189 270.736V273.395H401.894V270.736H411.189ZM404.386 266.659H407.699V282.758C407.699 283.4 407.795 283.884 407.987 284.209C408.179 284.527 408.427 284.745 408.73 284.863C409.04 284.974 409.376 285.029 409.738 285.029C410.004 285.029 410.236 285.011 410.436 284.974C410.635 284.937 410.79 284.907 410.901 284.885L411.5 287.622C411.307 287.695 411.034 287.769 410.68 287.843C410.325 287.924 409.882 287.969 409.35 287.976C408.478 287.991 407.666 287.836 406.913 287.511C406.159 287.186 405.55 286.684 405.084 286.004C404.619 285.324 404.386 284.471 404.386 283.445V266.659Z" fill="white"/>
<path d="M422.798 270.736V273.395H413.502V270.736H422.798ZM415.995 266.659H419.308V282.758C419.308 283.4 419.404 283.884 419.596 284.209C419.788 284.527 420.035 284.745 420.338 284.863C420.648 284.974 420.985 285.029 421.346 285.029C421.612 285.029 421.845 285.011 422.044 284.974C422.244 284.937 422.399 284.907 422.51 284.885L423.108 287.622C422.916 287.695 422.643 287.769 422.288 287.843C421.934 287.924 421.491 287.969 420.959 287.976C420.087 287.991 419.275 287.836 418.521 287.511C417.768 287.186 417.158 286.684 416.693 286.004C416.228 285.324 415.995 284.471 415.995 283.445V266.659Z" fill="white"/>
<path d="M433.614 288.098C431.938 288.098 430.494 287.74 429.282 287.023C428.078 286.299 427.148 285.284 426.49 283.976C425.84 282.662 425.515 281.122 425.515 279.356C425.515 277.613 425.84 276.077 426.49 274.747C427.148 273.418 428.063 272.38 429.238 271.634C430.42 270.888 431.801 270.515 433.382 270.515C434.342 270.515 435.273 270.674 436.174 270.991C437.075 271.309 437.884 271.807 438.6 272.487C439.317 273.166 439.882 274.049 440.295 275.135C440.709 276.213 440.916 277.524 440.916 279.068V280.243H427.388V277.761H437.669C437.669 276.889 437.492 276.117 437.138 275.445C436.783 274.766 436.284 274.23 435.642 273.839C435.007 273.447 434.261 273.251 433.404 273.251C432.473 273.251 431.661 273.48 430.966 273.938C430.279 274.389 429.748 274.98 429.371 275.711C429.001 276.435 428.817 277.222 428.817 278.071V280.01C428.817 281.147 429.016 282.115 429.415 282.913C429.821 283.711 430.386 284.32 431.11 284.741C431.834 285.155 432.68 285.361 433.648 285.361C434.275 285.361 434.848 285.273 435.365 285.095C435.882 284.911 436.329 284.638 436.705 284.276C437.082 283.914 437.37 283.467 437.57 282.935L440.705 283.5C440.454 284.423 440.003 285.232 439.353 285.926C438.711 286.613 437.902 287.149 436.927 287.533C435.959 287.91 434.855 288.098 433.614 288.098Z" fill="white"/>
<path d="M444.591 287.755V270.736H447.793V273.44H447.971C448.281 272.524 448.827 271.804 449.61 271.279C450.401 270.747 451.294 270.482 452.292 270.482C452.498 270.482 452.742 270.489 453.023 270.504C453.311 270.518 453.536 270.537 453.699 270.559V273.728C453.566 273.691 453.329 273.65 452.99 273.606C452.65 273.554 452.31 273.528 451.97 273.528C451.187 273.528 450.489 273.695 449.876 274.027C449.271 274.352 448.79 274.806 448.436 275.39C448.081 275.966 447.904 276.623 447.904 277.362V287.755H444.591Z" fill="white"/>
<path d="M472.434 287.755H465.089V265.064H472.667C474.89 265.064 476.8 265.518 478.395 266.426C479.991 267.328 481.213 268.624 482.062 270.315C482.919 271.999 483.348 274.02 483.348 276.376C483.348 278.739 482.915 280.771 482.051 282.47C481.194 284.168 479.954 285.476 478.329 286.392C476.704 287.3 474.739 287.755 472.434 287.755ZM468.512 284.763H472.246C473.974 284.763 475.411 284.438 476.556 283.788C477.701 283.131 478.558 282.182 479.126 280.941C479.695 279.692 479.979 278.171 479.979 276.376C479.979 274.596 479.695 273.085 479.126 271.844C478.565 270.603 477.727 269.662 476.611 269.019C475.496 268.376 474.111 268.055 472.456 268.055H468.512V284.763Z" fill="white"/>
<path d="M494.674 288.098C492.997 288.098 491.553 287.74 490.342 287.023C489.138 286.299 488.207 285.284 487.549 283.976C486.9 282.662 486.574 281.122 486.574 279.356C486.574 277.613 486.9 276.077 487.549 274.747C488.207 273.418 489.123 272.38 490.297 271.634C491.479 270.888 492.86 270.515 494.441 270.515C495.401 270.515 496.332 270.674 497.233 270.991C498.134 271.309 498.943 271.807 499.659 272.487C500.376 273.166 500.941 274.049 501.355 275.135C501.768 276.213 501.975 277.524 501.975 279.068V280.243H488.447V277.761H498.729C498.729 276.889 498.551 276.117 498.197 275.445C497.842 274.766 497.344 274.23 496.701 273.839C496.066 273.447 495.32 273.251 494.463 273.251C493.532 273.251 492.72 273.48 492.026 273.938C491.339 274.389 490.807 274.98 490.43 275.711C490.061 276.435 489.876 277.222 489.876 278.071V280.01C489.876 281.147 490.076 282.115 490.474 282.913C490.881 283.711 491.446 284.32 492.17 284.741C492.894 285.155 493.739 285.361 494.707 285.361C495.335 285.361 495.907 285.273 496.424 285.095C496.941 284.911 497.388 284.638 497.765 284.276C498.142 283.914 498.43 283.467 498.629 282.935L501.765 283.5C501.513 284.423 501.063 285.232 500.413 285.926C499.77 286.613 498.961 287.149 497.986 287.533C497.019 287.91 495.915 288.098 494.674 288.098Z" fill="white"/>
<path d="M519.722 270.736L513.55 287.755H510.005L503.823 270.736H507.379L511.689 283.832H511.866L516.165 270.736H519.722Z" fill="white"/>
<path d="M529.591 288.098C527.914 288.098 526.47 287.74 525.259 287.023C524.055 286.299 523.124 285.284 522.467 283.976C521.817 282.662 521.492 281.122 521.492 279.356C521.492 277.613 521.817 276.077 522.467 274.747C523.124 273.418 524.04 272.38 525.214 271.634C526.396 270.888 527.777 270.515 529.358 270.515C530.318 270.515 531.249 270.674 532.15 270.991C533.051 271.309 533.86 271.807 534.577 272.487C535.293 273.166 535.858 274.049 536.272 275.135C536.685 276.213 536.892 277.524 536.892 279.068V280.243H523.364V277.761H533.646C533.646 276.889 533.469 276.117 533.114 275.445C532.76 274.766 532.261 274.23 531.618 273.839C530.983 273.447 530.237 273.251 529.38 273.251C528.45 273.251 527.637 273.48 526.943 273.938C526.256 274.389 525.724 274.98 525.347 275.711C524.978 276.435 524.793 277.222 524.793 278.071V280.01C524.793 281.147 524.993 282.115 525.392 282.913C525.798 283.711 526.363 284.32 527.087 284.741C527.811 285.155 528.656 285.361 529.624 285.361C530.252 285.361 530.824 285.273 531.341 285.095C531.858 284.911 532.305 284.638 532.682 284.276C533.059 283.914 533.347 283.467 533.546 282.935L536.682 283.5C536.431 284.423 535.98 285.232 535.33 285.926C534.687 286.613 533.879 287.149 532.904 287.533C531.936 287.91 530.832 288.098 529.591 288.098Z" fill="white"/>
<path d="M543.881 265.064V287.755H540.568V265.064H543.881Z" fill="white"/>
<path d="M555.506 288.098C553.91 288.098 552.518 287.732 551.329 287.001C550.14 286.27 549.216 285.247 548.559 283.932C547.902 282.617 547.573 281.081 547.573 279.323C547.573 277.558 547.902 276.014 548.559 274.692C549.216 273.37 550.14 272.343 551.329 271.612C552.518 270.88 553.91 270.515 555.506 270.515C557.101 270.515 558.494 270.88 559.683 271.612C560.872 272.343 561.795 273.37 562.453 274.692C563.11 276.014 563.439 277.558 563.439 279.323C563.439 281.081 563.11 282.617 562.453 283.932C561.795 285.247 560.872 286.27 559.683 287.001C558.494 287.732 557.101 288.098 555.506 288.098ZM555.517 285.317C556.551 285.317 557.408 285.044 558.087 284.497C558.767 283.951 559.269 283.223 559.594 282.314C559.927 281.406 560.093 280.405 560.093 279.312C560.093 278.226 559.927 277.229 559.594 276.32C559.269 275.405 558.767 274.67 558.087 274.116C557.408 273.562 556.551 273.285 555.517 273.285C554.475 273.285 553.611 273.562 552.924 274.116C552.245 274.67 551.739 275.405 551.406 276.32C551.081 277.229 550.919 278.226 550.919 279.312C550.919 280.405 551.081 281.406 551.406 282.314C551.739 283.223 552.245 283.951 552.924 284.497C553.611 285.044 554.475 285.317 555.517 285.317Z" fill="white"/>
<path d="M567.137 294.136V270.736H570.372V273.495H570.649C570.841 273.141 571.118 272.731 571.48 272.265C571.842 271.8 572.344 271.394 572.987 271.047C573.629 270.692 574.479 270.515 575.535 270.515C576.909 270.515 578.135 270.862 579.213 271.556C580.292 272.251 581.137 273.251 581.75 274.559C582.371 275.866 582.681 277.439 582.681 279.279C582.681 281.118 582.375 282.695 581.762 284.01C581.148 285.317 580.307 286.325 579.235 287.034C578.164 287.736 576.942 288.087 575.568 288.087C574.534 288.087 573.688 287.913 573.031 287.566C572.381 287.219 571.871 286.813 571.502 286.347C571.133 285.882 570.848 285.468 570.649 285.107H570.449V294.136H567.137ZM570.383 279.245C570.383 280.442 570.556 281.491 570.904 282.392C571.251 283.293 571.753 283.999 572.41 284.508C573.068 285.011 573.873 285.262 574.826 285.262C575.816 285.262 576.643 284.999 577.308 284.475C577.972 283.943 578.475 283.223 578.814 282.314C579.162 281.406 579.335 280.383 579.335 279.245C579.335 278.123 579.165 277.114 578.826 276.221C578.493 275.327 577.991 274.622 577.319 274.105C576.654 273.588 575.823 273.329 574.826 273.329C573.866 273.329 573.053 273.576 572.388 274.071C571.731 274.566 571.232 275.257 570.893 276.143C570.553 277.03 570.383 278.064 570.383 279.245Z" fill="white"/>
<path d="M586.393 287.755V270.736H589.573V273.506H589.783C590.138 272.568 590.718 271.837 591.523 271.313C592.328 270.781 593.292 270.515 594.414 270.515C595.552 270.515 596.505 270.781 597.273 271.313C598.049 271.844 598.621 272.576 598.99 273.506H599.168C599.574 272.598 600.22 271.874 601.107 271.335C601.993 270.788 603.049 270.515 604.275 270.515C605.819 270.515 607.078 270.999 608.053 271.966C609.036 272.934 609.527 274.393 609.527 276.343V287.755H606.214V276.653C606.214 275.501 605.9 274.666 605.272 274.149C604.645 273.632 603.895 273.373 603.023 273.373C601.945 273.373 601.107 273.706 600.508 274.37C599.91 275.028 599.611 275.874 599.611 276.908V287.755H596.309V276.442C596.309 275.519 596.021 274.777 595.445 274.215C594.869 273.654 594.119 273.373 593.196 273.373C592.568 273.373 591.988 273.539 591.456 273.872C590.932 274.197 590.507 274.651 590.182 275.235C589.864 275.818 589.706 276.494 589.706 277.262V287.755H586.393Z" fill="white"/>
<path d="M621.302 288.098C619.625 288.098 618.181 287.74 616.97 287.023C615.766 286.299 614.835 285.284 614.178 283.976C613.528 282.662 613.203 281.122 613.203 279.356C613.203 277.613 613.528 276.077 614.178 274.747C614.835 273.418 615.751 272.38 616.925 271.634C618.107 270.888 619.488 270.515 621.069 270.515C622.029 270.515 622.96 270.674 623.861 270.991C624.762 271.309 625.571 271.807 626.288 272.487C627.004 273.166 627.569 274.049 627.983 275.135C628.396 276.213 628.603 277.524 628.603 279.068V280.243H615.075V277.761H625.357C625.357 276.889 625.18 276.117 624.825 275.445C624.471 274.766 623.972 274.23 623.329 273.839C622.694 273.447 621.948 273.251 621.091 273.251C620.161 273.251 619.348 273.48 618.654 273.938C617.967 274.389 617.435 274.98 617.058 275.711C616.689 276.435 616.504 277.222 616.504 278.071V280.01C616.504 281.147 616.704 282.115 617.103 282.913C617.509 283.711 618.074 284.32 618.798 284.741C619.522 285.155 620.367 285.361 621.335 285.361C621.963 285.361 622.535 285.273 623.052 285.095C623.569 284.911 624.016 284.638 624.393 284.276C624.77 283.914 625.058 283.467 625.257 282.935L628.393 283.5C628.142 284.423 627.691 285.232 627.041 285.926C626.398 286.613 625.59 287.149 624.615 287.533C623.647 287.91 622.543 288.098 621.302 288.098Z" fill="white"/>
<path d="M635.592 277.65V287.755H632.279V270.736H635.459V273.506H635.669C636.061 272.605 636.674 271.881 637.508 271.335C638.35 270.788 639.41 270.515 640.688 270.515C641.848 270.515 642.863 270.759 643.735 271.246C644.607 271.726 645.283 272.443 645.763 273.395C646.243 274.348 646.483 275.526 646.483 276.93V287.755H643.17V277.329C643.17 276.095 642.849 275.131 642.206 274.437C641.563 273.735 640.681 273.384 639.558 273.384C638.79 273.384 638.107 273.551 637.508 273.883C636.917 274.215 636.448 274.703 636.101 275.345C635.761 275.981 635.592 276.749 635.592 277.65Z" fill="white"/>
<path d="M658.87 270.736V273.395H649.574V270.736H658.87ZM652.067 266.659H655.38V282.758C655.38 283.4 655.476 283.884 655.668 284.209C655.86 284.527 656.107 284.745 656.41 284.863C656.72 284.974 657.056 285.029 657.418 285.029C657.684 285.029 657.917 285.011 658.116 284.974C658.316 284.937 658.471 284.907 658.582 284.885L659.18 287.622C658.988 287.695 658.715 287.769 658.36 287.843C658.006 287.924 657.562 287.969 657.031 287.976C656.159 287.991 655.346 287.836 654.593 287.511C653.84 287.186 653.23 286.684 652.765 286.004C652.3 285.324 652.067 284.471 652.067 283.445V266.659Z" fill="white"/>
<path d="M455.08 175.063V221.099H432.062V175.063C432.062 170.817 430.553 167.211 427.535 164.244C424.568 161.226 420.962 159.717 416.716 159.717C412.471 159.717 408.839 161.226 405.821 164.244C402.854 167.211 401.371 170.817 401.371 175.063V221.099H378.353V175.063C378.353 170.817 376.844 167.211 373.826 164.244C370.859 161.226 367.253 159.717 363.007 159.717C358.762 159.717 355.13 161.226 352.112 164.244C349.145 167.211 347.662 170.817 347.662 175.063V221.099H324.644V175.063C324.644 164.475 328.378 155.446 335.846 147.978C343.365 140.459 352.419 136.699 363.007 136.699C373.493 136.699 382.445 140.357 389.862 147.671C397.279 140.357 406.23 136.699 416.716 136.699C427.305 136.699 436.333 140.459 443.801 147.978C451.321 155.446 455.08 164.475 455.08 175.063Z" fill="white"/>
<path d="M486.098 221.091H463.08V136.691H486.098V221.091ZM474.589 129.018C471.418 129.018 468.707 127.893 466.456 125.642C464.206 123.392 463.08 120.681 463.08 117.509C463.08 114.338 464.206 111.627 466.456 109.376C468.707 107.125 471.418 106 474.589 106C477.761 106 480.472 107.125 482.722 109.376C484.973 111.627 486.098 114.338 486.098 117.509C486.098 120.681 484.973 123.392 482.722 125.642C480.472 127.893 477.761 129.018 474.589 129.018Z" fill="white"/>
<path d="M570.826 175.063V221.099H547.808V175.063C547.808 170.817 546.299 167.211 543.281 164.244C540.314 161.226 536.708 159.717 532.462 159.717C528.217 159.717 524.585 161.226 521.567 164.244C518.6 167.211 517.117 170.817 517.117 175.063V221.099H494.098V175.063C494.098 164.475 497.833 155.446 505.301 147.978C512.82 140.459 521.874 136.699 532.462 136.699C543.05 136.699 552.079 140.459 559.547 147.978C567.066 155.446 570.826 164.475 570.826 175.063Z" fill="white"/>
<path d="M663.226 178.891C663.226 190.553 659.108 200.502 650.872 208.738C642.637 216.973 632.688 221.091 621.026 221.091C609.363 221.091 599.414 216.973 591.179 208.738C582.943 200.502 578.826 190.553 578.826 178.891C578.826 167.228 582.943 157.279 591.179 149.044C599.414 140.809 609.363 136.691 621.026 136.691H640.207V159.709H621.026C615.706 159.709 611.179 161.576 607.445 165.31C603.711 169.044 601.844 173.571 601.844 178.891C601.844 184.211 603.711 188.738 607.445 192.472C611.179 196.206 615.706 198.073 621.026 198.073C626.345 198.073 630.872 196.206 634.606 192.472C638.34 188.738 640.207 184.211 640.207 178.891V106H663.226V178.891Z" fill="white"/>
<path d="M77.2783 178.899C77.2783 167.237 81.396 157.288 89.6314 149.052C97.8668 140.817 107.816 136.699 119.479 136.699C131.141 136.699 141.09 140.817 149.325 149.052C157.561 157.288 161.679 167.237 161.679 178.899C161.679 190.562 157.561 200.511 149.325 208.746C141.09 216.981 131.141 221.099 119.479 221.099H100.297V198.081H119.479C124.798 198.081 129.325 196.214 133.059 192.48C136.793 188.746 138.66 184.219 138.66 178.899C138.66 173.579 136.793 169.053 133.059 165.318C129.325 161.584 124.798 159.717 119.479 159.717C114.159 159.717 109.632 161.584 105.898 165.318C102.164 169.053 100.297 173.579 100.297 178.899V244.117H77.2783V178.899Z" fill="#FF7F32"/>
<path d="M211.879 198.081C217.198 198.081 221.725 196.214 225.459 192.48C229.193 188.746 231.06 184.219 231.06 178.899C231.06 173.579 229.193 169.053 225.459 165.318C221.725 161.584 217.198 159.717 211.879 159.717C206.559 159.717 202.032 161.584 198.298 165.318C194.564 169.053 192.697 173.579 192.697 178.899C192.697 184.219 194.564 188.746 198.298 192.48C202.032 196.214 206.559 198.081 211.879 198.081ZM211.879 221.099C200.216 221.099 190.267 216.981 182.032 208.746C173.796 200.511 169.679 190.562 169.679 178.899C169.679 167.237 173.796 157.288 182.032 149.052C190.267 140.817 200.216 136.699 211.879 136.699C223.541 136.699 233.49 140.817 241.725 149.052C249.961 157.288 254.079 167.237 254.079 178.899C254.079 190.562 249.961 200.511 241.725 208.746C233.49 216.981 223.541 221.099 211.879 221.099Z" fill="#FF7F32"/>
<path d="M285.098 136.717H304.74V159.736H285.098V182.754C285.098 186.999 286.581 190.631 289.548 193.649C292.566 196.616 296.197 198.099 300.443 198.099H316.092L316.095 221.117H300.443C289.855 221.117 280.801 217.383 273.282 209.915C265.813 202.396 262.079 193.342 262.079 182.754V113.699H285.098V136.717Z" fill="#FF7F32"/>
<path d="M27.0781 136.699H61.6036L61.6054 159.717H27.0781C26.004 159.717 25.0832 160.101 24.316 160.868C23.5998 161.584 23.2418 162.48 23.2418 163.554C23.2418 164.628 23.5998 165.549 24.316 166.316C25.0832 167.032 26.004 167.39 27.0781 167.39H42.4236C49.8405 167.39 56.1578 170.024 61.3752 175.293C66.6438 180.511 69.2781 186.828 69.2781 194.245C69.2781 201.662 66.6438 208.004 61.3752 213.273C56.1578 218.49 49.8405 221.099 42.4236 221.099H4.22363V198.081H42.4236C43.4978 198.081 44.3929 197.723 45.109 197.007C45.8763 196.24 46.2599 195.319 46.2599 194.245C46.2599 193.171 45.8763 192.275 45.109 191.559C44.3929 190.792 43.4978 190.408 42.4236 190.408H27.0781C19.6612 190.408 13.3184 187.8 8.04981 182.582C2.83236 177.314 0.223633 170.971 0.223633 163.554C0.223633 156.137 2.83236 149.82 8.04981 144.602C13.3184 139.334 19.6612 136.699 27.0781 136.699Z" fill="#FF7F32"/>
<path fill-rule="evenodd" clip-rule="evenodd" d="M356.504 28.72L363.224 43L369.944 28.72L384.224 22L369.944 15.28L363.224 1L356.504 15.28L342.224 22L356.504 28.72ZM285.618 54.1458C281.396 43.9545 279.224 33.0314 279.224 22.0004L321.223 22.0004C321.223 27.5159 322.309 32.9774 324.42 38.0731C326.531 43.1688 329.624 47.7988 333.524 51.6989C337.424 55.599 342.054 58.6927 347.15 60.8034C352.246 62.9141 357.707 64.0004 363.223 64.0004L363.223 106C352.192 106 341.269 103.828 331.078 99.6063C320.886 95.3849 311.626 89.1975 303.826 81.3974C296.026 73.5973 289.839 64.3372 285.618 54.1458Z" fill="#FF7F32"/>
</svg>
