<svg width="664" height="295" viewBox="0 0 664 295" fill="none" xmlns="http://www.w3.org/2000/svg">
<path d="M455.237 200.063V246.099H432.219V200.063C432.219 195.817 430.71 192.211 427.692 189.244C424.725 186.226 421.119 184.717 416.873 184.717C412.628 184.717 408.996 186.226 405.978 189.244C403.011 192.211 401.528 195.817 401.528 200.063V246.099H378.51V200.063C378.51 195.817 377.001 192.211 373.983 189.244C371.016 186.226 367.41 184.717 363.164 184.717C358.919 184.717 355.287 186.226 352.269 189.244C349.302 192.211 347.819 195.817 347.819 200.063V246.099H324.801V200.063C324.801 189.475 328.535 180.446 336.003 172.978C343.522 165.459 352.576 161.699 363.164 161.699C373.65 161.699 382.602 165.357 390.019 172.671C397.436 165.357 406.387 161.699 416.873 161.699C427.462 161.699 436.49 165.459 443.958 172.978C451.478 180.446 455.237 189.475 455.237 200.063Z" fill="white"/>
<path d="M486.255 246.091H463.237V161.691H486.255V246.091ZM474.746 154.018C471.575 154.018 468.864 152.893 466.613 150.642C464.363 148.392 463.237 145.681 463.237 142.509C463.237 139.338 464.363 136.627 466.613 134.376C468.864 132.125 471.575 131 474.746 131C477.918 131 480.629 132.125 482.879 134.376C485.13 136.627 486.255 139.338 486.255 142.509C486.255 145.681 485.13 148.392 482.879 150.642C480.629 152.893 477.918 154.018 474.746 154.018Z" fill="white"/>
<path d="M570.983 200.063V246.099H547.965V200.063C547.965 195.817 546.456 192.211 543.438 189.244C540.471 186.226 536.865 184.717 532.619 184.717C528.374 184.717 524.742 186.226 521.724 189.244C518.757 192.211 517.274 195.817 517.274 200.063V246.099H494.255V200.063C494.255 189.475 497.99 180.446 505.458 172.978C512.977 165.459 522.031 161.699 532.619 161.699C543.207 161.699 552.236 165.459 559.704 172.978C567.223 180.446 570.983 189.475 570.983 200.063Z" fill="white"/>
<path d="M663.383 203.891C663.383 215.553 659.265 225.502 651.029 233.738C642.794 241.973 632.845 246.091 621.183 246.091C609.52 246.091 599.571 241.973 591.336 233.738C583.1 225.502 578.983 215.553 578.983 203.891C578.983 192.228 583.1 182.279 591.336 174.044C599.571 165.809 609.52 161.691 621.183 161.691H640.364V184.709H621.183C615.863 184.709 611.336 186.576 607.602 190.31C603.868 194.044 602.001 198.571 602.001 203.891C602.001 209.211 603.868 213.738 607.602 217.472C611.336 221.206 615.863 223.073 621.183 223.073C626.502 223.073 631.029 221.206 634.763 217.472C638.497 213.738 640.364 209.211 640.364 203.891V131H663.383V203.891Z" fill="white"/>
<path d="M77.4355 203.899C77.4355 192.237 81.5532 182.288 89.7886 174.052C98.024 165.817 107.973 161.699 119.636 161.699C131.298 161.699 141.247 165.817 149.482 174.052C157.718 182.288 161.836 192.237 161.836 203.899C161.836 215.562 157.718 225.511 149.482 233.746C141.247 241.981 131.298 246.099 119.636 246.099H100.454V223.081H119.636C124.955 223.081 129.482 221.214 133.216 217.48C136.95 213.746 138.817 209.219 138.817 203.899C138.817 198.579 136.95 194.053 133.216 190.318C129.482 186.584 124.955 184.717 119.636 184.717C114.316 184.717 109.789 186.584 106.055 190.318C102.321 194.053 100.454 198.579 100.454 203.899V269.117H77.4355V203.899Z" fill="#FF7F32"/>
<path d="M212.036 223.081C217.355 223.081 221.882 221.214 225.616 217.48C229.35 213.746 231.217 209.219 231.217 203.899C231.217 198.579 229.35 194.053 225.616 190.318C221.882 186.584 217.355 184.717 212.036 184.717C206.716 184.717 202.189 186.584 198.455 190.318C194.721 194.053 192.854 198.579 192.854 203.899C192.854 209.219 194.721 213.746 198.455 217.48C202.189 221.214 206.716 223.081 212.036 223.081ZM212.036 246.099C200.373 246.099 190.424 241.981 182.189 233.746C173.953 225.511 169.836 215.562 169.836 203.899C169.836 192.237 173.953 182.288 182.189 174.052C190.424 165.817 200.373 161.699 212.036 161.699C223.698 161.699 233.647 165.817 241.882 174.052C250.118 182.288 254.236 192.237 254.236 203.899C254.236 215.562 250.118 225.511 241.882 233.746C233.647 241.981 223.698 246.099 212.036 246.099Z" fill="#FF7F32"/>
<path d="M285.255 161.717H304.897V184.736H285.255V207.754C285.255 211.999 286.738 215.631 289.705 218.649C292.723 221.616 296.354 223.099 300.6 223.099H316.249L316.252 246.117H300.6C290.012 246.117 280.958 242.383 273.439 234.915C265.97 227.396 262.236 218.342 262.236 207.754V138.699H285.255V161.717Z" fill="#FF7F32"/>
<path d="M27.2354 161.699H61.7609L61.7627 184.717H27.2354C26.1613 184.717 25.2405 185.101 24.4733 185.868C23.7571 186.584 23.3991 187.48 23.3991 188.554C23.3991 189.628 23.7571 190.549 24.4733 191.316C25.2405 192.032 26.1613 192.39 27.2354 192.39H42.5809C49.9978 192.39 56.3151 195.024 61.5325 200.293C66.8011 205.511 69.4354 211.828 69.4354 219.245C69.4354 226.662 66.8011 233.004 61.5325 238.273C56.3151 243.49 49.9978 246.099 42.5809 246.099H4.38086V223.081H42.5809C43.6551 223.081 44.5502 222.723 45.2663 222.007C46.0336 221.24 46.4172 220.319 46.4172 219.245C46.4172 218.171 46.0336 217.275 45.2663 216.559C44.5502 215.792 43.6551 215.408 42.5809 215.408H27.2354C19.8185 215.408 13.4757 212.8 8.20704 207.582C2.98959 202.314 0.380859 195.971 0.380859 188.554C0.380859 181.137 2.98959 174.82 8.20704 169.602C13.4757 164.334 19.8185 161.699 27.2354 161.699Z" fill="#FF7F32"/>
<path fill-rule="evenodd" clip-rule="evenodd" d="M356.661 53.72L363.381 68L370.101 53.72L384.381 47L370.101 40.28L363.381 26L356.661 40.28L342.382 47L356.661 53.72ZM285.775 79.1458C281.554 68.9545 279.381 58.0314 279.381 47.0004L321.38 47.0004C321.38 52.5159 322.467 57.9774 324.577 63.0731C326.688 68.1688 329.782 72.7988 333.682 76.6989C337.582 80.599 342.212 83.6927 347.307 85.8034C352.403 87.9141 357.864 89.0004 363.38 89.0004L363.38 131C352.349 131 341.426 128.828 331.235 124.606C321.044 120.385 311.784 114.198 303.984 106.397C296.184 98.5973 289.996 89.3372 285.775 79.1458Z" fill="#FF7F32"/>
</svg>
