<svg width="664" height="296" viewBox="0 0 664 296" fill="none" xmlns="http://www.w3.org/2000/svg">
<path d="M13.2852 287.755H5.93945V265.064H13.5179C15.7412 265.064 17.6505 265.518 19.246 266.426C20.8414 267.328 22.0639 268.624 22.9133 270.315C23.7701 271.999 24.1985 274.02 24.1985 276.376C24.1985 278.739 23.7664 280.771 22.9022 282.47C22.0454 284.168 20.8045 285.476 19.1795 286.392C17.5545 287.3 15.5897 287.755 13.2852 287.755ZM9.36303 284.763H13.0968C14.8252 284.763 16.2619 284.438 17.4068 283.788C18.5517 283.131 19.4085 282.182 19.9772 280.941C20.546 279.692 20.8304 278.171 20.8304 276.376C20.8304 274.596 20.546 273.085 19.9772 271.844C19.4159 270.603 18.5775 269.662 17.4622 269.019C16.3468 268.376 14.9619 268.055 13.3074 268.055H9.36303V284.763Z" fill="#D5D8DD"/>
<path d="M28.19 287.755V270.736H31.5027V287.755H28.19ZM29.863 268.111C29.2868 268.111 28.7919 267.918 28.3783 267.534C27.9721 267.143 27.7689 266.678 27.7689 266.138C27.7689 265.592 27.9721 265.126 28.3783 264.742C28.7919 264.351 29.2868 264.155 29.863 264.155C30.4391 264.155 30.9303 264.351 31.3365 264.742C31.7502 265.126 31.957 265.592 31.957 266.138C31.957 266.678 31.7502 267.143 31.3365 267.534C30.9303 267.918 30.4391 268.111 29.863 268.111Z" fill="#D5D8DD"/>
<path d="M43.0947 294.491C41.743 294.491 40.5797 294.314 39.6047 293.959C38.637 293.605 37.8467 293.136 37.2336 292.552C36.6206 291.968 36.1626 291.33 35.8598 290.635L38.7072 289.461C38.9066 289.786 39.1726 290.129 39.5049 290.491C39.8447 290.861 40.3027 291.174 40.8788 291.433C41.4623 291.691 42.212 291.821 43.1279 291.821C44.3836 291.821 45.4214 291.514 46.2413 290.901C47.0612 290.295 47.4711 289.328 47.4711 287.998V284.652H47.2606C47.0612 285.014 46.7731 285.417 46.3964 285.86C46.0271 286.303 45.5174 286.687 44.8674 287.012C44.2174 287.337 43.3717 287.5 42.3302 287.5C40.9859 287.5 39.7745 287.186 38.6961 286.558C37.6251 285.923 36.7757 284.988 36.1478 283.755C35.5274 282.514 35.2172 280.989 35.2172 279.179C35.2172 277.369 35.5237 275.818 36.1368 274.526C36.7572 273.233 37.6066 272.243 38.6851 271.556C39.7635 270.862 40.9859 270.515 42.3524 270.515C43.4086 270.515 44.2618 270.692 44.9118 271.047C45.5618 271.394 46.0677 271.8 46.4297 272.265C46.799 272.731 47.0833 273.141 47.2828 273.495H47.5265V270.736H50.7728V288.131C50.7728 289.594 50.4331 290.794 49.7535 291.732C49.074 292.67 48.1544 293.364 46.9947 293.815C45.8424 294.266 44.5424 294.491 43.0947 294.491ZM43.0615 284.752C44.0143 284.752 44.8194 284.53 45.4768 284.087C46.1416 283.637 46.6439 282.994 46.9836 282.159C47.3308 281.317 47.5044 280.309 47.5044 279.135C47.5044 277.99 47.3345 276.982 46.9947 276.11C46.6549 275.238 46.1564 274.559 45.499 274.071C44.8416 273.576 44.0291 273.329 43.0615 273.329C42.0643 273.329 41.2333 273.588 40.5686 274.105C39.9038 274.614 39.4015 275.309 39.0618 276.188C38.7294 277.066 38.5632 278.049 38.5632 279.135C38.5632 280.25 38.7331 281.229 39.0728 282.071C39.4126 282.913 39.9149 283.57 40.5797 284.043C41.2518 284.516 42.0791 284.752 43.0615 284.752Z" fill="#D5D8DD"/>
<path d="M55.2157 287.755V270.736H58.5285V287.755H55.2157ZM56.8887 268.111C56.3126 268.111 55.8177 267.918 55.4041 267.534C54.9978 267.143 54.7947 266.678 54.7947 266.138C54.7947 265.592 54.9978 265.126 55.4041 264.742C55.8177 264.351 56.3126 264.155 56.8887 264.155C57.4649 264.155 57.9561 264.351 58.3623 264.742C58.776 265.126 58.9828 265.592 58.9828 266.138C58.9828 266.678 58.776 267.143 58.3623 267.534C57.9561 267.918 57.4649 268.111 56.8887 268.111Z" fill="#D5D8DD"/>
<path d="M70.9293 270.736V273.395H61.6336V270.736H70.9293ZM64.1265 266.659H67.4392V282.758C67.4392 283.4 67.5353 283.884 67.7273 284.209C67.9194 284.527 68.1668 284.745 68.4696 284.863C68.7799 284.974 69.116 285.029 69.4779 285.029C69.7438 285.029 69.9765 285.011 70.1759 284.974C70.3753 284.937 70.5304 284.907 70.6412 284.885L71.2395 287.622C71.0475 287.695 70.7742 287.769 70.4196 287.843C70.0651 287.924 69.6219 287.969 69.0901 287.976C68.2185 287.991 67.406 287.836 66.6526 287.511C65.8992 287.186 65.2898 286.684 64.8245 286.004C64.3591 285.324 64.1265 284.471 64.1265 283.445V266.659Z" fill="#D5D8DD"/>
<path d="M79.5464 288.131C78.468 288.131 77.493 287.932 76.6214 287.533C75.7498 287.127 75.0592 286.539 74.5495 285.771C74.0473 285.003 73.7961 284.061 73.7961 282.946C73.7961 281.986 73.9808 281.195 74.3501 280.575C74.7194 279.955 75.218 279.463 75.8458 279.101C76.4737 278.739 77.1754 278.466 77.951 278.282C78.7265 278.097 79.5169 277.957 80.322 277.861C81.3413 277.742 82.1686 277.646 82.8038 277.572C83.439 277.491 83.9007 277.362 84.1887 277.185C84.4768 277.007 84.6208 276.719 84.6208 276.32V276.243C84.6208 275.275 84.3475 274.526 83.801 273.994C83.2617 273.462 82.4566 273.196 81.3856 273.196C80.2703 273.196 79.3913 273.443 78.7487 273.938C78.1135 274.426 77.674 274.969 77.4302 275.567L74.3169 274.858C74.6862 273.824 75.2254 272.989 75.9345 272.354C76.651 271.711 77.4745 271.246 78.4052 270.958C79.3359 270.663 80.3146 270.515 81.3413 270.515C82.0208 270.515 82.741 270.596 83.5018 270.759C84.27 270.914 84.9865 271.202 85.6512 271.623C86.3234 272.044 86.8737 272.646 87.3021 273.429C87.7305 274.204 87.9447 275.213 87.9447 276.453V287.755H84.7095V285.428H84.5765C84.3623 285.856 84.041 286.277 83.6126 286.691C83.1842 287.105 82.6339 287.448 81.9618 287.721C81.2896 287.995 80.4845 288.131 79.5464 288.131ZM80.2666 285.472C81.1825 285.472 81.9654 285.291 82.6154 284.929C83.2728 284.567 83.7714 284.095 84.1112 283.511C84.4583 282.92 84.6319 282.289 84.6319 281.616V279.423C84.5137 279.541 84.2848 279.652 83.945 279.755C83.6126 279.851 83.2322 279.936 82.8038 280.01C82.3754 280.076 81.9581 280.139 81.5518 280.198C81.1456 280.25 80.8058 280.294 80.5325 280.331C79.8899 280.413 79.3027 280.549 78.7708 280.741C78.2464 280.933 77.8254 281.21 77.5078 281.572C77.1975 281.927 77.0424 282.399 77.0424 282.99C77.0424 283.81 77.3453 284.431 77.951 284.852C78.5566 285.265 79.3285 285.472 80.2666 285.472Z" fill="#D5D8DD"/>
<path d="M95.6699 265.064V287.755H92.3571V265.064H95.6699Z" fill="#D5D8DD"/>
<path d="M107.531 268.011V265.064H125.092V268.011H118.012V287.755H114.599V268.011H107.531Z" fill="#D5D8DD"/>
<path d="M133.573 288.098C131.896 288.098 130.452 287.74 129.241 287.023C128.037 286.299 127.106 285.284 126.449 283.976C125.799 282.662 125.474 281.122 125.474 279.356C125.474 277.613 125.799 276.077 126.449 274.747C127.106 273.418 128.022 272.38 129.197 271.634C130.378 270.888 131.76 270.515 133.34 270.515C134.301 270.515 135.231 270.674 136.132 270.991C137.034 271.309 137.842 271.807 138.559 272.487C139.275 273.166 139.84 274.049 140.254 275.135C140.668 276.213 140.874 277.524 140.874 279.068V280.243H127.346V277.761H137.628C137.628 276.889 137.451 276.117 137.096 275.445C136.742 274.766 136.243 274.23 135.601 273.839C134.965 273.447 134.219 273.251 133.363 273.251C132.432 273.251 131.619 273.48 130.925 273.938C130.238 274.389 129.706 274.98 129.33 275.711C128.96 276.435 128.776 277.222 128.776 278.071V280.01C128.776 281.147 128.975 282.115 129.374 282.913C129.78 283.711 130.345 284.32 131.069 284.741C131.793 285.155 132.639 285.361 133.606 285.361C134.234 285.361 134.807 285.273 135.324 285.095C135.841 284.911 136.288 284.638 136.664 284.276C137.041 283.914 137.329 283.467 137.528 282.935L140.664 283.5C140.413 284.423 139.962 285.232 139.312 285.926C138.67 286.613 137.861 287.149 136.886 287.533C135.918 287.91 134.814 288.098 133.573 288.098Z" fill="#D5D8DD"/>
<path d="M151.719 288.098C150.071 288.098 148.653 287.725 147.464 286.979C146.282 286.226 145.374 285.188 144.738 283.866C144.103 282.543 143.786 281.029 143.786 279.323C143.786 277.595 144.111 276.069 144.761 274.747C145.411 273.418 146.327 272.38 147.508 271.634C148.69 270.888 150.082 270.515 151.685 270.515C152.978 270.515 154.13 270.755 155.142 271.235C156.154 271.708 156.97 272.372 157.591 273.229C158.219 274.086 158.592 275.087 158.71 276.232H155.486C155.308 275.434 154.902 274.747 154.267 274.171C153.639 273.595 152.797 273.307 151.741 273.307C150.817 273.307 150.009 273.551 149.314 274.038C148.627 274.518 148.092 275.205 147.708 276.099C147.324 276.985 147.132 278.034 147.132 279.245C147.132 280.486 147.32 281.557 147.697 282.459C148.073 283.36 148.605 284.058 149.292 284.553C149.986 285.047 150.803 285.295 151.741 285.295C152.369 285.295 152.937 285.18 153.447 284.951C153.964 284.715 154.396 284.379 154.743 283.943C155.098 283.507 155.345 282.983 155.486 282.37H158.71C158.592 283.47 158.233 284.453 157.635 285.317C157.037 286.181 156.235 286.861 155.231 287.356C154.234 287.851 153.063 288.098 151.719 288.098Z" fill="#D5D8DD"/>
<path d="M165.565 277.65V287.755H162.252V265.064H165.521V273.506H165.731C166.13 272.59 166.74 271.863 167.56 271.324C168.379 270.784 169.45 270.515 170.773 270.515C171.94 270.515 172.959 270.755 173.831 271.235C174.71 271.715 175.389 272.432 175.869 273.384C176.357 274.33 176.6 275.512 176.6 276.93V287.755H173.288V277.329C173.288 276.08 172.966 275.113 172.324 274.426C171.681 273.732 170.787 273.384 169.643 273.384C168.86 273.384 168.158 273.551 167.537 273.883C166.924 274.215 166.441 274.703 166.086 275.345C165.739 275.981 165.565 276.749 165.565 277.65Z" fill="#D5D8DD"/>
<path d="M184.334 277.65V287.755H181.021V270.736H184.201V273.506H184.412C184.803 272.605 185.416 271.881 186.251 271.335C187.093 270.788 188.153 270.515 189.431 270.515C190.59 270.515 191.606 270.759 192.477 271.246C193.349 271.726 194.025 272.443 194.505 273.395C194.985 274.348 195.225 275.526 195.225 276.93V287.755H191.912V277.329C191.912 276.095 191.591 275.131 190.948 274.437C190.306 273.735 189.423 273.384 188.3 273.384C187.532 273.384 186.849 273.551 186.251 273.883C185.66 274.215 185.191 274.703 184.844 275.345C184.504 275.981 184.334 276.749 184.334 277.65Z" fill="#D5D8DD"/>
<path d="M206.837 288.098C205.241 288.098 203.849 287.732 202.66 287.001C201.47 286.27 200.547 285.247 199.89 283.932C199.232 282.617 198.904 281.081 198.904 279.323C198.904 277.558 199.232 276.014 199.89 274.692C200.547 273.37 201.47 272.343 202.66 271.612C203.849 270.88 205.241 270.515 206.837 270.515C208.432 270.515 209.824 270.88 211.014 271.612C212.203 272.343 213.126 273.37 213.783 274.692C214.441 276.014 214.77 277.558 214.77 279.323C214.77 281.081 214.441 282.617 213.783 283.932C213.126 285.247 212.203 286.27 211.014 287.001C209.824 287.732 208.432 288.098 206.837 288.098ZM206.848 285.317C207.882 285.317 208.739 285.044 209.418 284.497C210.098 283.951 210.6 283.223 210.925 282.314C211.257 281.406 211.423 280.405 211.423 279.312C211.423 278.226 211.257 277.229 210.925 276.32C210.6 275.405 210.098 274.67 209.418 274.116C208.739 273.562 207.882 273.285 206.848 273.285C205.806 273.285 204.942 273.562 204.255 274.116C203.575 274.67 203.069 275.405 202.737 276.32C202.412 277.229 202.25 278.226 202.25 279.312C202.25 280.405 202.412 281.406 202.737 282.314C203.069 283.223 203.575 283.951 204.255 284.497C204.942 285.044 205.806 285.317 206.848 285.317Z" fill="#D5D8DD"/>
<path d="M221.78 265.064V287.755H218.467V265.064H221.78Z" fill="#D5D8DD"/>
<path d="M233.405 288.098C231.81 288.098 230.418 287.732 229.228 287.001C228.039 286.27 227.116 285.247 226.458 283.932C225.801 282.617 225.472 281.081 225.472 279.323C225.472 277.558 225.801 276.014 226.458 274.692C227.116 273.37 228.039 272.343 229.228 271.612C230.418 270.88 231.81 270.515 233.405 270.515C235.001 270.515 236.393 270.88 237.582 271.612C238.771 272.343 239.695 273.37 240.352 274.692C241.01 276.014 241.338 277.558 241.338 279.323C241.338 281.081 241.01 282.617 240.352 283.932C239.695 285.247 238.771 286.27 237.582 287.001C236.393 287.732 235.001 288.098 233.405 288.098ZM233.416 285.317C234.45 285.317 235.307 285.044 235.987 284.497C236.666 283.951 237.169 283.223 237.494 282.314C237.826 281.406 237.992 280.405 237.992 279.312C237.992 278.226 237.826 277.229 237.494 276.32C237.169 275.405 236.666 274.67 235.987 274.116C235.307 273.562 234.45 273.285 233.416 273.285C232.375 273.285 231.511 273.562 230.824 274.116C230.144 274.67 229.638 275.405 229.306 276.32C228.981 277.229 228.818 278.226 228.818 279.312C228.818 280.405 228.981 281.406 229.306 282.314C229.638 283.223 230.144 283.951 230.824 284.497C231.511 285.044 232.375 285.317 233.416 285.317Z" fill="#D5D8DD"/>
<path d="M252.171 294.491C250.82 294.491 249.656 294.314 248.681 293.959C247.714 293.605 246.923 293.136 246.31 292.552C245.697 291.968 245.239 291.33 244.936 290.635L247.784 289.461C247.983 289.786 248.249 290.129 248.581 290.491C248.921 290.861 249.379 291.174 249.955 291.433C250.539 291.691 251.289 291.821 252.205 291.821C253.46 291.821 254.498 291.514 255.318 290.901C256.138 290.295 256.548 289.328 256.548 287.998V284.652H256.337C256.138 285.014 255.85 285.417 255.473 285.86C255.104 286.303 254.594 286.687 253.944 287.012C253.294 287.337 252.448 287.5 251.407 287.5C250.062 287.5 248.851 287.186 247.773 286.558C246.702 285.923 245.852 284.988 245.224 283.755C244.604 282.514 244.294 280.989 244.294 279.179C244.294 277.369 244.6 275.818 245.213 274.526C245.834 273.233 246.683 272.243 247.762 271.556C248.84 270.862 250.062 270.515 251.429 270.515C252.485 270.515 253.338 270.692 253.988 271.047C254.638 271.394 255.144 271.8 255.506 272.265C255.876 272.731 256.16 273.141 256.359 273.495H256.603V270.736H259.849V288.131C259.849 289.594 259.51 290.794 258.83 291.732C258.151 292.67 257.231 293.364 256.071 293.815C254.919 294.266 253.619 294.491 252.171 294.491ZM252.138 284.752C253.091 284.752 253.896 284.53 254.553 284.087C255.218 283.637 255.72 282.994 256.06 282.159C256.407 281.317 256.581 280.309 256.581 279.135C256.581 277.99 256.411 276.982 256.071 276.11C255.732 275.238 255.233 274.559 254.576 274.071C253.918 273.576 253.106 273.329 252.138 273.329C251.141 273.329 250.31 273.588 249.645 274.105C248.98 274.614 248.478 275.309 248.138 276.188C247.806 277.066 247.64 278.049 247.64 279.135C247.64 280.25 247.81 281.229 248.149 282.071C248.489 282.913 248.991 283.57 249.656 284.043C250.328 284.516 251.156 284.752 252.138 284.752Z" fill="#D5D8DD"/>
<path d="M264.292 287.755V270.736H267.605V287.755H264.292ZM265.965 268.111C265.389 268.111 264.894 267.918 264.481 267.534C264.074 267.143 263.871 266.678 263.871 266.138C263.871 265.592 264.074 265.126 264.481 264.742C264.894 264.351 265.389 264.155 265.965 264.155C266.541 264.155 267.033 264.351 267.439 264.742C267.853 265.126 268.059 265.592 268.059 266.138C268.059 266.678 267.853 267.143 267.439 267.534C267.033 267.918 266.541 268.111 265.965 268.111Z" fill="#D5D8DD"/>
<path d="M279.396 288.098C277.72 288.098 276.276 287.74 275.064 287.023C273.86 286.299 272.93 285.284 272.272 283.976C271.622 282.662 271.297 281.122 271.297 279.356C271.297 277.613 271.622 276.077 272.272 274.747C272.93 273.418 273.846 272.38 275.02 271.634C276.202 270.888 277.583 270.515 279.164 270.515C280.124 270.515 281.055 270.674 281.956 270.991C282.857 271.309 283.666 271.807 284.382 272.487C285.099 273.166 285.664 274.049 286.077 275.135C286.491 276.213 286.698 277.524 286.698 279.068V280.243H273.17V277.761H283.452C283.452 276.889 283.274 276.117 282.92 275.445C282.565 274.766 282.067 274.23 281.424 273.839C280.789 273.447 280.043 273.251 279.186 273.251C278.255 273.251 277.443 273.48 276.748 273.938C276.062 274.389 275.53 274.98 275.153 275.711C274.784 276.435 274.599 277.222 274.599 278.071V280.01C274.599 281.147 274.798 282.115 275.197 282.913C275.604 283.711 276.169 284.32 276.893 284.741C277.616 285.155 278.462 285.361 279.43 285.361C280.058 285.361 280.63 285.273 281.147 285.095C281.664 284.911 282.111 284.638 282.488 284.276C282.864 283.914 283.152 283.467 283.352 282.935L286.487 283.5C286.236 284.423 285.786 285.232 285.136 285.926C284.493 286.613 283.684 287.149 282.709 287.533C281.742 287.91 280.637 288.098 279.396 288.098Z" fill="#D5D8DD"/>
<path d="M303.126 274.891L300.124 275.423C299.998 275.039 299.799 274.673 299.525 274.326C299.259 273.979 298.897 273.695 298.439 273.473C297.982 273.251 297.409 273.141 296.722 273.141C295.784 273.141 295.001 273.351 294.373 273.772C293.745 274.186 293.432 274.721 293.432 275.379C293.432 275.947 293.642 276.405 294.063 276.753C294.484 277.1 295.164 277.384 296.102 277.606L298.805 278.226C300.371 278.588 301.538 279.146 302.306 279.899C303.074 280.653 303.458 281.631 303.458 282.835C303.458 283.855 303.163 284.763 302.572 285.561C301.989 286.351 301.172 286.972 300.124 287.422C299.082 287.873 297.874 288.098 296.501 288.098C294.595 288.098 293.04 287.692 291.836 286.879C290.632 286.059 289.893 284.896 289.62 283.389L292.822 282.902C293.022 283.736 293.432 284.368 294.052 284.796C294.672 285.217 295.481 285.428 296.478 285.428C297.564 285.428 298.432 285.203 299.082 284.752C299.732 284.294 300.057 283.736 300.057 283.079C300.057 282.547 299.858 282.1 299.459 281.738C299.067 281.376 298.465 281.103 297.653 280.918L294.772 280.287C293.184 279.925 292.01 279.349 291.249 278.559C290.495 277.768 290.119 276.767 290.119 275.556C290.119 274.551 290.399 273.672 290.961 272.919C291.522 272.166 292.298 271.578 293.287 271.157C294.277 270.729 295.411 270.515 296.689 270.515C298.528 270.515 299.976 270.914 301.032 271.711C302.088 272.502 302.786 273.562 303.126 274.891Z" fill="#D5D8DD"/>
<path d="M323.457 270.736V273.395H313.84V270.736H323.457ZM316.477 287.755V268.764C316.477 267.701 316.71 266.818 317.175 266.116C317.64 265.407 318.257 264.879 319.025 264.532C319.793 264.177 320.628 264 321.529 264C322.194 264 322.763 264.055 323.236 264.166C323.708 264.27 324.059 264.366 324.288 264.454L323.512 267.136C323.357 267.091 323.158 267.039 322.914 266.98C322.67 266.914 322.375 266.881 322.028 266.881C321.223 266.881 320.647 267.08 320.299 267.479C319.96 267.878 319.79 268.454 319.79 269.207V287.755H316.477Z" fill="#D5D8DD"/>
<path d="M333.373 288.098C331.778 288.098 330.385 287.732 329.196 287.001C328.007 286.27 327.084 285.247 326.426 283.932C325.769 282.617 325.44 281.081 325.44 279.323C325.44 277.558 325.769 276.014 326.426 274.692C327.084 273.37 328.007 272.343 329.196 271.612C330.385 270.88 331.778 270.515 333.373 270.515C334.969 270.515 336.361 270.88 337.55 271.612C338.739 272.343 339.663 273.37 340.32 274.692C340.978 276.014 341.306 277.558 341.306 279.323C341.306 281.081 340.978 282.617 340.32 283.932C339.663 285.247 338.739 286.27 337.55 287.001C336.361 287.732 334.969 288.098 333.373 288.098ZM333.384 285.317C334.418 285.317 335.275 285.044 335.955 284.497C336.634 283.951 337.137 283.223 337.462 282.314C337.794 281.406 337.96 280.405 337.96 279.312C337.96 278.226 337.794 277.229 337.462 276.32C337.137 275.405 336.634 274.67 335.955 274.116C335.275 273.562 334.418 273.285 333.384 273.285C332.343 273.285 331.479 273.562 330.792 274.116C330.112 274.67 329.606 275.405 329.274 276.32C328.949 277.229 328.786 278.226 328.786 279.312C328.786 280.405 328.949 281.406 329.274 282.314C329.606 283.223 330.112 283.951 330.792 284.497C331.479 285.044 332.343 285.317 333.384 285.317Z" fill="#D5D8DD"/>
<path d="M345.004 287.755V270.736H348.206V273.44H348.383C348.694 272.524 349.24 271.804 350.023 271.279C350.813 270.747 351.707 270.482 352.704 270.482C352.911 270.482 353.155 270.489 353.436 270.504C353.724 270.518 353.949 270.537 354.111 270.559V273.728C353.978 273.691 353.742 273.65 353.402 273.606C353.063 273.554 352.723 273.528 352.383 273.528C351.6 273.528 350.902 273.695 350.289 274.027C349.683 274.352 349.203 274.806 348.849 275.39C348.494 275.966 348.317 276.623 348.317 277.362V287.755H345.004Z" fill="#D5D8DD"/>
<path d="M365.501 287.755V265.064H373.811C375.421 265.064 376.754 265.33 377.811 265.861C378.867 266.386 379.657 267.099 380.182 268C380.706 268.893 380.968 269.902 380.968 271.024C380.968 271.97 380.795 272.768 380.448 273.418C380.1 274.06 379.635 274.577 379.051 274.969C378.475 275.353 377.84 275.634 377.146 275.811V276.032C377.899 276.069 378.634 276.313 379.351 276.764C380.074 277.207 380.673 277.838 381.146 278.658C381.618 279.478 381.855 280.475 381.855 281.65C381.855 282.809 381.581 283.851 381.035 284.774C380.496 285.69 379.661 286.418 378.531 286.957C377.401 287.489 375.957 287.755 374.199 287.755H365.501ZM368.925 284.818H373.866C375.506 284.818 376.68 284.501 377.39 283.866C378.099 283.23 378.453 282.436 378.453 281.484C378.453 280.767 378.272 280.11 377.91 279.511C377.548 278.913 377.031 278.437 376.359 278.082C375.694 277.728 374.904 277.55 373.988 277.55H368.925V284.818ZM368.925 274.88H373.512C374.28 274.88 374.971 274.732 375.584 274.437C376.204 274.141 376.695 273.728 377.057 273.196C377.426 272.657 377.611 272.022 377.611 271.29C377.611 270.352 377.282 269.566 376.625 268.93C375.968 268.295 374.959 267.978 373.6 267.978H368.925V274.88Z" fill="#D5D8DD"/>
<path d="M392.984 288.098C391.307 288.098 389.863 287.74 388.652 287.023C387.448 286.299 386.517 285.284 385.86 283.976C385.21 282.662 384.885 281.122 384.885 279.356C384.885 277.613 385.21 276.077 385.86 274.747C386.517 273.418 387.433 272.38 388.608 271.634C389.789 270.888 391.171 270.515 392.751 270.515C393.712 270.515 394.642 270.674 395.543 270.991C396.445 271.309 397.253 271.807 397.97 272.487C398.686 273.166 399.251 274.049 399.665 275.135C400.079 276.213 400.285 277.524 400.285 279.068V280.243H386.757V277.761H397.039C397.039 276.889 396.862 276.117 396.507 275.445C396.153 274.766 395.654 274.23 395.012 273.839C394.376 273.447 393.63 273.251 392.773 273.251C391.843 273.251 391.03 273.48 390.336 273.938C389.649 274.389 389.117 274.98 388.741 275.711C388.371 276.435 388.187 277.222 388.187 278.071V280.01C388.187 281.147 388.386 282.115 388.785 282.913C389.191 283.711 389.756 284.32 390.48 284.741C391.204 285.155 392.05 285.361 393.017 285.361C393.645 285.361 394.218 285.273 394.735 285.095C395.252 284.911 395.698 284.638 396.075 284.276C396.452 283.914 396.74 283.467 396.939 282.935L400.075 283.5C399.824 284.423 399.373 285.232 398.723 285.926C398.081 286.613 397.272 287.149 396.297 287.533C395.329 287.91 394.225 288.098 392.984 288.098Z" fill="#D5D8DD"/>
<path d="M411.905 270.736V273.395H402.609V270.736H411.905ZM405.102 266.659H408.415V282.758C408.415 283.4 408.511 283.884 408.703 284.209C408.895 284.527 409.143 284.745 409.445 284.863C409.756 284.974 410.092 285.029 410.454 285.029C410.72 285.029 410.952 285.011 411.152 284.974C411.351 284.937 411.506 284.907 411.617 284.885L412.215 287.622C412.023 287.695 411.75 287.769 411.395 287.843C411.041 287.924 410.598 287.969 410.066 287.976C409.194 287.991 408.382 287.836 407.628 287.511C406.875 287.186 406.266 286.684 405.8 286.004C405.335 285.324 405.102 284.471 405.102 283.445V266.659Z" fill="#D5D8DD"/>
<path d="M423.514 270.736V273.395H414.218V270.736H423.514ZM416.711 266.659H420.024V282.758C420.024 283.4 420.12 283.884 420.312 284.209C420.504 284.527 420.751 284.745 421.054 284.863C421.364 284.974 421.7 285.029 422.062 285.029C422.328 285.029 422.561 285.011 422.76 284.974C422.96 284.937 423.115 284.907 423.226 284.885L423.824 287.622C423.632 287.695 423.359 287.769 423.004 287.843C422.65 287.924 422.206 287.969 421.674 287.976C420.803 287.991 419.99 287.836 419.237 287.511C418.484 287.186 417.874 286.684 417.409 286.004C416.944 285.324 416.711 284.471 416.711 283.445V266.659Z" fill="#D5D8DD"/>
<path d="M434.33 288.098C432.653 288.098 431.209 287.74 429.998 287.023C428.794 286.299 427.863 285.284 427.206 283.976C426.556 282.662 426.231 281.122 426.231 279.356C426.231 277.613 426.556 276.077 427.206 274.747C427.863 273.418 428.779 272.38 429.954 271.634C431.136 270.888 432.517 270.515 434.097 270.515C435.058 270.515 435.988 270.674 436.889 270.991C437.791 271.309 438.599 271.807 439.316 272.487C440.032 273.166 440.597 274.049 441.011 275.135C441.425 276.213 441.632 277.524 441.632 279.068V280.243H428.103V277.761H438.385C438.385 276.889 438.208 276.117 437.853 275.445C437.499 274.766 437 274.23 436.358 273.839C435.722 273.447 434.976 273.251 434.12 273.251C433.189 273.251 432.376 273.48 431.682 273.938C430.995 274.389 430.463 274.98 430.087 275.711C429.717 276.435 429.533 277.222 429.533 278.071V280.01C429.533 281.147 429.732 282.115 430.131 282.913C430.537 283.711 431.102 284.32 431.826 284.741C432.55 285.155 433.396 285.361 434.363 285.361C434.991 285.361 435.564 285.273 436.081 285.095C436.598 284.911 437.045 284.638 437.421 284.276C437.798 283.914 438.086 283.467 438.286 282.935L441.421 283.5C441.17 284.423 440.719 285.232 440.069 285.926C439.427 286.613 438.618 287.149 437.643 287.533C436.675 287.91 435.571 288.098 434.33 288.098Z" fill="#D5D8DD"/>
<path d="M445.307 287.755V270.736H448.509V273.44H448.686C448.997 272.524 449.543 271.804 450.326 271.279C451.117 270.747 452.01 270.482 453.007 270.482C453.214 270.482 453.458 270.489 453.739 270.504C454.027 270.518 454.252 270.537 454.415 270.559V273.728C454.282 273.691 454.045 273.65 453.705 273.606C453.366 273.554 453.026 273.528 452.686 273.528C451.903 273.528 451.205 273.695 450.592 274.027C449.986 274.352 449.506 274.806 449.152 275.39C448.797 275.966 448.62 276.623 448.62 277.362V287.755H445.307Z" fill="#D5D8DD"/>
<path d="M473.15 287.755H465.804V265.064H473.383C475.606 265.064 477.515 265.518 479.111 266.426C480.706 267.328 481.929 268.624 482.778 270.315C483.635 271.999 484.063 274.02 484.063 276.376C484.063 278.739 483.631 280.771 482.767 282.47C481.91 284.168 480.669 285.476 479.044 286.392C477.419 287.3 475.455 287.755 473.15 287.755ZM469.228 284.763H472.962C474.69 284.763 476.127 284.438 477.272 283.788C478.417 283.131 479.273 282.182 479.842 280.941C480.411 279.692 480.695 278.171 480.695 276.376C480.695 274.596 480.411 273.085 479.842 271.844C479.281 270.603 478.442 269.662 477.327 269.019C476.212 268.376 474.827 268.055 473.172 268.055H469.228V284.763Z" fill="#D5D8DD"/>
<path d="M495.389 288.098C493.713 288.098 492.269 287.74 491.057 287.023C489.853 286.299 488.923 285.284 488.265 283.976C487.615 282.662 487.29 281.122 487.29 279.356C487.29 277.613 487.615 276.077 488.265 274.747C488.923 273.418 489.839 272.38 491.013 271.634C492.195 270.888 493.576 270.515 495.157 270.515C496.117 270.515 497.048 270.674 497.949 270.991C498.85 271.309 499.659 271.807 500.375 272.487C501.092 273.166 501.657 274.049 502.07 275.135C502.484 276.213 502.691 277.524 502.691 279.068V280.243H489.163V277.761H499.445C499.445 276.889 499.267 276.117 498.913 275.445C498.558 274.766 498.06 274.23 497.417 273.839C496.782 273.447 496.036 273.251 495.179 273.251C494.248 273.251 493.436 273.48 492.741 273.938C492.055 274.389 491.523 274.98 491.146 275.711C490.777 276.435 490.592 277.222 490.592 278.071V280.01C490.592 281.147 490.791 282.115 491.19 282.913C491.597 283.711 492.162 284.32 492.885 284.741C493.609 285.155 494.455 285.361 495.423 285.361C496.051 285.361 496.623 285.273 497.14 285.095C497.657 284.911 498.104 284.638 498.481 284.276C498.857 283.914 499.145 283.467 499.345 282.935L502.48 283.5C502.229 284.423 501.779 285.232 501.129 285.926C500.486 286.613 499.677 287.149 498.702 287.533C497.735 287.91 496.63 288.098 495.389 288.098Z" fill="#D5D8DD"/>
<path d="M520.438 270.736L514.266 287.755H510.721L504.538 270.736H508.095L512.405 283.832H512.582L516.881 270.736H520.438Z" fill="#D5D8DD"/>
<path d="M530.307 288.098C528.63 288.098 527.186 287.74 525.975 287.023C524.771 286.299 523.84 285.284 523.182 283.976C522.532 282.662 522.208 281.122 522.208 279.356C522.208 277.613 522.532 276.077 523.182 274.747C523.84 273.418 524.756 272.38 525.93 271.634C527.112 270.888 528.493 270.515 530.074 270.515C531.034 270.515 531.965 270.674 532.866 270.991C533.767 271.309 534.576 271.807 535.292 272.487C536.009 273.166 536.574 274.049 536.988 275.135C537.401 276.213 537.608 277.524 537.608 279.068V280.243H524.08V277.761H534.362C534.362 276.889 534.185 276.117 533.83 275.445C533.475 274.766 532.977 274.23 532.334 273.839C531.699 273.447 530.953 273.251 530.096 273.251C529.165 273.251 528.353 273.48 527.659 273.938C526.972 274.389 526.44 274.98 526.063 275.711C525.694 276.435 525.509 277.222 525.509 278.071V280.01C525.509 281.147 525.709 282.115 526.107 282.913C526.514 283.711 527.079 284.32 527.803 284.741C528.527 285.155 529.372 285.361 530.34 285.361C530.968 285.361 531.54 285.273 532.057 285.095C532.574 284.911 533.021 284.638 533.398 284.276C533.775 283.914 534.063 283.467 534.262 282.935L537.398 283.5C537.146 284.423 536.696 285.232 536.046 285.926C535.403 286.613 534.594 287.149 533.619 287.533C532.652 287.91 531.548 288.098 530.307 288.098Z" fill="#D5D8DD"/>
<path d="M544.596 265.064V287.755H541.284V265.064H544.596Z" fill="#D5D8DD"/>
<path d="M556.222 288.098C554.626 288.098 553.234 287.732 552.045 287.001C550.855 286.27 549.932 285.247 549.275 283.932C548.617 282.617 548.289 281.081 548.289 279.323C548.289 277.558 548.617 276.014 549.275 274.692C549.932 273.37 550.855 272.343 552.045 271.612C553.234 270.88 554.626 270.515 556.222 270.515C557.817 270.515 559.209 270.88 560.399 271.612C561.588 272.343 562.511 273.37 563.169 274.692C563.826 276.014 564.155 277.558 564.155 279.323C564.155 281.081 563.826 282.617 563.169 283.932C562.511 285.247 561.588 286.27 560.399 287.001C559.209 287.732 557.817 288.098 556.222 288.098ZM556.233 285.317C557.267 285.317 558.124 285.044 558.803 284.497C559.483 283.951 559.985 283.223 560.31 282.314C560.642 281.406 560.809 280.405 560.809 279.312C560.809 278.226 560.642 277.229 560.31 276.32C559.985 275.405 559.483 274.67 558.803 274.116C558.124 273.562 557.267 273.285 556.233 273.285C555.191 273.285 554.327 273.562 553.64 274.116C552.961 274.67 552.455 275.405 552.122 276.32C551.797 277.229 551.635 278.226 551.635 279.312C551.635 280.405 551.797 281.406 552.122 282.314C552.455 283.223 552.961 283.951 553.64 284.497C554.327 285.044 555.191 285.317 556.233 285.317Z" fill="#D5D8DD"/>
<path d="M567.852 294.136V270.736H571.088V273.495H571.365C571.557 273.141 571.834 272.731 572.196 272.265C572.558 271.8 573.06 271.394 573.702 271.047C574.345 270.692 575.194 270.515 576.251 270.515C577.625 270.515 578.851 270.862 579.929 271.556C581.008 272.251 581.853 273.251 582.466 274.559C583.087 275.866 583.397 277.439 583.397 279.279C583.397 281.118 583.091 282.695 582.477 284.01C581.864 285.317 581.022 286.325 579.951 287.034C578.88 287.736 577.658 288.087 576.284 288.087C575.25 288.087 574.404 287.913 573.747 287.566C573.097 287.219 572.587 286.813 572.218 286.347C571.848 285.882 571.564 285.468 571.365 285.107H571.165V294.136H567.852ZM571.099 279.245C571.099 280.442 571.272 281.491 571.619 282.392C571.967 283.293 572.469 283.999 573.126 284.508C573.784 285.011 574.589 285.262 575.542 285.262C576.531 285.262 577.359 284.999 578.023 284.475C578.688 283.943 579.19 283.223 579.53 282.314C579.877 281.406 580.051 280.383 580.051 279.245C580.051 278.123 579.881 277.114 579.541 276.221C579.209 275.327 578.707 274.622 578.035 274.105C577.37 273.588 576.539 273.329 575.542 273.329C574.581 273.329 573.769 273.576 573.104 274.071C572.447 274.566 571.948 275.257 571.608 276.143C571.269 277.03 571.099 278.064 571.099 279.245Z" fill="#D5D8DD"/>
<path d="M587.109 287.755V270.736H590.289V273.506H590.499C590.854 272.568 591.433 271.837 592.239 271.313C593.044 270.781 594.008 270.515 595.13 270.515C596.268 270.515 597.221 270.781 597.989 271.313C598.764 271.844 599.337 272.576 599.706 273.506H599.883C600.29 272.598 600.936 271.874 601.822 271.335C602.709 270.788 603.765 270.515 604.991 270.515C606.535 270.515 607.794 270.999 608.769 271.966C609.752 272.934 610.243 274.393 610.243 276.343V287.755H606.93V276.653C606.93 275.501 606.616 274.666 605.988 274.149C605.36 273.632 604.611 273.373 603.739 273.373C602.661 273.373 601.822 273.706 601.224 274.37C600.626 275.028 600.327 275.874 600.327 276.908V287.755H597.025V276.442C597.025 275.519 596.737 274.777 596.161 274.215C595.585 273.654 594.835 273.373 593.912 273.373C593.284 273.373 592.704 273.539 592.172 273.872C591.648 274.197 591.223 274.651 590.898 275.235C590.58 275.818 590.422 276.494 590.422 277.262V287.755H587.109Z" fill="#D5D8DD"/>
<path d="M622.018 288.098C620.341 288.098 618.897 287.74 617.685 287.023C616.482 286.299 615.551 285.284 614.893 283.976C614.243 282.662 613.918 281.122 613.918 279.356C613.918 277.613 614.243 276.077 614.893 274.747C615.551 273.418 616.467 272.38 617.641 271.634C618.823 270.888 620.204 270.515 621.785 270.515C622.745 270.515 623.676 270.674 624.577 270.991C625.478 271.309 626.287 271.807 627.003 272.487C627.72 273.166 628.285 274.049 628.699 275.135C629.112 276.213 629.319 277.524 629.319 279.068V280.243H615.791V277.761H626.073C626.073 276.889 625.895 276.117 625.541 275.445C625.186 274.766 624.688 274.23 624.045 273.839C623.41 273.447 622.664 273.251 621.807 273.251C620.876 273.251 620.064 273.48 619.37 273.938C618.683 274.389 618.151 274.98 617.774 275.711C617.405 276.435 617.22 277.222 617.22 278.071V280.01C617.22 281.147 617.42 282.115 617.818 282.913C618.225 283.711 618.79 284.32 619.514 284.741C620.237 285.155 621.083 285.361 622.051 285.361C622.679 285.361 623.251 285.273 623.768 285.095C624.285 284.911 624.732 284.638 625.109 284.276C625.485 283.914 625.774 283.467 625.973 282.935L629.109 283.5C628.857 284.423 628.407 285.232 627.757 285.926C627.114 286.613 626.305 287.149 625.33 287.533C624.363 287.91 623.258 288.098 622.018 288.098Z" fill="#D5D8DD"/>
<path d="M636.307 277.65V287.755H632.995V270.736H636.174V273.506H636.385C636.776 272.605 637.39 271.881 638.224 271.335C639.066 270.788 640.126 270.515 641.404 270.515C642.564 270.515 643.579 270.759 644.451 271.246C645.322 271.726 645.998 272.443 646.478 273.395C646.959 274.348 647.199 275.526 647.199 276.93V287.755H643.886V277.329C643.886 276.095 643.565 275.131 642.922 274.437C642.279 273.735 641.397 273.384 640.274 273.384C639.506 273.384 638.822 273.551 638.224 273.883C637.633 274.215 637.164 274.703 636.817 275.345C636.477 275.981 636.307 276.749 636.307 277.65Z" fill="#D5D8DD"/>
<path d="M659.586 270.736V273.395H650.29V270.736H659.586ZM652.783 266.659H656.096V282.758C656.096 283.4 656.192 283.884 656.384 284.209C656.576 284.527 656.823 284.745 657.126 284.863C657.436 284.974 657.772 285.029 658.134 285.029C658.4 285.029 658.633 285.011 658.832 284.974C659.032 284.937 659.187 284.907 659.297 284.885L659.896 287.622C659.704 287.695 659.43 287.769 659.076 287.843C658.721 287.924 658.278 287.969 657.746 287.976C656.875 287.991 656.062 287.836 655.309 287.511C654.555 287.186 653.946 286.684 653.481 286.004C653.015 285.324 652.783 284.471 652.783 283.445V266.659Z" fill="#D5D8DD"/>
<path d="M455.795 175.063V221.099H432.777V175.063C432.777 170.817 431.268 167.211 428.25 164.244C425.284 161.226 421.678 159.717 417.432 159.717C413.186 159.717 409.555 161.226 406.537 164.244C403.57 167.211 402.087 170.817 402.087 175.063V221.099H379.068V175.063C379.068 170.817 377.559 167.211 374.542 164.244C371.575 161.226 367.969 159.717 363.723 159.717C359.477 159.717 355.846 161.226 352.828 164.244C349.861 167.211 348.378 170.817 348.378 175.063V221.099H325.359V175.063C325.359 164.475 329.093 155.446 336.562 147.978C344.081 140.459 353.135 136.699 363.723 136.699C374.209 136.699 383.161 140.357 390.578 147.671C397.994 140.357 406.946 136.699 417.432 136.699C428.02 136.699 437.048 140.459 444.516 147.978C452.036 155.446 455.795 164.475 455.795 175.063Z" fill="#D5D8DD"/>
<path d="M486.813 221.091H463.795V136.691H486.813V221.091ZM475.304 129.018C472.133 129.018 469.422 127.893 467.171 125.642C464.921 123.392 463.795 120.681 463.795 117.509C463.795 114.338 464.921 111.627 467.171 109.376C469.422 107.125 472.133 106 475.304 106C478.476 106 481.187 107.125 483.437 109.376C485.688 111.627 486.813 114.338 486.813 117.509C486.813 120.681 485.688 123.392 483.437 125.642C481.187 127.893 478.476 129.018 475.304 129.018Z" fill="#D5D8DD"/>
<path d="M571.541 175.063V221.099H548.523V175.063C548.523 170.817 547.014 167.211 543.996 164.244C541.029 161.226 537.423 159.717 533.177 159.717C528.932 159.717 525.3 161.226 522.282 164.244C519.315 167.211 517.832 170.817 517.832 175.063V221.099H494.813V175.063C494.813 164.475 498.548 155.446 506.016 147.978C513.535 140.459 522.589 136.699 533.177 136.699C543.765 136.699 552.794 140.459 560.262 147.978C567.781 155.446 571.541 164.475 571.541 175.063Z" fill="#D5D8DD"/>
<path d="M663.942 178.891C663.942 190.553 659.824 200.502 651.588 208.738C643.353 216.973 633.404 221.091 621.742 221.091C610.079 221.091 600.13 216.973 591.895 208.738C583.659 200.502 579.542 190.553 579.542 178.891C579.542 167.228 583.659 157.279 591.895 149.044C600.13 140.809 610.079 136.691 621.742 136.691H640.923V159.709H621.742C616.422 159.709 611.895 161.576 608.161 165.31C604.427 169.044 602.56 173.571 602.56 178.891C602.56 184.211 604.427 188.738 608.161 192.472C611.895 196.206 616.422 198.073 621.742 198.073C627.061 198.073 631.588 196.206 635.322 192.472C639.056 188.738 640.923 184.211 640.923 178.891V106H663.942V178.891Z" fill="#D5D8DD"/>
<path d="M77.9941 178.899C77.9941 167.237 82.1118 157.288 90.3472 149.052C98.5826 140.817 108.532 136.699 120.195 136.699C131.857 136.699 141.806 140.817 150.041 149.052C158.277 157.288 162.395 167.237 162.395 178.899C162.395 190.562 158.277 200.511 150.041 208.746C141.806 216.981 131.857 221.099 120.195 221.099H101.012V198.081H120.195C125.514 198.081 130.041 196.214 133.775 192.48C137.509 188.746 139.376 184.219 139.376 178.899C139.376 173.579 137.509 169.053 133.775 165.318C130.041 161.584 125.514 159.717 120.195 159.717C114.875 159.717 110.348 161.584 106.614 165.318C102.88 169.053 101.012 173.579 101.012 178.899V244.117H77.9941V178.899Z" fill="#D5D8DD"/>
<path d="M212.595 198.081C217.914 198.081 222.441 196.214 226.175 192.48C229.909 188.746 231.776 184.219 231.776 178.899C231.776 173.579 229.909 169.053 226.175 165.318C222.441 161.584 217.914 159.717 212.595 159.717C207.275 159.717 202.748 161.584 199.014 165.318C195.28 169.053 193.413 173.579 193.413 178.899C193.413 184.219 195.28 188.746 199.014 192.48C202.748 196.214 207.275 198.081 212.595 198.081ZM212.595 221.099C200.932 221.099 190.983 216.981 182.748 208.746C174.512 200.511 170.395 190.562 170.395 178.899C170.395 167.237 174.512 157.288 182.748 149.052C190.983 140.817 200.932 136.699 212.595 136.699C224.257 136.699 234.206 140.817 242.441 149.052C250.677 157.288 254.795 167.237 254.795 178.899C254.795 190.562 250.677 200.511 242.441 208.746C234.206 216.981 224.257 221.099 212.595 221.099Z" fill="#D5D8DD"/>
<path d="M285.813 136.717H305.455V159.736H285.813V182.754C285.813 186.999 287.296 190.631 290.263 193.649C293.281 196.616 296.912 198.099 301.158 198.099H316.807L316.81 221.117H301.158C290.57 221.117 281.516 217.383 273.997 209.915C266.528 202.396 262.794 193.342 262.794 182.754V113.699H285.813V136.717Z" fill="#D5D8DD"/>
<path d="M27.794 136.699H62.3195L62.3213 159.717H27.794C26.7199 159.717 25.7991 160.101 25.0319 160.868C24.3157 161.584 23.9577 162.48 23.9577 163.554C23.9577 164.628 24.3157 165.549 25.0319 166.316C25.7991 167.032 26.7199 167.39 27.794 167.39H43.1395C50.5564 167.39 56.8737 170.024 62.0911 175.293C67.3596 180.511 69.9939 186.828 69.9939 194.245C69.9939 201.662 67.3596 208.004 62.0911 213.273C56.8737 218.49 50.5564 221.099 43.1395 221.099H4.93945V198.081H43.1395C44.2137 198.081 45.1088 197.723 45.8249 197.007C46.5922 196.24 46.9758 195.319 46.9758 194.245C46.9758 193.171 46.5922 192.275 45.8249 191.559C45.1088 190.792 44.2137 190.408 43.1395 190.408H27.794C20.3771 190.408 14.0343 187.8 8.76563 182.582C3.54818 177.314 0.939453 170.971 0.939453 163.554C0.939453 156.137 3.54818 149.82 8.76563 144.602C14.0343 139.334 20.3771 136.699 27.794 136.699Z" fill="#D5D8DD"/>
<path fill-rule="evenodd" clip-rule="evenodd" d="M357.22 28.72L363.94 43L370.66 28.72L384.94 22L370.66 15.28L363.94 1L357.22 15.28L342.94 22L357.22 28.72ZM286.333 54.1458C282.112 43.9545 279.939 33.0314 279.939 22.0004L321.939 22.0004C321.939 27.5159 323.025 32.9774 325.136 38.0731C327.247 43.1688 330.34 47.7988 334.24 51.6989C338.14 55.599 342.77 58.6927 347.866 60.8034C352.962 62.9141 358.423 64.0004 363.938 64.0004L363.938 106C352.908 106 341.985 103.828 331.793 99.6063C321.602 95.3849 312.342 89.1975 304.542 81.3974C296.742 73.5973 290.555 64.3372 286.333 54.1458Z" fill="#D5D8DD"/>
</svg>
