<svg width="664" height="295" viewBox="0 0 664 295" fill="none" xmlns="http://www.w3.org/2000/svg">
<path d="M455.795 200.063V246.099H432.777V200.063C432.777 195.817 431.268 192.211 428.25 189.244C425.284 186.226 421.678 184.717 417.432 184.717C413.186 184.717 409.555 186.226 406.537 189.244C403.57 192.211 402.087 195.817 402.087 200.063V246.099H379.068V200.063C379.068 195.817 377.559 192.211 374.542 189.244C371.575 186.226 367.969 184.717 363.723 184.717C359.477 184.717 355.846 186.226 352.828 189.244C349.861 192.211 348.378 195.817 348.378 200.063V246.099H325.359V200.063C325.359 189.475 329.093 180.446 336.562 172.978C344.081 165.459 353.135 161.699 363.723 161.699C374.209 161.699 383.161 165.357 390.578 172.671C397.994 165.357 406.946 161.699 417.432 161.699C428.02 161.699 437.048 165.459 444.516 172.978C452.036 180.446 455.795 189.475 455.795 200.063Z" fill="#D5D8DD"/>
<path d="M486.813 246.091H463.795V161.691H486.813V246.091ZM475.304 154.018C472.133 154.018 469.422 152.893 467.171 150.642C464.921 148.392 463.795 145.681 463.795 142.509C463.795 139.338 464.921 136.627 467.171 134.376C469.422 132.125 472.133 131 475.304 131C478.476 131 481.187 132.125 483.437 134.376C485.688 136.627 486.813 139.338 486.813 142.509C486.813 145.681 485.688 148.392 483.437 150.642C481.187 152.893 478.476 154.018 475.304 154.018Z" fill="#D5D8DD"/>
<path d="M571.541 200.063V246.099H548.523V200.063C548.523 195.817 547.014 192.211 543.996 189.244C541.029 186.226 537.423 184.717 533.177 184.717C528.932 184.717 525.3 186.226 522.282 189.244C519.315 192.211 517.832 195.817 517.832 200.063V246.099H494.813V200.063C494.813 189.475 498.548 180.446 506.016 172.978C513.535 165.459 522.589 161.699 533.177 161.699C543.765 161.699 552.794 165.459 560.262 172.978C567.781 180.446 571.541 189.475 571.541 200.063Z" fill="#D5D8DD"/>
<path d="M663.942 203.891C663.942 215.553 659.824 225.502 651.588 233.738C643.353 241.973 633.404 246.091 621.742 246.091C610.079 246.091 600.13 241.973 591.895 233.738C583.659 225.502 579.542 215.553 579.542 203.891C579.542 192.228 583.659 182.279 591.895 174.044C600.13 165.809 610.079 161.691 621.742 161.691H640.923V184.709H621.742C616.422 184.709 611.895 186.576 608.161 190.31C604.427 194.044 602.56 198.571 602.56 203.891C602.56 209.211 604.427 213.738 608.161 217.472C611.895 221.206 616.422 223.073 621.742 223.073C627.061 223.073 631.588 221.206 635.322 217.472C639.056 213.738 640.923 209.211 640.923 203.891V131H663.942V203.891Z" fill="#D5D8DD"/>
<path d="M77.9941 203.899C77.9941 192.237 82.1118 182.288 90.3472 174.052C98.5826 165.817 108.532 161.699 120.195 161.699C131.857 161.699 141.806 165.817 150.041 174.052C158.277 182.288 162.395 192.237 162.395 203.899C162.395 215.562 158.277 225.511 150.041 233.746C141.806 241.981 131.857 246.099 120.195 246.099H101.012V223.081H120.195C125.514 223.081 130.041 221.214 133.775 217.48C137.509 213.746 139.376 209.219 139.376 203.899C139.376 198.579 137.509 194.053 133.775 190.318C130.041 186.584 125.514 184.717 120.195 184.717C114.875 184.717 110.348 186.584 106.614 190.318C102.88 194.053 101.012 198.579 101.012 203.899V269.117H77.9941V203.899Z" fill="#D5D8DD"/>
<path d="M212.595 223.081C217.914 223.081 222.441 221.214 226.175 217.48C229.909 213.746 231.776 209.219 231.776 203.899C231.776 198.579 229.909 194.053 226.175 190.318C222.441 186.584 217.914 184.717 212.595 184.717C207.275 184.717 202.748 186.584 199.014 190.318C195.28 194.053 193.413 198.579 193.413 203.899C193.413 209.219 195.28 213.746 199.014 217.48C202.748 221.214 207.275 223.081 212.595 223.081ZM212.595 246.099C200.932 246.099 190.983 241.981 182.748 233.746C174.512 225.511 170.395 215.562 170.395 203.899C170.395 192.237 174.512 182.288 182.748 174.052C190.983 165.817 200.932 161.699 212.595 161.699C224.257 161.699 234.206 165.817 242.441 174.052C250.677 182.288 254.795 192.237 254.795 203.899C254.795 215.562 250.677 225.511 242.441 233.746C234.206 241.981 224.257 246.099 212.595 246.099Z" fill="#D5D8DD"/>
<path d="M285.813 161.717H305.455V184.736H285.813V207.754C285.813 211.999 287.296 215.631 290.263 218.649C293.281 221.616 296.912 223.099 301.158 223.099H316.807L316.81 246.117H301.158C290.57 246.117 281.516 242.383 273.997 234.915C266.528 227.396 262.794 218.342 262.794 207.754V138.699H285.813V161.717Z" fill="#D5D8DD"/>
<path d="M27.794 161.699H62.3195L62.3213 184.717H27.794C26.7199 184.717 25.7991 185.101 25.0319 185.868C24.3157 186.584 23.9577 187.48 23.9577 188.554C23.9577 189.628 24.3157 190.549 25.0319 191.316C25.7991 192.032 26.7199 192.39 27.794 192.39H43.1395C50.5564 192.39 56.8737 195.024 62.0911 200.293C67.3596 205.511 69.9939 211.828 69.9939 219.245C69.9939 226.662 67.3596 233.004 62.0911 238.273C56.8737 243.49 50.5564 246.099 43.1395 246.099H4.93945V223.081H43.1395C44.2137 223.081 45.1088 222.723 45.8249 222.007C46.5922 221.24 46.9758 220.319 46.9758 219.245C46.9758 218.171 46.5922 217.275 45.8249 216.559C45.1088 215.792 44.2137 215.408 43.1395 215.408H27.794C20.3771 215.408 14.0343 212.8 8.76563 207.582C3.54818 202.314 0.939453 195.971 0.939453 188.554C0.939453 181.137 3.54818 174.82 8.76563 169.602C14.0343 164.334 20.3771 161.699 27.794 161.699Z" fill="#D5D8DD"/>
<path fill-rule="evenodd" clip-rule="evenodd" d="M357.22 53.72L363.94 68L370.66 53.72L384.94 47L370.66 40.28L363.94 26L357.22 40.28L342.94 47L357.22 53.72ZM286.333 79.1458C282.112 68.9545 279.939 58.0314 279.939 47.0004L321.939 47.0004C321.939 52.5159 323.025 57.9774 325.136 63.0731C327.247 68.1688 330.34 72.7988 334.24 76.6989C338.14 80.599 342.77 83.6927 347.866 85.8034C352.962 87.9141 358.423 89.0004 363.938 89.0004L363.938 131C352.908 131 341.985 128.828 331.793 124.606C321.602 120.385 312.342 114.198 304.542 106.397C296.742 98.5973 290.555 89.3372 286.333 79.1458Z" fill="#D5D8DD"/>
</svg>
