<svg width="664" height="295" viewBox="0 0 664 295" fill="none" xmlns="http://www.w3.org/2000/svg">
<path d="M12.8448 287.755H5.49902V265.064H13.0774C15.3007 265.064 17.2101 265.518 18.8056 266.426C20.401 267.328 21.6235 268.624 22.4729 270.315C23.3297 271.999 23.7581 274.02 23.7581 276.376C23.7581 278.739 23.326 280.771 22.4618 282.47C21.605 284.168 20.3641 285.476 18.7391 286.392C17.1141 287.3 15.1493 287.755 12.8448 287.755ZM8.9226 284.763H12.6564C14.3848 284.763 15.8215 284.438 16.9664 283.788C18.1112 283.131 18.9681 282.182 19.5368 280.941C20.1056 279.692 20.3899 278.171 20.3899 276.376C20.3899 274.596 20.1056 273.085 19.5368 271.844C18.9754 270.603 18.1371 269.662 17.0218 269.019C15.9064 268.376 14.5215 268.055 12.8669 268.055H8.9226V284.763Z" fill="white"/>
<path d="M27.7495 287.755V270.736H31.0623V287.755H27.7495ZM29.4225 268.111C28.8464 268.111 28.3515 267.918 27.9379 267.534C27.5316 267.143 27.3285 266.678 27.3285 266.138C27.3285 265.592 27.5316 265.126 27.9379 264.742C28.3515 264.351 28.8464 264.155 29.4225 264.155C29.9987 264.155 30.4899 264.351 30.8961 264.742C31.3098 265.126 31.5166 265.592 31.5166 266.138C31.5166 266.678 31.3098 267.143 30.8961 267.534C30.4899 267.918 29.9987 268.111 29.4225 268.111Z" fill="white"/>
<path d="M42.6543 294.491C41.3026 294.491 40.1392 294.314 39.1642 293.959C38.1966 293.605 37.4063 293.136 36.7932 292.552C36.1801 291.968 35.7222 291.33 35.4193 290.635L38.2668 289.461C38.4662 289.786 38.7321 290.129 39.0645 290.491C39.4043 290.861 39.8622 291.174 40.4384 291.433C41.0219 291.691 41.7716 291.821 42.6875 291.821C43.9432 291.821 44.981 291.514 45.8009 290.901C46.6208 290.295 47.0307 289.328 47.0307 287.998V284.652H46.8202C46.6208 285.014 46.3327 285.417 45.956 285.86C45.5867 286.303 45.077 286.687 44.427 287.012C43.777 287.337 42.9313 287.5 41.8898 287.5C40.5455 287.5 39.3341 287.186 38.2557 286.558C37.1847 285.923 36.3352 284.988 35.7074 283.755C35.087 282.514 34.7767 280.989 34.7767 279.179C34.7767 277.369 35.0833 275.818 35.6963 274.526C36.3168 273.233 37.1662 272.243 38.2446 271.556C39.323 270.862 40.5455 270.515 41.912 270.515C42.9682 270.515 43.8213 270.692 44.4713 271.047C45.1213 271.394 45.6273 271.8 45.9892 272.265C46.3585 272.731 46.6429 273.141 46.8424 273.495H47.0861V270.736H50.3324V288.131C50.3324 289.594 49.9926 290.794 49.3131 291.732C48.6335 292.67 47.7139 293.364 46.5543 293.815C45.402 294.266 44.102 294.491 42.6543 294.491ZM42.621 284.752C43.5739 284.752 44.379 284.53 45.0364 284.087C45.7012 283.637 46.2034 282.994 46.5432 282.159C46.8904 281.317 47.0639 280.309 47.0639 279.135C47.0639 277.99 46.8941 276.982 46.5543 276.11C46.2145 275.238 45.7159 274.559 45.0585 274.071C44.4012 273.576 43.5887 273.329 42.621 273.329C41.6239 273.329 40.7929 273.588 40.1281 274.105C39.4634 274.614 38.9611 275.309 38.6213 276.188C38.2889 277.066 38.1227 278.049 38.1227 279.135C38.1227 280.25 38.2926 281.229 38.6324 282.071C38.9722 282.913 39.4745 283.57 40.1392 284.043C40.8114 284.516 41.6387 284.752 42.621 284.752Z" fill="white"/>
<path d="M54.7753 287.755V270.736H58.0881V287.755H54.7753ZM56.4483 268.111C55.8722 268.111 55.3773 267.918 54.9637 267.534C54.5574 267.143 54.3543 266.678 54.3543 266.138C54.3543 265.592 54.5574 265.126 54.9637 264.742C55.3773 264.351 55.8722 264.155 56.4483 264.155C57.0245 264.155 57.5156 264.351 57.9219 264.742C58.3355 265.126 58.5424 265.592 58.5424 266.138C58.5424 266.678 58.3355 267.143 57.9219 267.534C57.5156 267.918 57.0245 268.111 56.4483 268.111Z" fill="white"/>
<path d="M70.4889 270.736V273.395H61.1931V270.736H70.4889ZM63.686 266.659H66.9988V282.758C66.9988 283.4 67.0948 283.884 67.2869 284.209C67.4789 284.527 67.7264 284.745 68.0292 284.863C68.3394 284.974 68.6755 285.029 69.0375 285.029C69.3034 285.029 69.536 285.011 69.7355 284.974C69.9349 284.937 70.09 284.907 70.2008 284.885L70.7991 287.622C70.607 287.695 70.3338 287.769 69.9792 287.843C69.6247 287.924 69.1815 287.969 68.6497 287.976C67.7781 287.991 66.9656 287.836 66.2122 287.511C65.4588 287.186 64.8494 286.684 64.384 286.004C63.9187 285.324 63.686 284.471 63.686 283.445V266.659Z" fill="white"/>
<path d="M79.106 288.131C78.0276 288.131 77.0526 287.932 76.181 287.533C75.3094 287.127 74.6188 286.539 74.1091 285.771C73.6068 285.003 73.3557 284.061 73.3557 282.946C73.3557 281.986 73.5404 281.195 73.9097 280.575C74.279 279.955 74.7776 279.463 75.4054 279.101C76.0333 278.739 76.735 278.466 77.5105 278.282C78.2861 278.097 79.0764 277.957 79.8816 277.861C80.9009 277.742 81.7281 277.646 82.3634 277.572C82.9986 277.491 83.4602 277.362 83.7483 277.185C84.0364 277.007 84.1804 276.719 84.1804 276.32V276.243C84.1804 275.275 83.9071 274.526 83.3605 273.994C82.8213 273.462 82.0162 273.196 80.9452 273.196C79.8298 273.196 78.9509 273.443 78.3083 273.938C77.673 274.426 77.2335 274.969 76.9898 275.567L73.8764 274.858C74.2458 273.824 74.785 272.989 75.494 272.354C76.2105 271.711 77.0341 271.246 77.9648 270.958C78.8955 270.663 79.8742 270.515 80.9009 270.515C81.5804 270.515 82.3006 270.596 83.0614 270.759C83.8296 270.914 84.546 271.202 85.2108 271.623C85.883 272.044 86.4333 272.646 86.8617 273.429C87.2901 274.204 87.5043 275.213 87.5043 276.453V287.755H84.2691V285.428H84.1361C83.9219 285.856 83.6006 286.277 83.1722 286.691C82.7438 287.105 82.1935 287.448 81.5213 287.721C80.8492 287.995 80.044 288.131 79.106 288.131ZM79.8262 285.472C80.7421 285.472 81.525 285.291 82.175 284.929C82.8324 284.567 83.331 284.095 83.6708 283.511C84.0179 282.92 84.1915 282.289 84.1915 281.616V279.423C84.0733 279.541 83.8443 279.652 83.5046 279.755C83.1722 279.851 82.7918 279.936 82.3634 280.01C81.935 280.076 81.5176 280.139 81.1114 280.198C80.7051 280.25 80.3654 280.294 80.0921 280.331C79.4494 280.413 78.8622 280.549 78.3304 280.741C77.806 280.933 77.385 281.21 77.0673 281.572C76.7571 281.927 76.602 282.399 76.602 282.99C76.602 283.81 76.9048 284.431 77.5105 284.852C78.1162 285.265 78.8881 285.472 79.8262 285.472Z" fill="white"/>
<path d="M95.2295 265.064V287.755H91.9167V265.064H95.2295Z" fill="white"/>
<path d="M107.09 268.011V265.064H124.651V268.011H117.571V287.755H114.159V268.011H107.09Z" fill="white"/>
<path d="M133.133 288.098C131.456 288.098 130.012 287.74 128.801 287.023C127.597 286.299 126.666 285.284 126.008 283.976C125.358 282.662 125.033 281.122 125.033 279.356C125.033 277.613 125.358 276.077 126.008 274.747C126.666 273.418 127.582 272.38 128.756 271.634C129.938 270.888 131.319 270.515 132.9 270.515C133.86 270.515 134.791 270.674 135.692 270.991C136.593 271.309 137.402 271.807 138.118 272.487C138.835 273.166 139.4 274.049 139.814 275.135C140.227 276.213 140.434 277.524 140.434 279.068V280.243H126.906V277.761H137.188C137.188 276.889 137.01 276.117 136.656 275.445C136.301 274.766 135.803 274.23 135.16 273.839C134.525 273.447 133.779 273.251 132.922 273.251C131.991 273.251 131.179 273.48 130.485 273.938C129.798 274.389 129.266 274.98 128.889 275.711C128.52 276.435 128.335 277.222 128.335 278.071V280.01C128.335 281.147 128.535 282.115 128.933 282.913C129.34 283.711 129.905 284.32 130.629 284.741C131.353 285.155 132.198 285.361 133.166 285.361C133.794 285.361 134.366 285.273 134.883 285.095C135.4 284.911 135.847 284.638 136.224 284.276C136.601 283.914 136.889 283.467 137.088 282.935L140.224 283.5C139.972 284.423 139.522 285.232 138.872 285.926C138.229 286.613 137.42 287.149 136.445 287.533C135.478 287.91 134.374 288.098 133.133 288.098Z" fill="white"/>
<path d="M151.278 288.098C149.631 288.098 148.213 287.725 147.024 286.979C145.842 286.226 144.933 285.188 144.298 283.866C143.663 282.543 143.345 281.029 143.345 279.323C143.345 277.595 143.67 276.069 144.32 274.747C144.97 273.418 145.886 272.38 147.068 271.634C148.25 270.888 149.642 270.515 151.245 270.515C152.538 270.515 153.69 270.755 154.702 271.235C155.714 271.708 156.53 272.372 157.15 273.229C157.778 274.086 158.151 275.087 158.269 276.232H155.045C154.868 275.434 154.462 274.747 153.826 274.171C153.199 273.595 152.357 273.307 151.3 273.307C150.377 273.307 149.568 273.551 148.874 274.038C148.187 274.518 147.651 275.205 147.267 276.099C146.883 276.985 146.691 278.034 146.691 279.245C146.691 280.486 146.88 281.557 147.256 282.459C147.633 283.36 148.165 284.058 148.852 284.553C149.546 285.047 150.362 285.295 151.3 285.295C151.928 285.295 152.497 285.18 153.007 284.951C153.524 284.715 153.956 284.379 154.303 283.943C154.657 283.507 154.905 282.983 155.045 282.37H158.269C158.151 283.47 157.793 284.453 157.195 285.317C156.596 286.181 155.795 286.861 154.79 287.356C153.793 287.851 152.622 288.098 151.278 288.098Z" fill="white"/>
<path d="M165.125 277.65V287.755H161.812V265.064H165.08V273.506H165.291C165.69 272.59 166.299 271.863 167.119 271.324C167.939 270.784 169.01 270.515 170.332 270.515C171.499 270.515 172.519 270.755 173.39 271.235C174.269 271.715 174.949 272.432 175.429 273.384C175.916 274.33 176.16 275.512 176.16 276.93V287.755H172.847V277.329C172.847 276.08 172.526 275.113 171.883 274.426C171.241 273.732 170.347 273.384 169.202 273.384C168.419 273.384 167.717 273.551 167.097 273.883C166.484 274.215 166 274.703 165.646 275.345C165.298 275.981 165.125 276.749 165.125 277.65Z" fill="white"/>
<path d="M183.894 277.65V287.755H180.581V270.736H183.761V273.506H183.971C184.363 272.605 184.976 271.881 185.81 271.335C186.652 270.788 187.712 270.515 188.99 270.515C190.15 270.515 191.165 270.759 192.037 271.246C192.909 271.726 193.584 272.443 194.065 273.395C194.545 274.348 194.785 275.526 194.785 276.93V287.755H191.472V277.329C191.472 276.095 191.151 275.131 190.508 274.437C189.865 273.735 188.983 273.384 187.86 273.384C187.092 273.384 186.409 273.551 185.81 273.883C185.219 274.215 184.75 274.703 184.403 275.345C184.063 275.981 183.894 276.749 183.894 277.65Z" fill="white"/>
<path d="M206.396 288.098C204.801 288.098 203.408 287.732 202.219 287.001C201.03 286.27 200.107 285.247 199.449 283.932C198.792 282.617 198.463 281.081 198.463 279.323C198.463 277.558 198.792 276.014 199.449 274.692C200.107 273.37 201.03 272.343 202.219 271.612C203.408 270.88 204.801 270.515 206.396 270.515C207.992 270.515 209.384 270.88 210.573 271.612C211.762 272.343 212.686 273.37 213.343 274.692C214 276.014 214.329 277.558 214.329 279.323C214.329 281.081 214 282.617 213.343 283.932C212.686 285.247 211.762 286.27 210.573 287.001C209.384 287.732 207.992 288.098 206.396 288.098ZM206.407 285.317C207.441 285.317 208.298 285.044 208.978 284.497C209.657 283.951 210.159 283.223 210.484 282.314C210.817 281.406 210.983 280.405 210.983 279.312C210.983 278.226 210.817 277.229 210.484 276.32C210.159 275.405 209.657 274.67 208.978 274.116C208.298 273.562 207.441 273.285 206.407 273.285C205.366 273.285 204.502 273.562 203.815 274.116C203.135 274.67 202.629 275.405 202.297 276.32C201.972 277.229 201.809 278.226 201.809 279.312C201.809 280.405 201.972 281.406 202.297 282.314C202.629 283.223 203.135 283.951 203.815 284.497C204.502 285.044 205.366 285.317 206.407 285.317Z" fill="white"/>
<path d="M221.34 265.064V287.755H218.027V265.064H221.34Z" fill="white"/>
<path d="M232.965 288.098C231.369 288.098 229.977 287.732 228.788 287.001C227.599 286.27 226.675 285.247 226.018 283.932C225.361 282.617 225.032 281.081 225.032 279.323C225.032 277.558 225.361 276.014 226.018 274.692C226.675 273.37 227.599 272.343 228.788 271.612C229.977 270.88 231.369 270.515 232.965 270.515C234.56 270.515 235.953 270.88 237.142 271.612C238.331 272.343 239.254 273.37 239.912 274.692C240.569 276.014 240.898 277.558 240.898 279.323C240.898 281.081 240.569 282.617 239.912 283.932C239.254 285.247 238.331 286.27 237.142 287.001C235.953 287.732 234.56 288.098 232.965 288.098ZM232.976 285.317C234.01 285.317 234.867 285.044 235.546 284.497C236.226 283.951 236.728 283.223 237.053 282.314C237.386 281.406 237.552 280.405 237.552 279.312C237.552 278.226 237.386 277.229 237.053 276.32C236.728 275.405 236.226 274.67 235.546 274.116C234.867 273.562 234.01 273.285 232.976 273.285C231.934 273.285 231.07 273.562 230.383 274.116C229.704 274.67 229.198 275.405 228.865 276.32C228.54 277.229 228.378 278.226 228.378 279.312C228.378 280.405 228.54 281.406 228.865 282.314C229.198 283.223 229.704 283.951 230.383 284.497C231.07 285.044 231.934 285.317 232.976 285.317Z" fill="white"/>
<path d="M251.731 294.491C250.379 294.491 249.216 294.314 248.241 293.959C247.273 293.605 246.483 293.136 245.87 292.552C245.257 291.968 244.799 291.33 244.496 290.635L247.343 289.461C247.543 289.786 247.809 290.129 248.141 290.491C248.481 290.861 248.939 291.174 249.515 291.433C250.098 291.691 250.848 291.821 251.764 291.821C253.02 291.821 254.058 291.514 254.877 290.901C255.697 290.295 256.107 289.328 256.107 287.998V284.652H255.897C255.697 285.014 255.409 285.417 255.033 285.86C254.663 286.303 254.154 286.687 253.504 287.012C252.854 287.337 252.008 287.5 250.966 287.5C249.622 287.5 248.411 287.186 247.332 286.558C246.261 285.923 245.412 284.988 244.784 283.755C244.164 282.514 243.853 280.989 243.853 279.179C243.853 277.369 244.16 275.818 244.773 274.526C245.393 273.233 246.243 272.243 247.321 271.556C248.4 270.862 249.622 270.515 250.989 270.515C252.045 270.515 252.898 270.692 253.548 271.047C254.198 271.394 254.704 271.8 255.066 272.265C255.435 272.731 255.719 273.141 255.919 273.495H256.163V270.736H259.409V288.131C259.409 289.594 259.069 290.794 258.39 291.732C257.71 292.67 256.79 293.364 255.631 293.815C254.479 294.266 253.179 294.491 251.731 294.491ZM251.698 284.752C252.65 284.752 253.456 284.53 254.113 284.087C254.778 283.637 255.28 282.994 255.62 282.159C255.967 281.317 256.141 280.309 256.141 279.135C256.141 277.99 255.971 276.982 255.631 276.11C255.291 275.238 254.792 274.559 254.135 274.071C253.478 273.576 252.665 273.329 251.698 273.329C250.7 273.329 249.869 273.588 249.205 274.105C248.54 274.614 248.038 275.309 247.698 276.188C247.366 277.066 247.199 278.049 247.199 279.135C247.199 280.25 247.369 281.229 247.709 282.071C248.049 282.913 248.551 283.57 249.216 284.043C249.888 284.516 250.715 284.752 251.698 284.752Z" fill="white"/>
<path d="M263.852 287.755V270.736H267.165V287.755H263.852ZM265.525 268.111C264.949 268.111 264.454 267.918 264.04 267.534C263.634 267.143 263.431 266.678 263.431 266.138C263.431 265.592 263.634 265.126 264.04 264.742C264.454 264.351 264.949 264.155 265.525 264.155C266.101 264.155 266.592 264.351 266.998 264.742C267.412 265.126 267.619 265.592 267.619 266.138C267.619 266.678 267.412 267.143 266.998 267.534C266.592 267.918 266.101 268.111 265.525 268.111Z" fill="white"/>
<path d="M278.956 288.098C277.279 288.098 275.835 287.74 274.624 287.023C273.42 286.299 272.489 285.284 271.832 283.976C271.182 282.662 270.857 281.122 270.857 279.356C270.857 277.613 271.182 276.077 271.832 274.747C272.489 273.418 273.405 272.38 274.58 271.634C275.761 270.888 277.143 270.515 278.723 270.515C279.684 270.515 280.614 270.674 281.515 270.991C282.417 271.309 283.225 271.807 283.942 272.487C284.658 273.166 285.223 274.049 285.637 275.135C286.051 276.213 286.257 277.524 286.257 279.068V280.243H272.729V277.761H283.011C283.011 276.889 282.834 276.117 282.479 275.445C282.125 274.766 281.626 274.23 280.984 273.839C280.348 273.447 279.602 273.251 278.746 273.251C277.815 273.251 277.002 273.48 276.308 273.938C275.621 274.389 275.089 274.98 274.713 275.711C274.343 276.435 274.159 277.222 274.159 278.071V280.01C274.159 281.147 274.358 282.115 274.757 282.913C275.163 283.711 275.728 284.32 276.452 284.741C277.176 285.155 278.022 285.361 278.989 285.361C279.617 285.361 280.19 285.273 280.707 285.095C281.224 284.911 281.671 284.638 282.047 284.276C282.424 283.914 282.712 283.467 282.911 282.935L286.047 283.5C285.796 284.423 285.345 285.232 284.695 285.926C284.053 286.613 283.244 287.149 282.269 287.533C281.301 287.91 280.197 288.098 278.956 288.098Z" fill="white"/>
<path d="M302.686 274.891L299.683 275.423C299.558 275.039 299.358 274.673 299.085 274.326C298.819 273.979 298.457 273.695 297.999 273.473C297.541 273.251 296.969 273.141 296.282 273.141C295.344 273.141 294.561 273.351 293.933 273.772C293.305 274.186 292.991 274.721 292.991 275.379C292.991 275.947 293.202 276.405 293.623 276.753C294.044 277.1 294.723 277.384 295.661 277.606L298.365 278.226C299.931 278.588 301.098 279.146 301.866 279.899C302.634 280.653 303.018 281.631 303.018 282.835C303.018 283.855 302.723 284.763 302.132 285.561C301.548 286.351 300.732 286.972 299.683 287.422C298.642 287.873 297.434 288.098 296.06 288.098C294.154 288.098 292.6 287.692 291.396 286.879C290.192 286.059 289.453 284.896 289.18 283.389L292.382 282.902C292.581 283.736 292.991 284.368 293.612 284.796C294.232 285.217 295.041 285.428 296.038 285.428C297.124 285.428 297.992 285.203 298.642 284.752C299.292 284.294 299.617 283.736 299.617 283.079C299.617 282.547 299.417 282.1 299.018 281.738C298.627 281.376 298.025 281.103 297.212 280.918L294.332 280.287C292.744 279.925 291.569 279.349 290.808 278.559C290.055 277.768 289.678 276.767 289.678 275.556C289.678 274.551 289.959 273.672 290.52 272.919C291.082 272.166 291.857 271.578 292.847 271.157C293.837 270.729 294.971 270.515 296.248 270.515C298.088 270.515 299.535 270.914 300.592 271.711C301.648 272.502 302.346 273.562 302.686 274.891Z" fill="white"/>
<path d="M323.017 270.736V273.395H313.4V270.736H323.017ZM316.037 287.755V268.764C316.037 267.701 316.269 266.818 316.735 266.116C317.2 265.407 317.817 264.879 318.585 264.532C319.353 264.177 320.188 264 321.089 264C321.754 264 322.322 264.055 322.795 264.166C323.268 264.27 323.619 264.366 323.848 264.454L323.072 267.136C322.917 267.091 322.717 267.039 322.474 266.98C322.23 266.914 321.935 266.881 321.587 266.881C320.782 266.881 320.206 267.08 319.859 267.479C319.519 267.878 319.349 268.454 319.349 269.207V287.755H316.037Z" fill="white"/>
<path d="M332.933 288.098C331.337 288.098 329.945 287.732 328.756 287.001C327.567 286.27 326.643 285.247 325.986 283.932C325.329 282.617 325 281.081 325 279.323C325 277.558 325.329 276.014 325.986 274.692C326.643 273.37 327.567 272.343 328.756 271.612C329.945 270.88 331.337 270.515 332.933 270.515C334.528 270.515 335.921 270.88 337.11 271.612C338.299 272.343 339.222 273.37 339.88 274.692C340.537 276.014 340.866 277.558 340.866 279.323C340.866 281.081 340.537 282.617 339.88 283.932C339.222 285.247 338.299 286.27 337.11 287.001C335.921 287.732 334.528 288.098 332.933 288.098ZM332.944 285.317C333.978 285.317 334.835 285.044 335.514 284.497C336.194 283.951 336.696 283.223 337.021 282.314C337.354 281.406 337.52 280.405 337.52 279.312C337.52 278.226 337.354 277.229 337.021 276.32C336.696 275.405 336.194 274.67 335.514 274.116C334.835 273.562 333.978 273.285 332.944 273.285C331.902 273.285 331.038 273.562 330.351 274.116C329.672 274.67 329.166 275.405 328.833 276.32C328.508 277.229 328.346 278.226 328.346 279.312C328.346 280.405 328.508 281.406 328.833 282.314C329.166 283.223 329.672 283.951 330.351 284.497C331.038 285.044 331.902 285.317 332.944 285.317Z" fill="white"/>
<path d="M344.564 287.755V270.736H347.766V273.44H347.943C348.253 272.524 348.8 271.804 349.583 271.279C350.373 270.747 351.267 270.482 352.264 270.482C352.471 270.482 352.714 270.489 352.995 270.504C353.283 270.518 353.508 270.537 353.671 270.559V273.728C353.538 273.691 353.302 273.65 352.962 273.606C352.622 273.554 352.282 273.528 351.943 273.528C351.16 273.528 350.462 273.695 349.849 274.027C349.243 274.352 348.763 274.806 348.408 275.39C348.054 275.966 347.876 276.623 347.876 277.362V287.755H344.564Z" fill="white"/>
<path d="M365.061 287.755V265.064H373.37C374.981 265.064 376.314 265.33 377.37 265.861C378.426 266.386 379.217 267.099 379.741 268C380.266 268.893 380.528 269.902 380.528 271.024C380.528 271.97 380.354 272.768 380.007 273.418C379.66 274.06 379.195 274.577 378.611 274.969C378.035 275.353 377.4 275.634 376.705 275.811V276.032C377.459 276.069 378.194 276.313 378.91 276.764C379.634 277.207 380.232 277.838 380.705 278.658C381.178 279.478 381.414 280.475 381.414 281.65C381.414 282.809 381.141 283.851 380.594 284.774C380.055 285.69 379.22 286.418 378.09 286.957C376.96 287.489 375.516 287.755 373.758 287.755H365.061ZM368.484 284.818H373.426C375.066 284.818 376.24 284.501 376.949 283.866C377.658 283.23 378.013 282.436 378.013 281.484C378.013 280.767 377.832 280.11 377.47 279.511C377.108 278.913 376.591 278.437 375.919 278.082C375.254 277.728 374.464 277.55 373.548 277.55H368.484V284.818ZM368.484 274.88H373.071C373.839 274.88 374.53 274.732 375.143 274.437C375.764 274.141 376.255 273.728 376.617 273.196C376.986 272.657 377.171 272.022 377.171 271.29C377.171 270.352 376.842 269.566 376.185 268.93C375.527 268.295 374.519 267.978 373.16 267.978H368.484V274.88Z" fill="white"/>
<path d="M392.544 288.098C390.867 288.098 389.423 287.74 388.211 287.023C387.008 286.299 386.077 285.284 385.419 283.976C384.769 282.662 384.444 281.122 384.444 279.356C384.444 277.613 384.769 276.077 385.419 274.747C386.077 273.418 386.993 272.38 388.167 271.634C389.349 270.888 390.73 270.515 392.311 270.515C393.271 270.515 394.202 270.674 395.103 270.991C396.004 271.309 396.813 271.807 397.529 272.487C398.246 273.166 398.811 274.049 399.225 275.135C399.638 276.213 399.845 277.524 399.845 279.068V280.243H386.317V277.761H396.599C396.599 276.889 396.421 276.117 396.067 275.445C395.712 274.766 395.214 274.23 394.571 273.839C393.936 273.447 393.19 273.251 392.333 273.251C391.402 273.251 390.59 273.48 389.896 273.938C389.209 274.389 388.677 274.98 388.3 275.711C387.931 276.435 387.746 277.222 387.746 278.071V280.01C387.746 281.147 387.946 282.115 388.344 282.913C388.751 283.711 389.316 284.32 390.04 284.741C390.763 285.155 391.609 285.361 392.577 285.361C393.205 285.361 393.777 285.273 394.294 285.095C394.811 284.911 395.258 284.638 395.635 284.276C396.011 283.914 396.3 283.467 396.499 282.935L399.634 283.5C399.383 284.423 398.933 285.232 398.283 285.926C397.64 286.613 396.831 287.149 395.856 287.533C394.889 287.91 393.784 288.098 392.544 288.098Z" fill="white"/>
<path d="M411.465 270.736V273.395H402.169V270.736H411.465ZM404.662 266.659H407.975V282.758C407.975 283.4 408.071 283.884 408.263 284.209C408.455 284.527 408.702 284.745 409.005 284.863C409.315 284.974 409.651 285.029 410.013 285.029C410.279 285.029 410.512 285.011 410.711 284.974C410.911 284.937 411.066 284.907 411.177 284.885L411.775 287.622C411.583 287.695 411.31 287.769 410.955 287.843C410.6 287.924 410.157 287.969 409.625 287.976C408.754 287.991 407.941 287.836 407.188 287.511C406.435 287.186 405.825 286.684 405.36 286.004C404.895 285.324 404.662 284.471 404.662 283.445V266.659Z" fill="white"/>
<path d="M423.073 270.736V273.395H413.778V270.736H423.073ZM416.27 266.659H419.583V282.758C419.583 283.4 419.679 283.884 419.871 284.209C420.063 284.527 420.311 284.745 420.614 284.863C420.924 284.974 421.26 285.029 421.622 285.029C421.888 285.029 422.12 285.011 422.32 284.974C422.519 284.937 422.674 284.907 422.785 284.885L423.384 287.622C423.191 287.695 422.918 287.769 422.564 287.843C422.209 287.924 421.766 287.969 421.234 287.976C420.362 287.991 419.55 287.836 418.797 287.511C418.043 287.186 417.434 286.684 416.968 286.004C416.503 285.324 416.27 284.471 416.27 283.445V266.659Z" fill="white"/>
<path d="M433.89 288.098C432.213 288.098 430.769 287.74 429.558 287.023C428.354 286.299 427.423 285.284 426.766 283.976C426.116 282.662 425.791 281.122 425.791 279.356C425.791 277.613 426.116 276.077 426.766 274.747C427.423 273.418 428.339 272.38 429.513 271.634C430.695 270.888 432.076 270.515 433.657 270.515C434.617 270.515 435.548 270.674 436.449 270.991C437.35 271.309 438.159 271.807 438.875 272.487C439.592 273.166 440.157 274.049 440.571 275.135C440.984 276.213 441.191 277.524 441.191 279.068V280.243H427.663V277.761H437.945C437.945 276.889 437.768 276.117 437.413 275.445C437.058 274.766 436.56 274.23 435.917 273.839C435.282 273.447 434.536 273.251 433.679 273.251C432.748 273.251 431.936 273.48 431.242 273.938C430.555 274.389 430.023 274.98 429.646 275.711C429.277 276.435 429.092 277.222 429.092 278.071V280.01C429.092 281.147 429.292 282.115 429.691 282.913C430.097 283.711 430.662 284.32 431.386 284.741C432.11 285.155 432.955 285.361 433.923 285.361C434.551 285.361 435.123 285.273 435.64 285.095C436.157 284.911 436.604 284.638 436.981 284.276C437.358 283.914 437.646 283.467 437.845 282.935L440.981 283.5C440.729 284.423 440.279 285.232 439.629 285.926C438.986 286.613 438.177 287.149 437.202 287.533C436.235 287.91 435.131 288.098 433.89 288.098Z" fill="white"/>
<path d="M444.867 287.755V270.736H448.069V273.44H448.246C448.556 272.524 449.103 271.804 449.886 271.279C450.676 270.747 451.57 270.482 452.567 270.482C452.774 270.482 453.018 270.489 453.298 270.504C453.586 270.518 453.812 270.537 453.974 270.559V273.728C453.841 273.691 453.605 273.65 453.265 273.606C452.925 273.554 452.585 273.528 452.246 273.528C451.463 273.528 450.765 273.695 450.152 274.027C449.546 274.352 449.066 274.806 448.711 275.39C448.357 275.966 448.18 276.623 448.18 277.362V287.755H444.867Z" fill="white"/>
<path d="M472.71 287.755H465.364V265.064H472.942C475.166 265.064 477.075 265.518 478.67 266.426C480.266 267.328 481.488 268.624 482.338 270.315C483.195 271.999 483.623 274.02 483.623 276.376C483.623 278.739 483.191 280.771 482.327 282.47C481.47 284.168 480.229 285.476 478.604 286.392C476.979 287.3 475.014 287.755 472.71 287.755ZM468.787 284.763H472.521C474.25 284.763 475.686 284.438 476.831 283.788C477.976 283.131 478.833 282.182 479.402 280.941C479.97 279.692 480.255 278.171 480.255 276.376C480.255 274.596 479.97 273.085 479.402 271.844C478.84 270.603 478.002 269.662 476.887 269.019C475.771 268.376 474.386 268.055 472.732 268.055H468.787V284.763Z" fill="white"/>
<path d="M494.949 288.098C493.272 288.098 491.828 287.74 490.617 287.023C489.413 286.299 488.482 285.284 487.825 283.976C487.175 282.662 486.85 281.122 486.85 279.356C486.85 277.613 487.175 276.077 487.825 274.747C488.482 273.418 489.398 272.38 490.573 271.634C491.754 270.888 493.136 270.515 494.716 270.515C495.677 270.515 496.607 270.674 497.508 270.991C498.41 271.309 499.218 271.807 499.935 272.487C500.651 273.166 501.216 274.049 501.63 275.135C502.044 276.213 502.25 277.524 502.25 279.068V280.243H488.722V277.761H499.004C499.004 276.889 498.827 276.117 498.472 275.445C498.118 274.766 497.619 274.23 496.977 273.839C496.341 273.447 495.595 273.251 494.739 273.251C493.808 273.251 492.995 273.48 492.301 273.938C491.614 274.389 491.082 274.98 490.706 275.711C490.336 276.435 490.152 277.222 490.152 278.071V280.01C490.152 281.147 490.351 282.115 490.75 282.913C491.156 283.711 491.721 284.32 492.445 284.741C493.169 285.155 494.015 285.361 494.982 285.361C495.61 285.361 496.183 285.273 496.7 285.095C497.217 284.911 497.664 284.638 498.04 284.276C498.417 283.914 498.705 283.467 498.904 282.935L502.04 283.5C501.789 284.423 501.338 285.232 500.688 285.926C500.046 286.613 499.237 287.149 498.262 287.533C497.294 287.91 496.19 288.098 494.949 288.098Z" fill="white"/>
<path d="M519.997 270.736L513.826 287.755H510.28L504.098 270.736H507.655L511.964 283.832H512.142L516.441 270.736H519.997Z" fill="white"/>
<path d="M529.866 288.098C528.19 288.098 526.745 287.74 525.534 287.023C524.33 286.299 523.399 285.284 522.742 283.976C522.092 282.662 521.767 281.122 521.767 279.356C521.767 277.613 522.092 276.077 522.742 274.747C523.399 273.418 524.315 272.38 525.49 271.634C526.672 270.888 528.053 270.515 529.634 270.515C530.594 270.515 531.524 270.674 532.426 270.991C533.327 271.309 534.135 271.807 534.852 272.487C535.568 273.166 536.134 274.049 536.547 275.135C536.961 276.213 537.168 277.524 537.168 279.068V280.243H523.64V277.761H533.921C533.921 276.889 533.744 276.117 533.39 275.445C533.035 274.766 532.536 274.23 531.894 273.839C531.259 273.447 530.513 273.251 529.656 273.251C528.725 273.251 527.913 273.48 527.218 273.938C526.531 274.389 525.999 274.98 525.623 275.711C525.253 276.435 525.069 277.222 525.069 278.071V280.01C525.069 281.147 525.268 282.115 525.667 282.913C526.073 283.711 526.638 284.32 527.362 284.741C528.086 285.155 528.932 285.361 529.899 285.361C530.527 285.361 531.1 285.273 531.617 285.095C532.134 284.911 532.581 284.638 532.957 284.276C533.334 283.914 533.622 283.467 533.822 282.935L536.957 283.5C536.706 284.423 536.255 285.232 535.605 285.926C534.963 286.613 534.154 287.149 533.179 287.533C532.211 287.91 531.107 288.098 529.866 288.098Z" fill="white"/>
<path d="M544.156 265.064V287.755H540.843V265.064H544.156Z" fill="white"/>
<path d="M555.781 288.098C554.186 288.098 552.793 287.732 551.604 287.001C550.415 286.27 549.492 285.247 548.834 283.932C548.177 282.617 547.848 281.081 547.848 279.323C547.848 277.558 548.177 276.014 548.834 274.692C549.492 273.37 550.415 272.343 551.604 271.612C552.793 270.88 554.186 270.515 555.781 270.515C557.377 270.515 558.769 270.88 559.958 271.612C561.147 272.343 562.071 273.37 562.728 274.692C563.386 276.014 563.714 277.558 563.714 279.323C563.714 281.081 563.386 282.617 562.728 283.932C562.071 285.247 561.147 286.27 559.958 287.001C558.769 287.732 557.377 288.098 555.781 288.098ZM555.792 285.317C556.826 285.317 557.683 285.044 558.363 284.497C559.042 283.951 559.545 283.223 559.87 282.314C560.202 281.406 560.368 280.405 560.368 279.312C560.368 278.226 560.202 277.229 559.87 276.32C559.545 275.405 559.042 274.67 558.363 274.116C557.683 273.562 556.826 273.285 555.792 273.285C554.751 273.285 553.887 273.562 553.2 274.116C552.52 274.67 552.014 275.405 551.682 276.32C551.357 277.229 551.194 278.226 551.194 279.312C551.194 280.405 551.357 281.406 551.682 282.314C552.014 283.223 552.52 283.951 553.2 284.497C553.887 285.044 554.751 285.317 555.792 285.317Z" fill="white"/>
<path d="M567.412 294.136V270.736H570.647V273.495H570.924C571.116 273.141 571.393 272.731 571.755 272.265C572.117 271.8 572.619 271.394 573.262 271.047C573.905 270.692 574.754 270.515 575.81 270.515C577.184 270.515 578.41 270.862 579.489 271.556C580.567 272.251 581.413 273.251 582.026 274.559C582.646 275.866 582.957 277.439 582.957 279.279C582.957 281.118 582.65 282.695 582.037 284.01C581.424 285.317 580.582 286.325 579.511 287.034C578.44 287.736 577.217 288.087 575.844 288.087C574.809 288.087 573.964 287.913 573.306 287.566C572.656 287.219 572.147 286.813 571.777 286.347C571.408 285.882 571.124 285.468 570.924 285.107H570.725V294.136H567.412ZM570.658 279.245C570.658 280.442 570.832 281.491 571.179 282.392C571.526 283.293 572.028 283.999 572.686 284.508C573.343 285.011 574.148 285.262 575.101 285.262C576.091 285.262 576.918 284.999 577.583 284.475C578.248 283.943 578.75 283.223 579.09 282.314C579.437 281.406 579.611 280.383 579.611 279.245C579.611 278.123 579.441 277.114 579.101 276.221C578.768 275.327 578.266 274.622 577.594 274.105C576.929 273.588 576.098 273.329 575.101 273.329C574.141 273.329 573.328 273.576 572.664 274.071C572.006 274.566 571.508 275.257 571.168 276.143C570.828 277.03 570.658 278.064 570.658 279.245Z" fill="white"/>
<path d="M586.668 287.755V270.736H589.848V273.506H590.059C590.413 272.568 590.993 271.837 591.798 271.313C592.603 270.781 593.567 270.515 594.69 270.515C595.827 270.515 596.78 270.781 597.548 271.313C598.324 271.844 598.896 272.576 599.266 273.506H599.443C599.849 272.598 600.496 271.874 601.382 271.335C602.268 270.788 603.325 270.515 604.551 270.515C606.094 270.515 607.354 270.999 608.329 271.966C609.311 272.934 609.802 274.393 609.802 276.343V287.755H606.49V276.653C606.49 275.501 606.176 274.666 605.548 274.149C604.92 273.632 604.17 273.373 603.299 273.373C602.22 273.373 601.382 273.706 600.784 274.37C600.185 275.028 599.886 275.874 599.886 276.908V287.755H596.584V276.442C596.584 275.519 596.296 274.777 595.72 274.215C595.144 273.654 594.394 273.373 593.471 273.373C592.843 273.373 592.263 273.539 591.732 273.872C591.207 274.197 590.782 274.651 590.457 275.235C590.14 275.818 589.981 276.494 589.981 277.262V287.755H586.668Z" fill="white"/>
<path d="M621.577 288.098C619.9 288.098 618.456 287.74 617.245 287.023C616.041 286.299 615.11 285.284 614.453 283.976C613.803 282.662 613.478 281.122 613.478 279.356C613.478 277.613 613.803 276.077 614.453 274.747C615.11 273.418 616.026 272.38 617.201 271.634C618.383 270.888 619.764 270.515 621.344 270.515C622.305 270.515 623.235 270.674 624.137 270.991C625.038 271.309 625.846 271.807 626.563 272.487C627.279 273.166 627.844 274.049 628.258 275.135C628.672 276.213 628.879 277.524 628.879 279.068V280.243H615.35V277.761H625.632C625.632 276.889 625.455 276.117 625.1 275.445C624.746 274.766 624.247 274.23 623.605 273.839C622.969 273.447 622.223 273.251 621.367 273.251C620.436 273.251 619.623 273.48 618.929 273.938C618.242 274.389 617.71 274.98 617.334 275.711C616.964 276.435 616.78 277.222 616.78 278.071V280.01C616.78 281.147 616.979 282.115 617.378 282.913C617.784 283.711 618.349 284.32 619.073 284.741C619.797 285.155 620.643 285.361 621.61 285.361C622.238 285.361 622.811 285.273 623.328 285.095C623.845 284.911 624.292 284.638 624.668 284.276C625.045 283.914 625.333 283.467 625.533 282.935L628.668 283.5C628.417 284.423 627.966 285.232 627.316 285.926C626.674 286.613 625.865 287.149 624.89 287.533C623.922 287.91 622.818 288.098 621.577 288.098Z" fill="white"/>
<path d="M635.867 277.65V287.755H632.554V270.736H635.734V273.506H635.945C636.336 272.605 636.949 271.881 637.784 271.335C638.626 270.788 639.686 270.515 640.964 270.515C642.123 270.515 643.139 270.759 644.01 271.246C644.882 271.726 645.558 272.443 646.038 273.395C646.518 274.348 646.758 275.526 646.758 276.93V287.755H643.445V277.329C643.445 276.095 643.124 275.131 642.481 274.437C641.839 273.735 640.956 273.384 639.833 273.384C639.065 273.384 638.382 273.551 637.784 273.883C637.193 274.215 636.724 274.703 636.377 275.345C636.037 275.981 635.867 276.749 635.867 277.65Z" fill="white"/>
<path d="M659.145 270.736V273.395H649.849V270.736H659.145ZM652.342 266.659H655.655V282.758C655.655 283.4 655.751 283.884 655.943 284.209C656.135 284.527 656.383 284.745 656.685 284.863C656.996 284.974 657.332 285.029 657.694 285.029C657.96 285.029 658.192 285.011 658.392 284.974C658.591 284.937 658.746 284.907 658.857 284.885L659.455 287.622C659.263 287.695 658.99 287.769 658.635 287.843C658.281 287.924 657.838 287.969 657.306 287.976C656.434 287.991 655.622 287.836 654.868 287.511C654.115 287.186 653.506 286.684 653.04 286.004C652.575 285.324 652.342 284.471 652.342 283.445V266.659Z" fill="white"/>
<path d="M455.355 175.063V221.099H432.337V175.063C432.337 170.817 430.828 167.211 427.81 164.244C424.843 161.226 421.237 159.717 416.992 159.717C412.746 159.717 409.114 161.226 406.096 164.244C403.13 167.211 401.646 170.817 401.646 175.063V221.099H378.628V175.063C378.628 170.817 377.119 167.211 374.101 164.244C371.134 161.226 367.528 159.717 363.283 159.717C359.037 159.717 355.405 161.226 352.387 164.244C349.421 167.211 347.937 170.817 347.937 175.063V221.099H324.919V175.063C324.919 164.475 328.653 155.446 336.121 147.978C343.64 140.459 352.694 136.699 363.283 136.699C373.769 136.699 382.72 140.357 390.137 147.671C397.554 140.357 406.506 136.699 416.992 136.699C427.58 136.699 436.608 140.459 444.076 147.978C451.596 155.446 455.355 164.475 455.355 175.063Z" fill="white"/>
<path d="M486.373 221.091H463.355V136.691H486.373V221.091ZM474.864 129.018C471.693 129.018 468.982 127.893 466.731 125.642C464.481 123.392 463.355 120.681 463.355 117.509C463.355 114.338 464.481 111.627 466.731 109.376C468.982 107.125 471.693 106 474.864 106C478.036 106 480.747 107.125 482.997 109.376C485.248 111.627 486.373 114.338 486.373 117.509C486.373 120.681 485.248 123.392 482.997 125.642C480.747 127.893 478.036 129.018 474.864 129.018Z" fill="white"/>
<path d="M571.101 175.063V221.099H548.083V175.063C548.083 170.817 546.574 167.211 543.556 164.244C540.589 161.226 536.983 159.717 532.737 159.717C528.492 159.717 524.86 161.226 521.842 164.244C518.875 167.211 517.392 170.817 517.392 175.063V221.099H494.373V175.063C494.373 164.475 498.108 155.446 505.576 147.978C513.095 140.459 522.149 136.699 532.737 136.699C543.325 136.699 552.354 140.459 559.822 147.978C567.341 155.446 571.101 164.475 571.101 175.063Z" fill="white"/>
<path d="M663.501 178.891C663.501 190.553 659.383 200.502 651.147 208.738C642.912 216.973 632.963 221.091 621.301 221.091C609.638 221.091 599.689 216.973 591.454 208.738C583.218 200.502 579.101 190.553 579.101 178.891C579.101 167.228 583.218 157.279 591.454 149.044C599.689 140.809 609.638 136.691 621.301 136.691H640.482V159.709H621.301C615.981 159.709 611.454 161.576 607.72 165.31C603.986 169.044 602.119 173.571 602.119 178.891C602.119 184.211 603.986 188.738 607.72 192.472C611.454 196.206 615.981 198.073 621.301 198.073C626.62 198.073 631.147 196.206 634.881 192.472C638.615 188.738 640.482 184.211 640.482 178.891V106H663.501V178.891Z" fill="white"/>
<path d="M77.5537 178.899C77.5537 167.237 81.6714 157.288 89.9068 149.052C98.1422 140.817 108.091 136.699 119.754 136.699C131.416 136.699 141.365 140.817 149.6 149.052C157.836 157.288 161.954 167.237 161.954 178.899C161.954 190.562 157.836 200.511 149.6 208.746C141.365 216.981 131.416 221.099 119.754 221.099H100.572V198.081H119.754C125.073 198.081 129.6 196.214 133.334 192.48C137.068 188.746 138.935 184.219 138.935 178.899C138.935 173.579 137.068 169.053 133.334 165.318C129.6 161.584 125.073 159.717 119.754 159.717C114.434 159.717 109.907 161.584 106.173 165.318C102.439 169.053 100.572 173.579 100.572 178.899V244.117H77.5537V178.899Z" fill="white"/>
<path d="M212.154 198.081C217.473 198.081 222 196.214 225.734 192.48C229.468 188.746 231.335 184.219 231.335 178.899C231.335 173.579 229.468 169.053 225.734 165.318C222 161.584 217.473 159.717 212.154 159.717C206.834 159.717 202.307 161.584 198.573 165.318C194.839 169.053 192.972 173.579 192.972 178.899C192.972 184.219 194.839 188.746 198.573 192.48C202.307 196.214 206.834 198.081 212.154 198.081ZM212.154 221.099C200.491 221.099 190.542 216.981 182.307 208.746C174.071 200.511 169.954 190.562 169.954 178.899C169.954 167.237 174.071 157.288 182.307 149.052C190.542 140.817 200.491 136.699 212.154 136.699C223.816 136.699 233.765 140.817 242 149.052C250.236 157.288 254.354 167.237 254.354 178.899C254.354 190.562 250.236 200.511 242 208.746C233.765 216.981 223.816 221.099 212.154 221.099Z" fill="white"/>
<path d="M285.373 136.717H305.015V159.736H285.373V182.754C285.373 186.999 286.856 190.631 289.823 193.649C292.841 196.616 296.472 198.099 300.718 198.099H316.367L316.37 221.117H300.718C290.13 221.117 281.076 217.383 273.557 209.915C266.088 202.396 262.354 193.342 262.354 182.754V113.699H285.373V136.717Z" fill="white"/>
<path d="M27.3535 136.699H61.879L61.8808 159.717H27.3535C26.2794 159.717 25.3586 160.101 24.5914 160.868C23.8752 161.584 23.5172 162.48 23.5172 163.554C23.5172 164.628 23.8752 165.549 24.5914 166.316C25.3586 167.032 26.2794 167.39 27.3535 167.39H42.699C50.1159 167.39 56.4332 170.024 61.6506 175.293C66.9192 180.511 69.5535 186.828 69.5535 194.245C69.5535 201.662 66.9192 208.004 61.6506 213.273C56.4332 218.49 50.1159 221.099 42.699 221.099H4.49902V198.081H42.699C43.7732 198.081 44.6683 197.723 45.3844 197.007C46.1517 196.24 46.5353 195.319 46.5353 194.245C46.5353 193.171 46.1517 192.275 45.3844 191.559C44.6683 190.792 43.7732 190.408 42.699 190.408H27.3535C19.9366 190.408 13.5938 187.8 8.3252 182.582C3.10775 177.314 0.499023 170.971 0.499023 163.554C0.499023 156.137 3.10775 149.82 8.3252 144.602C13.5938 139.334 19.9366 136.699 27.3535 136.699Z" fill="white"/>
<path fill-rule="evenodd" clip-rule="evenodd" d="M356.78 28.72L363.499 43L370.219 28.72L384.499 22L370.219 15.28L363.499 1L356.78 15.28L342.5 22L356.78 28.72ZM285.893 54.1458C281.672 43.9545 279.499 33.0314 279.499 22.0004L321.498 22.0004C321.498 27.5159 322.585 32.9774 324.696 38.0731C326.806 43.1688 329.9 47.7988 333.8 51.6989C337.7 55.599 342.33 58.6927 347.425 60.8034C352.521 62.9141 357.983 64.0004 363.498 64.0004L363.498 106C352.467 106 341.544 103.828 331.353 99.6063C321.162 95.3849 311.902 89.1975 304.102 81.3974C296.302 73.5973 290.114 64.3372 285.893 54.1458Z" fill="white"/>
</svg>
