<svg width="664" height="296" viewBox="0 0 664 296" fill="none" xmlns="http://www.w3.org/2000/svg">
<path d="M455.029 200.063V246.099H432.011V200.063C432.011 195.817 430.502 192.211 427.484 189.244C424.517 186.226 420.911 184.717 416.665 184.717C412.42 184.717 408.788 186.226 405.77 189.244C402.803 192.211 401.32 195.817 401.32 200.063V246.099H378.302V200.063C378.302 195.817 376.793 192.211 373.775 189.244C370.808 186.226 367.202 184.717 362.956 184.717C358.711 184.717 355.079 186.226 352.061 189.244C349.094 192.211 347.611 195.817 347.611 200.063V246.099H324.593V200.063C324.593 189.475 328.327 180.446 335.795 172.978C343.314 165.459 352.368 161.699 362.956 161.699C373.442 161.699 382.394 165.357 389.811 172.671C397.228 165.357 406.179 161.699 416.665 161.699C427.254 161.699 436.282 165.459 443.75 172.978C451.27 180.446 455.029 189.475 455.029 200.063Z" fill="white"/>
<path d="M486.047 246.091H463.029V161.691H486.047V246.091ZM474.538 154.018C471.367 154.018 468.656 152.893 466.405 150.642C464.155 148.392 463.029 145.681 463.029 142.509C463.029 139.338 464.155 136.627 466.405 134.376C468.656 132.125 471.367 131 474.538 131C477.71 131 480.421 132.125 482.671 134.376C484.922 136.627 486.047 139.338 486.047 142.509C486.047 145.681 484.922 148.392 482.671 150.642C480.421 152.893 477.71 154.018 474.538 154.018Z" fill="white"/>
<path d="M570.775 200.063V246.099H547.757V200.063C547.757 195.817 546.248 192.211 543.23 189.244C540.263 186.226 536.657 184.717 532.411 184.717C528.166 184.717 524.534 186.226 521.516 189.244C518.549 192.211 517.066 195.817 517.066 200.063V246.099H494.047V200.063C494.047 189.475 497.782 180.446 505.25 172.978C512.769 165.459 521.823 161.699 532.411 161.699C542.999 161.699 552.028 165.459 559.496 172.978C567.015 180.446 570.775 189.475 570.775 200.063Z" fill="white"/>
<path d="M663.175 203.891C663.175 215.553 659.057 225.502 650.821 233.738C642.586 241.973 632.637 246.091 620.975 246.091C609.312 246.091 599.363 241.973 591.128 233.738C582.892 225.502 578.775 215.553 578.775 203.891C578.775 192.228 582.892 182.279 591.128 174.044C599.363 165.809 609.312 161.691 620.975 161.691H640.156V184.709H620.975C615.655 184.709 611.128 186.576 607.394 190.31C603.66 194.044 601.793 198.571 601.793 203.891C601.793 209.211 603.66 213.738 607.394 217.472C611.128 221.206 615.655 223.073 620.975 223.073C626.294 223.073 630.821 221.206 634.555 217.472C638.289 213.738 640.156 209.211 640.156 203.891V131H663.175V203.891Z" fill="white"/>
<path d="M77.2275 203.899C77.2275 192.237 81.3452 182.288 89.5806 174.052C97.816 165.817 107.765 161.699 119.428 161.699C131.09 161.699 141.039 165.817 149.274 174.052C157.51 182.288 161.628 192.237 161.628 203.899C161.628 215.562 157.51 225.511 149.274 233.746C141.039 241.981 131.09 246.099 119.428 246.099H100.246V223.081H119.428C124.747 223.081 129.274 221.214 133.008 217.48C136.742 213.746 138.609 209.219 138.609 203.899C138.609 198.579 136.742 194.053 133.008 190.318C129.274 186.584 124.747 184.717 119.428 184.717C114.108 184.717 109.581 186.584 105.847 190.318C102.113 194.053 100.246 198.579 100.246 203.899V269.117H77.2275V203.899Z" fill="white"/>
<path d="M211.828 223.081C217.147 223.081 221.674 221.214 225.408 217.48C229.142 213.746 231.009 209.219 231.009 203.899C231.009 198.579 229.142 194.053 225.408 190.318C221.674 186.584 217.147 184.717 211.828 184.717C206.508 184.717 201.981 186.584 198.247 190.318C194.513 194.053 192.646 198.579 192.646 203.899C192.646 209.219 194.513 213.746 198.247 217.48C201.981 221.214 206.508 223.081 211.828 223.081ZM211.828 246.099C200.165 246.099 190.216 241.981 181.981 233.746C173.745 225.511 169.628 215.562 169.628 203.899C169.628 192.237 173.745 182.288 181.981 174.052C190.216 165.817 200.165 161.699 211.828 161.699C223.49 161.699 233.439 165.817 241.674 174.052C249.91 182.288 254.028 192.237 254.028 203.899C254.028 215.562 249.91 225.511 241.674 233.746C233.439 241.981 223.49 246.099 211.828 246.099Z" fill="white"/>
<path d="M285.047 161.717H304.689V184.736H285.047V207.754C285.047 211.999 286.53 215.631 289.497 218.649C292.515 221.616 296.146 223.099 300.392 223.099H316.041L316.044 246.117H300.392C289.804 246.117 280.75 242.383 273.231 234.915C265.762 227.396 262.028 218.342 262.028 207.754V138.699H285.047V161.717Z" fill="white"/>
<path d="M27.0274 161.699H61.5529L61.5547 184.717H27.0274C25.9533 184.717 25.0325 185.101 24.2653 185.868C23.5491 186.584 23.1911 187.48 23.1911 188.554C23.1911 189.628 23.5491 190.549 24.2653 191.316C25.0325 192.032 25.9533 192.39 27.0274 192.39H42.3729C49.7898 192.39 56.1071 195.024 61.3245 200.293C66.593 205.511 69.2273 211.828 69.2273 219.245C69.2273 226.662 66.593 233.004 61.3245 238.273C56.1071 243.49 49.7898 246.099 42.3729 246.099H4.17285V223.081H42.3729C43.4471 223.081 44.3422 222.723 45.0583 222.007C45.8256 221.24 46.2092 220.319 46.2092 219.245C46.2092 218.171 45.8256 217.275 45.0583 216.559C44.3422 215.792 43.4471 215.408 42.3729 215.408H27.0274C19.6105 215.408 13.2677 212.8 7.99903 207.582C2.78158 202.314 0.172852 195.971 0.172852 188.554C0.172852 181.137 2.78158 174.82 7.99903 169.602C13.2677 164.334 19.6105 161.699 27.0274 161.699Z" fill="white"/>
<path fill-rule="evenodd" clip-rule="evenodd" d="M356.453 53.72L363.173 68L369.893 53.72L384.173 47L369.893 40.28L363.173 26L356.453 40.28L342.174 47L356.453 53.72ZM285.567 79.1458C281.346 68.9545 279.173 58.0314 279.173 47.0004L321.172 47.0004C321.172 52.5159 322.259 57.9774 324.369 63.0731C326.48 68.1688 329.574 72.7988 333.474 76.6989C337.374 80.599 342.004 83.6927 347.099 85.8034C352.195 87.9141 357.656 89.0004 363.172 89.0004L363.172 131C352.141 131 341.218 128.828 331.027 124.606C320.836 120.385 311.576 114.198 303.776 106.397C295.976 98.5973 289.788 89.3372 285.567 79.1458Z" fill="white"/>
</svg>
