<svg width="664" height="295" viewBox="0 0 664 295" fill="none" xmlns="http://www.w3.org/2000/svg">
<path d="M12.3457 287.007H5V264.316H12.5784C14.8017 264.316 16.7111 264.77 18.3065 265.679C19.902 266.58 21.1244 267.876 21.9739 269.568C22.8307 271.252 23.2591 273.272 23.2591 275.628C23.2591 277.992 22.827 280.023 21.9628 281.722C21.106 283.421 19.8651 284.728 18.2401 285.644C16.6151 286.553 14.6503 287.007 12.3457 287.007ZM8.42358 284.016H12.1574C13.8858 284.016 15.3224 283.691 16.4673 283.041C17.6122 282.383 18.469 281.434 19.0378 280.193C19.6065 278.945 19.8909 277.423 19.8909 275.628C19.8909 273.848 19.6065 272.338 19.0378 271.097C18.4764 269.856 17.6381 268.914 16.5227 268.271C15.4074 267.629 14.0224 267.308 12.3679 267.308H8.42358V284.016Z" fill="black"/>
<path d="M27.2505 287.007V269.989H30.5633V287.007H27.2505ZM28.9235 267.363C28.3474 267.363 27.8525 267.171 27.4389 266.787C27.0326 266.395 26.8295 265.93 26.8295 265.391C26.8295 264.844 27.0326 264.379 27.4389 263.995C27.8525 263.603 28.3474 263.408 28.9235 263.408C29.4996 263.408 29.9908 263.603 30.3971 263.995C30.8107 264.379 31.0175 264.844 31.0175 265.391C31.0175 265.93 30.8107 266.395 30.3971 266.787C29.9908 267.171 29.4996 267.363 28.9235 267.363Z" fill="black"/>
<path d="M42.1553 293.743C40.8036 293.743 39.6402 293.566 38.6652 293.212C37.6976 292.857 36.9072 292.388 36.2942 291.804C35.6811 291.221 35.2232 290.582 34.9203 289.888L37.7678 288.713C37.9672 289.038 38.2331 289.382 38.5655 289.744C38.9053 290.113 39.3632 290.427 39.9394 290.685C40.5229 290.944 41.2726 291.073 42.1885 291.073C43.4442 291.073 44.482 290.767 45.3018 290.154C46.1217 289.548 46.5317 288.58 46.5317 287.251V283.905H46.3212C46.1217 284.267 45.8337 284.669 45.457 285.112C45.0876 285.556 44.578 285.94 43.928 286.265C43.278 286.59 42.4322 286.752 41.3908 286.752C40.0465 286.752 38.8351 286.438 37.7567 285.81C36.6857 285.175 35.8362 284.241 35.2084 283.007C34.5879 281.766 34.2777 280.241 34.2777 278.431C34.2777 276.622 34.5842 275.071 35.1973 273.778C35.8178 272.485 36.6672 271.496 37.7456 270.809C38.824 270.114 40.0465 269.767 41.4129 269.767C42.4692 269.767 43.3223 269.944 43.9723 270.299C44.6223 270.646 45.1283 271.052 45.4902 271.518C45.8595 271.983 46.1439 272.393 46.3433 272.748H46.5871V269.989H49.8334V287.384C49.8334 288.846 49.4936 290.046 48.8141 290.985C48.1345 291.923 47.2149 292.617 46.0553 293.068C44.903 293.518 43.603 293.743 42.1553 293.743ZM42.122 284.004C43.0749 284.004 43.88 283.783 44.5374 283.34C45.2021 282.889 45.7044 282.246 46.0442 281.412C46.3913 280.57 46.5649 279.562 46.5649 278.387C46.5649 277.242 46.395 276.234 46.0553 275.362C45.7155 274.491 45.2169 273.811 44.5595 273.324C43.9021 272.829 43.0896 272.581 42.122 272.581C41.1249 272.581 40.2939 272.84 39.6291 273.357C38.9643 273.867 38.4621 274.561 38.1223 275.44C37.7899 276.319 37.6237 277.301 37.6237 278.387C37.6237 279.502 37.7936 280.481 38.1334 281.323C38.4732 282.165 38.9754 282.823 39.6402 283.295C40.3124 283.768 41.1396 284.004 42.122 284.004Z" fill="black"/>
<path d="M54.2763 287.007V269.989H57.5891V287.007H54.2763ZM55.9493 267.363C55.3732 267.363 54.8783 267.171 54.4646 266.787C54.0584 266.395 53.8553 265.93 53.8553 265.391C53.8553 264.844 54.0584 264.379 54.4646 263.995C54.8783 263.603 55.3732 263.408 55.9493 263.408C56.5254 263.408 57.0166 263.603 57.4229 263.995C57.8365 264.379 58.0433 264.844 58.0433 265.391C58.0433 265.93 57.8365 266.395 57.4229 266.787C57.0166 267.171 56.5254 267.363 55.9493 267.363Z" fill="black"/>
<path d="M69.9898 269.989V272.648H60.6941V269.989H69.9898ZM63.187 265.912H66.4998V282.01C66.4998 282.653 66.5958 283.137 66.7879 283.462C66.9799 283.779 67.2273 283.997 67.5302 284.115C67.8404 284.226 68.1765 284.281 68.5384 284.281C68.8043 284.281 69.037 284.263 69.2364 284.226C69.4359 284.189 69.591 284.16 69.7018 284.137L70.3001 286.874C70.108 286.948 69.8347 287.022 69.4802 287.096C69.1256 287.177 68.6825 287.221 68.1506 287.229C67.2791 287.243 66.4666 287.088 65.7131 286.763C64.9597 286.438 64.3504 285.936 63.885 285.256C63.4197 284.577 63.187 283.724 63.187 282.697V265.912Z" fill="black"/>
<path d="M78.607 287.384C77.5285 287.384 76.5536 287.184 75.682 286.785C74.8104 286.379 74.1197 285.792 73.6101 285.024C73.1078 284.256 72.8567 283.314 72.8567 282.198C72.8567 281.238 73.0413 280.448 73.4107 279.827C73.78 279.207 74.2786 278.716 74.9064 278.354C75.5342 277.992 76.2359 277.719 77.0115 277.534C77.7871 277.349 78.5774 277.209 79.3825 277.113C80.4018 276.995 81.2291 276.899 81.8643 276.825C82.4996 276.744 82.9612 276.614 83.2493 276.437C83.5374 276.26 83.6814 275.972 83.6814 275.573V275.495C83.6814 274.528 83.4081 273.778 82.8615 273.246C82.3223 272.714 81.5172 272.448 80.4462 272.448C79.3308 272.448 78.4519 272.696 77.8092 273.191C77.174 273.678 76.7345 274.221 76.4908 274.819L73.3774 274.11C73.7467 273.076 74.2859 272.242 74.995 271.606C75.7115 270.964 76.5351 270.498 77.4658 270.21C78.3964 269.915 79.3751 269.767 80.4018 269.767C81.0814 269.767 81.8016 269.848 82.5624 270.011C83.3305 270.166 84.047 270.454 84.7118 270.875C85.3839 271.296 85.9342 271.898 86.3626 272.681C86.791 273.457 87.0053 274.465 87.0053 275.706V287.007H83.77V284.68H83.6371C83.4229 285.109 83.1016 285.53 82.6732 285.943C82.2448 286.357 81.6945 286.7 81.0223 286.974C80.3501 287.247 79.545 287.384 78.607 287.384ZM79.3271 284.725C80.243 284.725 81.026 284.544 81.676 284.182C82.3334 283.82 82.832 283.347 83.1717 282.764C83.5189 282.173 83.6925 281.541 83.6925 280.869V278.675C83.5743 278.793 83.3453 278.904 83.0055 279.008C82.6732 279.104 82.2928 279.189 81.8643 279.262C81.4359 279.329 81.0186 279.392 80.6124 279.451C80.2061 279.502 79.8663 279.547 79.593 279.584C78.9504 279.665 78.3632 279.802 77.8314 279.994C77.307 280.186 76.8859 280.463 76.5683 280.825C76.2581 281.179 76.103 281.652 76.103 282.243C76.103 283.063 76.4058 283.683 77.0115 284.104C77.6172 284.518 78.3891 284.725 79.3271 284.725Z" fill="black"/>
<path d="M94.7305 264.316V287.007H91.4177V264.316H94.7305Z" fill="black"/>
<path d="M106.591 267.263V264.316H124.152V267.263H117.072V287.007H113.66V267.263H106.591Z" fill="black"/>
<path d="M132.634 287.35C130.957 287.35 129.513 286.992 128.301 286.276C127.098 285.552 126.167 284.536 125.509 283.229C124.859 281.914 124.534 280.374 124.534 278.609C124.534 276.866 124.859 275.329 125.509 274C126.167 272.67 127.083 271.632 128.257 270.886C129.439 270.14 130.82 269.767 132.401 269.767C133.361 269.767 134.292 269.926 135.193 270.244C136.094 270.561 136.903 271.06 137.619 271.739C138.336 272.419 138.901 273.302 139.315 274.387C139.728 275.466 139.935 276.777 139.935 278.321V279.495H126.407V277.013H136.689C136.689 276.142 136.511 275.37 136.157 274.698C135.802 274.018 135.304 273.483 134.661 273.091C134.026 272.7 133.28 272.504 132.423 272.504C131.492 272.504 130.68 272.733 129.986 273.191C129.299 273.641 128.767 274.232 128.39 274.964C128.021 275.687 127.836 276.474 127.836 277.323V279.262C127.836 280.4 128.036 281.368 128.434 282.165C128.841 282.963 129.406 283.572 130.13 283.993C130.853 284.407 131.699 284.614 132.667 284.614C133.295 284.614 133.867 284.525 134.384 284.348C134.901 284.163 135.348 283.89 135.725 283.528C136.102 283.166 136.39 282.719 136.589 282.187L139.725 282.752C139.473 283.676 139.023 284.485 138.373 285.179C137.73 285.866 136.921 286.401 135.946 286.785C134.979 287.162 133.875 287.35 132.634 287.35Z" fill="black"/>
<path d="M150.779 287.35C149.132 287.35 147.714 286.977 146.525 286.231C145.343 285.478 144.434 284.44 143.799 283.118C143.164 281.796 142.846 280.282 142.846 278.575C142.846 276.847 143.171 275.322 143.821 274C144.471 272.67 145.387 271.632 146.569 270.886C147.751 270.14 149.143 269.767 150.746 269.767C152.038 269.767 153.191 270.007 154.203 270.487C155.215 270.96 156.031 271.625 156.651 272.482C157.279 273.339 157.652 274.339 157.77 275.484H154.546C154.369 274.687 153.963 274 153.327 273.423C152.7 272.847 151.858 272.559 150.801 272.559C149.878 272.559 149.069 272.803 148.375 273.291C147.688 273.771 147.152 274.458 146.768 275.351C146.384 276.238 146.192 277.287 146.192 278.498C146.192 279.739 146.381 280.81 146.757 281.711C147.134 282.612 147.666 283.31 148.353 283.805C149.047 284.3 149.863 284.547 150.801 284.547C151.429 284.547 151.998 284.433 152.508 284.204C153.025 283.967 153.457 283.631 153.804 283.196C154.158 282.76 154.406 282.235 154.546 281.622H157.77C157.652 282.723 157.294 283.705 156.696 284.569C156.097 285.434 155.296 286.113 154.291 286.608C153.294 287.103 152.123 287.35 150.779 287.35Z" fill="black"/>
<path d="M164.626 276.902V287.007H161.313V264.316H164.581V272.759H164.792C165.191 271.843 165.8 271.115 166.62 270.576C167.44 270.037 168.511 269.767 169.833 269.767C171 269.767 172.02 270.007 172.891 270.487C173.77 270.967 174.45 271.684 174.93 272.637C175.417 273.582 175.661 274.764 175.661 276.182V287.007H172.348V276.581C172.348 275.333 172.027 274.365 171.384 273.678C170.742 272.984 169.848 272.637 168.703 272.637C167.92 272.637 167.218 272.803 166.598 273.135C165.985 273.468 165.501 273.955 165.147 274.598C164.799 275.233 164.626 276.001 164.626 276.902Z" fill="black"/>
<path d="M183.395 276.902V287.007H180.082V269.989H183.262V272.759H183.472C183.864 271.858 184.477 271.134 185.311 270.587C186.153 270.041 187.213 269.767 188.491 269.767C189.651 269.767 190.666 270.011 191.538 270.498C192.41 270.979 193.085 271.695 193.566 272.648C194.046 273.601 194.286 274.779 194.286 276.182V287.007H190.973V276.581C190.973 275.348 190.652 274.384 190.009 273.689C189.366 272.988 188.484 272.637 187.361 272.637C186.593 272.637 185.91 272.803 185.311 273.135C184.72 273.468 184.251 273.955 183.904 274.598C183.564 275.233 183.395 276.001 183.395 276.902Z" fill="black"/>
<path d="M205.897 287.35C204.302 287.35 202.909 286.985 201.72 286.254C200.531 285.522 199.608 284.499 198.95 283.185C198.293 281.87 197.964 280.333 197.964 278.575C197.964 276.81 198.293 275.266 198.95 273.944C199.608 272.622 200.531 271.595 201.72 270.864C202.909 270.133 204.302 269.767 205.897 269.767C207.493 269.767 208.885 270.133 210.074 270.864C211.263 271.595 212.187 272.622 212.844 273.944C213.501 275.266 213.83 276.81 213.83 278.575C213.83 280.333 213.501 281.87 212.844 283.185C212.187 284.499 211.263 285.522 210.074 286.254C208.885 286.985 207.493 287.35 205.897 287.35ZM205.908 284.569C206.942 284.569 207.799 284.296 208.479 283.75C209.158 283.203 209.66 282.475 209.985 281.567C210.318 280.658 210.484 279.658 210.484 278.564C210.484 277.479 210.318 276.481 209.985 275.573C209.66 274.657 209.158 273.922 208.479 273.368C207.799 272.814 206.942 272.537 205.908 272.537C204.867 272.537 204.002 272.814 203.316 273.368C202.636 273.922 202.13 274.657 201.798 275.573C201.473 276.481 201.31 277.479 201.31 278.564C201.31 279.658 201.473 280.658 201.798 281.567C202.13 282.475 202.636 283.203 203.316 283.75C204.002 284.296 204.867 284.569 205.908 284.569Z" fill="black"/>
<path d="M220.841 264.316V287.007H217.528V264.316H220.841Z" fill="black"/>
<path d="M232.466 287.35C230.87 287.35 229.478 286.985 228.289 286.254C227.1 285.522 226.176 284.499 225.519 283.185C224.862 281.87 224.533 280.333 224.533 278.575C224.533 276.81 224.862 275.266 225.519 273.944C226.176 272.622 227.1 271.595 228.289 270.864C229.478 270.133 230.87 269.767 232.466 269.767C234.061 269.767 235.454 270.133 236.643 270.864C237.832 271.595 238.755 272.622 239.413 273.944C240.07 275.266 240.399 276.81 240.399 278.575C240.399 280.333 240.07 281.87 239.413 283.185C238.755 284.499 237.832 285.522 236.643 286.254C235.454 286.985 234.061 287.35 232.466 287.35ZM232.477 284.569C233.511 284.569 234.368 284.296 235.047 283.75C235.727 283.203 236.229 282.475 236.554 281.567C236.887 280.658 237.053 279.658 237.053 278.564C237.053 277.479 236.887 276.481 236.554 275.573C236.229 274.657 235.727 273.922 235.047 273.368C234.368 272.814 233.511 272.537 232.477 272.537C231.435 272.537 230.571 272.814 229.884 273.368C229.205 273.922 228.699 274.657 228.366 275.573C228.041 276.481 227.879 277.479 227.879 278.564C227.879 279.658 228.041 280.658 228.366 281.567C228.699 282.475 229.205 283.203 229.884 283.75C230.571 284.296 231.435 284.569 232.477 284.569Z" fill="black"/>
<path d="M251.232 293.743C249.88 293.743 248.717 293.566 247.742 293.212C246.774 292.857 245.984 292.388 245.371 291.804C244.758 291.221 244.3 290.582 243.997 289.888L246.844 288.713C247.044 289.038 247.31 289.382 247.642 289.744C247.982 290.113 248.44 290.427 249.016 290.685C249.599 290.944 250.349 291.073 251.265 291.073C252.521 291.073 253.559 290.767 254.378 290.154C255.198 289.548 255.608 288.58 255.608 287.251V283.905H255.398C255.198 284.267 254.91 284.669 254.534 285.112C254.164 285.556 253.655 285.94 253.005 286.265C252.355 286.59 251.509 286.752 250.467 286.752C249.123 286.752 247.912 286.438 246.833 285.81C245.762 285.175 244.913 284.241 244.285 283.007C243.664 281.766 243.354 280.241 243.354 278.431C243.354 276.622 243.661 275.071 244.274 273.778C244.894 272.485 245.744 271.496 246.822 270.809C247.901 270.114 249.123 269.767 250.489 269.767C251.546 269.767 252.399 269.944 253.049 270.299C253.699 270.646 254.205 271.052 254.567 271.518C254.936 271.983 255.22 272.393 255.42 272.748H255.664V269.989H258.91V287.384C258.91 288.846 258.57 290.046 257.891 290.985C257.211 291.923 256.291 292.617 255.132 293.068C253.98 293.518 252.68 293.743 251.232 293.743ZM251.199 284.004C252.151 284.004 252.957 283.783 253.614 283.34C254.279 282.889 254.781 282.246 255.121 281.412C255.468 280.57 255.641 279.562 255.641 278.387C255.641 277.242 255.472 276.234 255.132 275.362C254.792 274.491 254.293 273.811 253.636 273.324C252.979 272.829 252.166 272.581 251.199 272.581C250.201 272.581 249.37 272.84 248.706 273.357C248.041 273.867 247.539 274.561 247.199 275.44C246.866 276.319 246.7 277.301 246.7 278.387C246.7 279.502 246.87 280.481 247.21 281.323C247.55 282.165 248.052 282.823 248.717 283.295C249.389 283.768 250.216 284.004 251.199 284.004Z" fill="black"/>
<path d="M263.353 287.007V269.989H266.666V287.007H263.353ZM265.026 267.363C264.45 267.363 263.955 267.171 263.541 266.787C263.135 266.395 262.932 265.93 262.932 265.391C262.932 264.844 263.135 264.379 263.541 263.995C263.955 263.603 264.45 263.408 265.026 263.408C265.602 263.408 266.093 263.603 266.499 263.995C266.913 264.379 267.12 264.844 267.12 265.391C267.12 265.93 266.913 266.395 266.499 266.787C266.093 267.171 265.602 267.363 265.026 267.363Z" fill="black"/>
<path d="M278.457 287.35C276.78 287.35 275.336 286.992 274.125 286.276C272.921 285.552 271.99 284.536 271.333 283.229C270.683 281.914 270.358 280.374 270.358 278.609C270.358 276.866 270.683 275.329 271.333 274C271.99 272.67 272.906 271.632 274.081 270.886C275.262 270.14 276.644 269.767 278.224 269.767C279.185 269.767 280.115 269.926 281.016 270.244C281.918 270.561 282.726 271.06 283.443 271.739C284.159 272.419 284.724 273.302 285.138 274.387C285.552 275.466 285.758 276.777 285.758 278.321V279.495H272.23V277.013H282.512C282.512 276.142 282.335 275.37 281.98 274.698C281.626 274.018 281.127 273.483 280.485 273.091C279.849 272.7 279.103 272.504 278.247 272.504C277.316 272.504 276.503 272.733 275.809 273.191C275.122 273.641 274.59 274.232 274.214 274.964C273.844 275.687 273.66 276.474 273.66 277.323V279.262C273.66 280.4 273.859 281.368 274.258 282.165C274.664 282.963 275.229 283.572 275.953 283.993C276.677 284.407 277.523 284.614 278.49 284.614C279.118 284.614 279.691 284.525 280.208 284.348C280.725 284.163 281.172 283.89 281.548 283.528C281.925 283.166 282.213 282.719 282.412 282.187L285.548 282.752C285.297 283.676 284.846 284.485 284.196 285.179C283.554 285.866 282.745 286.401 281.77 286.785C280.802 287.162 279.698 287.35 278.457 287.35Z" fill="black"/>
<path d="M302.187 274.144L299.184 274.675C299.059 274.291 298.859 273.926 298.586 273.579C298.32 273.231 297.958 272.947 297.5 272.725C297.042 272.504 296.47 272.393 295.783 272.393C294.845 272.393 294.062 272.604 293.434 273.025C292.806 273.438 292.492 273.974 292.492 274.631C292.492 275.2 292.703 275.658 293.124 276.005C293.545 276.352 294.224 276.637 295.162 276.858L297.866 277.479C299.432 277.841 300.599 278.398 301.367 279.152C302.135 279.905 302.519 280.884 302.519 282.088C302.519 283.107 302.224 284.016 301.633 284.813C301.049 285.604 300.233 286.224 299.184 286.675C298.143 287.125 296.935 287.35 295.561 287.35C293.655 287.35 292.101 286.944 290.897 286.132C289.693 285.312 288.954 284.148 288.681 282.642L291.883 282.154C292.082 282.989 292.492 283.62 293.113 284.049C293.733 284.47 294.542 284.68 295.539 284.68C296.625 284.68 297.493 284.455 298.143 284.004C298.793 283.546 299.118 282.989 299.118 282.331C299.118 281.8 298.918 281.353 298.519 280.991C298.128 280.629 297.526 280.356 296.713 280.171L293.833 279.539C292.245 279.177 291.07 278.601 290.309 277.811C289.556 277.021 289.179 276.02 289.179 274.808C289.179 273.804 289.46 272.925 290.021 272.171C290.583 271.418 291.358 270.831 292.348 270.41C293.338 269.981 294.472 269.767 295.749 269.767C297.589 269.767 299.036 270.166 300.093 270.964C301.149 271.754 301.847 272.814 302.187 274.144Z" fill="black"/>
<path d="M322.518 269.989V272.648H312.901V269.989H322.518ZM315.538 287.007V268.017C315.538 266.953 315.77 266.07 316.236 265.369C316.701 264.66 317.318 264.131 318.086 263.784C318.854 263.43 319.689 263.252 320.59 263.252C321.255 263.252 321.823 263.308 322.296 263.419C322.769 263.522 323.12 263.618 323.349 263.707L322.573 266.388C322.418 266.344 322.218 266.292 321.975 266.233C321.731 266.166 321.436 266.133 321.088 266.133C320.283 266.133 319.707 266.333 319.36 266.731C319.02 267.13 318.85 267.706 318.85 268.46V287.007H315.538Z" fill="black"/>
<path d="M332.434 287.35C330.838 287.35 329.446 286.985 328.257 286.254C327.068 285.522 326.144 284.499 325.487 283.185C324.83 281.87 324.501 280.333 324.501 278.575C324.501 276.81 324.83 275.266 325.487 273.944C326.144 272.622 327.068 271.595 328.257 270.864C329.446 270.133 330.838 269.767 332.434 269.767C334.029 269.767 335.422 270.133 336.611 270.864C337.8 271.595 338.723 272.622 339.381 273.944C340.038 275.266 340.367 276.81 340.367 278.575C340.367 280.333 340.038 281.87 339.381 283.185C338.723 284.499 337.8 285.522 336.611 286.254C335.422 286.985 334.029 287.35 332.434 287.35ZM332.445 284.569C333.479 284.569 334.336 284.296 335.015 283.75C335.695 283.203 336.197 282.475 336.522 281.567C336.855 280.658 337.021 279.658 337.021 278.564C337.021 277.479 336.855 276.481 336.522 275.573C336.197 274.657 335.695 273.922 335.015 273.368C334.336 272.814 333.479 272.537 332.445 272.537C331.403 272.537 330.539 272.814 329.852 273.368C329.173 273.922 328.667 274.657 328.334 275.573C328.009 276.481 327.847 277.479 327.847 278.564C327.847 279.658 328.009 280.658 328.334 281.567C328.667 282.475 329.173 283.203 329.852 283.75C330.539 284.296 331.403 284.569 332.445 284.569Z" fill="black"/>
<path d="M344.065 287.007V269.989H347.267V272.692H347.444C347.754 271.776 348.301 271.056 349.084 270.532C349.874 270 350.768 269.734 351.765 269.734C351.972 269.734 352.215 269.741 352.496 269.756C352.784 269.771 353.009 269.789 353.172 269.812V272.98C353.039 272.943 352.803 272.903 352.463 272.858C352.123 272.807 351.783 272.781 351.444 272.781C350.661 272.781 349.963 272.947 349.35 273.279C348.744 273.604 348.264 274.059 347.909 274.642C347.555 275.218 347.377 275.876 347.377 276.614V287.007H344.065Z" fill="black"/>
<path d="M364.562 287.007V264.316H372.871C374.482 264.316 375.815 264.582 376.871 265.114C377.927 265.638 378.718 266.351 379.242 267.252C379.767 268.146 380.029 269.154 380.029 270.277C380.029 271.222 379.855 272.02 379.508 272.67C379.161 273.313 378.696 273.83 378.112 274.221C377.536 274.605 376.901 274.886 376.206 275.063V275.285C376.96 275.322 377.695 275.566 378.411 276.016C379.135 276.459 379.733 277.091 380.206 277.911C380.679 278.731 380.915 279.728 380.915 280.902C380.915 282.062 380.642 283.103 380.095 284.027C379.556 284.942 378.721 285.67 377.591 286.209C376.461 286.741 375.017 287.007 373.259 287.007H364.562ZM367.985 284.071H372.927C374.567 284.071 375.741 283.753 376.45 283.118C377.159 282.483 377.514 281.689 377.514 280.736C377.514 280.019 377.333 279.362 376.971 278.764C376.609 278.166 376.092 277.689 375.42 277.335C374.755 276.98 373.965 276.803 373.049 276.803H367.985V284.071ZM367.985 274.133H372.572C373.34 274.133 374.031 273.985 374.644 273.689C375.265 273.394 375.756 272.98 376.118 272.448C376.487 271.909 376.672 271.274 376.672 270.543C376.672 269.605 376.343 268.818 375.686 268.183C375.028 267.548 374.02 267.23 372.661 267.23H367.985V274.133Z" fill="black"/>
<path d="M392.045 287.35C390.368 287.35 388.924 286.992 387.712 286.276C386.508 285.552 385.578 284.536 384.92 283.229C384.27 281.914 383.945 280.374 383.945 278.609C383.945 276.866 384.27 275.329 384.92 274C385.578 272.67 386.494 271.632 387.668 270.886C388.85 270.14 390.231 269.767 391.812 269.767C392.772 269.767 393.703 269.926 394.604 270.244C395.505 270.561 396.314 271.06 397.03 271.739C397.747 272.419 398.312 273.302 398.726 274.387C399.139 275.466 399.346 276.777 399.346 278.321V279.495H385.818V277.013H396.1C396.1 276.142 395.922 275.37 395.568 274.698C395.213 274.018 394.715 273.483 394.072 273.091C393.437 272.7 392.691 272.504 391.834 272.504C390.903 272.504 390.091 272.733 389.397 273.191C388.71 273.641 388.178 274.232 387.801 274.964C387.432 275.687 387.247 276.474 387.247 277.323V279.262C387.247 280.4 387.447 281.368 387.845 282.165C388.252 282.963 388.817 283.572 389.541 283.993C390.264 284.407 391.11 284.614 392.078 284.614C392.706 284.614 393.278 284.525 393.795 284.348C394.312 284.163 394.759 283.89 395.136 283.528C395.512 283.166 395.801 282.719 396 282.187L399.135 282.752C398.884 283.676 398.434 284.485 397.784 285.179C397.141 285.866 396.332 286.401 395.357 286.785C394.39 287.162 393.285 287.35 392.045 287.35Z" fill="black"/>
<path d="M410.966 269.989V272.648H401.67V269.989H410.966ZM404.163 265.912H407.476V282.01C407.476 282.653 407.572 283.137 407.764 283.462C407.956 283.779 408.203 283.997 408.506 284.115C408.816 284.226 409.152 284.281 409.514 284.281C409.78 284.281 410.013 284.263 410.212 284.226C410.412 284.189 410.567 284.16 410.678 284.137L411.276 286.874C411.084 286.948 410.811 287.022 410.456 287.096C410.101 287.177 409.658 287.221 409.126 287.229C408.255 287.243 407.442 287.088 406.689 286.763C405.936 286.438 405.326 285.936 404.861 285.256C404.395 284.577 404.163 283.724 404.163 282.697V265.912Z" fill="black"/>
<path d="M422.574 269.989V272.648H413.279V269.989H422.574ZM415.771 265.912H419.084V282.01C419.084 282.653 419.18 283.137 419.372 283.462C419.564 283.779 419.812 283.997 420.115 284.115C420.425 284.226 420.761 284.281 421.123 284.281C421.389 284.281 421.621 284.263 421.821 284.226C422.02 284.189 422.175 284.16 422.286 284.137L422.884 286.874C422.692 286.948 422.419 287.022 422.065 287.096C421.71 287.177 421.267 287.221 420.735 287.229C419.863 287.243 419.051 287.088 418.298 286.763C417.544 286.438 416.935 285.936 416.469 285.256C416.004 284.577 415.771 283.724 415.771 282.697V265.912Z" fill="black"/>
<path d="M433.391 287.35C431.714 287.35 430.27 286.992 429.059 286.276C427.855 285.552 426.924 284.536 426.267 283.229C425.617 281.914 425.292 280.374 425.292 278.609C425.292 276.866 425.617 275.329 426.267 274C426.924 272.67 427.84 271.632 429.014 270.886C430.196 270.14 431.577 269.767 433.158 269.767C434.118 269.767 435.049 269.926 435.95 270.244C436.851 270.561 437.66 271.06 438.376 271.739C439.093 272.419 439.658 273.302 440.072 274.387C440.485 275.466 440.692 276.777 440.692 278.321V279.495H427.164V277.013H437.446C437.446 276.142 437.268 275.37 436.914 274.698C436.559 274.018 436.061 273.483 435.418 273.091C434.783 272.7 434.037 272.504 433.18 272.504C432.249 272.504 431.437 272.733 430.743 273.191C430.056 273.641 429.524 274.232 429.147 274.964C428.778 275.687 428.593 276.474 428.593 277.323V279.262C428.593 280.4 428.793 281.368 429.191 282.165C429.598 282.963 430.163 283.572 430.887 283.993C431.611 284.407 432.456 284.614 433.424 284.614C434.052 284.614 434.624 284.525 435.141 284.348C435.658 284.163 436.105 283.89 436.482 283.528C436.859 283.166 437.147 282.719 437.346 282.187L440.482 282.752C440.23 283.676 439.78 284.485 439.13 285.179C438.487 285.866 437.678 286.401 436.703 286.785C435.736 287.162 434.632 287.35 433.391 287.35Z" fill="black"/>
<path d="M444.368 287.007V269.989H447.57V272.692H447.747C448.057 271.776 448.604 271.056 449.387 270.532C450.177 270 451.071 269.734 452.068 269.734C452.275 269.734 452.519 269.741 452.799 269.756C453.087 269.771 453.313 269.789 453.475 269.812V272.98C453.342 272.943 453.106 272.903 452.766 272.858C452.426 272.807 452.086 272.781 451.747 272.781C450.964 272.781 450.266 272.947 449.653 273.279C449.047 273.604 448.567 274.059 448.212 274.642C447.858 275.218 447.68 275.876 447.68 276.614V287.007H444.368Z" fill="black"/>
<path d="M472.211 287.007H464.865V264.316H472.443C474.667 264.316 476.576 264.77 478.171 265.679C479.767 266.58 480.989 267.876 481.839 269.568C482.696 271.252 483.124 273.272 483.124 275.628C483.124 277.992 482.692 280.023 481.828 281.722C480.971 283.421 479.73 284.728 478.105 285.644C476.48 286.553 474.515 287.007 472.211 287.007ZM468.288 284.016H472.022C473.751 284.016 475.187 283.691 476.332 283.041C477.477 282.383 478.334 281.434 478.903 280.193C479.471 278.945 479.756 277.423 479.756 275.628C479.756 273.848 479.471 272.338 478.903 271.097C478.341 269.856 477.503 268.914 476.388 268.271C475.272 267.629 473.887 267.308 472.233 267.308H468.288V284.016Z" fill="black"/>
<path d="M494.45 287.35C492.773 287.35 491.329 286.992 490.118 286.276C488.914 285.552 487.983 284.536 487.326 283.229C486.676 281.914 486.351 280.374 486.351 278.609C486.351 276.866 486.676 275.329 487.326 274C487.983 272.67 488.899 271.632 490.074 270.886C491.255 270.14 492.637 269.767 494.217 269.767C495.178 269.767 496.108 269.926 497.009 270.244C497.911 270.561 498.719 271.06 499.436 271.739C500.152 272.419 500.717 273.302 501.131 274.387C501.545 275.466 501.751 276.777 501.751 278.321V279.495H488.223V277.013H498.505C498.505 276.142 498.328 275.37 497.973 274.698C497.619 274.018 497.12 273.483 496.478 273.091C495.842 272.7 495.096 272.504 494.24 272.504C493.309 272.504 492.496 272.733 491.802 273.191C491.115 273.641 490.583 274.232 490.207 274.964C489.837 275.687 489.653 276.474 489.653 277.323V279.262C489.653 280.4 489.852 281.368 490.251 282.165C490.657 282.963 491.222 283.572 491.946 283.993C492.67 284.407 493.516 284.614 494.483 284.614C495.111 284.614 495.684 284.525 496.201 284.348C496.718 284.163 497.164 283.89 497.541 283.528C497.918 283.166 498.206 282.719 498.405 282.187L501.541 282.752C501.29 283.676 500.839 284.485 500.189 285.179C499.547 285.866 498.738 286.401 497.763 286.785C496.795 287.162 495.691 287.35 494.45 287.35Z" fill="black"/>
<path d="M519.498 269.989L513.327 287.007H509.781L503.599 269.989H507.155L511.465 283.085H511.643L515.942 269.989H519.498Z" fill="black"/>
<path d="M529.367 287.35C527.69 287.35 526.246 286.992 525.035 286.276C523.831 285.552 522.9 284.536 522.243 283.229C521.593 281.914 521.268 280.374 521.268 278.609C521.268 276.866 521.593 275.329 522.243 274C522.9 272.67 523.816 271.632 524.991 270.886C526.173 270.14 527.554 269.767 529.135 269.767C530.095 269.767 531.025 269.926 531.927 270.244C532.828 270.561 533.636 271.06 534.353 271.739C535.069 272.419 535.635 273.302 536.048 274.387C536.462 275.466 536.669 276.777 536.669 278.321V279.495H523.141V277.013H533.422C533.422 276.142 533.245 275.37 532.891 274.698C532.536 274.018 532.037 273.483 531.395 273.091C530.76 272.7 530.013 272.504 529.157 272.504C528.226 272.504 527.414 272.733 526.719 273.191C526.032 273.641 525.5 274.232 525.124 274.964C524.754 275.687 524.57 276.474 524.57 277.323V279.262C524.57 280.4 524.769 281.368 525.168 282.165C525.574 282.963 526.139 283.572 526.863 283.993C527.587 284.407 528.433 284.614 529.4 284.614C530.028 284.614 530.601 284.525 531.118 284.348C531.635 284.163 532.082 283.89 532.458 283.528C532.835 283.166 533.123 282.719 533.323 282.187L536.458 282.752C536.207 283.676 535.756 284.485 535.106 285.179C534.464 285.866 533.655 286.401 532.68 286.785C531.712 287.162 530.608 287.35 529.367 287.35Z" fill="black"/>
<path d="M543.657 264.316V287.007H540.344V264.316H543.657Z" fill="black"/>
<path d="M555.282 287.35C553.687 287.35 552.294 286.985 551.105 286.254C549.916 285.522 548.993 284.499 548.335 283.185C547.678 281.87 547.349 280.333 547.349 278.575C547.349 276.81 547.678 275.266 548.335 273.944C548.993 272.622 549.916 271.595 551.105 270.864C552.294 270.133 553.687 269.767 555.282 269.767C556.878 269.767 558.27 270.133 559.459 270.864C560.648 271.595 561.572 272.622 562.229 273.944C562.887 275.266 563.215 276.81 563.215 278.575C563.215 280.333 562.887 281.87 562.229 283.185C561.572 284.499 560.648 285.522 559.459 286.254C558.27 286.985 556.878 287.35 555.282 287.35ZM555.293 284.569C556.327 284.569 557.184 284.296 557.864 283.75C558.543 283.203 559.046 282.475 559.371 281.567C559.703 280.658 559.869 279.658 559.869 278.564C559.869 277.479 559.703 276.481 559.371 275.573C559.046 274.657 558.543 273.922 557.864 273.368C557.184 272.814 556.327 272.537 555.293 272.537C554.252 272.537 553.388 272.814 552.701 273.368C552.021 273.922 551.515 274.657 551.183 275.573C550.858 276.481 550.695 277.479 550.695 278.564C550.695 279.658 550.858 280.658 551.183 281.567C551.515 282.475 552.021 283.203 552.701 283.75C553.388 284.296 554.252 284.569 555.293 284.569Z" fill="black"/>
<path d="M566.913 293.389V269.989H570.148V272.748H570.425C570.617 272.393 570.894 271.983 571.256 271.518C571.618 271.052 572.12 270.646 572.763 270.299C573.406 269.944 574.255 269.767 575.311 269.767C576.685 269.767 577.911 270.114 578.99 270.809C580.068 271.503 580.914 272.504 581.527 273.811C582.147 275.119 582.458 276.692 582.458 278.531C582.458 280.37 582.151 281.947 581.538 283.262C580.925 284.569 580.083 285.578 579.012 286.287C577.941 286.989 576.718 287.339 575.344 287.339C574.31 287.339 573.465 287.166 572.807 286.819C572.157 286.471 571.648 286.065 571.278 285.6C570.909 285.135 570.625 284.721 570.425 284.359H570.226V293.389H566.913ZM570.159 278.498C570.159 279.694 570.333 280.743 570.68 281.644C571.027 282.546 571.529 283.251 572.187 283.761C572.844 284.263 573.649 284.514 574.602 284.514C575.592 284.514 576.419 284.252 577.084 283.727C577.749 283.196 578.251 282.475 578.591 281.567C578.938 280.658 579.112 279.635 579.112 278.498C579.112 277.375 578.942 276.367 578.602 275.473C578.269 274.579 577.767 273.874 577.095 273.357C576.43 272.84 575.599 272.581 574.602 272.581C573.642 272.581 572.829 272.829 572.165 273.324C571.507 273.819 571.009 274.509 570.669 275.396C570.329 276.282 570.159 277.316 570.159 278.498Z" fill="black"/>
<path d="M586.169 287.007V269.989H589.349V272.759H589.56C589.914 271.821 590.494 271.089 591.299 270.565C592.104 270.033 593.068 269.767 594.191 269.767C595.328 269.767 596.281 270.033 597.049 270.565C597.825 271.097 598.397 271.828 598.767 272.759H598.944C599.35 271.85 599.997 271.126 600.883 270.587C601.769 270.041 602.826 269.767 604.052 269.767C605.595 269.767 606.855 270.251 607.83 271.219C608.812 272.186 609.303 273.645 609.303 275.595V287.007H605.991V275.905C605.991 274.753 605.677 273.918 605.049 273.401C604.421 272.884 603.671 272.626 602.8 272.626C601.721 272.626 600.883 272.958 600.285 273.623C599.686 274.28 599.387 275.126 599.387 276.16V287.007H596.085V275.695C596.085 274.771 595.797 274.029 595.221 273.468C594.645 272.906 593.895 272.626 592.972 272.626C592.344 272.626 591.764 272.792 591.233 273.124C590.708 273.449 590.283 273.904 589.958 274.487C589.641 275.071 589.482 275.746 589.482 276.515V287.007H586.169Z" fill="black"/>
<path d="M621.078 287.35C619.401 287.35 617.957 286.992 616.746 286.276C615.542 285.552 614.611 284.536 613.954 283.229C613.304 281.914 612.979 280.374 612.979 278.609C612.979 276.866 613.304 275.329 613.954 274C614.611 272.67 615.527 271.632 616.702 270.886C617.884 270.14 619.265 269.767 620.845 269.767C621.806 269.767 622.736 269.926 623.638 270.244C624.539 270.561 625.347 271.06 626.064 271.739C626.78 272.419 627.345 273.302 627.759 274.387C628.173 275.466 628.38 276.777 628.38 278.321V279.495H614.851V277.013H625.133C625.133 276.142 624.956 275.37 624.601 274.698C624.247 274.018 623.748 273.483 623.106 273.091C622.47 272.7 621.724 272.504 620.868 272.504C619.937 272.504 619.124 272.733 618.43 273.191C617.743 273.641 617.211 274.232 616.835 274.964C616.465 275.687 616.281 276.474 616.281 277.323V279.262C616.281 280.4 616.48 281.368 616.879 282.165C617.285 282.963 617.85 283.572 618.574 283.993C619.298 284.407 620.144 284.614 621.111 284.614C621.739 284.614 622.312 284.525 622.829 284.348C623.346 284.163 623.793 283.89 624.169 283.528C624.546 283.166 624.834 282.719 625.034 282.187L628.169 282.752C627.918 283.676 627.467 284.485 626.817 285.179C626.175 285.866 625.366 286.401 624.391 286.785C623.423 287.162 622.319 287.35 621.078 287.35Z" fill="black"/>
<path d="M635.368 276.902V287.007H632.055V269.989H635.235V272.759H635.445C635.837 271.858 636.45 271.134 637.285 270.587C638.127 270.041 639.187 269.767 640.465 269.767C641.624 269.767 642.64 270.011 643.511 270.498C644.383 270.979 645.059 271.695 645.539 272.648C646.019 273.601 646.259 274.779 646.259 276.182V287.007H642.946V276.581C642.946 275.348 642.625 274.384 641.982 273.689C641.34 272.988 640.457 272.637 639.334 272.637C638.566 272.637 637.883 272.803 637.285 273.135C636.694 273.468 636.225 273.955 635.878 274.598C635.538 275.233 635.368 276.001 635.368 276.902Z" fill="black"/>
<path d="M658.646 269.989V272.648H649.35V269.989H658.646ZM651.843 265.912H655.156V282.01C655.156 282.653 655.252 283.137 655.444 283.462C655.636 283.779 655.884 283.997 656.186 284.115C656.497 284.226 656.833 284.281 657.195 284.281C657.461 284.281 657.693 284.263 657.893 284.226C658.092 284.189 658.247 284.16 658.358 284.137L658.956 286.874C658.764 286.948 658.491 287.022 658.136 287.096C657.782 287.177 657.339 287.221 656.807 287.229C655.935 287.243 655.123 287.088 654.369 286.763C653.616 286.438 653.007 285.936 652.541 285.256C652.076 284.577 651.843 283.724 651.843 282.697V265.912Z" fill="black"/>
<path d="M454.856 174.315V220.352H431.838V174.315C431.838 170.07 430.329 166.464 427.311 163.497C424.344 160.479 420.738 158.97 416.493 158.97C412.247 158.97 408.615 160.479 405.597 163.497C402.631 166.464 401.147 170.07 401.147 174.315V220.352H378.129V174.315C378.129 170.07 376.62 166.464 373.602 163.497C370.635 160.479 367.029 158.97 362.784 158.97C358.538 158.97 354.906 160.479 351.888 163.497C348.922 166.464 347.438 170.07 347.438 174.315V220.352H324.42V174.315C324.42 163.727 328.154 154.699 335.622 147.231C343.141 139.711 352.195 135.952 362.784 135.952C373.27 135.952 382.221 139.609 389.638 146.924C397.055 139.609 406.007 135.952 416.493 135.952C427.081 135.952 436.109 139.711 443.577 147.231C451.097 154.699 454.856 163.727 454.856 174.315Z" fill="black"/>
<path d="M485.874 220.343H462.856V135.943H485.874V220.343ZM474.365 128.271C471.194 128.271 468.483 127.145 466.232 124.895C463.982 122.644 462.856 119.933 462.856 116.762C462.856 113.59 463.982 110.879 466.232 108.628C468.483 106.378 471.194 105.252 474.365 105.252C477.537 105.252 480.248 106.378 482.498 108.628C484.749 110.879 485.874 113.59 485.874 116.762C485.874 119.933 484.749 122.644 482.498 124.895C480.248 127.145 477.537 128.271 474.365 128.271Z" fill="black"/>
<path d="M570.602 174.315V220.352H547.584V174.315C547.584 170.07 546.075 166.464 543.057 163.497C540.09 160.479 536.484 158.97 532.238 158.97C527.993 158.97 524.361 160.479 521.343 163.497C518.376 166.464 516.893 170.07 516.893 174.315V220.352H493.874V174.315C493.874 163.727 497.609 154.699 505.077 147.231C512.596 139.711 521.65 135.952 532.238 135.952C542.826 135.952 551.855 139.711 559.323 147.231C566.842 154.699 570.602 163.727 570.602 174.315Z" fill="black"/>
<path d="M663.002 178.143C663.002 189.806 658.884 199.755 650.648 207.99C642.413 216.225 632.464 220.343 620.802 220.343C609.139 220.343 599.19 216.225 590.955 207.99C582.719 199.755 578.602 189.806 578.602 178.143C578.602 166.481 582.719 156.532 590.955 148.296C599.19 140.061 609.139 135.943 620.802 135.943H639.983V158.962H620.802C615.482 158.962 610.955 160.829 607.221 164.563C603.487 168.297 601.62 172.824 601.62 178.143C601.62 183.463 603.487 187.99 607.221 191.724C610.955 195.458 615.482 197.325 620.802 197.325C626.121 197.325 630.648 195.458 634.382 191.724C638.116 187.99 639.983 183.463 639.983 178.143V105.252H663.002V178.143Z" fill="black"/>
<path d="M77.0547 178.152C77.0547 166.489 81.1724 156.54 89.4078 148.305C97.6432 140.069 107.592 135.952 119.255 135.952C130.917 135.952 140.866 140.069 149.101 148.305C157.337 156.54 161.455 166.489 161.455 178.152C161.455 189.814 157.337 199.763 149.101 207.998C140.866 216.233 130.917 220.351 119.255 220.351H100.073V197.333H119.255C124.574 197.333 129.101 195.466 132.835 191.732C136.569 187.998 138.436 183.471 138.436 178.152C138.436 172.832 136.569 168.305 132.835 164.571C129.101 160.837 124.574 158.97 119.255 158.97C113.935 158.97 109.408 160.837 105.674 164.571C101.94 168.305 100.073 172.832 100.073 178.152V243.369H77.0547V178.152Z" fill="black"/>
<path d="M211.655 197.333C216.974 197.333 221.501 195.466 225.235 191.732C228.969 187.998 230.836 183.471 230.836 178.152C230.836 172.832 228.969 168.305 225.235 164.571C221.501 160.837 216.974 158.97 211.655 158.97C206.335 158.97 201.808 160.837 198.074 164.571C194.34 168.305 192.473 172.832 192.473 178.152C192.473 183.471 194.34 187.998 198.074 191.732C201.808 195.466 206.335 197.333 211.655 197.333ZM211.655 220.351C199.992 220.351 190.043 216.233 181.808 207.998C173.572 199.763 169.455 189.814 169.455 178.152C169.455 166.489 173.572 156.54 181.808 148.305C190.043 140.069 199.992 135.952 211.655 135.952C223.317 135.952 233.266 140.069 241.501 148.305C249.737 156.54 253.855 166.489 253.855 178.152C253.855 189.814 249.737 199.763 241.501 207.998C233.266 216.233 223.317 220.351 211.655 220.351Z" fill="black"/>
<path d="M284.874 135.97H304.516V158.988H284.874V182.006C284.874 186.252 286.357 189.883 289.324 192.901C292.342 195.868 295.973 197.352 300.219 197.352H315.868L315.871 220.37H300.219C289.631 220.37 280.577 216.636 273.058 209.168C265.589 201.648 261.855 192.595 261.855 182.006V112.952H284.874V135.97Z" fill="black"/>
<path d="M26.8545 135.952H61.38L61.3818 158.97H26.8545C25.7804 158.97 24.8596 159.353 24.0924 160.121C23.3762 160.837 23.0182 161.732 23.0182 162.806C23.0182 163.88 23.3762 164.801 24.0924 165.568C24.8596 166.284 25.7804 166.643 26.8545 166.643H42.2C49.6169 166.643 55.9342 169.277 61.1516 174.545C66.4202 179.763 69.0545 186.08 69.0545 193.497C69.0545 200.914 66.4202 207.257 61.1516 212.526C55.9342 217.743 49.6169 220.352 42.2 220.352H4V197.333H42.2C43.2742 197.333 44.1693 196.975 44.8854 196.259C45.6527 195.492 46.0363 194.571 46.0363 193.497C46.0363 192.423 45.6527 191.528 44.8854 190.812C44.1693 190.044 43.2742 189.661 42.2 189.661H26.8545C19.4376 189.661 13.0948 187.052 7.82618 181.835C2.60873 176.566 0 170.223 0 162.806C0 155.389 2.60873 149.072 7.82618 143.855C13.0948 138.586 19.4376 135.952 26.8545 135.952Z" fill="black"/>
<path fill-rule="evenodd" clip-rule="evenodd" d="M356.281 27.9725L363 42.2525L369.72 27.9725L384 21.2525L369.72 14.5325L363 0.252441L356.281 14.5325L342.001 21.2525L356.281 27.9725ZM285.394 53.3983C281.173 43.2069 279 32.2839 279 21.2528L320.999 21.2528C320.999 26.7683 322.086 32.2299 324.196 37.3255C326.307 42.4212 329.401 47.0513 333.301 50.9513C337.201 54.8514 341.831 57.9451 346.926 60.0558C352.022 62.1665 357.483 63.2529 362.999 63.2529L362.999 105.253C351.968 105.253 341.045 103.08 330.854 98.8588C320.663 94.6374 311.403 88.45 303.603 80.6498C295.803 72.8497 289.615 63.5896 285.394 53.3983Z" fill="black"/>
</svg>
