<svg width="664" height="296" viewBox="0 0 664 296" fill="none" xmlns="http://www.w3.org/2000/svg">
<path d="M455.73 200.315V246.352H432.712V200.315C432.712 196.07 431.203 192.464 428.185 189.497C425.218 186.479 421.612 184.97 417.367 184.97C413.121 184.97 409.489 186.479 406.471 189.497C403.505 192.464 402.021 196.07 402.021 200.315V246.352H379.003V200.315C379.003 196.07 377.494 192.464 374.476 189.497C371.509 186.479 367.903 184.97 363.658 184.97C359.412 184.97 355.78 186.479 352.762 189.497C349.796 192.464 348.312 196.07 348.312 200.315V246.352H325.294V200.315C325.294 189.727 329.028 180.699 336.496 173.231C344.015 165.711 353.069 161.952 363.658 161.952C374.144 161.952 383.095 165.609 390.512 172.924C397.929 165.609 406.881 161.952 417.367 161.952C427.955 161.952 436.983 165.711 444.451 173.231C451.971 180.699 455.73 189.727 455.73 200.315Z" fill="black"/>
<path d="M486.748 246.343H463.73V161.943H486.748V246.343ZM475.239 154.271C472.068 154.271 469.357 153.145 467.106 150.895C464.856 148.644 463.73 145.933 463.73 142.762C463.73 139.59 464.856 136.879 467.106 134.628C469.357 132.378 472.068 131.252 475.239 131.252C478.411 131.252 481.122 132.378 483.372 134.628C485.623 136.879 486.748 139.59 486.748 142.762C486.748 145.933 485.623 148.644 483.372 150.895C481.122 153.145 478.411 154.271 475.239 154.271Z" fill="black"/>
<path d="M571.476 200.315V246.352H548.458V200.315C548.458 196.07 546.949 192.464 543.931 189.497C540.964 186.479 537.358 184.97 533.112 184.97C528.867 184.97 525.235 186.479 522.217 189.497C519.25 192.464 517.767 196.07 517.767 200.315V246.352H494.748V200.315C494.748 189.727 498.483 180.699 505.951 173.231C513.47 165.711 522.524 161.952 533.112 161.952C543.7 161.952 552.729 165.711 560.197 173.231C567.716 180.699 571.476 189.727 571.476 200.315Z" fill="black"/>
<path d="M663.876 204.143C663.876 215.806 659.758 225.755 651.522 233.99C643.287 242.225 633.338 246.343 621.676 246.343C610.013 246.343 600.064 242.225 591.829 233.99C583.593 225.755 579.476 215.806 579.476 204.143C579.476 192.481 583.593 182.532 591.829 174.296C600.064 166.061 610.013 161.943 621.676 161.943H640.857V184.962H621.676C616.356 184.962 611.829 186.829 608.095 190.563C604.361 194.297 602.494 198.824 602.494 204.143C602.494 209.463 604.361 213.99 608.095 217.724C611.829 221.458 616.356 223.325 621.676 223.325C626.995 223.325 631.522 221.458 635.256 217.724C638.99 213.99 640.857 209.463 640.857 204.143V131.252H663.876V204.143Z" fill="black"/>
<path d="M77.929 204.152C77.929 192.489 82.0467 182.54 90.2821 174.305C98.5175 166.069 108.466 161.952 120.129 161.952C131.791 161.952 141.74 166.069 149.975 174.305C158.211 182.54 162.329 192.489 162.329 204.152C162.329 215.814 158.211 225.763 149.975 233.998C141.74 242.233 131.791 246.351 120.129 246.351H100.947V223.333H120.129C125.448 223.333 129.975 221.466 133.709 217.732C137.443 213.998 139.31 209.471 139.31 204.152C139.31 198.832 137.443 194.305 133.709 190.571C129.975 186.837 125.448 184.97 120.129 184.97C114.809 184.97 110.282 186.837 106.548 190.571C102.814 194.305 100.947 198.832 100.947 204.152V269.369H77.929V204.152Z" fill="black"/>
<path d="M212.529 223.333C217.848 223.333 222.375 221.466 226.109 217.732C229.843 213.998 231.71 209.471 231.71 204.152C231.71 198.832 229.843 194.305 226.109 190.571C222.375 186.837 217.848 184.97 212.529 184.97C207.209 184.97 202.682 186.837 198.948 190.571C195.214 194.305 193.347 198.832 193.347 204.152C193.347 209.471 195.214 213.998 198.948 217.732C202.682 221.466 207.209 223.333 212.529 223.333ZM212.529 246.351C200.866 246.351 190.917 242.233 182.682 233.998C174.446 225.763 170.329 215.814 170.329 204.152C170.329 192.489 174.446 182.54 182.682 174.305C190.917 166.069 200.866 161.952 212.529 161.952C224.191 161.952 234.14 166.069 242.375 174.305C250.611 182.54 254.729 192.489 254.729 204.152C254.729 215.814 250.611 225.763 242.375 233.998C234.14 242.233 224.191 246.351 212.529 246.351Z" fill="black"/>
<path d="M285.749 161.97H305.391V184.988H285.749V208.006C285.749 212.252 287.231 215.883 290.198 218.901C293.216 221.868 296.848 223.352 301.094 223.352H316.742L316.746 246.37H301.094C290.506 246.37 281.451 242.636 273.932 235.168C266.463 227.648 262.729 218.595 262.729 208.006V138.952H285.749V161.97Z" fill="black"/>
<path d="M27.7288 161.952H62.2543L62.2561 184.97H27.7288C26.6547 184.97 25.7339 185.353 24.9667 186.121C24.2505 186.837 23.8925 187.732 23.8925 188.806C23.8925 189.88 24.2505 190.801 24.9667 191.568C25.7339 192.284 26.6547 192.643 27.7288 192.643H43.0743C50.4912 192.643 56.8085 195.277 62.0259 200.545C67.2945 205.763 69.9288 212.08 69.9288 219.497C69.9288 226.914 67.2945 233.257 62.0259 238.526C56.8085 243.743 50.4912 246.352 43.0743 246.352H4.87427V223.333H43.0743C44.1485 223.333 45.0436 222.975 45.7597 222.259C46.527 221.492 46.9106 220.571 46.9106 219.497C46.9106 218.423 46.527 217.528 45.7597 216.812C45.0436 216.044 44.1485 215.661 43.0743 215.661H27.7288C20.3119 215.661 13.9691 213.052 8.70045 207.835C3.483 202.566 0.874268 196.223 0.874268 188.806C0.874268 181.389 3.483 175.072 8.70045 169.855C13.9691 164.586 20.3119 161.952 27.7288 161.952Z" fill="black"/>
<path fill-rule="evenodd" clip-rule="evenodd" d="M357.155 53.9725L363.874 68.2525L370.594 53.9725L384.874 47.2525L370.594 40.5325L363.874 26.2524L357.155 40.5325L342.875 47.2525L357.155 53.9725ZM286.268 79.3983C282.047 69.2069 279.874 58.2839 279.874 47.2528L321.873 47.2528C321.873 52.7683 322.96 58.2299 325.071 63.3255C327.181 68.4212 330.275 73.0513 334.175 76.9513C338.075 80.8514 342.705 83.9451 347.8 86.0558C352.896 88.1665 358.358 89.2529 363.873 89.2529L363.873 131.253C352.842 131.253 341.919 129.08 331.728 124.859C321.537 120.637 312.277 114.45 304.477 106.65C296.677 98.8497 290.489 89.5896 286.268 79.3983Z" fill="black"/>
</svg>
