<svg width="664" height="295" viewBox="0 0 664 295" fill="none" xmlns="http://www.w3.org/2000/svg">
<path d="M454.871 200.315V246.352H431.853V200.315C431.853 196.07 430.344 192.464 427.326 189.497C424.359 186.479 420.753 184.97 416.507 184.97C412.262 184.97 408.63 186.479 405.612 189.497C402.645 192.464 401.162 196.07 401.162 200.315V246.352H378.144V200.315C378.144 196.07 376.635 192.464 373.617 189.497C370.65 186.479 367.044 184.97 362.798 184.97C358.553 184.97 354.921 186.479 351.903 189.497C348.936 192.464 347.453 196.07 347.453 200.315V246.352H324.435V200.315C324.435 189.727 328.169 180.699 335.637 173.231C343.156 165.711 352.21 161.952 362.798 161.952C373.284 161.952 382.236 165.609 389.653 172.924C397.07 165.609 406.021 161.952 416.507 161.952C427.096 161.952 436.124 165.711 443.592 173.231C451.112 180.699 454.871 189.727 454.871 200.315Z" fill="#141B4D"/>
<path d="M485.889 246.343H462.871V161.943H485.889V246.343ZM474.38 154.271C471.209 154.271 468.498 153.145 466.247 150.895C463.997 148.644 462.871 145.933 462.871 142.762C462.871 139.59 463.997 136.879 466.247 134.628C468.498 132.378 471.209 131.252 474.38 131.252C477.552 131.252 480.263 132.378 482.513 134.628C484.764 136.879 485.889 139.59 485.889 142.762C485.889 145.933 484.764 148.644 482.513 150.895C480.263 153.145 477.552 154.271 474.38 154.271Z" fill="#141B4D"/>
<path d="M570.617 200.315V246.352H547.599V200.315C547.599 196.07 546.09 192.464 543.072 189.497C540.105 186.479 536.499 184.97 532.253 184.97C528.008 184.97 524.376 186.479 521.358 189.497C518.391 192.464 516.908 196.07 516.908 200.315V246.352H493.889V200.315C493.889 189.727 497.624 180.699 505.092 173.231C512.611 165.711 521.665 161.952 532.253 161.952C542.841 161.952 551.87 165.711 559.338 173.231C566.857 180.699 570.617 189.727 570.617 200.315Z" fill="#141B4D"/>
<path d="M663.017 204.143C663.017 215.806 658.899 225.755 650.663 233.99C642.428 242.225 632.479 246.343 620.817 246.343C609.154 246.343 599.205 242.225 590.97 233.99C582.734 225.755 578.617 215.806 578.617 204.143C578.617 192.481 582.734 182.532 590.97 174.296C599.205 166.061 609.154 161.943 620.817 161.943H639.998V184.962H620.817C615.497 184.962 610.97 186.829 607.236 190.563C603.502 194.297 601.635 198.824 601.635 204.143C601.635 209.463 603.502 213.99 607.236 217.724C610.97 221.458 615.497 223.325 620.817 223.325C626.136 223.325 630.663 221.458 634.397 217.724C638.131 213.99 639.998 209.463 639.998 204.143V131.252H663.017V204.143Z" fill="#141B4D"/>
<path d="M77.0696 204.152C77.0696 192.489 81.1873 182.54 89.4227 174.305C97.6581 166.069 107.607 161.952 119.27 161.952C130.932 161.952 140.881 166.069 149.116 174.305C157.352 182.54 161.47 192.489 161.47 204.152C161.47 215.814 157.352 225.763 149.116 233.998C140.881 242.233 130.932 246.351 119.27 246.351H100.088V223.333H119.27C124.589 223.333 129.116 221.466 132.85 217.732C136.584 213.998 138.451 209.471 138.451 204.152C138.451 198.832 136.584 194.305 132.85 190.571C129.116 186.837 124.589 184.97 119.27 184.97C113.95 184.97 109.423 186.837 105.689 190.571C101.955 194.305 100.088 198.832 100.088 204.152V269.369H77.0696V204.152Z" fill="#FF6000"/>
<path d="M211.67 223.333C216.989 223.333 221.516 221.466 225.25 217.732C228.984 213.998 230.851 209.471 230.851 204.152C230.851 198.832 228.984 194.305 225.25 190.571C221.516 186.837 216.989 184.97 211.67 184.97C206.35 184.97 201.823 186.837 198.089 190.571C194.355 194.305 192.488 198.832 192.488 204.152C192.488 209.471 194.355 213.998 198.089 217.732C201.823 221.466 206.35 223.333 211.67 223.333ZM211.67 246.351C200.007 246.351 190.058 242.233 181.823 233.998C173.587 225.763 169.47 215.814 169.47 204.152C169.47 192.489 173.587 182.54 181.823 174.305C190.058 166.069 200.007 161.952 211.67 161.952C223.332 161.952 233.281 166.069 241.516 174.305C249.752 182.54 253.87 192.489 253.87 204.152C253.87 215.814 249.752 225.763 241.516 233.998C233.281 242.233 223.332 246.351 211.67 246.351Z" fill="#FF6000"/>
<path d="M284.889 161.97H304.531V184.988H284.889V208.006C284.889 212.252 286.372 215.883 289.339 218.901C292.357 221.868 295.988 223.352 300.234 223.352H315.883L315.886 246.37H300.234C289.646 246.37 280.592 242.636 273.073 235.168C265.604 227.648 261.87 218.595 261.87 208.006V138.952H284.889V161.97Z" fill="#FF6000"/>
<path d="M26.8694 161.952H61.3949L61.3967 184.97H26.8694C25.7953 184.97 24.8745 185.353 24.1073 186.121C23.3911 186.837 23.0331 187.732 23.0331 188.806C23.0331 189.88 23.3911 190.801 24.1073 191.568C24.8745 192.284 25.7953 192.643 26.8694 192.643H42.2149C49.6318 192.643 55.9491 195.277 61.1665 200.545C66.4351 205.763 69.0694 212.08 69.0694 219.497C69.0694 226.914 66.4351 233.257 61.1665 238.526C55.9491 243.743 49.6318 246.352 42.2149 246.352H4.01489V223.333H42.2149C43.2891 223.333 44.1842 222.975 44.9003 222.259C45.6676 221.492 46.0512 220.571 46.0512 219.497C46.0512 218.423 45.6676 217.528 44.9003 216.812C44.1842 216.044 43.2891 215.661 42.2149 215.661H26.8694C19.4525 215.661 13.1097 213.052 7.84107 207.835C2.62362 202.566 0.0148926 196.223 0.0148926 188.806C0.0148926 181.389 2.62362 175.072 7.84107 169.855C13.1097 164.586 19.4525 161.952 26.8694 161.952Z" fill="#FF6000"/>
<path fill-rule="evenodd" clip-rule="evenodd" d="M356.295 53.9725L363.015 68.2525L369.735 53.9725L384.015 47.2525L369.735 40.5325L363.015 26.2524L356.295 40.5325L342.015 47.2525L356.295 53.9725ZM285.409 79.3983C281.187 69.2069 279.015 58.2839 279.015 47.2528L321.014 47.2528C321.014 52.7683 322.1 58.2299 324.211 63.3255C326.322 68.4212 329.415 73.0513 333.315 76.9513C337.215 80.8514 341.845 83.9451 346.941 86.0558C352.037 88.1665 357.498 89.2529 363.014 89.2529L363.014 131.253C351.983 131.253 341.06 129.08 330.869 124.859C320.677 120.637 311.417 114.45 303.617 106.65C295.817 98.8497 289.63 89.5896 285.409 79.3983Z" fill="#FF6000"/>
</svg>
