<svg width="664" height="295" viewBox="0 0 664 295" fill="none" xmlns="http://www.w3.org/2000/svg">
<path d="M13.0931 287.007H5.74731V264.316H13.3257C15.549 264.316 17.4584 264.77 19.0538 265.679C20.6493 266.58 21.8717 267.876 22.7212 269.568C23.578 271.252 24.0064 273.272 24.0064 275.628C24.0064 277.992 23.5743 280.023 22.7101 281.722C21.8533 283.421 20.6124 284.728 18.9874 285.644C17.3624 286.553 15.3976 287.007 13.0931 287.007ZM9.17089 284.016H12.9047C14.6331 284.016 16.0698 283.691 17.2146 283.041C18.3595 282.383 19.2163 281.434 19.7851 280.193C20.3539 278.945 20.6382 277.423 20.6382 275.628C20.6382 273.848 20.3539 272.338 19.7851 271.097C19.2237 269.856 18.3854 268.914 17.27 268.271C16.1547 267.629 14.7698 267.308 13.1152 267.308H9.17089V284.016Z" fill="#67707E"/>
<path d="M27.9978 287.007V269.989H31.3106V287.007H27.9978ZM29.6708 267.363C29.0947 267.363 28.5998 267.171 28.1862 266.787C27.7799 266.395 27.5768 265.93 27.5768 265.391C27.5768 264.844 27.7799 264.379 28.1862 263.995C28.5998 263.603 29.0947 263.408 29.6708 263.408C30.247 263.408 30.7382 263.603 31.1444 263.995C31.558 264.379 31.7649 264.844 31.7649 265.391C31.7649 265.93 31.558 266.395 31.1444 266.787C30.7382 267.171 30.247 267.363 29.6708 267.363Z" fill="#67707E"/>
<path d="M42.9026 293.743C41.5509 293.743 40.3875 293.566 39.4125 293.212C38.4449 292.857 37.6546 292.388 37.0415 291.804C36.4284 291.221 35.9705 290.582 35.6676 289.888L38.5151 288.713C38.7145 289.038 38.9804 289.382 39.3128 289.744C39.6526 290.113 40.1105 290.427 40.6867 290.685C41.2702 290.944 42.0199 291.073 42.9358 291.073C44.1915 291.073 45.2293 290.767 46.0492 290.154C46.869 289.548 47.279 288.58 47.279 287.251V283.905H47.0685C46.869 284.267 46.581 284.669 46.2043 285.112C45.835 285.556 45.3253 285.94 44.6753 286.265C44.0253 286.59 43.1796 286.752 42.1381 286.752C40.7938 286.752 39.5824 286.438 38.504 285.81C37.433 285.175 36.5835 284.241 35.9557 283.007C35.3352 281.766 35.025 280.241 35.025 278.431C35.025 276.622 35.3316 275.071 35.9446 273.778C36.5651 272.485 37.4145 271.496 38.4929 270.809C39.5713 270.114 40.7938 269.767 42.1602 269.767C43.2165 269.767 44.0696 269.944 44.7196 270.299C45.3696 270.646 45.8756 271.052 46.2375 271.518C46.6068 271.983 46.8912 272.393 47.0906 272.748H47.3344V269.989H50.5807V287.384C50.5807 288.846 50.2409 290.046 49.5614 290.985C48.8818 291.923 47.9622 292.617 46.8026 293.068C45.6503 293.518 44.3503 293.743 42.9026 293.743ZM42.8693 284.004C43.8222 284.004 44.6273 283.783 45.2847 283.34C45.9494 282.889 46.4517 282.246 46.7915 281.412C47.1387 280.57 47.3122 279.562 47.3122 278.387C47.3122 277.242 47.1423 276.234 46.8026 275.362C46.4628 274.491 45.9642 273.811 45.3068 273.324C44.6494 272.829 43.8369 272.581 42.8693 272.581C41.8722 272.581 41.0412 272.84 40.3764 273.357C39.7117 273.867 39.2094 274.561 38.8696 275.44C38.5372 276.319 38.371 277.301 38.371 278.387C38.371 279.502 38.5409 280.481 38.8807 281.323C39.2205 282.165 39.7227 282.823 40.3875 283.295C41.0597 283.768 41.8869 284.004 42.8693 284.004Z" fill="#67707E"/>
<path d="M55.0236 287.007V269.989H58.3364V287.007H55.0236ZM56.6966 267.363C56.1205 267.363 55.6256 267.171 55.2119 266.787C54.8057 266.395 54.6026 265.93 54.6026 265.391C54.6026 264.844 54.8057 264.379 55.2119 263.995C55.6256 263.603 56.1205 263.408 56.6966 263.408C57.2727 263.408 57.7639 263.603 58.1702 263.995C58.5838 264.379 58.7906 264.844 58.7906 265.391C58.7906 265.93 58.5838 266.395 58.1702 266.787C57.7639 267.171 57.2727 267.363 56.6966 267.363Z" fill="#67707E"/>
<path d="M70.7372 269.989V272.648H61.4414V269.989H70.7372ZM63.9343 265.912H67.2471V282.01C67.2471 282.653 67.3431 283.137 67.5352 283.462C67.7272 283.779 67.9747 283.997 68.2775 284.115C68.5877 284.226 68.9238 284.281 69.2857 284.281C69.5517 284.281 69.7843 284.263 69.9837 284.226C70.1832 284.189 70.3383 284.16 70.4491 284.137L71.0474 286.874C70.8553 286.948 70.582 287.022 70.2275 287.096C69.873 287.177 69.4298 287.221 68.898 287.229C68.0264 287.243 67.2139 287.088 66.4605 286.763C65.707 286.438 65.0977 285.936 64.6323 285.256C64.167 284.577 63.9343 283.724 63.9343 282.697V265.912Z" fill="#67707E"/>
<path d="M79.3543 287.384C78.2759 287.384 77.3009 287.184 76.4293 286.785C75.5577 286.379 74.8671 285.792 74.3574 285.024C73.8551 284.256 73.604 283.314 73.604 282.198C73.604 281.238 73.7887 280.448 74.158 279.827C74.5273 279.207 75.0259 278.716 75.6537 278.354C76.2815 277.992 76.9833 277.719 77.7588 277.534C78.5344 277.349 79.3247 277.209 80.1298 277.113C81.1492 276.995 81.9764 276.899 82.6117 276.825C83.2469 276.744 83.7085 276.614 83.9966 276.437C84.2847 276.26 84.4287 275.972 84.4287 275.573V275.495C84.4287 274.528 84.1554 273.778 83.6088 273.246C83.0696 272.714 82.2645 272.448 81.1935 272.448C80.0781 272.448 79.1992 272.696 78.5565 273.191C77.9213 273.678 77.4818 274.221 77.2381 274.819L74.1247 274.11C74.494 273.076 75.0332 272.242 75.7423 271.606C76.4588 270.964 77.2824 270.498 78.2131 270.21C79.1438 269.915 80.1225 269.767 81.1492 269.767C81.8287 269.767 82.5489 269.848 83.3097 270.011C84.0779 270.166 84.7943 270.454 85.4591 270.875C86.1313 271.296 86.6815 271.898 87.11 272.681C87.5384 273.457 87.7526 274.465 87.7526 275.706V287.007H84.5173V284.68H84.3844C84.1702 285.109 83.8489 285.53 83.4205 285.943C82.9921 286.357 82.4418 286.7 81.7696 286.974C81.0975 287.247 80.2923 287.384 79.3543 287.384ZM80.0744 284.725C80.9904 284.725 81.7733 284.544 82.4233 284.182C83.0807 283.82 83.5793 283.347 83.919 282.764C84.2662 282.173 84.4398 281.541 84.4398 280.869V278.675C84.3216 278.793 84.0926 278.904 83.7529 279.008C83.4205 279.104 83.0401 279.189 82.6117 279.262C82.1833 279.329 81.7659 279.392 81.3597 279.451C80.9534 279.502 80.6136 279.547 80.3404 279.584C79.6977 279.665 79.1105 279.802 78.5787 279.994C78.0543 280.186 77.6332 280.463 77.3156 280.825C77.0054 281.179 76.8503 281.652 76.8503 282.243C76.8503 283.063 77.1531 283.683 77.7588 284.104C78.3645 284.518 79.1364 284.725 80.0744 284.725Z" fill="#67707E"/>
<path d="M95.4778 264.316V287.007H92.165V264.316H95.4778Z" fill="#67707E"/>
<path d="M107.338 267.263V264.316H124.9V267.263H117.82V287.007H114.407V267.263H107.338Z" fill="#67707E"/>
<path d="M133.381 287.35C131.704 287.35 130.26 286.992 129.049 286.276C127.845 285.552 126.914 284.536 126.257 283.229C125.607 281.914 125.282 280.374 125.282 278.609C125.282 276.866 125.607 275.329 126.257 274C126.914 272.67 127.83 271.632 129.004 270.886C130.186 270.14 131.568 269.767 133.148 269.767C134.108 269.767 135.039 269.926 135.94 270.244C136.841 270.561 137.65 271.06 138.367 271.739C139.083 272.419 139.648 273.302 140.062 274.387C140.476 275.466 140.682 276.777 140.682 278.321V279.495H127.154V277.013H137.436C137.436 276.142 137.259 275.37 136.904 274.698C136.55 274.018 136.051 273.483 135.408 273.091C134.773 272.7 134.027 272.504 133.17 272.504C132.24 272.504 131.427 272.733 130.733 273.191C130.046 273.641 129.514 274.232 129.137 274.964C128.768 275.687 128.583 276.474 128.583 277.323V279.262C128.583 280.4 128.783 281.368 129.182 282.165C129.588 282.963 130.153 283.572 130.877 283.993C131.601 284.407 132.447 284.614 133.414 284.614C134.042 284.614 134.614 284.525 135.131 284.348C135.649 284.163 136.095 283.89 136.472 283.528C136.849 283.166 137.137 282.719 137.336 282.187L140.472 282.752C140.221 283.676 139.77 284.485 139.12 285.179C138.478 285.866 137.669 286.401 136.694 286.785C135.726 287.162 134.622 287.35 133.381 287.35Z" fill="#67707E"/>
<path d="M151.526 287.35C149.879 287.35 148.461 286.977 147.272 286.231C146.09 285.478 145.182 284.44 144.546 283.118C143.911 281.796 143.593 280.282 143.593 278.575C143.593 276.847 143.918 275.322 144.568 274C145.218 272.67 146.134 271.632 147.316 270.886C148.498 270.14 149.89 269.767 151.493 269.767C152.786 269.767 153.938 270.007 154.95 270.487C155.962 270.96 156.778 271.625 157.399 272.482C158.026 273.339 158.399 274.339 158.518 275.484H155.293C155.116 274.687 154.71 274 154.075 273.423C153.447 272.847 152.605 272.559 151.549 272.559C150.625 272.559 149.816 272.803 149.122 273.291C148.435 273.771 147.9 274.458 147.516 275.351C147.132 276.238 146.939 277.287 146.939 278.498C146.939 279.739 147.128 280.81 147.505 281.711C147.881 282.612 148.413 283.31 149.1 283.805C149.794 284.3 150.611 284.547 151.549 284.547C152.176 284.547 152.745 284.433 153.255 284.204C153.772 283.967 154.204 283.631 154.551 283.196C154.906 282.76 155.153 282.235 155.293 281.622H158.518C158.399 282.723 158.041 283.705 157.443 284.569C156.845 285.434 156.043 286.113 155.039 286.608C154.041 287.103 152.871 287.35 151.526 287.35Z" fill="#67707E"/>
<path d="M165.373 276.902V287.007H162.06V264.316H165.329V272.759H165.539C165.938 271.843 166.548 271.115 167.367 270.576C168.187 270.037 169.258 269.767 170.58 269.767C171.748 269.767 172.767 270.007 173.638 270.487C174.517 270.967 175.197 271.684 175.677 272.637C176.165 273.582 176.408 274.764 176.408 276.182V287.007H173.096V276.581C173.096 275.333 172.774 274.365 172.132 273.678C171.489 272.984 170.595 272.637 169.45 272.637C168.667 272.637 167.966 272.803 167.345 273.135C166.732 273.468 166.248 273.955 165.894 274.598C165.547 275.233 165.373 276.001 165.373 276.902Z" fill="#67707E"/>
<path d="M184.142 276.902V287.007H180.829V269.989H184.009V272.759H184.219C184.611 271.858 185.224 271.134 186.059 270.587C186.901 270.041 187.961 269.767 189.238 269.767C190.398 269.767 191.414 270.011 192.285 270.498C193.157 270.979 193.833 271.695 194.313 272.648C194.793 273.601 195.033 274.779 195.033 276.182V287.007H191.72V276.581C191.72 275.348 191.399 274.384 190.756 273.689C190.114 272.988 189.231 272.637 188.108 272.637C187.34 272.637 186.657 272.803 186.059 273.135C185.468 273.468 184.999 273.955 184.652 274.598C184.312 275.233 184.142 276.001 184.142 276.902Z" fill="#67707E"/>
<path d="M206.644 287.35C205.049 287.35 203.657 286.985 202.467 286.254C201.278 285.522 200.355 284.499 199.698 283.185C199.04 281.87 198.711 280.333 198.711 278.575C198.711 276.81 199.04 275.266 199.698 273.944C200.355 272.622 201.278 271.595 202.467 270.864C203.657 270.133 205.049 269.767 206.644 269.767C208.24 269.767 209.632 270.133 210.821 270.864C212.011 271.595 212.934 272.622 213.591 273.944C214.249 275.266 214.577 276.81 214.577 278.575C214.577 280.333 214.249 281.87 213.591 283.185C212.934 284.499 212.011 285.522 210.821 286.254C209.632 286.985 208.24 287.35 206.644 287.35ZM206.655 284.569C207.69 284.569 208.546 284.296 209.226 283.75C209.905 283.203 210.408 282.475 210.733 281.567C211.065 280.658 211.231 279.658 211.231 278.564C211.231 277.479 211.065 276.481 210.733 275.573C210.408 274.657 209.905 273.922 209.226 273.368C208.546 272.814 207.69 272.537 206.655 272.537C205.614 272.537 204.75 272.814 204.063 273.368C203.383 273.922 202.877 274.657 202.545 275.573C202.22 276.481 202.057 277.479 202.057 278.564C202.057 279.658 202.22 280.658 202.545 281.567C202.877 282.475 203.383 283.203 204.063 283.75C204.75 284.296 205.614 284.569 206.655 284.569Z" fill="#67707E"/>
<path d="M221.588 264.316V287.007H218.275V264.316H221.588Z" fill="#67707E"/>
<path d="M233.213 287.35C231.618 287.35 230.225 286.985 229.036 286.254C227.847 285.522 226.924 284.499 226.266 283.185C225.609 281.87 225.28 280.333 225.28 278.575C225.28 276.81 225.609 275.266 226.266 273.944C226.924 272.622 227.847 271.595 229.036 270.864C230.225 270.133 231.618 269.767 233.213 269.767C234.809 269.767 236.201 270.133 237.39 270.864C238.579 271.595 239.503 272.622 240.16 273.944C240.817 275.266 241.146 276.81 241.146 278.575C241.146 280.333 240.817 281.87 240.16 283.185C239.503 284.499 238.579 285.522 237.39 286.254C236.201 286.985 234.809 287.35 233.213 287.35ZM233.224 284.569C234.258 284.569 235.115 284.296 235.795 283.75C236.474 283.203 236.977 282.475 237.302 281.567C237.634 280.658 237.8 279.658 237.8 278.564C237.8 277.479 237.634 276.481 237.302 275.573C236.977 274.657 236.474 273.922 235.795 273.368C235.115 272.814 234.258 272.537 233.224 272.537C232.183 272.537 231.319 272.814 230.632 273.368C229.952 273.922 229.446 274.657 229.114 275.573C228.789 276.481 228.626 277.479 228.626 278.564C228.626 279.658 228.789 280.658 229.114 281.567C229.446 282.475 229.952 283.203 230.632 283.75C231.319 284.296 232.183 284.569 233.224 284.569Z" fill="#67707E"/>
<path d="M251.979 293.743C250.627 293.743 249.464 293.566 248.489 293.212C247.521 292.857 246.731 292.388 246.118 291.804C245.505 291.221 245.047 290.582 244.744 289.888L247.592 288.713C247.791 289.038 248.057 289.382 248.389 289.744C248.729 290.113 249.187 290.427 249.763 290.685C250.347 290.944 251.096 291.073 252.012 291.073C253.268 291.073 254.306 290.767 255.126 290.154C255.946 289.548 256.356 288.58 256.356 287.251V283.905H256.145C255.946 284.267 255.658 284.669 255.281 285.112C254.912 285.556 254.402 285.94 253.752 286.265C253.102 286.59 252.256 286.752 251.215 286.752C249.87 286.752 248.659 286.438 247.581 285.81C246.51 285.175 245.66 284.241 245.032 283.007C244.412 281.766 244.102 280.241 244.102 278.431C244.102 276.622 244.408 275.071 245.021 273.778C245.642 272.485 246.491 271.496 247.569 270.809C248.648 270.114 249.87 269.767 251.237 269.767C252.293 269.767 253.146 269.944 253.796 270.299C254.446 270.646 254.952 271.052 255.314 271.518C255.683 271.983 255.968 272.393 256.167 272.748H256.411V269.989H259.657V287.384C259.657 288.846 259.317 290.046 258.638 290.985C257.958 291.923 257.039 292.617 255.879 293.068C254.727 293.518 253.427 293.743 251.979 293.743ZM251.946 284.004C252.899 284.004 253.704 283.783 254.361 283.34C255.026 282.889 255.528 282.246 255.868 281.412C256.215 280.57 256.389 279.562 256.389 278.387C256.389 277.242 256.219 276.234 255.879 275.362C255.539 274.491 255.041 273.811 254.383 273.324C253.726 272.829 252.914 272.581 251.946 272.581C250.949 272.581 250.118 272.84 249.453 273.357C248.788 273.867 248.286 274.561 247.946 275.44C247.614 276.319 247.448 277.301 247.448 278.387C247.448 279.502 247.617 280.481 247.957 281.323C248.297 282.165 248.799 282.823 249.464 283.295C250.136 283.768 250.964 284.004 251.946 284.004Z" fill="#67707E"/>
<path d="M264.1 287.007V269.989H267.413V287.007H264.1ZM265.773 267.363C265.197 267.363 264.702 267.171 264.289 266.787C263.882 266.395 263.679 265.93 263.679 265.391C263.679 264.844 263.882 264.379 264.289 263.995C264.702 263.603 265.197 263.408 265.773 263.408C266.349 263.408 266.84 263.603 267.247 263.995C267.66 264.379 267.867 264.844 267.867 265.391C267.867 265.93 267.66 266.395 267.247 266.787C266.84 267.171 266.349 267.363 265.773 267.363Z" fill="#67707E"/>
<path d="M279.204 287.35C277.528 287.35 276.084 286.992 274.872 286.276C273.668 285.552 272.738 284.536 272.08 283.229C271.43 281.914 271.105 280.374 271.105 278.609C271.105 276.866 271.43 275.329 272.08 274C272.738 272.67 273.654 271.632 274.828 270.886C276.01 270.14 277.391 269.767 278.972 269.767C279.932 269.767 280.863 269.926 281.764 270.244C282.665 270.561 283.474 271.06 284.19 271.739C284.907 272.419 285.472 273.302 285.885 274.387C286.299 275.466 286.506 276.777 286.506 278.321V279.495H272.978V277.013H283.259C283.259 276.142 283.082 275.37 282.728 274.698C282.373 274.018 281.875 273.483 281.232 273.091C280.597 272.7 279.851 272.504 278.994 272.504C278.063 272.504 277.251 272.733 276.556 273.191C275.869 273.641 275.338 274.232 274.961 274.964C274.592 275.687 274.407 276.474 274.407 277.323V279.262C274.407 280.4 274.606 281.368 275.005 282.165C275.411 282.963 275.977 283.572 276.7 283.993C277.424 284.407 278.27 284.614 279.238 284.614C279.865 284.614 280.438 284.525 280.955 284.348C281.472 284.163 281.919 283.89 282.296 283.528C282.672 283.166 282.96 282.719 283.16 282.187L286.295 282.752C286.044 283.676 285.594 284.485 284.944 285.179C284.301 285.866 283.492 286.401 282.517 286.785C281.549 287.162 280.445 287.35 279.204 287.35Z" fill="#67707E"/>
<path d="M302.934 274.144L299.931 274.675C299.806 274.291 299.606 273.926 299.333 273.579C299.067 273.231 298.705 272.947 298.247 272.725C297.789 272.504 297.217 272.393 296.53 272.393C295.592 272.393 294.809 272.604 294.181 273.025C293.553 273.438 293.239 273.974 293.239 274.631C293.239 275.2 293.45 275.658 293.871 276.005C294.292 276.352 294.971 276.637 295.91 276.858L298.613 277.479C300.179 277.841 301.346 278.398 302.114 279.152C302.882 279.905 303.266 280.884 303.266 282.088C303.266 283.107 302.971 284.016 302.38 284.813C301.796 285.604 300.98 286.224 299.931 286.675C298.89 287.125 297.682 287.35 296.308 287.35C294.403 287.35 292.848 286.944 291.644 286.132C290.44 285.312 289.701 284.148 289.428 282.642L292.63 282.154C292.829 282.989 293.239 283.62 293.86 284.049C294.48 284.47 295.289 284.68 296.286 284.68C297.372 284.68 298.24 284.455 298.89 284.004C299.54 283.546 299.865 282.989 299.865 282.331C299.865 281.8 299.666 281.353 299.267 280.991C298.875 280.629 298.273 280.356 297.461 280.171L294.58 279.539C292.992 279.177 291.818 278.601 291.057 277.811C290.303 277.021 289.927 276.02 289.927 274.808C289.927 273.804 290.207 272.925 290.769 272.171C291.33 271.418 292.106 270.831 293.095 270.41C294.085 269.981 295.219 269.767 296.497 269.767C298.336 269.767 299.784 270.166 300.84 270.964C301.896 271.754 302.594 272.814 302.934 274.144Z" fill="#67707E"/>
<path d="M323.265 269.989V272.648H313.648V269.989H323.265ZM316.285 287.007V268.017C316.285 266.953 316.518 266.07 316.983 265.369C317.448 264.66 318.065 264.131 318.833 263.784C319.601 263.43 320.436 263.252 321.337 263.252C322.002 263.252 322.571 263.308 323.043 263.419C323.516 263.522 323.867 263.618 324.096 263.707L323.32 266.388C323.165 266.344 322.966 266.292 322.722 266.233C322.478 266.166 322.183 266.133 321.836 266.133C321.031 266.133 320.454 266.333 320.107 266.731C319.767 267.13 319.598 267.706 319.598 268.46V287.007H316.285Z" fill="#67707E"/>
<path d="M333.181 287.35C331.586 287.35 330.193 286.985 329.004 286.254C327.815 285.522 326.892 284.499 326.234 283.185C325.577 281.87 325.248 280.333 325.248 278.575C325.248 276.81 325.577 275.266 326.234 273.944C326.892 272.622 327.815 271.595 329.004 270.864C330.193 270.133 331.586 269.767 333.181 269.767C334.777 269.767 336.169 270.133 337.358 270.864C338.547 271.595 339.471 272.622 340.128 273.944C340.785 275.266 341.114 276.81 341.114 278.575C341.114 280.333 340.785 281.87 340.128 283.185C339.471 284.499 338.547 285.522 337.358 286.254C336.169 286.985 334.777 287.35 333.181 287.35ZM333.192 284.569C334.226 284.569 335.083 284.296 335.763 283.75C336.442 283.203 336.944 282.475 337.269 281.567C337.602 280.658 337.768 279.658 337.768 278.564C337.768 277.479 337.602 276.481 337.269 275.573C336.944 274.657 336.442 273.922 335.763 273.368C335.083 272.814 334.226 272.537 333.192 272.537C332.151 272.537 331.287 272.814 330.6 273.368C329.92 273.922 329.414 274.657 329.082 275.573C328.757 276.481 328.594 277.479 328.594 278.564C328.594 279.658 328.757 280.658 329.082 281.567C329.414 282.475 329.92 283.203 330.6 283.75C331.287 284.296 332.151 284.569 333.192 284.569Z" fill="#67707E"/>
<path d="M344.812 287.007V269.989H348.014V272.692H348.191C348.501 271.776 349.048 271.056 349.831 270.532C350.621 270 351.515 269.734 352.512 269.734C352.719 269.734 352.963 269.741 353.243 269.756C353.531 269.771 353.757 269.789 353.919 269.812V272.98C353.786 272.943 353.55 272.903 353.21 272.858C352.87 272.807 352.531 272.781 352.191 272.781C351.408 272.781 350.71 272.947 350.097 273.279C349.491 273.604 349.011 274.059 348.656 274.642C348.302 275.218 348.125 275.876 348.125 276.614V287.007H344.812Z" fill="#67707E"/>
<path d="M365.309 287.007V264.316H373.619C375.229 264.316 376.562 264.582 377.618 265.114C378.675 265.638 379.465 266.351 379.989 267.252C380.514 268.146 380.776 269.154 380.776 270.277C380.776 271.222 380.603 272.02 380.255 272.67C379.908 273.313 379.443 273.83 378.859 274.221C378.283 274.605 377.648 274.886 376.954 275.063V275.285C377.707 275.322 378.442 275.566 379.158 276.016C379.882 276.459 380.481 277.091 380.953 277.911C381.426 278.731 381.662 279.728 381.662 280.902C381.662 282.062 381.389 283.103 380.843 284.027C380.303 284.942 379.469 285.67 378.339 286.209C377.208 286.741 375.764 287.007 374.007 287.007H365.309ZM368.733 284.071H373.674C375.314 284.071 376.488 283.753 377.197 283.118C377.907 282.483 378.261 281.689 378.261 280.736C378.261 280.019 378.08 279.362 377.718 278.764C377.356 278.166 376.839 277.689 376.167 277.335C375.502 276.98 374.712 276.803 373.796 276.803H368.733V284.071ZM368.733 274.133H373.32C374.088 274.133 374.778 273.985 375.391 273.689C376.012 273.394 376.503 272.98 376.865 272.448C377.234 271.909 377.419 271.274 377.419 270.543C377.419 269.605 377.09 268.818 376.433 268.183C375.776 267.548 374.767 267.23 373.408 267.23H368.733V274.133Z" fill="#67707E"/>
<path d="M392.792 287.35C391.115 287.35 389.671 286.992 388.46 286.276C387.256 285.552 386.325 284.536 385.668 283.229C385.018 281.914 384.693 280.374 384.693 278.609C384.693 276.866 385.018 275.329 385.668 274C386.325 272.67 387.241 271.632 388.415 270.886C389.597 270.14 390.979 269.767 392.559 269.767C393.519 269.767 394.45 269.926 395.351 270.244C396.252 270.561 397.061 271.06 397.778 271.739C398.494 272.419 399.059 273.302 399.473 274.387C399.886 275.466 400.093 276.777 400.093 278.321V279.495H386.565V277.013H396.847C396.847 276.142 396.67 275.37 396.315 274.698C395.961 274.018 395.462 273.483 394.819 273.091C394.184 272.7 393.438 272.504 392.581 272.504C391.651 272.504 390.838 272.733 390.144 273.191C389.457 273.641 388.925 274.232 388.548 274.964C388.179 275.687 387.994 276.474 387.994 277.323V279.262C387.994 280.4 388.194 281.368 388.593 282.165C388.999 282.963 389.564 283.572 390.288 283.993C391.012 284.407 391.857 284.614 392.825 284.614C393.453 284.614 394.025 284.525 394.542 284.348C395.06 284.163 395.506 283.89 395.883 283.528C396.26 283.166 396.548 282.719 396.747 282.187L399.883 282.752C399.632 283.676 399.181 284.485 398.531 285.179C397.888 285.866 397.08 286.401 396.105 286.785C395.137 287.162 394.033 287.35 392.792 287.35Z" fill="#67707E"/>
<path d="M411.713 269.989V272.648H402.417V269.989H411.713ZM404.91 265.912H408.223V282.01C408.223 282.653 408.319 283.137 408.511 283.462C408.703 283.779 408.95 283.997 409.253 284.115C409.564 284.226 409.9 284.281 410.262 284.281C410.527 284.281 410.76 284.263 410.96 284.226C411.159 284.189 411.314 284.16 411.425 284.137L412.023 286.874C411.831 286.948 411.558 287.022 411.203 287.096C410.849 287.177 410.406 287.221 409.874 287.229C409.002 287.243 408.19 287.088 407.436 286.763C406.683 286.438 406.073 285.936 405.608 285.256C405.143 284.577 404.91 283.724 404.91 282.697V265.912Z" fill="#67707E"/>
<path d="M423.322 269.989V272.648H414.026V269.989H423.322ZM416.519 265.912H419.832V282.01C419.832 282.653 419.928 283.137 420.12 283.462C420.312 283.779 420.559 283.997 420.862 284.115C421.172 284.226 421.508 284.281 421.87 284.281C422.136 284.281 422.369 284.263 422.568 284.226C422.768 284.189 422.923 284.16 423.034 284.137L423.632 286.874C423.44 286.948 423.166 287.022 422.812 287.096C422.457 287.177 422.014 287.221 421.482 287.229C420.611 287.243 419.798 287.088 419.045 286.763C418.291 286.438 417.682 285.936 417.217 285.256C416.751 284.577 416.519 283.724 416.519 282.697V265.912Z" fill="#67707E"/>
<path d="M434.138 287.35C432.461 287.35 431.017 286.992 429.806 286.276C428.602 285.552 427.671 284.536 427.014 283.229C426.364 281.914 426.039 280.374 426.039 278.609C426.039 276.866 426.364 275.329 427.014 274C427.671 272.67 428.587 271.632 429.762 270.886C430.943 270.14 432.325 269.767 433.905 269.767C434.866 269.767 435.796 269.926 436.697 270.244C437.598 270.561 438.407 271.06 439.124 271.739C439.84 272.419 440.405 273.302 440.819 274.387C441.233 275.466 441.439 276.777 441.439 278.321V279.495H427.911V277.013H438.193C438.193 276.142 438.016 275.37 437.661 274.698C437.307 274.018 436.808 273.483 436.166 273.091C435.53 272.7 434.784 272.504 433.927 272.504C432.997 272.504 432.184 272.733 431.49 273.191C430.803 273.641 430.271 274.232 429.895 274.964C429.525 275.687 429.341 276.474 429.341 277.323V279.262C429.341 280.4 429.54 281.368 429.939 282.165C430.345 282.963 430.91 283.572 431.634 283.993C432.358 284.407 433.204 284.614 434.171 284.614C434.799 284.614 435.371 284.525 435.889 284.348C436.406 284.163 436.852 283.89 437.229 283.528C437.606 283.166 437.894 282.719 438.093 282.187L441.229 282.752C440.978 283.676 440.527 284.485 439.877 285.179C439.235 285.866 438.426 286.401 437.451 286.785C436.483 287.162 435.379 287.35 434.138 287.35Z" fill="#67707E"/>
<path d="M445.115 287.007V269.989H448.317V272.692H448.494C448.805 271.776 449.351 271.056 450.134 270.532C450.924 270 451.818 269.734 452.815 269.734C453.022 269.734 453.266 269.741 453.547 269.756C453.835 269.771 454.06 269.789 454.222 269.812V272.98C454.089 272.943 453.853 272.903 453.513 272.858C453.174 272.807 452.834 272.781 452.494 272.781C451.711 272.781 451.013 272.947 450.4 273.279C449.794 273.604 449.314 274.059 448.96 274.642C448.605 275.218 448.428 275.876 448.428 276.614V287.007H445.115Z" fill="#67707E"/>
<path d="M472.958 287.007H465.612V264.316H473.191C475.414 264.316 477.323 264.77 478.919 265.679C480.514 266.58 481.737 267.876 482.586 269.568C483.443 271.252 483.871 273.272 483.871 275.628C483.871 277.992 483.439 280.023 482.575 281.722C481.718 283.421 480.477 284.728 478.852 285.644C477.227 286.553 475.262 287.007 472.958 287.007ZM469.036 284.016H472.77C474.498 284.016 475.935 283.691 477.08 283.041C478.224 282.383 479.081 281.434 479.65 280.193C480.219 278.945 480.503 277.423 480.503 275.628C480.503 273.848 480.219 272.338 479.65 271.097C479.089 269.856 478.25 268.914 477.135 268.271C476.02 267.629 474.635 267.308 472.98 267.308H469.036V284.016Z" fill="#67707E"/>
<path d="M495.197 287.35C493.521 287.35 492.077 286.992 490.865 286.276C489.661 285.552 488.731 284.536 488.073 283.229C487.423 281.914 487.098 280.374 487.098 278.609C487.098 276.866 487.423 275.329 488.073 274C488.731 272.67 489.646 271.632 490.821 270.886C492.003 270.14 493.384 269.767 494.965 269.767C495.925 269.767 496.856 269.926 497.757 270.244C498.658 270.561 499.467 271.06 500.183 271.739C500.9 272.419 501.465 273.302 501.878 274.387C502.292 275.466 502.499 276.777 502.499 278.321V279.495H488.971V277.013H499.252C499.252 276.142 499.075 275.37 498.721 274.698C498.366 274.018 497.867 273.483 497.225 273.091C496.59 272.7 495.844 272.504 494.987 272.504C494.056 272.504 493.244 272.733 492.549 273.191C491.862 273.641 491.331 274.232 490.954 274.964C490.585 275.687 490.4 276.474 490.4 277.323V279.262C490.4 280.4 490.599 281.368 490.998 282.165C491.404 282.963 491.969 283.572 492.693 283.993C493.417 284.407 494.263 284.614 495.231 284.614C495.858 284.614 496.431 284.525 496.948 284.348C497.465 284.163 497.912 283.89 498.289 283.528C498.665 283.166 498.953 282.719 499.153 282.187L502.288 282.752C502.037 283.676 501.587 284.485 500.937 285.179C500.294 285.866 499.485 286.401 498.51 286.785C497.542 287.162 496.438 287.35 495.197 287.35Z" fill="#67707E"/>
<path d="M520.245 269.989L514.074 287.007H510.529L504.346 269.989H507.903L512.213 283.085H512.39L516.689 269.989H520.245Z" fill="#67707E"/>
<path d="M530.115 287.35C528.438 287.35 526.994 286.992 525.782 286.276C524.578 285.552 523.648 284.536 522.99 283.229C522.34 281.914 522.015 280.374 522.015 278.609C522.015 276.866 522.34 275.329 522.99 274C523.648 272.67 524.564 271.632 525.738 270.886C526.92 270.14 528.301 269.767 529.882 269.767C530.842 269.767 531.773 269.926 532.674 270.244C533.575 270.561 534.384 271.06 535.1 271.739C535.817 272.419 536.382 273.302 536.795 274.387C537.209 275.466 537.416 276.777 537.416 278.321V279.495H523.888V277.013H534.17C534.17 276.142 533.992 275.37 533.638 274.698C533.283 274.018 532.785 273.483 532.142 273.091C531.507 272.7 530.761 272.504 529.904 272.504C528.973 272.504 528.161 272.733 527.466 273.191C526.78 273.641 526.248 274.232 525.871 274.964C525.502 275.687 525.317 276.474 525.317 277.323V279.262C525.317 280.4 525.516 281.368 525.915 282.165C526.322 282.963 526.887 283.572 527.611 283.993C528.334 284.407 529.18 284.614 530.148 284.614C530.776 284.614 531.348 284.525 531.865 284.348C532.382 284.163 532.829 283.89 533.206 283.528C533.582 283.166 533.87 282.719 534.07 282.187L537.205 282.752C536.954 283.676 536.504 284.485 535.854 285.179C535.211 285.866 534.402 286.401 533.427 286.785C532.46 287.162 531.355 287.35 530.115 287.35Z" fill="#67707E"/>
<path d="M544.404 264.316V287.007H541.092V264.316H544.404Z" fill="#67707E"/>
<path d="M556.03 287.35C554.434 287.35 553.042 286.985 551.853 286.254C550.663 285.522 549.74 284.499 549.083 283.185C548.425 281.87 548.097 280.333 548.097 278.575C548.097 276.81 548.425 275.266 549.083 273.944C549.74 272.622 550.663 271.595 551.853 270.864C553.042 270.133 554.434 269.767 556.03 269.767C557.625 269.767 559.017 270.133 560.207 270.864C561.396 271.595 562.319 272.622 562.976 273.944C563.634 275.266 563.963 276.81 563.963 278.575C563.963 280.333 563.634 281.87 562.976 283.185C562.319 284.499 561.396 285.522 560.207 286.254C559.017 286.985 557.625 287.35 556.03 287.35ZM556.041 284.569C557.075 284.569 557.932 284.296 558.611 283.75C559.291 283.203 559.793 282.475 560.118 281.567C560.45 280.658 560.616 279.658 560.616 278.564C560.616 277.479 560.45 276.481 560.118 275.573C559.793 274.657 559.291 273.922 558.611 273.368C557.932 272.814 557.075 272.537 556.041 272.537C554.999 272.537 554.135 272.814 553.448 273.368C552.768 273.922 552.263 274.657 551.93 275.573C551.605 276.481 551.443 277.479 551.443 278.564C551.443 279.658 551.605 280.658 551.93 281.567C552.263 282.475 552.768 283.203 553.448 283.75C554.135 284.296 554.999 284.569 556.041 284.569Z" fill="#67707E"/>
<path d="M567.66 293.389V269.989H570.896V272.748H571.172C571.365 272.393 571.642 271.983 572.003 271.518C572.365 271.052 572.868 270.646 573.51 270.299C574.153 269.944 575.002 269.767 576.059 269.767C577.432 269.767 578.659 270.114 579.737 270.809C580.815 271.503 581.661 272.504 582.274 273.811C582.895 275.119 583.205 276.692 583.205 278.531C583.205 280.37 582.898 281.947 582.285 283.262C581.672 284.569 580.83 285.578 579.759 286.287C578.688 286.989 577.466 287.339 576.092 287.339C575.058 287.339 574.212 287.166 573.555 286.819C572.905 286.471 572.395 286.065 572.026 285.6C571.656 285.135 571.372 284.721 571.172 284.359H570.973V293.389H567.66ZM570.907 278.498C570.907 279.694 571.08 280.743 571.427 281.644C571.774 282.546 572.277 283.251 572.934 283.761C573.592 284.263 574.397 284.514 575.349 284.514C576.339 284.514 577.167 284.252 577.831 283.727C578.496 283.196 578.998 282.475 579.338 281.567C579.685 280.658 579.859 279.635 579.859 278.498C579.859 277.375 579.689 276.367 579.349 275.473C579.017 274.579 578.515 273.874 577.842 273.357C577.178 272.84 576.347 272.581 575.349 272.581C574.389 272.581 573.577 272.829 572.912 273.324C572.255 273.819 571.756 274.509 571.416 275.396C571.076 276.282 570.907 277.316 570.907 278.498Z" fill="#67707E"/>
<path d="M586.917 287.007V269.989H590.096V272.759H590.307C590.661 271.821 591.241 271.089 592.046 270.565C592.852 270.033 593.815 269.767 594.938 269.767C596.076 269.767 597.029 270.033 597.797 270.565C598.572 271.097 599.145 271.828 599.514 272.759H599.691C600.098 271.85 600.744 271.126 601.63 270.587C602.517 270.041 603.573 269.767 604.799 269.767C606.343 269.767 607.602 270.251 608.577 271.219C609.559 272.186 610.051 273.645 610.051 275.595V287.007H606.738V275.905C606.738 274.753 606.424 273.918 605.796 273.401C605.168 272.884 604.419 272.626 603.547 272.626C602.469 272.626 601.63 272.958 601.032 273.623C600.434 274.28 600.134 275.126 600.134 276.16V287.007H596.833V275.695C596.833 274.771 596.545 274.029 595.969 273.468C595.392 272.906 594.643 272.626 593.719 272.626C593.092 272.626 592.512 272.792 591.98 273.124C591.456 273.449 591.031 273.904 590.706 274.487C590.388 275.071 590.229 275.746 590.229 276.515V287.007H586.917Z" fill="#67707E"/>
<path d="M621.825 287.35C620.149 287.35 618.705 286.992 617.493 286.276C616.289 285.552 615.359 284.536 614.701 283.229C614.051 281.914 613.726 280.374 613.726 278.609C613.726 276.866 614.051 275.329 614.701 274C615.359 272.67 616.275 271.632 617.449 270.886C618.631 270.14 620.012 269.767 621.593 269.767C622.553 269.767 623.484 269.926 624.385 270.244C625.286 270.561 626.095 271.06 626.811 271.739C627.528 272.419 628.093 273.302 628.506 274.387C628.92 275.466 629.127 276.777 629.127 278.321V279.495H615.599V277.013H625.881C625.881 276.142 625.703 275.37 625.349 274.698C624.994 274.018 624.496 273.483 623.853 273.091C623.218 272.7 622.472 272.504 621.615 272.504C620.684 272.504 619.872 272.733 619.177 273.191C618.49 273.641 617.959 274.232 617.582 274.964C617.213 275.687 617.028 276.474 617.028 277.323V279.262C617.028 280.4 617.227 281.368 617.626 282.165C618.033 282.963 618.598 283.572 619.321 283.993C620.045 284.407 620.891 284.614 621.859 284.614C622.487 284.614 623.059 284.525 623.576 284.348C624.093 284.163 624.54 283.89 624.917 283.528C625.293 283.166 625.581 282.719 625.781 282.187L628.916 282.752C628.665 283.676 628.215 284.485 627.565 285.179C626.922 285.866 626.113 286.401 625.138 286.785C624.171 287.162 623.066 287.35 621.825 287.35Z" fill="#67707E"/>
<path d="M636.115 276.902V287.007H632.802V269.989H635.982V272.759H636.193C636.584 271.858 637.197 271.134 638.032 270.587C638.874 270.041 639.934 269.767 641.212 269.767C642.372 269.767 643.387 270.011 644.259 270.498C645.13 270.979 645.806 271.695 646.286 272.648C646.766 273.601 647.006 274.779 647.006 276.182V287.007H643.694V276.581C643.694 275.348 643.372 274.384 642.73 273.689C642.087 272.988 641.204 272.637 640.082 272.637C639.314 272.637 638.63 272.803 638.032 273.135C637.441 273.468 636.972 273.955 636.625 274.598C636.285 275.233 636.115 276.001 636.115 276.902Z" fill="#67707E"/>
<path d="M659.393 269.989V272.648H650.098V269.989H659.393ZM652.591 265.912H655.903V282.01C655.903 282.653 655.999 283.137 656.191 283.462C656.383 283.779 656.631 283.997 656.934 284.115C657.244 284.226 657.58 284.281 657.942 284.281C658.208 284.281 658.441 284.263 658.64 284.226C658.839 284.189 658.995 284.16 659.105 284.137L659.704 286.874C659.512 286.948 659.238 287.022 658.884 287.096C658.529 287.177 658.086 287.221 657.554 287.229C656.683 287.243 655.87 287.088 655.117 286.763C654.363 286.438 653.754 285.936 653.289 285.256C652.823 284.577 652.591 283.724 652.591 282.697V265.912Z" fill="#67707E"/>
<path d="M455.603 174.315V220.352H432.585V174.315C432.585 170.07 431.076 166.464 428.058 163.497C425.091 160.479 421.485 158.97 417.24 158.97C412.994 158.97 409.362 160.479 406.344 163.497C403.378 166.464 401.894 170.07 401.894 174.315V220.352H378.876V174.315C378.876 170.07 377.367 166.464 374.349 163.497C371.382 160.479 367.776 158.97 363.531 158.97C359.285 158.97 355.653 160.479 352.635 163.497C349.669 166.464 348.185 170.07 348.185 174.315V220.352H325.167V174.315C325.167 163.727 328.901 154.699 336.369 147.231C343.888 139.711 352.942 135.952 363.531 135.952C374.017 135.952 382.968 139.609 390.385 146.924C397.802 139.609 406.754 135.952 417.24 135.952C427.828 135.952 436.856 139.711 444.324 147.231C451.844 154.699 455.603 163.727 455.603 174.315Z" fill="#67707E"/>
<path d="M486.621 220.343H463.603V135.943H486.621V220.343ZM475.112 128.271C471.941 128.271 469.23 127.145 466.979 124.895C464.729 122.644 463.603 119.933 463.603 116.762C463.603 113.59 464.729 110.879 466.979 108.628C469.23 106.378 471.941 105.252 475.112 105.252C478.284 105.252 480.995 106.378 483.245 108.628C485.496 110.879 486.621 113.59 486.621 116.762C486.621 119.933 485.496 122.644 483.245 124.895C480.995 127.145 478.284 128.271 475.112 128.271Z" fill="#67707E"/>
<path d="M571.349 174.315V220.352H548.331V174.315C548.331 170.07 546.822 166.464 543.804 163.497C540.837 160.479 537.231 158.97 532.985 158.97C528.74 158.97 525.108 160.479 522.09 163.497C519.123 166.464 517.64 170.07 517.64 174.315V220.352H494.621V174.315C494.621 163.727 498.356 154.699 505.824 147.231C513.343 139.711 522.397 135.952 532.985 135.952C543.573 135.952 552.602 139.711 560.07 147.231C567.589 154.699 571.349 163.727 571.349 174.315Z" fill="#67707E"/>
<path d="M663.749 178.143C663.749 189.806 659.631 199.755 651.395 207.99C643.16 216.225 633.211 220.343 621.549 220.343C609.886 220.343 599.937 216.225 591.702 207.99C583.466 199.755 579.349 189.806 579.349 178.143C579.349 166.481 583.466 156.532 591.702 148.296C599.937 140.061 609.886 135.943 621.549 135.943H640.73V158.962H621.549C616.229 158.962 611.702 160.829 607.968 164.563C604.234 168.297 602.367 172.824 602.367 178.143C602.367 183.463 604.234 187.99 607.968 191.724C611.702 195.458 616.229 197.325 621.549 197.325C626.868 197.325 631.395 195.458 635.129 191.724C638.863 187.99 640.73 183.463 640.73 178.143V105.252H663.749V178.143Z" fill="#67707E"/>
<path d="M77.802 178.152C77.802 166.489 81.9197 156.54 90.1551 148.305C98.3905 140.069 108.339 135.952 120.002 135.952C131.664 135.952 141.613 140.069 149.848 148.305C158.084 156.54 162.202 166.489 162.202 178.152C162.202 189.814 158.084 199.763 149.848 207.998C141.613 216.233 131.664 220.351 120.002 220.351H100.82V197.333H120.002C125.321 197.333 129.848 195.466 133.582 191.732C137.316 187.998 139.183 183.471 139.183 178.152C139.183 172.832 137.316 168.305 133.582 164.571C129.848 160.837 125.321 158.97 120.002 158.97C114.682 158.97 110.155 160.837 106.421 164.571C102.687 168.305 100.82 172.832 100.82 178.152V243.369H77.802V178.152Z" fill="#67707E"/>
<path d="M212.402 197.333C217.721 197.333 222.248 195.466 225.982 191.732C229.716 187.998 231.583 183.471 231.583 178.152C231.583 172.832 229.716 168.305 225.982 164.571C222.248 160.837 217.721 158.97 212.402 158.97C207.082 158.97 202.555 160.837 198.821 164.571C195.087 168.305 193.22 172.832 193.22 178.152C193.22 183.471 195.087 187.998 198.821 191.732C202.555 195.466 207.082 197.333 212.402 197.333ZM212.402 220.351C200.739 220.351 190.79 216.233 182.555 207.998C174.319 199.763 170.202 189.814 170.202 178.152C170.202 166.489 174.319 156.54 182.555 148.305C190.79 140.069 200.739 135.952 212.402 135.952C224.064 135.952 234.013 140.069 242.248 148.305C250.484 156.54 254.602 166.489 254.602 178.152C254.602 189.814 250.484 199.763 242.248 207.998C234.013 216.233 224.064 220.351 212.402 220.351Z" fill="#67707E"/>
<path d="M285.622 135.97H305.264V158.988H285.622V182.006C285.622 186.252 287.105 189.883 290.072 192.901C293.09 195.868 296.721 197.352 300.967 197.352H316.616L316.619 220.37H300.967C290.379 220.37 281.325 216.636 273.806 209.168C266.337 201.648 262.603 192.595 262.603 182.006V112.952H285.622V135.97Z" fill="#67707E"/>
<path d="M27.6018 135.952H62.1273L62.1291 158.97H27.6018C26.5277 158.97 25.6069 159.353 24.8397 160.121C24.1235 160.837 23.7655 161.732 23.7655 162.806C23.7655 163.88 24.1235 164.801 24.8397 165.568C25.6069 166.284 26.5277 166.643 27.6018 166.643H42.9473C50.3642 166.643 56.6815 169.277 61.8989 174.545C67.1675 179.763 69.8018 186.08 69.8018 193.497C69.8018 200.914 67.1675 207.257 61.8989 212.526C56.6815 217.743 50.3642 220.352 42.9473 220.352H4.74731V197.333H42.9473C44.0215 197.333 44.9166 196.975 45.6327 196.259C46.4 195.492 46.7836 194.571 46.7836 193.497C46.7836 192.423 46.4 191.528 45.6327 190.812C44.9166 190.044 44.0215 189.661 42.9473 189.661H27.6018C20.1849 189.661 13.8421 187.052 8.57349 181.835C3.35604 176.566 0.747314 170.223 0.747314 162.806C0.747314 155.389 3.35604 149.072 8.57349 143.855C13.8421 138.586 20.1849 135.952 27.6018 135.952Z" fill="#67707E"/>
<path fill-rule="evenodd" clip-rule="evenodd" d="M357.028 27.9725L363.748 42.2525L370.467 27.9725L384.747 21.2525L370.467 14.5325L363.748 0.252441L357.028 14.5325L342.748 21.2525L357.028 27.9725ZM286.141 53.3983C281.92 43.2069 279.747 32.2839 279.747 21.2528L321.747 21.2528C321.747 26.7683 322.833 32.2299 324.944 37.3255C327.054 42.4212 330.148 47.0513 334.048 50.9513C337.948 54.8514 342.578 57.9451 347.674 60.0558C352.769 62.1665 358.231 63.2529 363.746 63.2529L363.746 105.253C352.715 105.253 341.792 103.08 331.601 98.8588C321.41 94.6374 312.15 88.45 304.35 80.6498C296.55 72.8497 290.362 63.5896 286.141 53.3983Z" fill="#67707E"/>
</svg>
