<svg width="664" height="295" viewBox="0 0 664 295" fill="none" xmlns="http://www.w3.org/2000/svg">
<path d="M455.663 199.315V245.352H432.645V199.315C432.645 195.07 431.136 191.464 428.118 188.497C425.151 185.479 421.545 183.97 417.299 183.97C413.054 183.97 409.422 185.479 406.404 188.497C403.437 191.464 401.954 195.07 401.954 199.315V245.352H378.936V199.315C378.936 195.07 377.427 191.464 374.409 188.497C371.442 185.479 367.836 183.97 363.59 183.97C359.345 183.97 355.713 185.479 352.695 188.497C349.728 191.464 348.245 195.07 348.245 199.315V245.352H325.227V199.315C325.227 188.727 328.961 179.699 336.429 172.231C343.948 164.711 353.002 160.952 363.59 160.952C374.076 160.952 383.028 164.609 390.445 171.924C397.862 164.609 406.813 160.952 417.299 160.952C427.888 160.952 436.916 164.711 444.384 172.231C451.904 179.699 455.663 188.727 455.663 199.315Z" fill="#67707E"/>
<path d="M486.681 245.343H463.663V160.943H486.681V245.343ZM475.172 153.271C472.001 153.271 469.29 152.145 467.039 149.895C464.789 147.644 463.663 144.933 463.663 141.762C463.663 138.59 464.789 135.879 467.039 133.628C469.29 131.378 472.001 130.252 475.172 130.252C478.344 130.252 481.055 131.378 483.305 133.628C485.556 135.879 486.681 138.59 486.681 141.762C486.681 144.933 485.556 147.644 483.305 149.895C481.055 152.145 478.344 153.271 475.172 153.271Z" fill="#67707E"/>
<path d="M571.409 199.315V245.352H548.391V199.315C548.391 195.07 546.882 191.464 543.864 188.497C540.897 185.479 537.291 183.97 533.045 183.97C528.8 183.97 525.168 185.479 522.15 188.497C519.183 191.464 517.7 195.07 517.7 199.315V245.352H494.681V199.315C494.681 188.727 498.416 179.699 505.884 172.231C513.403 164.711 522.457 160.952 533.045 160.952C543.633 160.952 552.662 164.711 560.13 172.231C567.649 179.699 571.409 188.727 571.409 199.315Z" fill="#67707E"/>
<path d="M663.809 203.143C663.809 214.806 659.691 224.755 651.455 232.99C643.22 241.225 633.271 245.343 621.609 245.343C609.946 245.343 599.997 241.225 591.762 232.99C583.526 224.755 579.409 214.806 579.409 203.143C579.409 191.481 583.526 181.532 591.762 173.296C599.997 165.061 609.946 160.943 621.609 160.943H640.79V183.962H621.609C616.289 183.962 611.762 185.829 608.028 189.563C604.294 193.297 602.427 197.824 602.427 203.143C602.427 208.463 604.294 212.99 608.028 216.724C611.762 220.458 616.289 222.325 621.609 222.325C626.928 222.325 631.455 220.458 635.189 216.724C638.923 212.99 640.79 208.463 640.79 203.143V130.252H663.809V203.143Z" fill="#67707E"/>
<path d="M77.8616 203.152C77.8616 191.489 81.9793 181.54 90.2147 173.305C98.4501 165.069 108.399 160.952 120.062 160.952C131.724 160.952 141.673 165.069 149.908 173.305C158.144 181.54 162.262 191.489 162.262 203.152C162.262 214.814 158.144 224.763 149.908 232.998C141.673 241.233 131.724 245.351 120.062 245.351H100.88V222.333H120.062C125.381 222.333 129.908 220.466 133.642 216.732C137.376 212.998 139.243 208.471 139.243 203.152C139.243 197.832 137.376 193.305 133.642 189.571C129.908 185.837 125.381 183.97 120.062 183.97C114.742 183.97 110.215 185.837 106.481 189.571C102.747 193.305 100.88 197.832 100.88 203.152V268.369H77.8616V203.152Z" fill="#67707E"/>
<path d="M212.462 222.333C217.781 222.333 222.308 220.466 226.042 216.732C229.776 212.998 231.643 208.471 231.643 203.152C231.643 197.832 229.776 193.305 226.042 189.571C222.308 185.837 217.781 183.97 212.462 183.97C207.142 183.97 202.615 185.837 198.881 189.571C195.147 193.305 193.28 197.832 193.28 203.152C193.28 208.471 195.147 212.998 198.881 216.732C202.615 220.466 207.142 222.333 212.462 222.333ZM212.462 245.351C200.799 245.351 190.85 241.233 182.615 232.998C174.379 224.763 170.262 214.814 170.262 203.152C170.262 191.489 174.379 181.54 182.615 173.305C190.85 165.069 200.799 160.952 212.462 160.952C224.124 160.952 234.073 165.069 242.308 173.305C250.544 181.54 254.662 191.489 254.662 203.152C254.662 214.814 250.544 224.763 242.308 232.998C234.073 241.233 224.124 245.351 212.462 245.351Z" fill="#67707E"/>
<path d="M285.681 160.97H305.323V183.988H285.681V207.006C285.681 211.252 287.164 214.883 290.131 217.901C293.149 220.868 296.78 222.352 301.026 222.352H316.675L316.678 245.37H301.026C290.438 245.37 281.384 241.636 273.865 234.168C266.396 226.648 262.662 217.595 262.662 207.006V137.952H285.681V160.97Z" fill="#67707E"/>
<path d="M27.6614 160.952H62.1869L62.1887 183.97H27.6614C26.5873 183.97 25.6665 184.353 24.8993 185.121C24.1831 185.837 23.8251 186.732 23.8251 187.806C23.8251 188.88 24.1831 189.801 24.8993 190.568C25.6665 191.284 26.5873 191.643 27.6614 191.643H43.0069C50.4238 191.643 56.7411 194.277 61.9585 199.545C67.2271 204.763 69.8614 211.08 69.8614 218.497C69.8614 225.914 67.2271 232.257 61.9585 237.526C56.7411 242.743 50.4238 245.352 43.0069 245.352H4.80688V222.333H43.0069C44.0811 222.333 44.9762 221.975 45.6923 221.259C46.4596 220.492 46.8432 219.571 46.8432 218.497C46.8432 217.423 46.4596 216.528 45.6923 215.812C44.9762 215.044 44.0811 214.661 43.0069 214.661H27.6614C20.2445 214.661 13.9017 212.052 8.63306 206.835C3.41561 201.566 0.806885 195.223 0.806885 187.806C0.806885 180.389 3.41561 174.072 8.63306 168.855C13.9017 163.586 20.2445 160.952 27.6614 160.952Z" fill="#67707E"/>
<path fill-rule="evenodd" clip-rule="evenodd" d="M357.087 52.9725L363.807 67.2525L370.527 52.9725L384.807 46.2525L370.527 39.5325L363.807 25.2524L357.087 39.5325L342.807 46.2525L357.087 52.9725ZM286.201 78.3983C281.979 68.2069 279.807 57.2839 279.807 46.2528L321.806 46.2528C321.806 51.7683 322.892 57.2299 325.003 62.3255C327.114 67.4212 330.207 72.0513 334.107 75.9513C338.007 79.8514 342.637 82.9451 347.733 85.0558C352.829 87.1665 358.29 88.2529 363.806 88.2529L363.806 130.253C352.775 130.253 341.852 128.08 331.661 123.859C321.469 119.637 312.209 113.45 304.409 105.65C296.609 97.8497 290.422 88.5896 286.201 78.3983Z" fill="#67707E"/>
</svg>
