<svg width="313" height="313" viewBox="0 0 313 313" fill="none" xmlns="http://www.w3.org/2000/svg">
<path d="M0 62.5C2.87013e-06 95.3305 6.46645 127.839 19.0301 158.171C31.5938 188.502 50.0087 216.062 73.2233 239.277C96.438 262.491 123.998 280.906 154.329 293.47C184.661 306.034 217.17 312.5 250 312.5L250 187.5C233.585 187.5 217.33 184.267 202.165 177.985C186.999 171.703 173.219 162.496 161.612 150.888C150.004 139.281 140.797 125.501 134.515 110.335C128.233 95.1697 125 78.9152 125 62.5L0 62.5Z" fill="#67707E"/>
<path d="M250.004 125L230.004 82.5L187.504 62.5L230.004 42.5L250.004 0L270.004 42.5L312.504 62.5L270.004 82.5L250.004 125Z" fill="#67707E"/>
</svg>
