<svg width="343" height="345" viewBox="0 0 343 345" fill="none" xmlns="http://www.w3.org/2000/svg">
<path d="M132.176 296.063V342.099H109.158V296.063C109.158 291.817 107.649 288.211 104.631 285.244C101.665 282.226 98.0585 280.717 93.8129 280.717C89.5673 280.717 85.9356 282.226 82.9176 285.244C79.9508 288.211 78.4674 291.817 78.4674 296.063V342.099H55.4493V296.063C55.4493 291.817 53.9403 288.211 50.9224 285.244C47.9556 282.226 44.3494 280.717 40.1038 280.717C35.8582 280.717 32.2265 282.226 29.2086 285.244C26.2418 288.211 24.7584 291.817 24.7584 296.063V342.099H1.74023V296.063C1.74023 285.475 5.47429 276.446 12.9424 268.978C20.4616 261.459 29.5155 257.699 40.1038 257.699C50.5899 257.699 59.5414 261.357 66.9584 268.671C74.3753 261.357 83.3268 257.699 93.8129 257.699C104.401 257.699 113.429 261.459 120.897 268.978C128.417 276.446 132.176 285.475 132.176 296.063Z" fill="white"/>
<path d="M163.194 342.091H140.176V257.691H163.194V342.091ZM151.685 250.018C148.514 250.018 145.803 248.893 143.552 246.642C141.302 244.392 140.176 241.681 140.176 238.509C140.176 235.338 141.302 232.627 143.552 230.376C145.803 228.125 148.514 227 151.685 227C154.857 227 157.568 228.125 159.818 230.376C162.069 232.627 163.194 235.338 163.194 238.509C163.194 241.681 162.069 244.392 159.818 246.642C157.568 248.893 154.857 250.018 151.685 250.018Z" fill="white"/>
<path d="M247.922 296.063V342.099H224.904V296.063C224.904 291.817 223.395 288.211 220.377 285.244C217.41 282.226 213.804 280.717 209.558 280.717C205.313 280.717 201.681 282.226 198.663 285.244C195.696 288.211 194.213 291.817 194.213 296.063V342.099H171.194V296.063C171.194 285.475 174.929 276.446 182.397 268.978C189.916 261.459 198.97 257.699 209.558 257.699C220.146 257.699 229.175 261.459 236.643 268.978C244.162 276.446 247.922 285.475 247.922 296.063Z" fill="white"/>
<path d="M340.322 299.891C340.322 311.553 336.204 321.502 327.968 329.738C319.733 337.973 309.784 342.091 298.122 342.091C286.459 342.091 276.51 337.973 268.275 329.738C260.039 321.502 255.922 311.553 255.922 299.891C255.922 288.228 260.039 278.279 268.275 270.044C276.51 261.809 286.459 257.691 298.122 257.691H317.303V280.709H298.122C292.802 280.709 288.275 282.576 284.541 286.31C280.807 290.044 278.94 294.571 278.94 299.891C278.94 305.211 280.807 309.738 284.541 313.472C288.275 317.206 292.802 319.073 298.122 319.073C303.441 319.073 307.968 317.206 311.702 313.472C315.436 309.738 317.303 305.211 317.303 299.891V227H340.322V299.891Z" fill="white"/>
<path d="M89.7949 172.2C89.7949 160.537 93.9126 150.588 102.148 142.353C110.383 134.118 120.332 130 131.995 130C143.657 130 153.606 134.118 161.841 142.353C170.077 150.588 174.195 160.537 174.195 172.2C174.195 183.863 170.077 193.811 161.841 202.047C153.606 210.282 143.657 214.4 131.995 214.4H112.813V191.382H131.995C137.314 191.382 141.841 189.515 145.575 185.781C149.309 182.047 151.176 177.52 151.176 172.2C151.176 166.88 149.309 162.353 145.575 158.619C141.841 154.885 137.314 153.018 131.995 153.018C126.675 153.018 122.148 154.885 118.414 158.619C114.68 162.353 112.813 166.88 112.813 172.2V237.418H89.7949V172.2Z" fill="#FF7F32"/>
<path d="M224.395 191.382C229.714 191.382 234.241 189.515 237.975 185.781C241.709 182.047 243.576 177.52 243.576 172.2C243.576 166.88 241.709 162.353 237.975 158.619C234.241 154.885 229.714 153.018 224.395 153.018C219.075 153.018 214.548 154.885 210.814 158.619C207.08 162.353 205.213 166.88 205.213 172.2C205.213 177.52 207.08 182.047 210.814 185.781C214.548 189.515 219.075 191.382 224.395 191.382ZM224.395 214.4C212.732 214.4 202.783 210.282 194.548 202.047C186.312 193.811 182.195 183.863 182.195 172.2C182.195 160.537 186.312 150.588 194.548 142.353C202.783 134.118 212.732 130 224.395 130C236.057 130 246.006 134.118 254.241 142.353C262.477 150.588 266.595 160.537 266.595 172.2C266.595 183.863 262.477 193.811 254.241 202.047C246.006 210.282 236.057 214.4 224.395 214.4Z" fill="#FF7F32"/>
<path d="M297.615 130.018H317.257V153.036H297.615V176.054C297.615 180.3 299.098 183.932 302.065 186.95C305.083 189.917 308.714 191.4 312.96 191.4H328.609L328.612 214.418H312.96C302.372 214.418 293.318 210.684 285.799 203.216C278.33 195.697 274.596 186.643 274.596 176.054V107H297.615V130.018Z" fill="#FF7F32"/>
<path d="M39.5947 130H74.1202L74.122 153.018H39.5947C38.5206 153.018 37.5998 153.402 36.8326 154.169C36.1164 154.885 35.7584 155.78 35.7584 156.855C35.7584 157.929 36.1164 158.85 36.8326 159.617C37.5998 160.333 38.5206 160.691 39.5947 160.691H54.9402C62.3571 160.691 68.6744 163.325 73.8918 168.594C79.1604 173.811 81.7947 180.128 81.7947 187.545C81.7947 194.962 79.1604 201.305 73.8918 206.574C68.6744 211.791 62.3571 214.4 54.9402 214.4H16.7402V191.382H54.9402C56.0144 191.382 56.9095 191.024 57.6256 190.308C58.3929 189.54 58.7765 188.62 58.7765 187.545C58.7765 186.471 58.3929 185.576 57.6256 184.86C56.9095 184.093 56.0144 183.709 54.9402 183.709H39.5947C32.1778 183.709 25.835 181.1 20.5664 175.883C15.349 170.614 12.7402 164.272 12.7402 156.855C12.7402 149.438 15.349 143.12 20.5664 137.903C25.835 132.634 32.1778 130 39.5947 130Z" fill="#FF7F32"/>
<path fill-rule="evenodd" clip-rule="evenodd" d="M196.021 29.72L202.741 44L209.461 29.72L223.74 23L209.461 16.28L202.741 2L196.021 16.28L181.741 23L196.021 29.72ZM125.134 55.1458C120.913 44.9545 118.74 34.0314 118.74 23.0004L160.74 23.0004C160.74 28.5159 161.826 33.9774 163.937 39.0731C166.047 44.1688 169.141 48.7988 173.041 52.6989C176.941 56.599 181.571 59.6927 186.667 61.8034C191.762 63.9141 197.224 65.0004 202.739 65.0004L202.739 107C191.708 107 180.785 104.828 170.594 100.606C160.403 96.3849 151.143 90.1975 143.343 82.3974C135.543 74.5973 129.356 65.3372 125.134 55.1458Z" fill="#FF7F32"/>
</svg>
