<svg width="343" height="345" viewBox="0 0 343 345" fill="none" xmlns="http://www.w3.org/2000/svg">
<path d="M132.403 296.198V342.234H109.385V296.198C109.385 291.952 107.876 288.346 104.858 285.379C101.891 282.361 98.2851 280.852 94.0395 280.852C89.7939 280.852 86.1622 282.361 83.1442 285.379C80.1774 288.346 78.694 291.952 78.694 296.198V342.234H55.6759V296.198C55.6759 291.952 54.1669 288.346 51.149 285.379C48.1822 282.361 44.576 280.852 40.3304 280.852C36.0848 280.852 32.4531 282.361 29.4352 285.379C26.4684 288.346 24.985 291.952 24.985 296.198V342.234H1.9668V296.198C1.9668 285.609 5.70086 276.581 13.169 269.113C20.6882 261.594 29.7421 257.834 40.3304 257.834C50.8165 257.834 59.768 261.491 67.185 268.806C74.6019 261.491 83.5534 257.834 94.0395 257.834C104.628 257.834 113.656 261.594 121.124 269.113C128.644 276.581 132.403 285.609 132.403 296.198Z" fill="#D5D8DD"/>
<path d="M163.42 342.226H140.402V257.826H163.42V342.226ZM151.911 250.153C148.74 250.153 146.029 249.028 143.778 246.777C141.528 244.526 140.402 241.815 140.402 238.644C140.402 235.472 141.528 232.761 143.778 230.511C146.029 228.26 148.74 227.135 151.911 227.135C155.083 227.135 157.794 228.26 160.044 230.511C162.295 232.761 163.42 235.472 163.42 238.644C163.42 241.815 162.295 244.526 160.044 246.777C157.794 249.028 155.083 250.153 151.911 250.153Z" fill="#D5D8DD"/>
<path d="M248.149 296.198V342.234H225.131V296.198C225.131 291.952 223.622 288.346 220.604 285.379C217.637 282.361 214.031 280.852 209.785 280.852C205.54 280.852 201.908 282.361 198.89 285.379C195.923 288.346 194.44 291.952 194.44 296.198V342.234H171.421V296.198C171.421 285.609 175.156 276.581 182.624 269.113C190.143 261.594 199.197 257.834 209.785 257.834C220.373 257.834 229.402 261.594 236.87 269.113C244.389 276.581 248.149 285.609 248.149 296.198Z" fill="#D5D8DD"/>
<path d="M340.548 300.026C340.548 311.688 336.43 321.637 328.194 329.873C319.959 338.108 310.01 342.226 298.348 342.226C286.685 342.226 276.736 338.108 268.501 329.873C260.265 321.637 256.148 311.688 256.148 300.026C256.148 288.363 260.265 278.414 268.501 270.179C276.736 261.943 286.685 257.826 298.348 257.826H317.529V280.844H298.348C293.028 280.844 288.501 282.711 284.767 286.445C281.033 290.179 279.166 294.706 279.166 300.026C279.166 305.345 281.033 309.872 284.767 313.606C288.501 317.34 293.028 319.207 298.348 319.207C303.667 319.207 308.194 317.34 311.928 313.606C315.662 309.872 317.529 305.345 317.529 300.026V227.135H340.548V300.026Z" fill="#D5D8DD"/>
<path d="M90.0215 172.335C90.0215 160.672 94.1392 150.723 102.375 142.488C110.61 134.252 120.559 130.135 132.222 130.135C143.884 130.135 153.833 134.252 162.068 142.488C170.304 150.723 174.422 160.672 174.422 172.335C174.422 183.997 170.304 193.946 162.068 202.182C153.833 210.417 143.884 214.535 132.222 214.535H113.04V191.517H132.222C137.541 191.517 142.068 189.649 145.802 185.915C149.536 182.181 151.403 177.654 151.403 172.335C151.403 167.015 149.536 162.488 145.802 158.754C142.068 155.02 137.541 153.153 132.222 153.153C126.902 153.153 122.375 155.02 118.641 158.754C114.907 162.488 113.04 167.015 113.04 172.335V237.553H90.0215V172.335Z" fill="#D5D8DD"/>
<path d="M224.622 191.517C229.941 191.517 234.468 189.649 238.202 185.915C241.936 182.181 243.803 177.654 243.803 172.335C243.803 167.015 241.936 162.488 238.202 158.754C234.468 155.02 229.941 153.153 224.622 153.153C219.302 153.153 214.775 155.02 211.041 158.754C207.307 162.488 205.44 167.015 205.44 172.335C205.44 177.654 207.307 182.181 211.041 185.915C214.775 189.649 219.302 191.517 224.622 191.517ZM224.622 214.535C212.959 214.535 203.01 210.417 194.775 202.182C186.539 193.946 182.422 183.997 182.422 172.335C182.422 160.672 186.539 150.723 194.775 142.488C203.01 134.252 212.959 130.135 224.622 130.135C236.284 130.135 246.233 134.252 254.468 142.488C262.704 150.723 266.822 160.672 266.822 172.335C266.822 183.997 262.704 193.946 254.468 202.182C246.233 210.417 236.284 214.535 224.622 214.535Z" fill="#D5D8DD"/>
<path d="M297.841 130.153H317.483V153.171H297.841V176.189C297.841 180.435 299.324 184.067 302.291 187.085C305.309 190.051 308.94 191.535 313.186 191.535H328.835L328.838 214.553H313.186C302.598 214.553 293.544 210.819 286.025 203.351C278.556 195.831 274.822 186.778 274.822 176.189V107.135H297.841V130.153Z" fill="#D5D8DD"/>
<path d="M39.8213 130.135H74.3468L74.3486 153.153H39.8213C38.7472 153.153 37.8264 153.537 37.0592 154.304C36.343 155.02 35.985 155.915 35.985 156.989C35.985 158.063 36.343 158.984 37.0592 159.751C37.8264 160.468 38.7472 160.826 39.8213 160.826H55.1668C62.5837 160.826 68.901 163.46 74.1184 168.729C79.387 173.946 82.0213 180.263 82.0213 187.68C82.0213 195.097 79.387 201.44 74.1184 206.709C68.901 211.926 62.5837 214.535 55.1668 214.535H16.9668V191.517H55.1668C56.241 191.517 57.1361 191.158 57.8522 190.442C58.6195 189.675 59.0031 188.754 59.0031 187.68C59.0031 186.606 58.6195 185.711 57.8522 184.995C57.1361 184.227 56.241 183.844 55.1668 183.844H39.8213C32.4044 183.844 26.0616 181.235 20.793 176.018C15.5755 170.749 12.9668 164.406 12.9668 156.989C12.9668 149.572 15.5755 143.255 20.793 138.038C26.0616 132.769 32.4044 130.135 39.8213 130.135Z" fill="#D5D8DD"/>
<path fill-rule="evenodd" clip-rule="evenodd" d="M196.247 29.8548L202.967 44.1348L209.687 29.8548L223.967 23.1348L209.687 16.4148L202.967 2.13477L196.247 16.4148L181.968 23.1348L196.247 29.8548ZM125.361 55.2806C121.139 45.0892 118.967 34.1662 118.967 23.1352L160.966 23.1352C160.966 28.6507 162.053 34.1122 164.163 39.2079C166.274 44.3035 169.368 48.9336 173.268 52.8337C177.168 56.7337 181.798 59.8274 186.893 61.9381C191.989 64.0488 197.45 65.1352 202.966 65.1352L202.966 107.135C191.935 107.135 181.012 104.962 170.821 100.741C160.63 96.5197 151.37 90.3323 143.57 82.5322C135.769 74.732 129.582 65.4719 125.361 55.2806Z" fill="#D5D8DD"/>
</svg>
