<svg width="343" height="345" viewBox="0 0 343 345" fill="none" xmlns="http://www.w3.org/2000/svg">
<path d="M132.209 296.224V342.261H109.191V296.224C109.191 291.979 107.682 288.373 104.664 285.406C101.698 282.388 98.0917 280.879 93.8461 280.879C89.6005 280.879 85.9688 282.388 82.9508 285.406C79.984 288.373 78.5006 291.979 78.5006 296.224V342.261H55.4825V296.224C55.4825 291.979 53.9735 288.373 50.9556 285.406C47.9888 282.388 44.3826 280.879 40.137 280.879C35.8914 280.879 32.2597 282.388 29.2418 285.406C26.275 288.373 24.7916 291.979 24.7916 296.224V342.261H1.77344V296.224C1.77344 285.636 5.5075 276.608 12.9756 269.14C20.4948 261.62 29.5487 257.861 40.137 257.861C50.6231 257.861 59.5746 261.518 66.9916 268.833C74.4085 261.518 83.36 257.861 93.8461 257.861C104.434 257.861 113.462 261.62 120.93 269.14C128.45 276.608 132.209 285.636 132.209 296.224Z" fill="white"/>
<path d="M163.227 342.253H140.209V257.853H163.227V342.253ZM151.718 250.18C148.547 250.18 145.836 249.054 143.585 246.804C141.335 244.553 140.209 241.842 140.209 238.671C140.209 235.499 141.335 232.788 143.585 230.538C145.836 228.287 148.547 227.162 151.718 227.162C154.89 227.162 157.601 228.287 159.851 230.538C162.102 232.788 163.227 235.499 163.227 238.671C163.227 241.842 162.102 244.553 159.851 246.804C157.601 249.054 154.89 250.18 151.718 250.18Z" fill="white"/>
<path d="M247.956 296.224V342.261H224.938V296.224C224.938 291.979 223.429 288.373 220.411 285.406C217.444 282.388 213.838 280.879 209.592 280.879C205.347 280.879 201.715 282.388 198.697 285.406C195.73 288.373 194.247 291.979 194.247 296.224V342.261H171.228V296.224C171.228 285.636 174.963 276.608 182.431 269.14C189.95 261.62 199.004 257.861 209.592 257.861C220.18 257.861 229.209 261.62 236.677 269.14C244.196 276.608 247.956 285.636 247.956 296.224Z" fill="white"/>
<path d="M340.355 300.053C340.355 311.715 336.237 321.664 328.001 329.9C319.766 338.135 309.817 342.253 298.155 342.253C286.492 342.253 276.543 338.135 268.308 329.9C260.072 321.664 255.955 311.715 255.955 300.053C255.955 288.39 260.072 278.441 268.308 270.206C276.543 261.97 286.492 257.853 298.155 257.853H317.336V280.871H298.155C292.835 280.871 288.308 282.738 284.574 286.472C280.84 290.206 278.973 294.733 278.973 300.053C278.973 305.372 280.84 309.899 284.574 313.633C288.308 317.367 292.835 319.234 298.155 319.234C303.474 319.234 308.001 317.367 311.735 313.633C315.469 309.899 317.336 305.372 317.336 300.053V227.162H340.355V300.053Z" fill="white"/>
<path d="M89.8281 172.362C89.8281 160.699 93.9458 150.75 102.181 142.515C110.417 134.279 120.366 130.162 132.029 130.162C143.691 130.162 153.64 134.279 161.875 142.515C170.111 150.75 174.229 160.699 174.229 172.362C174.229 184.024 170.111 193.973 161.875 202.208C153.64 210.443 143.691 214.561 132.029 214.561H112.846V191.543H132.029C137.348 191.543 141.875 189.676 145.609 185.942C149.343 182.208 151.21 177.681 151.21 172.362C151.21 167.042 149.343 162.515 145.609 158.781C141.875 155.047 137.348 153.18 132.029 153.18C126.709 153.18 122.182 155.047 118.448 158.781C114.714 162.515 112.846 167.042 112.846 172.362V237.579H89.8281V172.362Z" fill="white"/>
<path d="M224.429 191.543C229.748 191.543 234.275 189.676 238.009 185.942C241.743 182.208 243.61 177.681 243.61 172.362C243.61 167.042 241.743 162.515 238.009 158.781C234.275 155.047 229.748 153.18 224.429 153.18C219.109 153.18 214.582 155.047 210.848 158.781C207.114 162.515 205.247 167.042 205.247 172.362C205.247 177.681 207.114 182.208 210.848 185.942C214.582 189.676 219.109 191.543 224.429 191.543ZM224.429 214.561C212.766 214.561 202.817 210.443 194.582 202.208C186.346 193.973 182.229 184.024 182.229 172.362C182.229 160.699 186.346 150.75 194.582 142.515C202.817 134.279 212.766 130.162 224.429 130.162C236.091 130.162 246.04 134.279 254.275 142.515C262.511 150.75 266.629 160.699 266.629 172.362C266.629 184.024 262.511 193.973 254.275 202.208C246.04 210.443 236.091 214.561 224.429 214.561Z" fill="white"/>
<path d="M297.648 130.18H317.29V153.198H297.648V176.216C297.648 180.462 299.131 184.093 302.098 187.111C305.116 190.078 308.747 191.562 312.993 191.562H328.642L328.645 214.58H312.993C302.405 214.58 293.351 210.846 285.832 203.378C278.363 195.858 274.629 186.805 274.629 176.216V107.162H297.648V130.18Z" fill="white"/>
<path d="M39.6279 130.162H74.1534L74.1552 153.18H39.6279C38.5538 153.18 37.633 153.563 36.8658 154.331C36.1496 155.047 35.7916 155.942 35.7916 157.016C35.7916 158.09 36.1496 159.011 36.8658 159.778C37.633 160.494 38.5538 160.853 39.6279 160.853H54.9734C62.3903 160.853 68.7076 163.487 73.925 168.755C79.1936 173.973 81.8279 180.29 81.8279 187.707C81.8279 195.124 79.1936 201.467 73.925 206.736C68.7076 211.953 62.3903 214.562 54.9734 214.562H16.7734V191.543H54.9734C56.0476 191.543 56.9427 191.185 57.6588 190.469C58.4261 189.702 58.8097 188.781 58.8097 187.707C58.8097 186.633 58.4261 185.738 57.6588 185.022C56.9427 184.254 56.0476 183.871 54.9734 183.871H39.6279C32.211 183.871 25.8682 181.262 20.5996 176.045C15.3822 170.776 12.7734 164.433 12.7734 157.016C12.7734 149.599 15.3822 143.282 20.5996 138.065C25.8682 132.796 32.211 130.162 39.6279 130.162Z" fill="white"/>
<path fill-rule="evenodd" clip-rule="evenodd" d="M196.054 29.8816L202.774 44.1617L209.494 29.8816L223.774 23.1616L209.494 16.4416L202.774 2.16162L196.054 16.4416L181.774 23.1616L196.054 29.8816ZM125.167 55.3074C120.946 45.1161 118.773 34.1931 118.773 23.162L160.773 23.162C160.773 28.6775 161.859 34.139 163.97 39.2347C166.081 44.3304 169.174 48.9604 173.074 52.8605C176.974 56.7606 181.604 59.8543 186.7 61.965C191.795 64.0757 197.257 65.162 202.772 65.162L202.772 107.162C191.741 107.162 180.819 104.989 170.627 100.768C160.436 96.5465 151.176 90.3591 143.376 82.559C135.576 74.7589 129.389 65.4988 125.167 55.3074Z" fill="white"/>
</svg>
