<svg width="769" height="140" viewBox="0 0 769 140" fill="none" xmlns="http://www.w3.org/2000/svg">
<path d="M560.108 69.8026V115.839H537.09V69.8026C537.09 65.5571 535.581 61.9509 532.563 58.9841C529.597 55.9661 525.991 54.4572 521.745 54.4572C517.499 54.4572 513.868 55.9661 510.85 58.9841C507.883 61.9509 506.4 65.5571 506.4 69.8026V115.839H483.381V69.8026C483.381 65.5571 481.872 61.9509 478.855 58.9841C475.888 55.9661 472.282 54.4572 468.036 54.4572C463.79 54.4572 460.159 55.9661 457.141 58.9841C454.174 61.9509 452.691 65.5571 452.691 69.8026V115.839H429.672V69.8026C429.672 59.2143 433.406 50.186 440.875 42.7179C448.394 35.1986 457.448 31.439 468.036 31.439C478.522 31.439 487.474 35.0963 494.891 42.411C502.307 35.0963 511.259 31.439 521.745 31.439C532.333 31.439 541.361 35.1986 548.829 42.7179C556.349 50.186 560.108 59.2143 560.108 69.8026Z" fill="white"/>
<path d="M591.126 115.831H568.108V31.4306H591.126V115.831ZM579.617 23.7579C576.446 23.7579 573.735 22.6325 571.484 20.3819C569.234 18.1312 568.108 15.4202 568.108 12.2488C568.108 9.07744 569.234 6.36642 571.484 4.11575C573.735 1.86508 576.446 0.739746 579.617 0.739746C582.789 0.739746 585.5 1.86508 587.75 4.11575C590.001 6.36642 591.126 9.07744 591.126 12.2488C591.126 15.4202 590.001 18.1312 587.75 20.3819C585.5 22.6325 582.789 23.7579 579.617 23.7579Z" fill="white"/>
<path d="M675.854 69.8026V115.839H652.836V69.8026C652.836 65.5571 651.327 61.9509 648.309 58.9841C645.342 55.9661 641.736 54.4572 637.49 54.4572C633.245 54.4572 629.613 55.9661 626.595 58.9841C623.628 61.9509 622.145 65.5571 622.145 69.8026V115.839H599.126V69.8026C599.126 59.2143 602.861 50.186 610.329 42.7179C617.848 35.1986 626.902 31.439 637.49 31.439C648.078 31.439 657.107 35.1986 664.575 42.7179C672.094 50.186 675.854 59.2143 675.854 69.8026Z" fill="white"/>
<path d="M768.255 73.6306C768.255 85.2931 764.137 95.2421 755.901 103.478C747.666 111.713 737.717 115.831 726.055 115.831C714.392 115.831 704.443 111.713 696.208 103.478C687.972 95.2421 683.854 85.2931 683.854 73.6306C683.854 61.968 687.972 52.0191 696.208 43.7837C704.443 35.5483 714.392 31.4306 726.055 31.4306H745.236V54.4488H726.055C720.735 54.4488 716.208 56.3158 712.474 60.0499C708.74 63.7839 706.872 68.3108 706.872 73.6306C706.872 78.9503 708.74 83.4772 712.474 87.2113C716.208 90.9454 720.735 92.8124 726.055 92.8124C731.374 92.8124 735.901 90.9454 739.635 87.2113C743.369 83.4772 745.236 78.9503 745.236 73.6306V0.739746H768.255V73.6306Z" fill="white"/>
<path d="M182.307 73.639C182.307 61.9764 186.425 52.0274 194.66 43.7921C202.896 35.5567 212.845 31.439 224.508 31.439C236.17 31.439 246.119 35.5567 254.354 43.7921C262.59 52.0274 266.708 61.9764 266.708 73.639C266.708 85.3015 262.59 95.2505 254.354 103.486C246.119 111.721 236.17 115.839 224.508 115.839H205.325V92.8208H224.508C229.827 92.8208 234.354 90.9537 238.088 87.2197C241.822 83.4856 243.689 78.9587 243.689 73.639C243.689 68.3192 241.822 63.7923 238.088 60.0582C234.354 56.3242 229.827 54.4571 224.508 54.4571C219.188 54.4571 214.661 56.3242 210.927 60.0582C207.193 63.7923 205.325 68.3192 205.325 73.639V138.857H182.307V73.639Z" fill="#FF7F32"/>
<path d="M316.908 92.8208C322.227 92.8208 326.754 90.9537 330.488 87.2197C334.222 83.4856 336.089 78.9587 336.089 73.639C336.089 68.3192 334.222 63.7923 330.488 60.0582C326.754 56.3242 322.227 54.4571 316.908 54.4571C311.588 54.4571 307.061 56.3242 303.327 60.0582C299.593 63.7923 297.726 68.3192 297.726 73.639C297.726 78.9587 299.593 83.4856 303.327 87.2197C307.061 90.9537 311.588 92.8208 316.908 92.8208ZM316.908 115.839C305.245 115.839 295.296 111.721 287.061 103.486C278.825 95.2505 274.708 85.3015 274.708 73.639C274.708 61.9764 278.825 52.0274 287.061 43.7921C295.296 35.5567 305.245 31.439 316.908 31.439C328.57 31.439 338.519 35.5567 346.754 43.7921C354.99 52.0274 359.108 61.9764 359.108 73.639C359.108 85.3015 354.99 95.2505 346.754 103.486C338.519 111.721 328.57 115.839 316.908 115.839Z" fill="#FF7F32"/>
<path d="M390.126 31.4572H409.768V54.4753H390.126V77.4935C390.126 81.7391 391.609 85.3708 394.576 88.3888C397.594 91.3556 401.225 92.839 405.471 92.839H421.12L421.123 115.857H405.471C394.883 115.857 385.829 112.123 378.31 104.655C370.841 97.1357 367.107 88.0819 367.107 77.4935V8.43896H390.126V31.4572Z" fill="#FF7F32"/>
<path d="M132.107 31.439H166.632L166.634 54.4572H132.107C131.033 54.4572 130.112 54.8408 129.345 55.6081C128.629 56.3242 128.271 57.2194 128.271 58.2935C128.271 59.3677 128.629 60.2885 129.345 61.0557C130.112 61.7718 131.033 62.1299 132.107 62.1299H147.452C154.869 62.1299 161.187 64.7642 166.404 70.0328C171.673 75.2503 174.307 81.5675 174.307 88.9844C174.307 96.4014 171.673 102.744 166.404 108.013C161.187 113.23 154.869 115.839 147.452 115.839H109.252V92.8208H147.452C148.527 92.8208 149.422 92.4627 150.138 91.7466C150.905 90.9793 151.289 90.0586 151.289 88.9844C151.289 87.9103 150.905 87.0151 150.138 86.299C149.422 85.5317 148.527 85.1481 147.452 85.1481H132.107C124.69 85.1481 118.347 82.5394 113.079 77.3219C107.861 72.0533 105.252 65.7105 105.252 58.2935C105.252 50.8766 107.861 44.5594 113.079 39.3419C118.347 34.0733 124.69 31.439 132.107 31.439Z" fill="#FF7F32"/>
<path fill-rule="evenodd" clip-rule="evenodd" d="M77.533 38.5174L84.2529 52.7974L90.9728 38.5174L105.253 31.7974L90.9728 25.0774L84.2529 10.7974L77.533 25.0774L63.2532 31.7974L77.533 38.5174ZM6.64648 63.9432C2.42514 53.7518 0.252441 42.8288 0.252441 31.7978L42.2519 31.7977C42.2519 37.3133 43.3383 42.7748 45.4489 47.8705C47.5596 52.9661 50.6533 57.5962 54.5533 61.4963C58.4533 65.3963 63.0833 68.49 68.1789 70.6007C73.2745 72.7114 78.7359 73.7978 84.2514 73.7978L84.2514 115.798C73.2205 115.798 62.2976 113.625 52.1064 109.404C41.9152 105.182 32.6552 98.9949 24.8552 91.1948C17.0551 83.3946 10.8678 74.1345 6.64648 63.9432Z" fill="#FF7F32"/>
</svg>
