<svg width="769" height="189" viewBox="0 0 769 189" fill="none" xmlns="http://www.w3.org/2000/svg">
<path d="M560.143 69.0628V115.099H537.125V69.0628C537.125 64.8173 535.616 61.2111 532.598 58.2443C529.632 55.2263 526.025 53.7174 521.78 53.7174C517.534 53.7174 513.902 55.2263 510.884 58.2443C507.918 61.2111 506.434 64.8173 506.434 69.0628V115.099H483.416V69.0628C483.416 64.8173 481.907 61.2111 478.889 58.2443C475.922 55.2263 472.316 53.7174 468.071 53.7174C463.825 53.7174 460.193 55.2263 457.175 58.2443C454.209 61.2111 452.725 64.8173 452.725 69.0628V115.099H429.707V69.0628C429.707 58.4745 433.441 49.4462 440.909 41.9781C448.428 34.4588 457.482 30.6992 468.071 30.6992C478.557 30.6992 487.508 34.3565 494.925 41.6712C502.342 34.3565 511.294 30.6992 521.78 30.6992C532.368 30.6992 541.396 34.4588 548.864 41.9781C556.384 49.4462 560.143 58.4745 560.143 69.0628Z" fill="white"/>
<path d="M591.161 115.091H568.143V30.6909H591.161V115.091ZM579.652 23.0182C576.481 23.0182 573.77 21.8928 571.519 19.6422C569.269 17.3915 568.143 14.6805 568.143 11.5091C568.143 8.33769 569.269 5.62667 571.519 3.376C573.77 1.12533 576.481 0 579.652 0C582.824 0 585.535 1.12533 587.785 3.376C590.036 5.62667 591.161 8.33769 591.161 11.5091C591.161 14.6805 590.036 17.3915 587.785 19.6422C585.535 21.8928 582.824 23.0182 579.652 23.0182Z" fill="white"/>
<path d="M675.889 69.0628V115.099H652.871V69.0628C652.871 64.8173 651.362 61.2111 648.344 58.2443C645.377 55.2263 641.771 53.7174 637.525 53.7174C633.28 53.7174 629.648 55.2263 626.63 58.2443C623.663 61.2111 622.18 64.8173 622.18 69.0628V115.099H599.161V69.0628C599.161 58.4745 602.896 49.4462 610.364 41.9781C617.883 34.4588 626.937 30.6992 637.525 30.6992C648.113 30.6992 657.142 34.4588 664.61 41.9781C672.129 49.4462 675.889 58.4745 675.889 69.0628Z" fill="white"/>
<path d="M768.289 72.8909C768.289 84.5534 764.171 94.5024 755.935 102.738C747.7 110.973 737.751 115.091 726.089 115.091C714.426 115.091 704.477 110.973 696.242 102.738C688.006 94.5024 683.889 84.5534 683.889 72.8909C683.889 61.2283 688.006 51.2794 696.242 43.044C704.477 34.8086 714.426 30.6909 726.089 30.6909H745.27V53.7091H726.089C720.769 53.7091 716.242 55.5761 712.508 59.3102C708.774 63.0442 706.907 67.5711 706.907 72.8909C706.907 78.2106 708.774 82.7375 712.508 86.4716C716.242 90.2057 720.769 92.0727 726.089 92.0727C731.408 92.0727 735.935 90.2057 739.669 86.4716C743.403 82.7375 745.27 78.2106 745.27 72.8909V0H768.289V72.8909Z" fill="white"/>
<path d="M182.342 72.8992C182.342 61.2366 186.459 51.2876 194.695 43.0523C202.93 34.8169 212.879 30.6992 224.542 30.6992C236.204 30.6992 246.153 34.8169 254.388 43.0523C262.624 51.2876 266.742 61.2366 266.742 72.8992C266.742 84.5617 262.624 94.5107 254.388 102.746C246.153 110.981 236.204 115.099 224.542 115.099H205.36V92.081H224.542C229.861 92.081 234.388 90.2139 238.122 86.4799C241.856 82.7458 243.723 78.2189 243.723 72.8992C243.723 67.5794 241.856 63.0525 238.122 59.3184C234.388 55.5844 229.861 53.7173 224.542 53.7173C219.222 53.7173 214.695 55.5844 210.961 59.3184C207.227 63.0525 205.36 67.5794 205.36 72.8992V138.117H182.342V72.8992Z" fill="#FF7F32"/>
<path d="M316.942 92.081C322.261 92.081 326.788 90.2139 330.522 86.4799C334.256 82.7458 336.123 78.2189 336.123 72.8992C336.123 67.5794 334.256 63.0525 330.522 59.3184C326.788 55.5844 322.261 53.7173 316.942 53.7173C311.622 53.7173 307.095 55.5844 303.361 59.3184C299.627 63.0525 297.76 67.5794 297.76 72.8992C297.76 78.2189 299.627 82.7458 303.361 86.4799C307.095 90.2139 311.622 92.081 316.942 92.081ZM316.942 115.099C305.279 115.099 295.33 110.981 287.095 102.746C278.859 94.5107 274.742 84.5617 274.742 72.8992C274.742 61.2366 278.859 51.2876 287.095 43.0523C295.33 34.8169 305.279 30.6992 316.942 30.6992C328.604 30.6992 338.553 34.8169 346.788 43.0523C355.024 51.2876 359.142 61.2366 359.142 72.8992C359.142 84.5617 355.024 94.5107 346.788 102.746C338.553 110.981 328.604 115.099 316.942 115.099Z" fill="#FF7F32"/>
<path d="M390.161 30.7174H409.803V53.7355H390.161V76.7537C390.161 80.9993 391.644 84.631 394.611 87.649C397.629 90.6158 401.26 92.0992 405.506 92.0992H421.155L421.158 115.117H405.506C394.918 115.117 385.864 111.383 378.345 103.915C370.876 96.3959 367.142 87.3421 367.142 76.7537V7.69922H390.161V30.7174Z" fill="#FF7F32"/>
<path d="M132.142 30.6992H166.667L166.669 53.7174H132.142C131.068 53.7174 130.147 54.101 129.38 54.8683C128.663 55.5844 128.305 56.4796 128.305 57.5537C128.305 58.6279 128.663 59.5487 129.38 60.3159C130.147 61.032 131.068 61.3901 132.142 61.3901H147.487C154.904 61.3901 161.221 64.0244 166.439 69.293C171.707 74.5105 174.342 80.8277 174.342 88.2446C174.342 95.6616 171.707 102.004 166.439 107.273C161.221 112.49 154.904 115.099 147.487 115.099H109.287V92.081H147.487C148.561 92.081 149.456 91.7229 150.173 91.0068C150.94 90.2395 151.323 89.3188 151.323 88.2446C151.323 87.1705 150.94 86.2753 150.173 85.5592C149.456 84.7919 148.561 84.4083 147.487 84.4083H132.142C124.725 84.4083 118.382 81.7996 113.113 76.5821C107.896 71.3135 105.287 64.9707 105.287 57.5537C105.287 50.1368 107.896 43.8196 113.113 38.6021C118.382 33.3335 124.725 30.6992 132.142 30.6992Z" fill="#FF7F32"/>
<path fill-rule="evenodd" clip-rule="evenodd" d="M77.5677 37.47L84.2876 51.75L91.0075 37.47L105.287 30.75L91.0075 24.03L84.2876 9.75L77.5677 24.03L63.2878 30.75L77.5677 37.47ZM6.68115 62.8958C2.45981 52.7045 0.287109 41.7814 0.287109 30.7504L42.2866 30.7504C42.2866 36.2659 43.3729 41.7274 45.4836 46.8231C47.5943 51.9188 50.6879 56.5488 54.5879 60.4489C58.4879 64.349 63.1179 67.4427 68.2135 69.5534C73.3092 71.6641 78.7706 72.7504 84.286 72.7504L84.2861 114.75C73.2552 114.75 62.3323 112.578 52.141 108.356C41.9498 104.135 32.6899 97.9475 24.8898 90.1474C17.0898 82.3473 10.9025 73.0872 6.68115 62.8958Z" fill="#FF7F32"/>
<path d="M121.633 181.755H114.287V159.064H121.866C124.089 159.064 125.998 159.518 127.594 160.426C129.189 161.328 130.412 162.624 131.261 164.315C132.118 165.999 132.546 168.02 132.546 170.376C132.546 172.739 132.114 174.771 131.25 176.47C130.393 178.168 129.152 179.476 127.527 180.392C125.902 181.3 123.937 181.755 121.633 181.755ZM117.711 178.763H121.444C123.173 178.763 124.61 178.438 125.754 177.788C126.899 177.131 127.756 176.182 128.325 174.941C128.894 173.692 129.178 172.171 129.178 170.376C129.178 168.596 128.894 167.085 128.325 165.844C127.764 164.603 126.925 163.662 125.81 163.019C124.694 162.376 123.31 162.055 121.655 162.055H117.711V178.763Z" fill="white"/>
<path d="M136.538 181.755V164.736H139.85V181.755H136.538ZM138.211 162.111C137.634 162.111 137.14 161.918 136.726 161.534C136.32 161.143 136.117 160.678 136.117 160.138C136.117 159.592 136.32 159.126 136.726 158.742C137.14 158.351 137.634 158.155 138.211 158.155C138.787 158.155 139.278 158.351 139.684 158.742C140.098 159.126 140.305 159.592 140.305 160.138C140.305 160.678 140.098 161.143 139.684 161.534C139.278 161.918 138.787 162.111 138.211 162.111Z" fill="white"/>
<path d="M151.442 188.491C150.091 188.491 148.927 188.314 147.952 187.959C146.985 187.605 146.194 187.136 145.581 186.552C144.968 185.968 144.51 185.33 144.207 184.635L147.055 183.461C147.254 183.786 147.52 184.129 147.853 184.491C148.192 184.861 148.65 185.174 149.226 185.433C149.81 185.691 150.56 185.821 151.476 185.821C152.731 185.821 153.769 185.514 154.589 184.901C155.409 184.295 155.819 183.328 155.819 181.998V178.652H155.608C155.409 179.014 155.121 179.417 154.744 179.86C154.375 180.303 153.865 180.687 153.215 181.012C152.565 181.337 151.719 181.5 150.678 181.5C149.334 181.5 148.122 181.186 147.044 180.558C145.973 179.923 145.123 178.988 144.495 177.755C143.875 176.514 143.565 174.989 143.565 173.179C143.565 171.369 143.871 169.818 144.484 168.526C145.105 167.233 145.954 166.243 147.033 165.556C148.111 164.862 149.334 164.515 150.7 164.515C151.756 164.515 152.609 164.692 153.259 165.047C153.909 165.394 154.415 165.8 154.777 166.265C155.147 166.731 155.431 167.141 155.63 167.495H155.874V164.736H159.12V182.131C159.12 183.594 158.781 184.794 158.101 185.732C157.422 186.67 156.502 187.364 155.342 187.815C154.19 188.266 152.89 188.491 151.442 188.491ZM151.409 178.752C152.362 178.752 153.167 178.53 153.824 178.087C154.489 177.637 154.992 176.994 155.331 176.159C155.678 175.317 155.852 174.309 155.852 173.135C155.852 171.99 155.682 170.982 155.342 170.11C155.003 169.238 154.504 168.559 153.847 168.071C153.189 167.576 152.377 167.329 151.409 167.329C150.412 167.329 149.581 167.588 148.916 168.105C148.251 168.614 147.749 169.309 147.409 170.188C147.077 171.066 146.911 172.049 146.911 173.135C146.911 174.25 147.081 175.229 147.42 176.071C147.76 176.913 148.263 177.57 148.927 178.043C149.599 178.516 150.427 178.752 151.409 178.752Z" fill="white"/>
<path d="M163.563 181.755V164.736H166.876V181.755H163.563ZM165.236 162.111C164.66 162.111 164.165 161.918 163.752 161.534C163.345 161.143 163.142 160.678 163.142 160.138C163.142 159.592 163.345 159.126 163.752 158.742C164.165 158.351 164.66 158.155 165.236 158.155C165.813 158.155 166.304 158.351 166.71 158.742C167.124 159.126 167.33 159.592 167.33 160.138C167.33 160.678 167.124 161.143 166.71 161.534C166.304 161.918 165.813 162.111 165.236 162.111Z" fill="white"/>
<path d="M179.277 164.736V167.395H169.981V164.736H179.277ZM172.474 160.659H175.787V176.758C175.787 177.4 175.883 177.884 176.075 178.209C176.267 178.527 176.514 178.745 176.817 178.863C177.128 178.974 177.464 179.029 177.826 179.029C178.091 179.029 178.324 179.011 178.524 178.974C178.723 178.937 178.878 178.907 178.989 178.885L179.587 181.622C179.395 181.695 179.122 181.769 178.767 181.843C178.413 181.924 177.97 181.969 177.438 181.976C176.566 181.991 175.754 181.836 175 181.511C174.247 181.186 173.637 180.684 173.172 180.004C172.707 179.324 172.474 178.471 172.474 177.445V160.659Z" fill="white"/>
<path d="M187.894 182.131C186.816 182.131 185.841 181.932 184.969 181.533C184.097 181.127 183.407 180.539 182.897 179.771C182.395 179.003 182.144 178.061 182.144 176.946C182.144 175.986 182.328 175.195 182.698 174.575C183.067 173.955 183.566 173.463 184.194 173.101C184.821 172.739 185.523 172.466 186.299 172.282C187.074 172.097 187.865 171.957 188.67 171.861C189.689 171.742 190.516 171.646 191.151 171.572C191.787 171.491 192.248 171.362 192.536 171.185C192.824 171.007 192.968 170.719 192.968 170.32V170.243C192.968 169.275 192.695 168.526 192.149 167.994C191.609 167.462 190.804 167.196 189.733 167.196C188.618 167.196 187.739 167.443 187.096 167.938C186.461 168.426 186.022 168.969 185.778 169.567L182.665 168.858C183.034 167.824 183.573 166.989 184.282 166.354C184.999 165.711 185.822 165.246 186.753 164.958C187.684 164.663 188.662 164.515 189.689 164.515C190.368 164.515 191.089 164.596 191.849 164.759C192.618 164.914 193.334 165.202 193.999 165.623C194.671 166.044 195.221 166.646 195.65 167.429C196.078 168.204 196.292 169.213 196.292 170.453V181.755H193.057V179.428H192.924C192.71 179.856 192.389 180.277 191.96 180.691C191.532 181.105 190.982 181.448 190.309 181.721C189.637 181.995 188.832 182.131 187.894 182.131ZM188.614 179.472C189.53 179.472 190.313 179.291 190.963 178.929C191.62 178.567 192.119 178.095 192.459 177.511C192.806 176.92 192.98 176.289 192.98 175.616V173.423C192.861 173.541 192.632 173.652 192.293 173.755C191.96 173.851 191.58 173.936 191.151 174.01C190.723 174.076 190.306 174.139 189.899 174.198C189.493 174.25 189.153 174.294 188.88 174.331C188.238 174.413 187.65 174.549 187.118 174.741C186.594 174.933 186.173 175.21 185.855 175.572C185.545 175.927 185.39 176.399 185.39 176.99C185.39 177.81 185.693 178.431 186.299 178.852C186.904 179.265 187.676 179.472 188.614 179.472Z" fill="white"/>
<path d="M204.018 159.064V181.755H200.705V159.064H204.018Z" fill="white"/>
<path d="M215.878 162.011V159.064H233.439V162.011H226.359V181.755H222.947V162.011H215.878Z" fill="white"/>
<path d="M241.921 182.098C240.244 182.098 238.8 181.74 237.589 181.023C236.385 180.299 235.454 179.284 234.797 177.976C234.147 176.662 233.822 175.122 233.822 173.356C233.822 171.613 234.147 170.077 234.797 168.747C235.454 167.418 236.37 166.38 237.544 165.634C238.726 164.888 240.107 164.515 241.688 164.515C242.648 164.515 243.579 164.674 244.48 164.991C245.381 165.309 246.19 165.807 246.906 166.487C247.623 167.166 248.188 168.049 248.602 169.135C249.015 170.213 249.222 171.524 249.222 173.068V174.243H235.694V171.761H245.976C245.976 170.889 245.799 170.117 245.444 169.445C245.089 168.766 244.591 168.23 243.948 167.839C243.313 167.447 242.567 167.251 241.71 167.251C240.78 167.251 239.967 167.48 239.273 167.938C238.586 168.389 238.054 168.98 237.677 169.711C237.308 170.435 237.123 171.222 237.123 172.071V174.01C237.123 175.147 237.323 176.115 237.722 176.913C238.128 177.711 238.693 178.32 239.417 178.741C240.141 179.155 240.986 179.361 241.954 179.361C242.582 179.361 243.154 179.273 243.671 179.095C244.188 178.911 244.635 178.638 245.012 178.276C245.389 177.914 245.677 177.467 245.876 176.935L249.012 177.5C248.76 178.423 248.31 179.232 247.66 179.926C247.017 180.613 246.208 181.149 245.233 181.533C244.266 181.91 243.162 182.098 241.921 182.098Z" fill="white"/>
<path d="M260.066 182.098C258.419 182.098 257.001 181.725 255.812 180.979C254.63 180.226 253.721 179.188 253.086 177.866C252.451 176.543 252.133 175.029 252.133 173.323C252.133 171.595 252.458 170.069 253.108 168.747C253.758 167.418 254.674 166.38 255.856 165.634C257.038 164.888 258.43 164.515 260.033 164.515C261.326 164.515 262.478 164.755 263.49 165.235C264.502 165.708 265.318 166.372 265.938 167.229C266.566 168.086 266.939 169.087 267.057 170.232H263.833C263.656 169.434 263.25 168.747 262.615 168.171C261.987 167.595 261.145 167.307 260.088 167.307C259.165 167.307 258.356 167.551 257.662 168.038C256.975 168.518 256.44 169.205 256.055 170.099C255.671 170.985 255.479 172.034 255.479 173.245C255.479 174.486 255.668 175.557 256.044 176.459C256.421 177.36 256.953 178.058 257.64 178.553C258.334 179.047 259.15 179.295 260.088 179.295C260.716 179.295 261.285 179.18 261.795 178.951C262.312 178.715 262.744 178.379 263.091 177.943C263.445 177.507 263.693 176.983 263.833 176.37H267.057C266.939 177.47 266.581 178.453 265.983 179.317C265.384 180.181 264.583 180.861 263.578 181.356C262.581 181.851 261.411 182.098 260.066 182.098Z" fill="white"/>
<path d="M273.913 171.65V181.755H270.6V159.064H273.869V167.506H274.079C274.478 166.59 275.087 165.863 275.907 165.324C276.727 164.784 277.798 164.515 279.12 164.515C280.287 164.515 281.307 164.755 282.178 165.235C283.057 165.715 283.737 166.432 284.217 167.384C284.704 168.33 284.948 169.512 284.948 170.93V181.755H281.635V171.329C281.635 170.08 281.314 169.113 280.671 168.426C280.029 167.732 279.135 167.384 277.99 167.384C277.207 167.384 276.506 167.551 275.885 167.883C275.272 168.215 274.788 168.703 274.434 169.345C274.086 169.981 273.913 170.749 273.913 171.65Z" fill="white"/>
<path d="M292.682 171.65V181.755H289.369V164.736H292.549V167.506H292.759C293.151 166.605 293.764 165.881 294.598 165.335C295.44 164.788 296.5 164.515 297.778 164.515C298.938 164.515 299.954 164.759 300.825 165.246C301.697 165.726 302.373 166.443 302.853 167.395C303.333 168.348 303.573 169.526 303.573 170.93V181.755H300.26V171.329C300.26 170.095 299.939 169.131 299.296 168.437C298.654 167.735 297.771 167.384 296.648 167.384C295.88 167.384 295.197 167.551 294.598 167.883C294.007 168.215 293.538 168.703 293.191 169.345C292.852 169.981 292.682 170.749 292.682 171.65Z" fill="white"/>
<path d="M315.184 182.098C313.589 182.098 312.196 181.732 311.007 181.001C309.818 180.27 308.895 179.247 308.237 177.932C307.58 176.617 307.251 175.081 307.251 173.323C307.251 171.558 307.58 170.014 308.237 168.692C308.895 167.37 309.818 166.343 311.007 165.612C312.196 164.88 313.589 164.515 315.184 164.515C316.78 164.515 318.172 164.88 319.361 165.612C320.55 166.343 321.474 167.37 322.131 168.692C322.788 170.014 323.117 171.558 323.117 173.323C323.117 175.081 322.788 176.617 322.131 177.932C321.474 179.247 320.55 180.27 319.361 181.001C318.172 181.732 316.78 182.098 315.184 182.098ZM315.195 179.317C316.229 179.317 317.086 179.044 317.766 178.497C318.445 177.951 318.948 177.223 319.273 176.314C319.605 175.406 319.771 174.405 319.771 173.312C319.771 172.226 319.605 171.229 319.273 170.32C318.948 169.405 318.445 168.67 317.766 168.116C317.086 167.562 316.229 167.285 315.195 167.285C314.154 167.285 313.29 167.562 312.603 168.116C311.923 168.67 311.417 169.405 311.085 170.32C310.76 171.229 310.597 172.226 310.597 173.312C310.597 174.405 310.76 175.406 311.085 176.314C311.417 177.223 311.923 177.951 312.603 178.497C313.29 179.044 314.154 179.317 315.195 179.317Z" fill="white"/>
<path d="M330.128 159.064V181.755H326.815V159.064H330.128Z" fill="white"/>
<path d="M341.753 182.098C340.158 182.098 338.765 181.732 337.576 181.001C336.387 180.27 335.463 179.247 334.806 177.932C334.149 176.617 333.82 175.081 333.82 173.323C333.82 171.558 334.149 170.014 334.806 168.692C335.463 167.37 336.387 166.343 337.576 165.612C338.765 164.88 340.158 164.515 341.753 164.515C343.348 164.515 344.741 164.88 345.93 165.612C347.119 166.343 348.042 167.37 348.7 168.692C349.357 170.014 349.686 171.558 349.686 173.323C349.686 175.081 349.357 176.617 348.7 177.932C348.042 179.247 347.119 180.27 345.93 181.001C344.741 181.732 343.348 182.098 341.753 182.098ZM341.764 179.317C342.798 179.317 343.655 179.044 344.334 178.497C345.014 177.951 345.516 177.223 345.841 176.314C346.174 175.406 346.34 174.405 346.34 173.312C346.34 172.226 346.174 171.229 345.841 170.32C345.516 169.405 345.014 168.67 344.334 168.116C343.655 167.562 342.798 167.285 341.764 167.285C340.723 167.285 339.858 167.562 339.171 168.116C338.492 168.67 337.986 169.405 337.654 170.32C337.329 171.229 337.166 172.226 337.166 173.312C337.166 174.405 337.329 175.406 337.654 176.314C337.986 177.223 338.492 177.951 339.171 178.497C339.858 179.044 340.723 179.317 341.764 179.317Z" fill="white"/>
<path d="M360.519 188.491C359.167 188.491 358.004 188.314 357.029 187.959C356.061 187.605 355.271 187.136 354.658 186.552C354.045 185.968 353.587 185.33 353.284 184.635L356.131 183.461C356.331 183.786 356.597 184.129 356.929 184.491C357.269 184.861 357.727 185.174 358.303 185.433C358.887 185.691 359.636 185.821 360.552 185.821C361.808 185.821 362.846 185.514 363.666 184.901C364.485 184.295 364.895 183.328 364.895 181.998V178.652H364.685C364.485 179.014 364.197 179.417 363.821 179.86C363.451 180.303 362.942 180.687 362.292 181.012C361.642 181.337 360.796 181.5 359.754 181.5C358.41 181.5 357.199 181.186 356.12 180.558C355.049 179.923 354.2 178.988 353.572 177.755C352.952 176.514 352.641 174.989 352.641 173.179C352.641 171.369 352.948 169.818 353.561 168.526C354.181 167.233 355.031 166.243 356.109 165.556C357.188 164.862 358.41 164.515 359.777 164.515C360.833 164.515 361.686 164.692 362.336 165.047C362.986 165.394 363.492 165.8 363.854 166.265C364.223 166.731 364.508 167.141 364.707 167.495H364.951V164.736H368.197V182.131C368.197 183.594 367.857 184.794 367.178 185.732C366.498 186.67 365.579 187.364 364.419 187.815C363.267 188.266 361.967 188.491 360.519 188.491ZM360.486 178.752C361.439 178.752 362.244 178.53 362.901 178.087C363.566 177.637 364.068 176.994 364.408 176.159C364.755 175.317 364.929 174.309 364.929 173.135C364.929 171.99 364.759 170.982 364.419 170.11C364.079 169.238 363.581 168.559 362.923 168.071C362.266 167.576 361.453 167.329 360.486 167.329C359.489 167.329 358.658 167.588 357.993 168.105C357.328 168.614 356.826 169.309 356.486 170.188C356.154 171.066 355.987 172.049 355.987 173.135C355.987 174.25 356.157 175.229 356.497 176.071C356.837 176.913 357.339 177.57 358.004 178.043C358.676 178.516 359.503 178.752 360.486 178.752Z" fill="white"/>
<path d="M372.64 181.755V164.736H375.953V181.755H372.64ZM374.313 162.111C373.737 162.111 373.242 161.918 372.828 161.534C372.422 161.143 372.219 160.678 372.219 160.138C372.219 159.592 372.422 159.126 372.828 158.742C373.242 158.351 373.737 158.155 374.313 158.155C374.889 158.155 375.38 158.351 375.787 158.742C376.2 159.126 376.407 159.592 376.407 160.138C376.407 160.678 376.2 161.143 375.787 161.534C375.38 161.918 374.889 162.111 374.313 162.111Z" fill="white"/>
<path d="M387.744 182.098C386.067 182.098 384.623 181.74 383.412 181.023C382.208 180.299 381.277 179.284 380.62 177.976C379.97 176.662 379.645 175.122 379.645 173.356C379.645 171.613 379.97 170.077 380.62 168.747C381.277 167.418 382.193 166.38 383.368 165.634C384.55 164.888 385.931 164.515 387.511 164.515C388.472 164.515 389.402 164.674 390.304 164.991C391.205 165.309 392.013 165.807 392.73 166.487C393.446 167.166 394.011 168.049 394.425 169.135C394.839 170.213 395.046 171.524 395.046 173.068V174.243H381.517V171.761H391.799C391.799 170.889 391.622 170.117 391.267 169.445C390.913 168.766 390.414 168.23 389.772 167.839C389.136 167.447 388.39 167.251 387.534 167.251C386.603 167.251 385.79 167.48 385.096 167.938C384.409 168.389 383.877 168.98 383.501 169.711C383.131 170.435 382.947 171.222 382.947 172.071V174.01C382.947 175.147 383.146 176.115 383.545 176.913C383.951 177.711 384.516 178.32 385.24 178.741C385.964 179.155 386.81 179.361 387.777 179.361C388.405 179.361 388.978 179.273 389.495 179.095C390.012 178.911 390.459 178.638 390.835 178.276C391.212 177.914 391.5 177.467 391.7 176.935L394.835 177.5C394.584 178.423 394.133 179.232 393.483 179.926C392.841 180.613 392.032 181.149 391.057 181.533C390.089 181.91 388.985 182.098 387.744 182.098Z" fill="white"/>
<path d="M411.474 168.891L408.471 169.423C408.346 169.039 408.146 168.673 407.873 168.326C407.607 167.979 407.245 167.695 406.787 167.473C406.329 167.251 405.757 167.141 405.07 167.141C404.132 167.141 403.349 167.351 402.721 167.772C402.093 168.186 401.779 168.721 401.779 169.379C401.779 169.947 401.99 170.405 402.411 170.753C402.832 171.1 403.511 171.384 404.449 171.606L407.153 172.226C408.719 172.588 409.886 173.146 410.654 173.899C411.422 174.653 411.806 175.631 411.806 176.835C411.806 177.855 411.511 178.763 410.92 179.561C410.336 180.351 409.52 180.972 408.471 181.422C407.43 181.873 406.222 182.098 404.848 182.098C402.943 182.098 401.388 181.692 400.184 180.879C398.98 180.059 398.241 178.896 397.968 177.389L401.17 176.902C401.369 177.736 401.779 178.368 402.4 178.796C403.02 179.217 403.829 179.428 404.826 179.428C405.912 179.428 406.78 179.203 407.43 178.752C408.08 178.294 408.405 177.736 408.405 177.079C408.405 176.547 408.205 176.1 407.806 175.738C407.415 175.376 406.813 175.103 406 174.918L403.12 174.287C401.532 173.925 400.357 173.349 399.596 172.559C398.843 171.768 398.466 170.767 398.466 169.556C398.466 168.551 398.747 167.672 399.308 166.919C399.87 166.166 400.645 165.578 401.635 165.157C402.625 164.729 403.759 164.515 405.037 164.515C406.876 164.515 408.323 164.914 409.38 165.711C410.436 166.502 411.134 167.562 411.474 168.891Z" fill="white"/>
<path d="M431.805 164.736V167.395H422.188V164.736H431.805ZM424.825 181.755V162.764C424.825 161.701 425.057 160.818 425.523 160.116C425.988 159.407 426.605 158.879 427.373 158.532C428.141 158.177 428.976 158 429.877 158C430.542 158 431.11 158.055 431.583 158.166C432.056 158.27 432.407 158.366 432.636 158.454L431.86 161.136C431.705 161.091 431.506 161.039 431.262 160.98C431.018 160.914 430.723 160.881 430.375 160.881C429.57 160.881 428.994 161.08 428.647 161.479C428.307 161.878 428.137 162.454 428.137 163.207V181.755H424.825Z" fill="white"/>
<path d="M441.721 182.098C440.125 182.098 438.733 181.732 437.544 181.001C436.355 180.27 435.431 179.247 434.774 177.932C434.117 176.617 433.788 175.081 433.788 173.323C433.788 171.558 434.117 170.014 434.774 168.692C435.431 167.37 436.355 166.343 437.544 165.612C438.733 164.88 440.125 164.515 441.721 164.515C443.316 164.515 444.709 164.88 445.898 165.612C447.087 166.343 448.01 167.37 448.668 168.692C449.325 170.014 449.654 171.558 449.654 173.323C449.654 175.081 449.325 176.617 448.668 177.932C448.01 179.247 447.087 180.27 445.898 181.001C444.709 181.732 443.316 182.098 441.721 182.098ZM441.732 179.317C442.766 179.317 443.623 179.044 444.302 178.497C444.982 177.951 445.484 177.223 445.809 176.314C446.142 175.406 446.308 174.405 446.308 173.312C446.308 172.226 446.142 171.229 445.809 170.32C445.484 169.405 444.982 168.67 444.302 168.116C443.623 167.562 442.766 167.285 441.732 167.285C440.691 167.285 439.826 167.562 439.139 168.116C438.46 168.67 437.954 169.405 437.621 170.32C437.296 171.229 437.134 172.226 437.134 173.312C437.134 174.405 437.296 175.406 437.621 176.314C437.954 177.223 438.46 177.951 439.139 178.497C439.826 179.044 440.691 179.317 441.732 179.317Z" fill="white"/>
<path d="M453.352 181.755V164.736H456.554V167.44H456.731C457.041 166.524 457.588 165.804 458.371 165.279C459.161 164.747 460.055 164.482 461.052 164.482C461.259 164.482 461.503 164.489 461.783 164.504C462.071 164.518 462.297 164.537 462.459 164.559V167.728C462.326 167.691 462.09 167.65 461.75 167.606C461.41 167.554 461.07 167.528 460.731 167.528C459.948 167.528 459.25 167.695 458.637 168.027C458.031 168.352 457.551 168.806 457.196 169.39C456.842 169.966 456.664 170.623 456.664 171.362V181.755H453.352Z" fill="white"/>
<path d="M473.849 181.755V159.064H482.159C483.769 159.064 485.102 159.33 486.158 159.861C487.214 160.386 488.005 161.099 488.529 162C489.054 162.893 489.316 163.902 489.316 165.024C489.316 165.97 489.142 166.768 488.795 167.418C488.448 168.06 487.983 168.577 487.399 168.969C486.823 169.353 486.188 169.634 485.493 169.811V170.032C486.247 170.069 486.982 170.313 487.698 170.764C488.422 171.207 489.02 171.838 489.493 172.658C489.966 173.478 490.202 174.475 490.202 175.65C490.202 176.809 489.929 177.851 489.382 178.774C488.843 179.69 488.009 180.418 486.878 180.957C485.748 181.489 484.304 181.755 482.546 181.755H473.849ZM477.272 178.818H482.214C483.854 178.818 485.028 178.501 485.737 177.866C486.446 177.23 486.801 176.436 486.801 175.484C486.801 174.767 486.62 174.11 486.258 173.511C485.896 172.913 485.379 172.437 484.707 172.082C484.042 171.728 483.252 171.55 482.336 171.55H477.272V178.818ZM477.272 168.88H481.859C482.628 168.88 483.318 168.732 483.931 168.437C484.552 168.141 485.043 167.728 485.405 167.196C485.774 166.657 485.959 166.022 485.959 165.29C485.959 164.352 485.63 163.566 484.973 162.93C484.315 162.295 483.307 161.978 481.948 161.978H477.272V168.88Z" fill="white"/>
<path d="M501.332 182.098C499.655 182.098 498.211 181.74 497 181.023C495.796 180.299 494.865 179.284 494.208 177.976C493.558 176.662 493.233 175.122 493.233 173.356C493.233 171.613 493.558 170.077 494.208 168.747C494.865 167.418 495.781 166.38 496.955 165.634C498.137 164.888 499.518 164.515 501.099 164.515C502.059 164.515 502.99 164.674 503.891 164.991C504.792 165.309 505.601 165.807 506.317 166.487C507.034 167.166 507.599 168.049 508.013 169.135C508.426 170.213 508.633 171.524 508.633 173.068V174.243H495.105V171.761H505.387C505.387 170.889 505.21 170.117 504.855 169.445C504.5 168.766 504.002 168.23 503.359 167.839C502.724 167.447 501.978 167.251 501.121 167.251C500.19 167.251 499.378 167.48 498.684 167.938C497.997 168.389 497.465 168.98 497.088 169.711C496.719 170.435 496.534 171.222 496.534 172.071V174.01C496.534 175.147 496.734 176.115 497.133 176.913C497.539 177.711 498.104 178.32 498.828 178.741C499.552 179.155 500.397 179.361 501.365 179.361C501.993 179.361 502.565 179.273 503.082 179.095C503.599 178.911 504.046 178.638 504.423 178.276C504.8 177.914 505.088 177.467 505.287 176.935L508.423 177.5C508.171 178.423 507.721 179.232 507.071 179.926C506.428 180.613 505.619 181.149 504.644 181.533C503.677 181.91 502.573 182.098 501.332 182.098Z" fill="white"/>
<path d="M520.253 164.736V167.395H510.957V164.736H520.253ZM513.45 160.659H516.763V176.758C516.763 177.4 516.859 177.884 517.051 178.209C517.243 178.527 517.49 178.745 517.793 178.863C518.103 178.974 518.439 179.029 518.801 179.029C519.067 179.029 519.3 179.011 519.499 178.974C519.699 178.937 519.854 178.907 519.965 178.885L520.563 181.622C520.371 181.695 520.098 181.769 519.743 181.843C519.389 181.924 518.945 181.969 518.414 181.976C517.542 181.991 516.729 181.836 515.976 181.511C515.223 181.186 514.613 180.684 514.148 180.004C513.683 179.324 513.45 178.471 513.45 177.445V160.659Z" fill="white"/>
<path d="M531.861 164.736V167.395H522.566V164.736H531.861ZM525.059 160.659H528.371V176.758C528.371 177.4 528.467 177.884 528.659 178.209C528.851 178.527 529.099 178.745 529.402 178.863C529.712 178.974 530.048 179.029 530.41 179.029C530.676 179.029 530.909 179.011 531.108 178.974C531.307 178.937 531.462 178.907 531.573 178.885L532.172 181.622C531.98 181.695 531.706 181.769 531.352 181.843C530.997 181.924 530.554 181.969 530.022 181.976C529.151 181.991 528.338 181.836 527.585 181.511C526.831 181.186 526.222 180.684 525.757 180.004C525.291 179.324 525.059 178.471 525.059 177.445V160.659Z" fill="white"/>
<path d="M542.678 182.098C541.001 182.098 539.557 181.74 538.346 181.023C537.142 180.299 536.211 179.284 535.554 177.976C534.904 176.662 534.579 175.122 534.579 173.356C534.579 171.613 534.904 170.077 535.554 168.747C536.211 167.418 537.127 166.38 538.301 165.634C539.483 164.888 540.864 164.515 542.445 164.515C543.405 164.515 544.336 164.674 545.237 164.991C546.138 165.309 546.947 165.807 547.664 166.487C548.38 167.166 548.945 168.049 549.359 169.135C549.772 170.213 549.979 171.524 549.979 173.068V174.243H536.451V171.761H546.733C546.733 170.889 546.556 170.117 546.201 169.445C545.846 168.766 545.348 168.23 544.705 167.839C544.07 167.447 543.324 167.251 542.467 167.251C541.537 167.251 540.724 167.48 540.03 167.938C539.343 168.389 538.811 168.98 538.434 169.711C538.065 170.435 537.88 171.222 537.88 172.071V174.01C537.88 175.147 538.08 176.115 538.479 176.913C538.885 177.711 539.45 178.32 540.174 178.741C540.898 179.155 541.743 179.361 542.711 179.361C543.339 179.361 543.911 179.273 544.428 179.095C544.945 178.911 545.392 178.638 545.769 178.276C546.146 177.914 546.434 177.467 546.633 176.935L549.769 177.5C549.518 178.423 549.067 179.232 548.417 179.926C547.774 180.613 546.966 181.149 545.991 181.533C545.023 181.91 543.919 182.098 542.678 182.098Z" fill="white"/>
<path d="M553.655 181.755V164.736H556.857V167.44H557.034C557.344 166.524 557.891 165.804 558.674 165.279C559.464 164.747 560.358 164.482 561.355 164.482C561.562 164.482 561.806 164.489 562.086 164.504C562.374 164.518 562.6 164.537 562.762 164.559V167.728C562.629 167.691 562.393 167.65 562.053 167.606C561.713 167.554 561.374 167.528 561.034 167.528C560.251 167.528 559.553 167.695 558.94 168.027C558.334 168.352 557.854 168.806 557.499 169.39C557.145 169.966 556.968 170.623 556.968 171.362V181.755H553.655Z" fill="white"/>
<path d="M581.498 181.755H574.152V159.064H581.73C583.954 159.064 585.863 159.518 587.459 160.426C589.054 161.328 590.276 162.624 591.126 164.315C591.983 165.999 592.411 168.02 592.411 170.376C592.411 172.739 591.979 174.771 591.115 176.47C590.258 178.168 589.017 179.476 587.392 180.392C585.767 181.3 583.802 181.755 581.498 181.755ZM577.576 178.763H581.309C583.038 178.763 584.474 178.438 585.619 177.788C586.764 177.131 587.621 176.182 588.19 174.941C588.759 173.692 589.043 172.171 589.043 170.376C589.043 168.596 588.759 167.085 588.19 165.844C587.628 164.603 586.79 163.662 585.675 163.019C584.559 162.376 583.174 162.055 581.52 162.055H577.576V178.763Z" fill="white"/>
<path d="M603.737 182.098C602.06 182.098 600.616 181.74 599.405 181.023C598.201 180.299 597.27 179.284 596.613 177.976C595.963 176.662 595.638 175.122 595.638 173.356C595.638 171.613 595.963 170.077 596.613 168.747C597.27 167.418 598.186 166.38 599.361 165.634C600.543 164.888 601.924 164.515 603.504 164.515C604.465 164.515 605.395 164.674 606.297 164.991C607.198 165.309 608.006 165.807 608.723 166.487C609.439 167.166 610.004 168.049 610.418 169.135C610.832 170.213 611.039 171.524 611.039 173.068V174.243H597.51V171.761H607.792C607.792 170.889 607.615 170.117 607.26 169.445C606.906 168.766 606.407 168.23 605.765 167.839C605.129 167.447 604.383 167.251 603.527 167.251C602.596 167.251 601.783 167.48 601.089 167.938C600.402 168.389 599.87 168.98 599.494 169.711C599.124 170.435 598.94 171.222 598.94 172.071V174.01C598.94 175.147 599.139 176.115 599.538 176.913C599.944 177.711 600.509 178.32 601.233 178.741C601.957 179.155 602.803 179.361 603.77 179.361C604.398 179.361 604.971 179.273 605.488 179.095C606.005 178.911 606.452 178.638 606.828 178.276C607.205 177.914 607.493 177.467 607.693 176.935L610.828 177.5C610.577 178.423 610.126 179.232 609.476 179.926C608.834 180.613 608.025 181.149 607.05 181.533C606.082 181.91 604.978 182.098 603.737 182.098Z" fill="white"/>
<path d="M628.785 164.736L622.614 181.755H619.068L612.886 164.736H616.443L620.753 177.832H620.93L625.229 164.736H628.785Z" fill="white"/>
<path d="M638.654 182.098C636.978 182.098 635.534 181.74 634.322 181.023C633.118 180.299 632.188 179.284 631.53 177.976C630.88 176.662 630.555 175.122 630.555 173.356C630.555 171.613 630.88 170.077 631.53 168.747C632.188 167.418 633.103 166.38 634.278 165.634C635.46 164.888 636.841 164.515 638.422 164.515C639.382 164.515 640.313 164.674 641.214 164.991C642.115 165.309 642.924 165.807 643.64 166.487C644.357 167.166 644.922 168.049 645.335 169.135C645.749 170.213 645.956 171.524 645.956 173.068V174.243H632.428V171.761H642.709C642.709 170.889 642.532 170.117 642.178 169.445C641.823 168.766 641.325 168.23 640.682 167.839C640.047 167.447 639.301 167.251 638.444 167.251C637.513 167.251 636.701 167.48 636.006 167.938C635.319 168.389 634.788 168.98 634.411 169.711C634.042 170.435 633.857 171.222 633.857 172.071V174.01C633.857 175.147 634.056 176.115 634.455 176.913C634.861 177.711 635.426 178.32 636.15 178.741C636.874 179.155 637.72 179.361 638.688 179.361C639.315 179.361 639.888 179.273 640.405 179.095C640.922 178.911 641.369 178.638 641.745 178.276C642.122 177.914 642.41 177.467 642.61 176.935L645.745 177.5C645.494 178.423 645.044 179.232 644.393 179.926C643.751 180.613 642.942 181.149 641.967 181.533C641 181.91 639.895 182.098 638.654 182.098Z" fill="white"/>
<path d="M652.944 159.064V181.755H649.631V159.064H652.944Z" fill="white"/>
<path d="M664.569 182.098C662.974 182.098 661.582 181.732 660.392 181.001C659.203 180.27 658.28 179.247 657.622 177.932C656.965 176.617 656.636 175.081 656.636 173.323C656.636 171.558 656.965 170.014 657.622 168.692C658.28 167.37 659.203 166.343 660.392 165.612C661.582 164.88 662.974 164.515 664.569 164.515C666.165 164.515 667.557 164.88 668.746 165.612C669.936 166.343 670.859 167.37 671.516 168.692C672.174 170.014 672.502 171.558 672.502 173.323C672.502 175.081 672.174 176.617 671.516 177.932C670.859 179.247 669.936 180.27 668.746 181.001C667.557 181.732 666.165 182.098 664.569 182.098ZM664.58 179.317C665.615 179.317 666.471 179.044 667.151 178.497C667.83 177.951 668.333 177.223 668.658 176.314C668.99 175.406 669.156 174.405 669.156 173.312C669.156 172.226 668.99 171.229 668.658 170.32C668.333 169.405 667.83 168.67 667.151 168.116C666.471 167.562 665.615 167.285 664.58 167.285C663.539 167.285 662.675 167.562 661.988 168.116C661.308 168.67 660.802 169.405 660.47 170.32C660.145 171.229 659.982 172.226 659.982 173.312C659.982 174.405 660.145 175.406 660.47 176.314C660.802 177.223 661.308 177.951 661.988 178.497C662.675 179.044 663.539 179.317 664.58 179.317Z" fill="white"/>
<path d="M676.2 188.136V164.736H679.435V167.495H679.712C679.904 167.141 680.181 166.731 680.543 166.265C680.905 165.8 681.407 165.394 682.05 165.047C682.693 164.692 683.542 164.515 684.598 164.515C685.972 164.515 687.198 164.862 688.277 165.556C689.355 166.251 690.201 167.251 690.814 168.559C691.434 169.866 691.745 171.439 691.745 173.279C691.745 175.118 691.438 176.695 690.825 178.01C690.212 179.317 689.37 180.325 688.299 181.034C687.228 181.736 686.005 182.087 684.632 182.087C683.597 182.087 682.752 181.913 682.094 181.566C681.444 181.219 680.935 180.813 680.565 180.347C680.196 179.882 679.912 179.468 679.712 179.107H679.513V188.136H676.2ZM679.446 173.245C679.446 174.442 679.62 175.491 679.967 176.392C680.314 177.293 680.817 177.999 681.474 178.508C682.131 179.011 682.936 179.262 683.889 179.262C684.879 179.262 685.706 178.999 686.371 178.475C687.036 177.943 687.538 177.223 687.878 176.314C688.225 175.406 688.399 174.383 688.399 173.245C688.399 172.123 688.229 171.114 687.889 170.221C687.557 169.327 687.054 168.622 686.382 168.105C685.717 167.588 684.886 167.329 683.889 167.329C682.929 167.329 682.117 167.576 681.452 168.071C680.794 168.566 680.296 169.257 679.956 170.143C679.616 171.03 679.446 172.064 679.446 173.245Z" fill="white"/>
<path d="M695.456 181.755V164.736H698.636V167.506H698.847C699.201 166.568 699.781 165.837 700.586 165.313C701.391 164.781 702.355 164.515 703.478 164.515C704.615 164.515 705.568 164.781 706.336 165.313C707.112 165.844 707.685 166.576 708.054 167.506H708.231C708.637 166.598 709.284 165.874 710.17 165.335C711.056 164.788 712.113 164.515 713.339 164.515C714.883 164.515 716.142 164.999 717.117 165.966C718.099 166.934 718.59 168.393 718.59 170.343V181.755H715.278V170.653C715.278 169.501 714.964 168.666 714.336 168.149C713.708 167.632 712.958 167.373 712.087 167.373C711.008 167.373 710.17 167.706 709.572 168.37C708.973 169.028 708.674 169.874 708.674 170.908V181.755H705.373V170.442C705.373 169.519 705.084 168.777 704.508 168.215C703.932 167.654 703.182 167.373 702.259 167.373C701.631 167.373 701.052 167.539 700.52 167.872C699.995 168.197 699.571 168.651 699.246 169.235C698.928 169.818 698.769 170.494 698.769 171.262V181.755H695.456Z" fill="white"/>
<path d="M730.365 182.098C728.689 182.098 727.245 181.74 726.033 181.023C724.829 180.299 723.898 179.284 723.241 177.976C722.591 176.662 722.266 175.122 722.266 173.356C722.266 171.613 722.591 170.077 723.241 168.747C723.898 167.418 724.814 166.38 725.989 165.634C727.171 164.888 728.552 164.515 730.133 164.515C731.093 164.515 732.023 164.674 732.925 164.991C733.826 165.309 734.635 165.807 735.351 166.487C736.068 167.166 736.633 168.049 737.046 169.135C737.46 170.213 737.667 171.524 737.667 173.068V174.243H724.139V171.761H734.42C734.42 170.889 734.243 170.117 733.889 169.445C733.534 168.766 733.035 168.23 732.393 167.839C731.758 167.447 731.012 167.251 730.155 167.251C729.224 167.251 728.412 167.48 727.717 167.938C727.03 168.389 726.498 168.98 726.122 169.711C725.752 170.435 725.568 171.222 725.568 172.071V174.01C725.568 175.147 725.767 176.115 726.166 176.913C726.572 177.711 727.137 178.32 727.861 178.741C728.585 179.155 729.431 179.361 730.398 179.361C731.026 179.361 731.599 179.273 732.116 179.095C732.633 178.911 733.08 178.638 733.456 178.276C733.833 177.914 734.121 177.467 734.321 176.935L737.456 177.5C737.205 178.423 736.754 179.232 736.104 179.926C735.462 180.613 734.653 181.149 733.678 181.533C732.71 181.91 731.606 182.098 730.365 182.098Z" fill="white"/>
<path d="M744.655 171.65V181.755H741.342V164.736H744.522V167.506H744.733C745.124 166.605 745.737 165.881 746.572 165.335C747.414 164.788 748.474 164.515 749.752 164.515C750.911 164.515 751.927 164.759 752.799 165.246C753.67 165.726 754.346 166.443 754.826 167.395C755.306 168.348 755.546 169.526 755.546 170.93V181.755H752.233V171.329C752.233 170.095 751.912 169.131 751.27 168.437C750.627 167.735 749.744 167.384 748.622 167.384C747.853 167.384 747.17 167.551 746.572 167.883C745.981 168.215 745.512 168.703 745.165 169.345C744.825 169.981 744.655 170.749 744.655 171.65Z" fill="white"/>
<path d="M767.933 164.736V167.395H758.638V164.736H767.933ZM761.13 160.659H764.443V176.758C764.443 177.4 764.539 177.884 764.731 178.209C764.923 178.527 765.171 178.745 765.474 178.863C765.784 178.974 766.12 179.029 766.482 179.029C766.748 179.029 766.98 179.011 767.18 178.974C767.379 178.937 767.534 178.907 767.645 178.885L768.243 181.622C768.051 181.695 767.778 181.769 767.424 181.843C767.069 181.924 766.626 181.969 766.094 181.976C765.222 181.991 764.41 181.836 763.657 181.511C762.903 181.186 762.294 180.684 761.828 180.004C761.363 179.324 761.13 178.471 761.13 177.445V160.659Z" fill="white"/>
</svg>
