<svg width="769" height="190" viewBox="0 0 769 190" fill="none" xmlns="http://www.w3.org/2000/svg">
<path d="M560.757 69.2362V115.273H537.739V69.2362C537.739 64.9907 536.23 61.3845 533.212 58.4177C530.246 55.3997 526.64 53.8908 522.394 53.8908C518.148 53.8908 514.517 55.3997 511.499 58.4177C508.532 61.3845 507.048 64.9907 507.048 69.2362V115.273H484.03V69.2362C484.03 64.9907 482.521 61.3845 479.503 58.4177C476.537 55.3997 472.93 53.8908 468.685 53.8908C464.439 53.8908 460.808 55.3997 457.79 58.4177C454.823 61.3845 453.339 64.9907 453.339 69.2362V115.273H430.321V69.2362C430.321 58.6479 434.055 49.6196 441.523 42.1515C449.043 34.6322 458.097 30.8726 468.685 30.8726C479.171 30.8726 488.122 34.5299 495.539 41.8446C502.956 34.5299 511.908 30.8726 522.394 30.8726C532.982 30.8726 542.01 34.6322 549.478 42.1515C556.998 49.6196 560.757 58.6479 560.757 69.2362Z" fill="#D5D8DD"/>
<path d="M591.775 115.264H568.757V30.8642H591.775V115.264ZM580.266 23.1915C577.095 23.1915 574.384 22.0661 572.133 19.8155C569.883 17.5648 568.757 14.8538 568.757 11.6824C568.757 8.51103 569.883 5.80001 572.133 3.54934C574.384 1.29867 577.095 0.17334 580.266 0.17334C583.438 0.17334 586.149 1.29867 588.399 3.54934C590.65 5.80001 591.775 8.51103 591.775 11.6824C591.775 14.8538 590.65 17.5648 588.399 19.8155C586.149 22.0661 583.438 23.1915 580.266 23.1915Z" fill="#D5D8DD"/>
<path d="M676.503 69.2362V115.273H653.485V69.2362C653.485 64.9907 651.976 61.3845 648.958 58.4177C645.991 55.3997 642.385 53.8908 638.139 53.8908C633.894 53.8908 630.262 55.3997 627.244 58.4177C624.277 61.3845 622.794 64.9907 622.794 69.2362V115.273H599.775V69.2362C599.775 58.6479 603.51 49.6196 610.978 42.1515C618.497 34.6322 627.551 30.8726 638.139 30.8726C648.727 30.8726 657.756 34.6322 665.224 42.1515C672.743 49.6196 676.503 58.6479 676.503 69.2362Z" fill="#D5D8DD"/>
<path d="M768.903 73.0642C768.903 84.7267 764.785 94.6757 756.549 102.911C748.314 111.146 738.365 115.264 726.703 115.264C715.04 115.264 705.091 111.146 696.856 102.911C688.62 94.6757 684.503 84.7267 684.503 73.0642C684.503 61.4016 688.62 51.4527 696.856 43.2173C705.091 34.9819 715.04 30.8642 726.703 30.8642H745.884V53.8824H726.703C721.383 53.8824 716.856 55.7494 713.122 59.4835C709.388 63.2175 707.521 67.7444 707.521 73.0642C707.521 78.3839 709.388 82.9108 713.122 86.6449C716.856 90.379 721.383 92.246 726.703 92.246C732.022 92.246 736.549 90.379 740.283 86.6449C744.017 82.9108 745.884 78.3839 745.884 73.0642V0.17334H768.903V73.0642Z" fill="#D5D8DD"/>
<path d="M182.956 73.0726C182.956 61.41 187.074 51.461 195.309 43.2257C203.545 34.9903 213.493 30.8726 225.156 30.8726C236.818 30.8726 246.767 34.9903 255.002 43.2257C263.238 51.461 267.356 61.41 267.356 73.0726C267.356 84.7351 263.238 94.6841 255.002 102.919C246.767 111.154 236.818 115.272 225.156 115.272H205.974V92.2544H225.156C230.475 92.2544 235.002 90.3873 238.736 86.6533C242.47 82.9192 244.337 78.3923 244.337 73.0726C244.337 67.7528 242.47 63.2259 238.736 59.4918C235.002 55.7578 230.475 53.8907 225.156 53.8907C219.836 53.8907 215.309 55.7578 211.575 59.4918C207.841 63.2259 205.974 67.7528 205.974 73.0726V138.29H182.956V73.0726Z" fill="#D5D8DD"/>
<path d="M317.556 92.2544C322.875 92.2544 327.402 90.3873 331.136 86.6533C334.87 82.9192 336.737 78.3923 336.737 73.0726C336.737 67.7528 334.87 63.2259 331.136 59.4918C327.402 55.7578 322.875 53.8907 317.556 53.8907C312.236 53.8907 307.709 55.7578 303.975 59.4918C300.241 63.2259 298.374 67.7528 298.374 73.0726C298.374 78.3923 300.241 82.9192 303.975 86.6533C307.709 90.3873 312.236 92.2544 317.556 92.2544ZM317.556 115.272C305.893 115.272 295.944 111.154 287.709 102.919C279.473 94.6841 275.356 84.7351 275.356 73.0726C275.356 61.41 279.473 51.461 287.709 43.2257C295.944 34.9903 305.893 30.8726 317.556 30.8726C329.218 30.8726 339.167 34.9903 347.402 43.2257C355.638 51.461 359.756 61.41 359.756 73.0726C359.756 84.7351 355.638 94.6841 347.402 102.919C339.167 111.154 329.218 115.272 317.556 115.272Z" fill="#D5D8DD"/>
<path d="M390.775 30.8908H410.417V53.9089H390.775V76.9271C390.775 81.1727 392.258 84.8044 395.225 87.8224C398.243 90.7892 401.874 92.2726 406.12 92.2726H421.769L421.772 115.291H406.12C395.532 115.291 386.478 111.557 378.959 104.089C371.49 96.5693 367.756 87.5155 367.756 76.9271V7.87256H390.775V30.8908Z" fill="#D5D8DD"/>
<path d="M132.756 30.8726H167.281L167.283 53.8908H132.756C131.682 53.8908 130.761 54.2744 129.994 55.0417C129.278 55.7578 128.92 56.653 128.92 57.7271C128.92 58.8013 129.278 59.7221 129.994 60.4893C130.761 61.2054 131.682 61.5635 132.756 61.5635H148.101C155.518 61.5635 161.836 64.1978 167.053 69.4664C172.322 74.6839 174.956 81.0011 174.956 88.418C174.956 95.835 172.322 102.178 167.053 107.447C161.836 112.664 155.518 115.273 148.101 115.273H109.901V92.2544H148.101C149.176 92.2544 150.071 91.8963 150.787 91.1802C151.554 90.4129 151.938 89.4922 151.938 88.418C151.938 87.3439 151.554 86.4487 150.787 85.7326C150.071 84.9653 149.176 84.5817 148.101 84.5817H132.756C125.339 84.5817 118.996 81.973 113.728 76.7555C108.51 71.4869 105.901 65.1441 105.901 57.7271C105.901 50.3102 108.51 43.993 113.728 38.7755C118.996 33.5069 125.339 30.8726 132.756 30.8726Z" fill="#D5D8DD"/>
<path fill-rule="evenodd" clip-rule="evenodd" d="M78.1819 38.1683L84.9018 52.4483L91.6217 38.1683L105.902 31.4483L91.6217 24.7283L84.9018 10.4482L78.1819 24.7283L63.9021 31.4483L78.1819 38.1683ZM7.29541 63.5941C3.07407 53.4027 0.901367 42.4797 0.901367 31.4486L42.9008 31.4486C42.9008 36.9641 43.9872 42.4257 46.0979 47.5213C48.2085 52.617 51.3022 57.2471 55.2022 61.1471C59.1022 65.0472 63.7322 68.1409 68.8278 70.2516C73.9234 72.3623 79.3849 73.4487 84.9003 73.4487L84.9003 115.449C73.8694 115.449 62.9465 113.276 52.7553 109.055C42.5641 104.833 33.3041 98.6458 25.5041 90.8456C17.7041 83.0455 11.5168 73.7854 7.29541 63.5941Z" fill="#D5D8DD"/>
<path d="M122.247 181.928H114.901V159.237H122.48C124.703 159.237 126.612 159.691 128.208 160.6C129.803 161.501 131.026 162.797 131.875 164.489C132.732 166.173 133.16 168.193 133.16 170.549C133.16 172.913 132.728 174.944 131.864 176.643C131.007 178.342 129.766 179.649 128.141 180.565C126.516 181.474 124.552 181.928 122.247 181.928ZM118.325 178.936H122.059C123.787 178.936 125.224 178.611 126.369 177.961C127.514 177.304 128.37 176.355 128.939 175.114C129.508 173.866 129.792 172.344 129.792 170.549C129.792 168.769 129.508 167.259 128.939 166.018C128.378 164.777 127.539 163.835 126.424 163.192C125.309 162.55 123.924 162.228 122.269 162.228H118.325V178.936Z" fill="#D5D8DD"/>
<path d="M137.152 181.928V164.91H140.465V181.928H137.152ZM138.825 162.284C138.249 162.284 137.754 162.092 137.34 161.708C136.934 161.316 136.731 160.851 136.731 160.312C136.731 159.765 136.934 159.3 137.34 158.916C137.754 158.524 138.249 158.328 138.825 158.328C139.401 158.328 139.892 158.524 140.298 158.916C140.712 159.3 140.919 159.765 140.919 160.312C140.919 160.851 140.712 161.316 140.298 161.708C139.892 162.092 139.401 162.284 138.825 162.284Z" fill="#D5D8DD"/>
<path d="M152.057 188.664C150.705 188.664 149.542 188.487 148.567 188.132C147.599 187.778 146.809 187.309 146.196 186.725C145.582 186.142 145.125 185.503 144.822 184.809L147.669 183.634C147.869 183.959 148.134 184.303 148.467 184.665C148.807 185.034 149.265 185.348 149.841 185.606C150.424 185.865 151.174 185.994 152.09 185.994C153.346 185.994 154.383 185.688 155.203 185.074C156.023 184.469 156.433 183.501 156.433 182.172V178.826H156.223C156.023 179.188 155.735 179.59 155.358 180.033C154.989 180.476 154.479 180.861 153.829 181.186C153.179 181.511 152.334 181.673 151.292 181.673C149.948 181.673 148.736 181.359 147.658 180.731C146.587 180.096 145.738 179.162 145.11 177.928C144.489 176.687 144.179 175.162 144.179 173.352C144.179 171.543 144.486 169.992 145.099 168.699C145.719 167.406 146.569 166.417 147.647 165.73C148.725 165.035 149.948 164.688 151.314 164.688C152.371 164.688 153.224 164.865 153.874 165.22C154.524 165.567 155.03 165.973 155.392 166.439C155.761 166.904 156.045 167.314 156.245 167.669H156.488V164.91H159.735V182.305C159.735 183.767 159.395 184.967 158.715 185.905C158.036 186.844 157.116 187.538 155.957 187.988C154.804 188.439 153.504 188.664 152.057 188.664ZM152.023 178.925C152.976 178.925 153.781 178.704 154.439 178.261C155.104 177.81 155.606 177.167 155.946 176.333C156.293 175.491 156.466 174.482 156.466 173.308C156.466 172.163 156.296 171.155 155.957 170.283C155.617 169.412 155.118 168.732 154.461 168.245C153.804 167.75 152.991 167.502 152.023 167.502C151.026 167.502 150.195 167.761 149.53 168.278C148.866 168.788 148.363 169.482 148.024 170.361C147.691 171.24 147.525 172.222 147.525 173.308C147.525 174.423 147.695 175.402 148.035 176.244C148.375 177.086 148.877 177.744 149.542 178.216C150.214 178.689 151.041 178.925 152.023 178.925Z" fill="#D5D8DD"/>
<path d="M164.178 181.928V164.91H167.49V181.928H164.178ZM165.851 162.284C165.275 162.284 164.78 162.092 164.366 161.708C163.96 161.316 163.757 160.851 163.757 160.312C163.757 159.765 163.96 159.3 164.366 158.916C164.78 158.524 165.275 158.328 165.851 158.328C166.427 158.328 166.918 158.524 167.324 158.916C167.738 159.3 167.945 159.765 167.945 160.312C167.945 160.851 167.738 161.316 167.324 161.708C166.918 162.092 166.427 162.284 165.851 162.284Z" fill="#D5D8DD"/>
<path d="M179.891 164.91V167.569H170.595V164.91H179.891ZM173.088 160.832H176.401V176.931C176.401 177.574 176.497 178.057 176.689 178.382C176.881 178.7 177.129 178.918 177.432 179.036C177.742 179.147 178.078 179.202 178.44 179.202C178.706 179.202 178.938 179.184 179.138 179.147C179.337 179.11 179.492 179.08 179.603 179.058L180.201 181.795C180.009 181.869 179.736 181.943 179.382 182.017C179.027 182.098 178.584 182.142 178.052 182.149C177.18 182.164 176.368 182.009 175.615 181.684C174.861 181.359 174.252 180.857 173.786 180.177C173.321 179.498 173.088 178.645 173.088 177.618V160.832Z" fill="#D5D8DD"/>
<path d="M188.508 182.305C187.43 182.305 186.455 182.105 185.583 181.706C184.712 181.3 184.021 180.713 183.511 179.945C183.009 179.176 182.758 178.235 182.758 177.119C182.758 176.159 182.943 175.369 183.312 174.748C183.681 174.128 184.18 173.637 184.808 173.275C185.436 172.913 186.137 172.64 186.913 172.455C187.688 172.27 188.479 172.13 189.284 172.034C190.303 171.916 191.13 171.82 191.766 171.746C192.401 171.665 192.863 171.535 193.151 171.358C193.439 171.181 193.583 170.893 193.583 170.494V170.416C193.583 169.449 193.309 168.699 192.763 168.167C192.224 167.635 191.419 167.369 190.348 167.369C189.232 167.369 188.353 167.617 187.711 168.112C187.075 168.599 186.636 169.142 186.392 169.74L183.279 169.031C183.648 167.997 184.187 167.163 184.896 166.527C185.613 165.885 186.436 165.419 187.367 165.131C188.298 164.836 189.277 164.688 190.303 164.688C190.983 164.688 191.703 164.769 192.464 164.932C193.232 165.087 193.948 165.375 194.613 165.796C195.285 166.217 195.836 166.819 196.264 167.602C196.692 168.378 196.907 169.386 196.907 170.627V181.928H193.671V179.601H193.538C193.324 180.03 193.003 180.451 192.575 180.864C192.146 181.278 191.596 181.621 190.924 181.895C190.252 182.168 189.446 182.305 188.508 182.305ZM189.229 179.646C190.144 179.646 190.927 179.465 191.577 179.103C192.235 178.741 192.733 178.268 193.073 177.684C193.42 177.094 193.594 176.462 193.594 175.79V173.596C193.476 173.714 193.247 173.825 192.907 173.928C192.575 174.024 192.194 174.109 191.766 174.183C191.337 174.25 190.92 174.313 190.514 174.372C190.107 174.423 189.768 174.468 189.494 174.505C188.852 174.586 188.265 174.722 187.733 174.915C187.208 175.107 186.787 175.384 186.47 175.746C186.159 176.1 186.004 176.573 186.004 177.164C186.004 177.984 186.307 178.604 186.913 179.025C187.519 179.439 188.29 179.646 189.229 179.646Z" fill="#D5D8DD"/>
<path d="M204.632 159.237V181.928H201.319V159.237H204.632Z" fill="#D5D8DD"/>
<path d="M216.492 162.184V159.237H234.054V162.184H226.974V181.928H223.561V162.184H216.492Z" fill="#D5D8DD"/>
<path d="M242.535 182.271C240.858 182.271 239.414 181.913 238.203 181.197C236.999 180.473 236.068 179.457 235.411 178.15C234.761 176.835 234.436 175.295 234.436 173.53C234.436 171.786 234.761 170.25 235.411 168.92C236.068 167.591 236.984 166.553 238.159 165.807C239.34 165.061 240.722 164.688 242.302 164.688C243.263 164.688 244.193 164.847 245.094 165.165C245.995 165.482 246.804 165.981 247.521 166.66C248.237 167.34 248.802 168.222 249.216 169.308C249.63 170.387 249.836 171.698 249.836 173.242V174.416H236.308V171.934H246.59C246.59 171.063 246.413 170.291 246.058 169.619C245.704 168.939 245.205 168.403 244.563 168.012C243.927 167.621 243.181 167.425 242.324 167.425C241.394 167.425 240.581 167.654 239.887 168.112C239.2 168.562 238.668 169.153 238.292 169.884C237.922 170.608 237.738 171.395 237.738 172.244V174.183C237.738 175.321 237.937 176.288 238.336 177.086C238.742 177.884 239.307 178.493 240.031 178.914C240.755 179.328 241.601 179.535 242.568 179.535C243.196 179.535 243.768 179.446 244.286 179.269C244.803 179.084 245.249 178.811 245.626 178.449C246.003 178.087 246.291 177.64 246.49 177.108L249.626 177.673C249.375 178.597 248.924 179.405 248.274 180.1C247.632 180.787 246.823 181.322 245.848 181.706C244.88 182.083 243.776 182.271 242.535 182.271Z" fill="#D5D8DD"/>
<path d="M260.68 182.271C259.033 182.271 257.615 181.898 256.426 181.152C255.244 180.399 254.336 179.361 253.7 178.039C253.065 176.717 252.748 175.203 252.748 173.496C252.748 171.768 253.073 170.243 253.723 168.92C254.373 167.591 255.288 166.553 256.47 165.807C257.652 165.061 259.044 164.688 260.647 164.688C261.94 164.688 263.092 164.928 264.104 165.408C265.116 165.881 265.932 166.546 266.553 167.403C267.18 168.259 267.553 169.26 267.672 170.405H264.448C264.27 169.607 263.864 168.92 263.229 168.344C262.601 167.768 261.759 167.48 260.703 167.48C259.779 167.48 258.971 167.724 258.276 168.211C257.589 168.692 257.054 169.378 256.67 170.272C256.286 171.159 256.094 172.207 256.094 173.419C256.094 174.66 256.282 175.731 256.659 176.632C257.035 177.533 257.567 178.231 258.254 178.726C258.948 179.221 259.765 179.468 260.703 179.468C261.33 179.468 261.899 179.354 262.409 179.125C262.926 178.888 263.358 178.552 263.705 178.117C264.06 177.681 264.307 177.156 264.448 176.543H267.672C267.553 177.644 267.195 178.626 266.597 179.49C265.999 180.355 265.197 181.034 264.193 181.529C263.196 182.024 262.025 182.271 260.68 182.271Z" fill="#D5D8DD"/>
<path d="M274.527 171.823V181.928H271.214V159.237H274.483V167.68H274.693C275.092 166.764 275.702 166.036 276.521 165.497C277.341 164.958 278.412 164.688 279.735 164.688C280.902 164.688 281.921 164.928 282.792 165.408C283.671 165.888 284.351 166.605 284.831 167.558C285.319 168.503 285.562 169.685 285.562 171.103V181.928H282.25V171.502C282.25 170.254 281.928 169.286 281.286 168.599C280.643 167.905 279.749 167.558 278.604 167.558C277.821 167.558 277.12 167.724 276.499 168.056C275.886 168.389 275.402 168.876 275.048 169.519C274.701 170.154 274.527 170.922 274.527 171.823Z" fill="#D5D8DD"/>
<path d="M293.296 171.823V181.928H289.983V164.91H293.163V167.68H293.373C293.765 166.778 294.378 166.055 295.213 165.508C296.055 164.961 297.115 164.688 298.392 164.688C299.552 164.688 300.568 164.932 301.439 165.419C302.311 165.899 302.987 166.616 303.467 167.569C303.947 168.522 304.187 169.7 304.187 171.103V181.928H300.874V171.502C300.874 170.269 300.553 169.305 299.91 168.61C299.268 167.909 298.385 167.558 297.262 167.558C296.494 167.558 295.811 167.724 295.213 168.056C294.622 168.389 294.153 168.876 293.806 169.519C293.466 170.154 293.296 170.922 293.296 171.823Z" fill="#D5D8DD"/>
<path d="M315.798 182.271C314.203 182.271 312.811 181.906 311.621 181.174C310.432 180.443 309.509 179.42 308.852 178.105C308.194 176.791 307.865 175.254 307.865 173.496C307.865 171.731 308.194 170.187 308.852 168.865C309.509 167.543 310.432 166.516 311.621 165.785C312.811 165.054 314.203 164.688 315.798 164.688C317.394 164.688 318.786 165.054 319.975 165.785C321.165 166.516 322.088 167.543 322.745 168.865C323.403 170.187 323.731 171.731 323.731 173.496C323.731 175.254 323.403 176.791 322.745 178.105C322.088 179.42 321.165 180.443 319.975 181.174C318.786 181.906 317.394 182.271 315.798 182.271ZM315.81 179.49C316.844 179.49 317.7 179.217 318.38 178.67C319.06 178.124 319.562 177.396 319.887 176.488C320.219 175.579 320.385 174.578 320.385 173.485C320.385 172.399 320.219 171.402 319.887 170.494C319.562 169.578 319.06 168.843 318.38 168.289C317.7 167.735 316.844 167.458 315.81 167.458C314.768 167.458 313.904 167.735 313.217 168.289C312.537 168.843 312.031 169.578 311.699 170.494C311.374 171.402 311.212 172.399 311.212 173.485C311.212 174.578 311.374 175.579 311.699 176.488C312.031 177.396 312.537 178.124 313.217 178.67C313.904 179.217 314.768 179.49 315.81 179.49Z" fill="#D5D8DD"/>
<path d="M330.742 159.237V181.928H327.429V159.237H330.742Z" fill="#D5D8DD"/>
<path d="M342.367 182.271C340.772 182.271 339.379 181.906 338.19 181.174C337.001 180.443 336.078 179.42 335.42 178.105C334.763 176.791 334.434 175.254 334.434 173.496C334.434 171.731 334.763 170.187 335.42 168.865C336.078 167.543 337.001 166.516 338.19 165.785C339.379 165.054 340.772 164.688 342.367 164.688C343.963 164.688 345.355 165.054 346.544 165.785C347.733 166.516 348.657 167.543 349.314 168.865C349.971 170.187 350.3 171.731 350.3 173.496C350.3 175.254 349.971 176.791 349.314 178.105C348.657 179.42 347.733 180.443 346.544 181.174C345.355 181.906 343.963 182.271 342.367 182.271ZM342.378 179.49C343.412 179.49 344.269 179.217 344.949 178.67C345.628 178.124 346.131 177.396 346.456 176.488C346.788 175.579 346.954 174.578 346.954 173.485C346.954 172.399 346.788 171.402 346.456 170.494C346.131 169.578 345.628 168.843 344.949 168.289C344.269 167.735 343.412 167.458 342.378 167.458C341.337 167.458 340.473 167.735 339.786 168.289C339.106 168.843 338.6 169.578 338.268 170.494C337.943 171.402 337.78 172.399 337.78 173.485C337.78 174.578 337.943 175.579 338.268 176.488C338.6 177.396 339.106 178.124 339.786 178.67C340.473 179.217 341.337 179.49 342.378 179.49Z" fill="#D5D8DD"/>
<path d="M361.133 188.664C359.781 188.664 358.618 188.487 357.643 188.132C356.676 187.778 355.885 187.309 355.272 186.725C354.659 186.142 354.201 185.503 353.898 184.809L356.746 183.634C356.945 183.959 357.211 184.303 357.543 184.665C357.883 185.034 358.341 185.348 358.917 185.606C359.501 185.865 360.251 185.994 361.166 185.994C362.422 185.994 363.46 185.688 364.28 185.074C365.1 184.469 365.51 183.501 365.51 182.172V178.826H365.299C365.1 179.188 364.812 179.59 364.435 180.033C364.066 180.476 363.556 180.861 362.906 181.186C362.256 181.511 361.41 181.673 360.369 181.673C359.024 181.673 357.813 181.359 356.735 180.731C355.664 180.096 354.814 179.162 354.186 177.928C353.566 176.687 353.256 175.162 353.256 173.352C353.256 171.543 353.562 169.992 354.175 168.699C354.796 167.406 355.645 166.417 356.724 165.73C357.802 165.035 359.024 164.688 360.391 164.688C361.447 164.688 362.3 164.865 362.95 165.22C363.6 165.567 364.106 165.973 364.468 166.439C364.837 166.904 365.122 167.314 365.321 167.669H365.565V164.91H368.811V182.305C368.811 183.767 368.472 184.967 367.792 185.905C367.112 186.844 366.193 187.538 365.033 187.988C363.881 188.439 362.581 188.664 361.133 188.664ZM361.1 178.925C362.053 178.925 362.858 178.704 363.515 178.261C364.18 177.81 364.682 177.167 365.022 176.333C365.369 175.491 365.543 174.482 365.543 173.308C365.543 172.163 365.373 171.155 365.033 170.283C364.693 169.412 364.195 168.732 363.537 168.245C362.88 167.75 362.068 167.502 361.1 167.502C360.103 167.502 359.272 167.761 358.607 168.278C357.942 168.788 357.44 169.482 357.1 170.361C356.768 171.24 356.602 172.222 356.602 173.308C356.602 174.423 356.772 175.402 357.111 176.244C357.451 177.086 357.953 177.744 358.618 178.216C359.29 178.689 360.118 178.925 361.1 178.925Z" fill="#D5D8DD"/>
<path d="M373.254 181.928V164.91H376.567V181.928H373.254ZM374.927 162.284C374.351 162.284 373.856 162.092 373.443 161.708C373.036 161.316 372.833 160.851 372.833 160.312C372.833 159.765 373.036 159.3 373.443 158.916C373.856 158.524 374.351 158.328 374.927 158.328C375.503 158.328 375.995 158.524 376.401 158.916C376.814 159.3 377.021 159.765 377.021 160.312C377.021 160.851 376.814 161.316 376.401 161.708C375.995 162.092 375.503 162.284 374.927 162.284Z" fill="#D5D8DD"/>
<path d="M388.358 182.271C386.682 182.271 385.238 181.913 384.026 181.197C382.822 180.473 381.892 179.457 381.234 178.15C380.584 176.835 380.259 175.295 380.259 173.53C380.259 171.786 380.584 170.25 381.234 168.92C381.892 167.591 382.808 166.553 383.982 165.807C385.164 165.061 386.545 164.688 388.126 164.688C389.086 164.688 390.017 164.847 390.918 165.165C391.819 165.482 392.628 165.981 393.344 166.66C394.061 167.34 394.626 168.222 395.039 169.308C395.453 170.387 395.66 171.698 395.66 173.242V174.416H382.132V171.934H392.414C392.414 171.063 392.236 170.291 391.882 169.619C391.527 168.939 391.029 168.403 390.386 168.012C389.751 167.621 389.005 167.425 388.148 167.425C387.217 167.425 386.405 167.654 385.71 168.112C385.023 168.562 384.492 169.153 384.115 169.884C383.746 170.608 383.561 171.395 383.561 172.244V174.183C383.561 175.321 383.76 176.288 384.159 177.086C384.565 177.884 385.131 178.493 385.854 178.914C386.578 179.328 387.424 179.535 388.392 179.535C389.019 179.535 389.592 179.446 390.109 179.269C390.626 179.084 391.073 178.811 391.45 178.449C391.826 178.087 392.114 177.64 392.314 177.108L395.449 177.673C395.198 178.597 394.748 179.405 394.098 180.1C393.455 180.787 392.646 181.322 391.671 181.706C390.704 182.083 389.599 182.271 388.358 182.271Z" fill="#D5D8DD"/>
<path d="M412.088 169.065L409.085 169.596C408.96 169.212 408.76 168.847 408.487 168.499C408.221 168.152 407.859 167.868 407.401 167.646C406.943 167.425 406.371 167.314 405.684 167.314C404.746 167.314 403.963 167.524 403.335 167.945C402.707 168.359 402.393 168.895 402.393 169.552C402.393 170.121 402.604 170.579 403.025 170.926C403.446 171.273 404.126 171.557 405.064 171.779L407.767 172.399C409.333 172.761 410.5 173.319 411.268 174.072C412.036 174.826 412.42 175.805 412.42 177.009C412.42 178.028 412.125 178.936 411.534 179.734C410.951 180.524 410.134 181.145 409.085 181.596C408.044 182.046 406.836 182.271 405.462 182.271C403.557 182.271 402.002 181.865 400.798 181.053C399.594 180.233 398.855 179.069 398.582 177.563L401.784 177.075C401.983 177.91 402.393 178.541 403.014 178.97C403.634 179.391 404.443 179.601 405.44 179.601C406.526 179.601 407.394 179.376 408.044 178.925C408.694 178.467 409.019 177.91 409.019 177.252C409.019 176.721 408.82 176.274 408.421 175.912C408.029 175.55 407.427 175.276 406.615 175.092L403.734 174.46C402.146 174.098 400.972 173.522 400.211 172.732C399.457 171.942 399.081 170.941 399.081 169.729C399.081 168.725 399.361 167.846 399.923 167.092C400.484 166.339 401.26 165.752 402.249 165.331C403.239 164.902 404.373 164.688 405.651 164.688C407.49 164.688 408.938 165.087 409.994 165.885C411.05 166.675 411.748 167.735 412.088 169.065Z" fill="#D5D8DD"/>
<path d="M432.419 164.91V167.569H422.802V164.91H432.419ZM425.439 181.928V162.938C425.439 161.874 425.672 160.991 426.137 160.29C426.602 159.58 427.219 159.052 427.987 158.705C428.755 158.351 429.59 158.173 430.491 158.173C431.156 158.173 431.725 158.229 432.197 158.34C432.67 158.443 433.021 158.539 433.25 158.628L432.474 161.309C432.319 161.265 432.12 161.213 431.876 161.154C431.632 161.087 431.337 161.054 430.99 161.054C430.185 161.054 429.608 161.253 429.261 161.652C428.922 162.051 428.752 162.627 428.752 163.381V181.928H425.439Z" fill="#D5D8DD"/>
<path d="M442.335 182.271C440.74 182.271 439.347 181.906 438.158 181.174C436.969 180.443 436.046 179.42 435.388 178.105C434.731 176.791 434.402 175.254 434.402 173.496C434.402 171.731 434.731 170.187 435.388 168.865C436.046 167.543 436.969 166.516 438.158 165.785C439.347 165.054 440.74 164.688 442.335 164.688C443.931 164.688 445.323 165.054 446.512 165.785C447.701 166.516 448.625 167.543 449.282 168.865C449.939 170.187 450.268 171.731 450.268 173.496C450.268 175.254 449.939 176.791 449.282 178.105C448.625 179.42 447.701 180.443 446.512 181.174C445.323 181.906 443.931 182.271 442.335 182.271ZM442.346 179.49C443.38 179.49 444.237 179.217 444.917 178.67C445.596 178.124 446.099 177.396 446.424 176.488C446.756 175.579 446.922 174.578 446.922 173.485C446.922 172.399 446.756 171.402 446.424 170.494C446.099 169.578 445.596 168.843 444.917 168.289C444.237 167.735 443.38 167.458 442.346 167.458C441.305 167.458 440.441 167.735 439.754 168.289C439.074 168.843 438.568 169.578 438.236 170.494C437.911 171.402 437.748 172.399 437.748 173.485C437.748 174.578 437.911 175.579 438.236 176.488C438.568 177.396 439.074 178.124 439.754 178.67C440.441 179.217 441.305 179.49 442.346 179.49Z" fill="#D5D8DD"/>
<path d="M453.966 181.928V164.91H457.168V167.613H457.345C457.655 166.697 458.202 165.977 458.985 165.453C459.775 164.921 460.669 164.655 461.666 164.655C461.873 164.655 462.117 164.662 462.397 164.677C462.686 164.692 462.911 164.71 463.073 164.732V167.901C462.94 167.864 462.704 167.824 462.364 167.779C462.024 167.728 461.685 167.702 461.345 167.702C460.562 167.702 459.864 167.868 459.251 168.2C458.645 168.525 458.165 168.98 457.811 169.563C457.456 170.139 457.279 170.797 457.279 171.535V181.928H453.966Z" fill="#D5D8DD"/>
<path d="M474.463 181.928V159.237H482.773C484.383 159.237 485.716 159.503 486.772 160.035C487.829 160.559 488.619 161.272 489.144 162.173C489.668 163.067 489.93 164.075 489.93 165.198C489.93 166.143 489.757 166.941 489.409 167.591C489.062 168.234 488.597 168.751 488.013 169.142C487.437 169.526 486.802 169.807 486.108 169.984V170.206C486.861 170.243 487.596 170.486 488.313 170.937C489.036 171.38 489.635 172.012 490.107 172.832C490.58 173.651 490.817 174.649 490.817 175.823C490.817 176.983 490.543 178.024 489.997 178.947C489.457 179.863 488.623 180.591 487.493 181.13C486.363 181.662 484.919 181.928 483.161 181.928H474.463ZM477.887 178.992H482.828C484.468 178.992 485.642 178.674 486.351 178.039C487.061 177.404 487.415 176.61 487.415 175.657C487.415 174.94 487.234 174.283 486.872 173.685C486.51 173.086 485.993 172.61 485.321 172.255C484.656 171.901 483.866 171.724 482.95 171.724H477.887V178.992ZM477.887 169.053H482.474C483.242 169.053 483.932 168.906 484.546 168.61C485.166 168.315 485.657 167.901 486.019 167.369C486.388 166.83 486.573 166.195 486.573 165.464C486.573 164.526 486.244 163.739 485.587 163.104C484.93 162.469 483.921 162.151 482.562 162.151H477.887V169.053Z" fill="#D5D8DD"/>
<path d="M501.946 182.271C500.269 182.271 498.825 181.913 497.614 181.197C496.41 180.473 495.479 179.457 494.822 178.15C494.172 176.835 493.847 175.295 493.847 173.53C493.847 171.786 494.172 170.25 494.822 168.92C495.479 167.591 496.395 166.553 497.57 165.807C498.751 165.061 500.133 164.688 501.713 164.688C502.673 164.688 503.604 164.847 504.505 165.165C505.406 165.482 506.215 165.981 506.932 166.66C507.648 167.34 508.213 168.222 508.627 169.308C509.041 170.387 509.247 171.698 509.247 173.242V174.416H495.719V171.934H506.001C506.001 171.063 505.824 170.291 505.469 169.619C505.115 168.939 504.616 168.403 503.973 168.012C503.338 167.621 502.592 167.425 501.735 167.425C500.805 167.425 499.992 167.654 499.298 168.112C498.611 168.562 498.079 169.153 497.702 169.884C497.333 170.608 497.148 171.395 497.148 172.244V174.183C497.148 175.321 497.348 176.288 497.747 177.086C498.153 177.884 498.718 178.493 499.442 178.914C500.166 179.328 501.012 179.535 501.979 179.535C502.607 179.535 503.179 179.446 503.697 179.269C504.214 179.084 504.66 178.811 505.037 178.449C505.414 178.087 505.702 177.64 505.901 177.108L509.037 177.673C508.786 178.597 508.335 179.405 507.685 180.1C507.043 180.787 506.234 181.322 505.259 181.706C504.291 182.083 503.187 182.271 501.946 182.271Z" fill="#D5D8DD"/>
<path d="M520.867 164.91V167.569H511.571V164.91H520.867ZM514.064 160.832H517.377V176.931C517.377 177.574 517.473 178.057 517.665 178.382C517.857 178.7 518.105 178.918 518.407 179.036C518.718 179.147 519.054 179.202 519.416 179.202C519.681 179.202 519.914 179.184 520.114 179.147C520.313 179.11 520.468 179.08 520.579 179.058L521.177 181.795C520.985 181.869 520.712 181.943 520.357 182.017C520.003 182.098 519.56 182.142 519.028 182.149C518.156 182.164 517.344 182.009 516.59 181.684C515.837 181.359 515.228 180.857 514.762 180.177C514.297 179.498 514.064 178.645 514.064 177.618V160.832Z" fill="#D5D8DD"/>
<path d="M532.476 164.91V167.569H523.18V164.91H532.476ZM525.673 160.832H528.986V176.931C528.986 177.574 529.082 178.057 529.274 178.382C529.466 178.7 529.713 178.918 530.016 179.036C530.326 179.147 530.662 179.202 531.024 179.202C531.29 179.202 531.523 179.184 531.722 179.147C531.922 179.11 532.077 179.08 532.188 179.058L532.786 181.795C532.594 181.869 532.321 181.943 531.966 182.017C531.611 182.098 531.168 182.142 530.636 182.149C529.765 182.164 528.952 182.009 528.199 181.684C527.445 181.359 526.836 180.857 526.371 180.177C525.905 179.498 525.673 178.645 525.673 177.618V160.832Z" fill="#D5D8DD"/>
<path d="M543.292 182.271C541.615 182.271 540.171 181.913 538.96 181.197C537.756 180.473 536.825 179.457 536.168 178.15C535.518 176.835 535.193 175.295 535.193 173.53C535.193 171.786 535.518 170.25 536.168 168.92C536.825 167.591 537.741 166.553 538.916 165.807C540.097 165.061 541.479 164.688 543.059 164.688C544.02 164.688 544.95 164.847 545.851 165.165C546.753 165.482 547.561 165.981 548.278 166.66C548.994 167.34 549.559 168.222 549.973 169.308C550.387 170.387 550.593 171.698 550.593 173.242V174.416H537.065V171.934H547.347C547.347 171.063 547.17 170.291 546.815 169.619C546.461 168.939 545.962 168.403 545.32 168.012C544.684 167.621 543.938 167.425 543.082 167.425C542.151 167.425 541.338 167.654 540.644 168.112C539.957 168.562 539.425 169.153 539.049 169.884C538.679 170.608 538.495 171.395 538.495 172.244V174.183C538.495 175.321 538.694 176.288 539.093 177.086C539.499 177.884 540.064 178.493 540.788 178.914C541.512 179.328 542.358 179.535 543.325 179.535C543.953 179.535 544.526 179.446 545.043 179.269C545.56 179.084 546.007 178.811 546.383 178.449C546.76 178.087 547.048 177.64 547.247 177.108L550.383 177.673C550.132 178.597 549.681 179.405 549.031 180.1C548.389 180.787 547.58 181.322 546.605 181.706C545.637 182.083 544.533 182.271 543.292 182.271Z" fill="#D5D8DD"/>
<path d="M554.269 181.928V164.91H557.471V167.613H557.648C557.959 166.697 558.505 165.977 559.288 165.453C560.078 164.921 560.972 164.655 561.969 164.655C562.176 164.655 562.42 164.662 562.701 164.677C562.989 164.692 563.214 164.71 563.376 164.732V167.901C563.243 167.864 563.007 167.824 562.667 167.779C562.328 167.728 561.988 167.702 561.648 167.702C560.865 167.702 560.167 167.868 559.554 168.2C558.948 168.525 558.468 168.98 558.114 169.563C557.759 170.139 557.582 170.797 557.582 171.535V181.928H554.269Z" fill="#D5D8DD"/>
<path d="M582.112 181.928H574.766V159.237H582.345C584.568 159.237 586.477 159.691 588.073 160.6C589.668 161.501 590.891 162.797 591.74 164.489C592.597 166.173 593.025 168.193 593.025 170.549C593.025 172.913 592.593 174.944 591.729 176.643C590.872 178.342 589.631 179.649 588.006 180.565C586.381 181.474 584.417 181.928 582.112 181.928ZM578.19 178.936H581.924C583.652 178.936 585.089 178.611 586.234 177.961C587.378 177.304 588.235 176.355 588.804 175.114C589.373 173.866 589.657 172.344 589.657 170.549C589.657 168.769 589.373 167.259 588.804 166.018C588.243 164.777 587.404 163.835 586.289 163.192C585.174 162.55 583.789 162.228 582.134 162.228H578.19V178.936Z" fill="#D5D8DD"/>
<path d="M604.351 182.271C602.675 182.271 601.231 181.913 600.019 181.197C598.815 180.473 597.885 179.457 597.227 178.15C596.577 176.835 596.252 175.295 596.252 173.53C596.252 171.786 596.577 170.25 597.227 168.92C597.885 167.591 598.801 166.553 599.975 165.807C601.157 165.061 602.538 164.688 604.119 164.688C605.079 164.688 606.01 164.847 606.911 165.165C607.812 165.482 608.621 165.981 609.337 166.66C610.054 167.34 610.619 168.222 611.032 169.308C611.446 170.387 611.653 171.698 611.653 173.242V174.416H598.125V171.934H608.406C608.406 171.063 608.229 170.291 607.875 169.619C607.52 168.939 607.022 168.403 606.379 168.012C605.744 167.621 604.998 167.425 604.141 167.425C603.21 167.425 602.398 167.654 601.703 168.112C601.016 168.562 600.485 169.153 600.108 169.884C599.739 170.608 599.554 171.395 599.554 172.244V174.183C599.554 175.321 599.753 176.288 600.152 177.086C600.558 177.884 601.124 178.493 601.847 178.914C602.571 179.328 603.417 179.535 604.385 179.535C605.012 179.535 605.585 179.446 606.102 179.269C606.619 179.084 607.066 178.811 607.443 178.449C607.819 178.087 608.107 177.64 608.307 177.108L611.442 177.673C611.191 178.597 610.741 179.405 610.091 180.1C609.448 180.787 608.639 181.322 607.664 181.706C606.697 182.083 605.592 182.271 604.351 182.271Z" fill="#D5D8DD"/>
<path d="M629.399 164.91L623.228 181.928H619.683L613.5 164.91H617.057L621.367 178.006H621.544L625.843 164.91H629.399Z" fill="#D5D8DD"/>
<path d="M639.269 182.271C637.592 182.271 636.148 181.913 634.936 181.197C633.732 180.473 632.802 179.457 632.144 178.15C631.494 176.835 631.169 175.295 631.169 173.53C631.169 171.786 631.494 170.25 632.144 168.92C632.802 167.591 633.718 166.553 634.892 165.807C636.074 165.061 637.455 164.688 639.036 164.688C639.996 164.688 640.927 164.847 641.828 165.165C642.729 165.482 643.538 165.981 644.254 166.66C644.971 167.34 645.536 168.222 645.95 169.308C646.363 170.387 646.57 171.698 646.57 173.242V174.416H633.042V171.934H643.324C643.324 171.063 643.146 170.291 642.792 169.619C642.437 168.939 641.939 168.403 641.296 168.012C640.661 167.621 639.915 167.425 639.058 167.425C638.127 167.425 637.315 167.654 636.621 168.112C635.934 168.562 635.402 169.153 635.025 169.884C634.656 170.608 634.471 171.395 634.471 172.244V174.183C634.471 175.321 634.671 176.288 635.069 177.086C635.476 177.884 636.041 178.493 636.765 178.914C637.488 179.328 638.334 179.535 639.302 179.535C639.93 179.535 640.502 179.446 641.019 179.269C641.536 179.084 641.983 178.811 642.36 178.449C642.736 178.087 643.025 177.64 643.224 177.108L646.359 177.673C646.108 178.597 645.658 179.405 645.008 180.1C644.365 180.787 643.556 181.322 642.581 181.706C641.614 182.083 640.509 182.271 639.269 182.271Z" fill="#D5D8DD"/>
<path d="M653.558 159.237V181.928H650.246V159.237H653.558Z" fill="#D5D8DD"/>
<path d="M665.184 182.271C663.588 182.271 662.196 181.906 661.007 181.174C659.817 180.443 658.894 179.42 658.237 178.105C657.579 176.791 657.251 175.254 657.251 173.496C657.251 171.731 657.579 170.187 658.237 168.865C658.894 167.543 659.817 166.516 661.007 165.785C662.196 165.054 663.588 164.688 665.184 164.688C666.779 164.688 668.171 165.054 669.361 165.785C670.55 166.516 671.473 167.543 672.13 168.865C672.788 170.187 673.117 171.731 673.117 173.496C673.117 175.254 672.788 176.791 672.13 178.105C671.473 179.42 670.55 180.443 669.361 181.174C668.171 181.906 666.779 182.271 665.184 182.271ZM665.195 179.49C666.229 179.49 667.086 179.217 667.765 178.67C668.445 178.124 668.947 177.396 669.272 176.488C669.604 175.579 669.771 174.578 669.771 173.485C669.771 172.399 669.604 171.402 669.272 170.494C668.947 169.578 668.445 168.843 667.765 168.289C667.086 167.735 666.229 167.458 665.195 167.458C664.153 167.458 663.289 167.735 662.602 168.289C661.922 168.843 661.417 169.578 661.084 170.494C660.759 171.402 660.597 172.399 660.597 173.485C660.597 174.578 660.759 175.579 661.084 176.488C661.417 177.396 661.922 178.124 662.602 178.67C663.289 179.217 664.153 179.49 665.195 179.49Z" fill="#D5D8DD"/>
<path d="M676.814 188.31V164.91H680.05V167.669H680.327C680.519 167.314 680.796 166.904 681.158 166.439C681.519 165.973 682.022 165.567 682.664 165.22C683.307 164.865 684.156 164.688 685.213 164.688C686.586 164.688 687.813 165.035 688.891 165.73C689.969 166.424 690.815 167.425 691.428 168.732C692.049 170.04 692.359 171.613 692.359 173.452C692.359 175.291 692.052 176.868 691.439 178.183C690.826 179.49 689.984 180.499 688.913 181.208C687.842 181.909 686.62 182.26 685.246 182.26C684.212 182.26 683.366 182.087 682.709 181.74C682.059 181.392 681.549 180.986 681.18 180.521C680.81 180.055 680.526 179.642 680.327 179.28H680.127V188.31H676.814ZM680.061 173.419C680.061 174.615 680.234 175.664 680.581 176.565C680.929 177.467 681.431 178.172 682.088 178.682C682.746 179.184 683.551 179.435 684.504 179.435C685.493 179.435 686.321 179.173 686.985 178.648C687.65 178.117 688.152 177.396 688.492 176.488C688.839 175.579 689.013 174.556 689.013 173.419C689.013 172.296 688.843 171.288 688.503 170.394C688.171 169.5 687.669 168.795 686.996 168.278C686.332 167.761 685.501 167.502 684.504 167.502C683.543 167.502 682.731 167.75 682.066 168.245C681.409 168.74 680.91 169.43 680.57 170.317C680.231 171.203 680.061 172.237 680.061 173.419Z" fill="#D5D8DD"/>
<path d="M696.071 181.928V164.91H699.25V167.68H699.461C699.815 166.742 700.395 166.01 701.2 165.486C702.006 164.954 702.969 164.688 704.092 164.688C705.23 164.688 706.183 164.954 706.951 165.486C707.726 166.018 708.299 166.749 708.668 167.68H708.845C709.252 166.771 709.898 166.047 710.784 165.508C711.671 164.961 712.727 164.688 713.953 164.688C715.497 164.688 716.756 165.172 717.731 166.14C718.714 167.107 719.205 168.566 719.205 170.516V181.928H715.892V170.826C715.892 169.674 715.578 168.839 714.95 168.322C714.322 167.805 713.573 167.547 712.701 167.547C711.623 167.547 710.784 167.879 710.186 168.544C709.588 169.201 709.289 170.047 709.289 171.081V181.928H705.987V170.616C705.987 169.692 705.699 168.95 705.123 168.389C704.547 167.827 703.797 167.547 702.873 167.547C702.246 167.547 701.666 167.713 701.134 168.045C700.61 168.37 700.185 168.824 699.86 169.408C699.542 169.992 699.383 170.667 699.383 171.436V181.928H696.071Z" fill="#D5D8DD"/>
<path d="M730.979 182.271C729.303 182.271 727.859 181.913 726.647 181.197C725.443 180.473 724.513 179.457 723.855 178.15C723.205 176.835 722.88 175.295 722.88 173.53C722.88 171.786 723.205 170.25 723.855 168.92C724.513 167.591 725.429 166.553 726.603 165.807C727.785 165.061 729.166 164.688 730.747 164.688C731.707 164.688 732.638 164.847 733.539 165.165C734.44 165.482 735.249 165.981 735.965 166.66C736.682 167.34 737.247 168.222 737.66 169.308C738.074 170.387 738.281 171.698 738.281 173.242V174.416H724.753V171.934H735.035C735.035 171.063 734.857 170.291 734.503 169.619C734.148 168.939 733.65 168.403 733.007 168.012C732.372 167.621 731.626 167.425 730.769 167.425C729.838 167.425 729.026 167.654 728.331 168.112C727.645 168.562 727.113 169.153 726.736 169.884C726.367 170.608 726.182 171.395 726.182 172.244V174.183C726.182 175.321 726.381 176.288 726.78 177.086C727.187 177.884 727.752 178.493 728.476 178.914C729.199 179.328 730.045 179.535 731.013 179.535C731.641 179.535 732.213 179.446 732.73 179.269C733.247 179.084 733.694 178.811 734.071 178.449C734.447 178.087 734.735 177.64 734.935 177.108L738.07 177.673C737.819 178.597 737.369 179.405 736.719 180.1C736.076 180.787 735.267 181.322 734.292 181.706C733.325 182.083 732.22 182.271 730.979 182.271Z" fill="#D5D8DD"/>
<path d="M745.269 171.823V181.928H741.957V164.91H745.136V167.68H745.347C745.738 166.778 746.351 166.055 747.186 165.508C748.028 164.961 749.088 164.688 750.366 164.688C751.526 164.688 752.541 164.932 753.413 165.419C754.284 165.899 754.96 166.616 755.44 167.569C755.92 168.522 756.161 169.7 756.161 171.103V181.928H752.848V171.502C752.848 170.269 752.526 169.305 751.884 168.61C751.241 167.909 750.359 167.558 749.236 167.558C748.468 167.558 747.784 167.724 747.186 168.056C746.595 168.389 746.126 168.876 745.779 169.519C745.439 170.154 745.269 170.922 745.269 171.823Z" fill="#D5D8DD"/>
<path d="M768.547 164.91V167.569H759.252V164.91H768.547ZM761.745 160.832H765.057V176.931C765.057 177.574 765.154 178.057 765.346 178.382C765.538 178.7 765.785 178.918 766.088 179.036C766.398 179.147 766.734 179.202 767.096 179.202C767.362 179.202 767.595 179.184 767.794 179.147C767.993 179.11 768.149 179.08 768.259 179.058L768.858 181.795C768.666 181.869 768.392 181.943 768.038 182.017C767.683 182.098 767.24 182.142 766.708 182.149C765.837 182.164 765.024 182.009 764.271 181.684C763.517 181.359 762.908 180.857 762.443 180.177C761.977 179.498 761.745 178.645 761.745 177.618V160.832Z" fill="#D5D8DD"/>
</svg>
