<svg width="769" height="140" viewBox="0 0 769 140" fill="none" xmlns="http://www.w3.org/2000/svg">
<path d="M560.723 69.9193V115.956H537.705V69.9193C537.705 65.6738 536.196 62.0676 533.178 59.1008C530.211 56.0828 526.605 54.5739 522.359 54.5739C518.114 54.5739 514.482 56.0828 511.464 59.1008C508.497 62.0676 507.014 65.6738 507.014 69.9193V115.956H483.996V69.9193C483.996 65.6738 482.487 62.0676 479.469 59.1008C476.502 56.0828 472.896 54.5739 468.65 54.5739C464.405 54.5739 460.773 56.0828 457.755 59.1008C454.788 62.0676 453.305 65.6738 453.305 69.9193V115.956H430.287V69.9193C430.287 59.331 434.021 50.3027 441.489 42.8346C449.008 35.3153 458.062 31.5557 468.65 31.5557C479.136 31.5557 488.088 35.213 495.505 42.5277C502.922 35.213 511.873 31.5557 522.359 31.5557C532.948 31.5557 541.976 35.3153 549.444 42.8346C556.964 50.3027 560.723 59.331 560.723 69.9193Z" fill="#D5D8DD"/>
<path d="M591.741 115.947H568.723V31.5473H591.741V115.947ZM580.232 23.8746C577.061 23.8746 574.35 22.7492 572.099 20.4986C569.849 18.2479 568.723 15.5369 568.723 12.3655C568.723 9.19414 569.849 6.48312 572.099 4.23245C574.35 1.98178 577.061 0.856445 580.232 0.856445C583.404 0.856445 586.115 1.98178 588.365 4.23245C590.616 6.48312 591.741 9.19414 591.741 12.3655C591.741 15.5369 590.616 18.2479 588.365 20.4986C586.115 22.7492 583.404 23.8746 580.232 23.8746Z" fill="#D5D8DD"/>
<path d="M676.469 69.9193V115.956H653.451V69.9193C653.451 65.6738 651.942 62.0676 648.924 59.1008C645.957 56.0828 642.351 54.5739 638.105 54.5739C633.86 54.5739 630.228 56.0828 627.21 59.1008C624.243 62.0676 622.76 65.6738 622.76 69.9193V115.956H599.741V69.9193C599.741 59.331 603.476 50.3027 610.944 42.8346C618.463 35.3153 627.517 31.5557 638.105 31.5557C648.693 31.5557 657.722 35.3153 665.19 42.8346C672.709 50.3027 676.469 59.331 676.469 69.9193Z" fill="#D5D8DD"/>
<path d="M768.869 73.7473C768.869 85.4098 764.751 95.3588 756.515 103.594C748.28 111.829 738.331 115.947 726.669 115.947C715.006 115.947 705.057 111.829 696.822 103.594C688.586 95.3588 684.469 85.4098 684.469 73.7473C684.469 62.0847 688.586 52.1358 696.822 43.9004C705.057 35.665 715.006 31.5473 726.669 31.5473H745.85V54.5655H726.669C721.349 54.5655 716.822 56.4325 713.088 60.1666C709.354 63.9006 707.487 68.4275 707.487 73.7473C707.487 79.067 709.354 83.5939 713.088 87.328C716.822 91.0621 721.349 92.9291 726.669 92.9291C731.988 92.9291 736.515 91.0621 740.249 87.328C743.983 83.5939 745.85 79.067 745.85 73.7473V0.856445H768.869V73.7473Z" fill="#D5D8DD"/>
<path d="M182.921 73.7557C182.921 62.0931 187.039 52.1441 195.274 43.9088C203.51 35.6734 213.459 31.5557 225.122 31.5557C236.784 31.5557 246.733 35.6734 254.968 43.9088C263.204 52.1441 267.322 62.0931 267.322 73.7557C267.322 85.4182 263.204 95.3672 254.968 103.602C246.733 111.837 236.784 115.955 225.122 115.955H205.94V92.9375H225.122C230.441 92.9375 234.968 91.0704 238.702 87.3364C242.436 83.6023 244.303 79.0754 244.303 73.7557C244.303 68.4359 242.436 63.909 238.702 60.1749C234.968 56.4409 230.441 54.5738 225.122 54.5738C219.802 54.5738 215.275 56.4409 211.541 60.1749C207.807 63.909 205.94 68.4359 205.94 73.7557V138.973H182.921V73.7557Z" fill="#D5D8DD"/>
<path d="M317.522 92.9375C322.841 92.9375 327.368 91.0704 331.102 87.3364C334.836 83.6023 336.703 79.0754 336.703 73.7557C336.703 68.4359 334.836 63.909 331.102 60.1749C327.368 56.4409 322.841 54.5738 317.522 54.5738C312.202 54.5738 307.675 56.4409 303.941 60.1749C300.207 63.909 298.34 68.4359 298.34 73.7557C298.34 79.0754 300.207 83.6023 303.941 87.3364C307.675 91.0704 312.202 92.9375 317.522 92.9375ZM317.522 115.955C305.859 115.955 295.91 111.837 287.675 103.602C279.439 95.3672 275.322 85.4182 275.322 73.7557C275.322 62.0931 279.439 52.1441 287.675 43.9088C295.91 35.6734 305.859 31.5557 317.522 31.5557C329.184 31.5557 339.133 35.6734 347.368 43.9088C355.604 52.1441 359.722 62.0931 359.722 73.7557C359.722 85.4182 355.604 95.3672 347.368 103.602C339.133 111.837 329.184 115.955 317.522 115.955Z" fill="#D5D8DD"/>
<path d="M390.741 31.5739H410.383V54.592H390.741V77.6102C390.741 81.8558 392.224 85.4875 395.191 88.5055C398.209 91.4723 401.84 92.9557 406.086 92.9557H421.735L421.738 115.974H406.086C395.498 115.974 386.444 112.24 378.925 104.772C371.456 97.2524 367.722 88.1986 367.722 77.6102V8.55566H390.741V31.5739Z" fill="#D5D8DD"/>
<path d="M132.721 31.5557H167.247L167.249 54.5739H132.721C131.647 54.5739 130.726 54.9575 129.959 55.7248C129.243 56.4409 128.885 57.3361 128.885 58.4102C128.885 59.4844 129.243 60.4052 129.959 61.1724C130.726 61.8885 131.647 62.2466 132.721 62.2466H148.067C155.484 62.2466 161.801 64.8809 167.018 70.1495C172.287 75.367 174.921 81.6842 174.921 89.1011C174.921 96.5181 172.287 102.861 167.018 108.13C161.801 113.347 155.484 115.956 148.067 115.956H109.867V92.9375H148.067C149.141 92.9375 150.036 92.5794 150.752 91.8633C151.519 91.096 151.903 90.1753 151.903 89.1011C151.903 88.027 151.519 87.1318 150.752 86.4157C150.036 85.6484 149.141 85.2648 148.067 85.2648H132.721C125.304 85.2648 118.961 82.6561 113.693 77.4386C108.475 72.17 105.867 65.8272 105.867 58.4102C105.867 50.9933 108.475 44.6761 113.693 39.4586C118.961 34.19 125.304 31.5557 132.721 31.5557Z" fill="#D5D8DD"/>
<path fill-rule="evenodd" clip-rule="evenodd" d="M78.1472 38.159L84.8672 52.439L91.5871 38.159L105.867 31.439L91.5871 24.719L84.8672 10.439L78.1472 24.719L63.8674 31.439L78.1472 38.159ZM7.26074 63.5848C3.0394 53.3934 0.866699 42.4704 0.866699 31.4394L42.8662 31.4394C42.8662 36.9549 43.9525 42.4164 46.0632 47.5121C48.1739 52.6077 51.2675 57.2378 55.1675 61.1379C59.0675 65.0379 63.6975 68.1316 68.7931 70.2423C73.8887 72.353 79.3502 73.4394 84.8656 73.4394L84.8656 115.439C73.8347 115.439 62.9119 113.267 52.7206 109.045C42.5294 104.824 33.2694 98.6365 25.4694 90.8364C17.6694 83.0362 11.4821 73.7761 7.26074 63.5848Z" fill="#D5D8DD"/>
</svg>
