<svg width="769" height="190" viewBox="0 0 769 190" fill="none" xmlns="http://www.w3.org/2000/svg">
<path d="M560.758 69.6693V115.706H537.74V69.6693C537.74 65.4238 536.231 61.8176 533.213 58.8508C530.246 55.8328 526.64 54.3239 522.394 54.3239C518.149 54.3239 514.517 55.8328 511.499 58.8508C508.532 61.8176 507.049 65.4238 507.049 69.6693V115.706H484.031V69.6693C484.031 65.4238 482.522 61.8176 479.504 58.8508C476.537 55.8328 472.931 54.3239 468.685 54.3239C464.44 54.3239 460.808 55.8328 457.79 58.8508C454.823 61.8176 453.34 65.4238 453.34 69.6693V115.706H430.322V69.6693C430.322 59.081 434.056 50.0527 441.524 42.5846C449.043 35.0653 458.097 31.3057 468.685 31.3057C479.171 31.3057 488.123 34.963 495.54 42.2777C502.957 34.963 511.908 31.3057 522.394 31.3057C532.983 31.3057 542.011 35.0653 549.479 42.5846C556.999 50.0527 560.758 59.081 560.758 69.6693Z" fill="white"/>
<path d="M591.776 115.697H568.758V31.2973H591.776V115.697ZM580.267 23.6246C577.096 23.6246 574.385 22.4992 572.134 20.2486C569.884 17.9979 568.758 15.2869 568.758 12.1155C568.758 8.94414 569.884 6.23312 572.134 3.98245C574.385 1.73178 577.096 0.606445 580.267 0.606445C583.439 0.606445 586.15 1.73178 588.4 3.98245C590.651 6.23312 591.776 8.94414 591.776 12.1155C591.776 15.2869 590.651 17.9979 588.4 20.2486C586.15 22.4992 583.439 23.6246 580.267 23.6246Z" fill="white"/>
<path d="M676.504 69.6693V115.706H653.486V69.6693C653.486 65.4238 651.977 61.8176 648.959 58.8508C645.992 55.8328 642.386 54.3239 638.14 54.3239C633.895 54.3239 630.263 55.8328 627.245 58.8508C624.278 61.8176 622.795 65.4238 622.795 69.6693V115.706H599.776V69.6693C599.776 59.081 603.511 50.0527 610.979 42.5846C618.498 35.0653 627.552 31.3057 638.14 31.3057C648.728 31.3057 657.757 35.0653 665.225 42.5846C672.744 50.0527 676.504 59.081 676.504 69.6693Z" fill="white"/>
<path d="M768.904 73.4973C768.904 85.1598 764.786 95.1088 756.55 103.344C748.315 111.579 738.366 115.697 726.704 115.697C715.041 115.697 705.092 111.579 696.857 103.344C688.621 95.1088 684.504 85.1598 684.504 73.4973C684.504 61.8347 688.621 51.8858 696.857 43.6504C705.092 35.415 715.041 31.2973 726.704 31.2973H745.885V54.3155H726.704C721.384 54.3155 716.857 56.1825 713.123 59.9166C709.389 63.6506 707.522 68.1775 707.522 73.4973C707.522 78.817 709.389 83.3439 713.123 87.078C716.857 90.8121 721.384 92.6791 726.704 92.6791C732.023 92.6791 736.55 90.8121 740.284 87.078C744.018 83.3439 745.885 78.817 745.885 73.4973V0.606445H768.904V73.4973Z" fill="white"/>
<path d="M182.957 73.5057C182.957 61.8431 187.074 51.8941 195.31 43.6588C203.545 35.4234 213.494 31.3057 225.157 31.3057C236.819 31.3057 246.768 35.4234 255.003 43.6588C263.239 51.8941 267.357 61.8431 267.357 73.5057C267.357 85.1682 263.239 95.1172 255.003 103.352C246.768 111.587 236.819 115.705 225.157 115.705H205.975V92.6875H225.157C230.476 92.6875 235.003 90.8204 238.737 87.0864C242.471 83.3523 244.338 78.8254 244.338 73.5057C244.338 68.1859 242.471 63.659 238.737 59.9249C235.003 56.1909 230.476 54.3238 225.157 54.3238C219.837 54.3238 215.31 56.1909 211.576 59.9249C207.842 63.659 205.975 68.1859 205.975 73.5057V138.723H182.957V73.5057Z" fill="white"/>
<path d="M317.557 92.6875C322.876 92.6875 327.403 90.8204 331.137 87.0864C334.871 83.3523 336.738 78.8254 336.738 73.5057C336.738 68.1859 334.871 63.659 331.137 59.9249C327.403 56.1909 322.876 54.3238 317.557 54.3238C312.237 54.3238 307.71 56.1909 303.976 59.9249C300.242 63.659 298.375 68.1859 298.375 73.5057C298.375 78.8254 300.242 83.3523 303.976 87.0864C307.71 90.8204 312.237 92.6875 317.557 92.6875ZM317.557 115.705C305.894 115.705 295.945 111.587 287.71 103.352C279.474 95.1172 275.357 85.1682 275.357 73.5057C275.357 61.8431 279.474 51.8941 287.71 43.6588C295.945 35.4234 305.894 31.3057 317.557 31.3057C329.219 31.3057 339.168 35.4234 347.403 43.6588C355.639 51.8941 359.757 61.8431 359.757 73.5057C359.757 85.1682 355.639 95.1172 347.403 103.352C339.168 111.587 329.219 115.705 317.557 115.705Z" fill="white"/>
<path d="M390.776 31.3239H410.418V54.342H390.776V77.3602C390.776 81.6058 392.259 85.2375 395.226 88.2555C398.244 91.2223 401.875 92.7057 406.121 92.7057H421.77L421.773 115.724H406.121C395.533 115.724 386.479 111.99 378.96 104.522C371.491 97.0024 367.757 87.9486 367.757 77.3602V8.30566H390.776V31.3239Z" fill="white"/>
<path d="M132.756 31.3057H167.282L167.284 54.3239H132.756C131.682 54.3239 130.761 54.7075 129.994 55.4748C129.278 56.1909 128.92 57.0861 128.92 58.1602C128.92 59.2344 129.278 60.1552 129.994 60.9224C130.761 61.6385 131.682 61.9966 132.756 61.9966H148.102C155.519 61.9966 161.836 64.6309 167.053 69.8995C172.322 75.117 174.956 81.4342 174.956 88.8511C174.956 96.2681 172.322 102.611 167.053 107.88C161.836 113.097 155.519 115.706 148.102 115.706H109.902V92.6875H148.102C149.176 92.6875 150.071 92.3294 150.787 91.6133C151.555 90.846 151.938 89.9253 151.938 88.8511C151.938 87.777 151.555 86.8818 150.787 86.1657C150.071 85.3984 149.176 85.0148 148.102 85.0148H132.756C125.339 85.0148 118.997 82.4061 113.728 77.1886C108.511 71.92 105.902 65.5772 105.902 58.1602C105.902 50.7433 108.511 44.4261 113.728 39.2086C118.997 33.94 125.339 31.3057 132.756 31.3057Z" fill="white"/>
<path fill-rule="evenodd" clip-rule="evenodd" d="M78.1824 37.8191L84.9023 52.0992L91.6222 37.8191L105.902 31.0991L91.6222 24.3791L84.9023 10.0991L78.1824 24.3791L63.9026 31.0991L78.1824 37.8191ZM7.2959 63.2449C3.07455 53.0536 0.901855 42.1306 0.901855 31.0995L42.9013 31.0995C42.9013 36.615 43.9877 42.0765 46.0983 47.1722C48.209 52.2679 51.3027 56.8979 55.2027 60.798C59.1027 64.6981 63.7327 67.7918 68.8283 69.9025C73.9239 72.0132 79.3853 73.0995 84.9008 73.0995L84.9008 115.1C73.8699 115.1 62.947 112.927 52.7558 108.705C42.5646 104.484 33.3046 98.2966 25.5046 90.4965C17.7046 82.6964 11.5172 73.4363 7.2959 63.2449Z" fill="white"/>
<path d="M122.248 182.361H114.902V159.67H122.48C124.704 159.67 126.613 160.124 128.208 161.033C129.804 161.934 131.026 163.23 131.876 164.922C132.733 166.606 133.161 168.626 133.161 170.982C133.161 173.346 132.729 175.377 131.865 177.076C131.008 178.775 129.767 180.082 128.142 180.998C126.517 181.907 124.552 182.361 122.248 182.361ZM118.325 179.37H122.059C123.788 179.37 125.224 179.045 126.369 178.395C127.514 177.737 128.371 176.788 128.94 175.547C129.508 174.299 129.793 172.777 129.793 170.982C129.793 169.202 129.508 167.692 128.94 166.451C128.378 165.21 127.54 164.268 126.425 163.625C125.309 162.983 123.924 162.662 122.27 162.662H118.325V179.37Z" fill="white"/>
<path d="M137.152 182.361V165.343H140.465V182.361H137.152ZM138.825 162.717C138.249 162.717 137.754 162.525 137.341 162.141C136.934 161.749 136.731 161.284 136.731 160.745C136.731 160.198 136.934 159.733 137.341 159.349C137.754 158.957 138.249 158.762 138.825 158.762C139.402 158.762 139.893 158.957 140.299 159.349C140.713 159.733 140.919 160.198 140.919 160.745C140.919 161.284 140.713 161.749 140.299 162.141C139.893 162.525 139.402 162.717 138.825 162.717Z" fill="white"/>
<path d="M152.057 189.097C150.705 189.097 149.542 188.92 148.567 188.566C147.599 188.211 146.809 187.742 146.196 187.158C145.583 186.575 145.125 185.936 144.822 185.242L147.67 184.067C147.869 184.392 148.135 184.736 148.467 185.098C148.807 185.467 149.265 185.781 149.841 186.039C150.425 186.298 151.174 186.427 152.09 186.427C153.346 186.427 154.384 186.121 155.204 185.508C156.024 184.902 156.434 183.934 156.434 182.605V179.259H156.223C156.024 179.621 155.736 180.023 155.359 180.466C154.989 180.91 154.48 181.294 153.83 181.619C153.18 181.944 152.334 182.106 151.293 182.106C149.948 182.106 148.737 181.792 147.659 181.164C146.588 180.529 145.738 179.595 145.11 178.361C144.49 177.12 144.18 175.595 144.18 173.785C144.18 171.976 144.486 170.425 145.099 169.132C145.72 167.839 146.569 166.85 147.647 166.163C148.726 165.468 149.948 165.121 151.315 165.121C152.371 165.121 153.224 165.298 153.874 165.653C154.524 166 155.03 166.406 155.392 166.872C155.761 167.337 156.046 167.747 156.245 168.102H156.489V165.343H159.735V182.738C159.735 184.2 159.395 185.4 158.716 186.339C158.036 187.277 157.117 187.971 155.957 188.422C154.805 188.872 153.505 189.097 152.057 189.097ZM152.024 179.358C152.977 179.358 153.782 179.137 154.439 178.694C155.104 178.243 155.606 177.6 155.946 176.766C156.293 175.924 156.467 174.916 156.467 173.741C156.467 172.596 156.297 171.588 155.957 170.716C155.617 169.845 155.119 169.165 154.461 168.678C153.804 168.183 152.991 167.935 152.024 167.935C151.027 167.935 150.196 168.194 149.531 168.711C148.866 169.221 148.364 169.915 148.024 170.794C147.692 171.673 147.526 172.655 147.526 173.741C147.526 174.856 147.695 175.835 148.035 176.677C148.375 177.519 148.877 178.177 149.542 178.649C150.214 179.122 151.041 179.358 152.024 179.358Z" fill="white"/>
<path d="M164.178 182.361V165.343H167.491V182.361H164.178ZM165.851 162.717C165.275 162.717 164.78 162.525 164.366 162.141C163.96 161.749 163.757 161.284 163.757 160.745C163.757 160.198 163.96 159.733 164.366 159.349C164.78 158.957 165.275 158.762 165.851 158.762C166.427 158.762 166.918 158.957 167.325 159.349C167.738 159.733 167.945 160.198 167.945 160.745C167.945 161.284 167.738 161.749 167.325 162.141C166.918 162.525 166.427 162.717 165.851 162.717Z" fill="white"/>
<path d="M179.892 165.343V168.002H170.596V165.343H179.892ZM173.089 161.266H176.402V177.364C176.402 178.007 176.498 178.491 176.69 178.816C176.882 179.133 177.129 179.351 177.432 179.469C177.742 179.58 178.078 179.635 178.44 179.635C178.706 179.635 178.939 179.617 179.138 179.58C179.338 179.543 179.493 179.514 179.604 179.491L180.202 182.228C180.01 182.302 179.737 182.376 179.382 182.45C179.027 182.531 178.584 182.575 178.052 182.583C177.181 182.597 176.368 182.442 175.615 182.117C174.862 181.792 174.252 181.29 173.787 180.61C173.322 179.931 173.089 179.078 173.089 178.051V161.266Z" fill="white"/>
<path d="M188.509 182.738C187.43 182.738 186.455 182.538 185.584 182.139C184.712 181.733 184.022 181.146 183.512 180.378C183.01 179.61 182.759 178.668 182.759 177.552C182.759 176.592 182.943 175.802 183.313 175.181C183.682 174.561 184.18 174.07 184.808 173.708C185.436 173.346 186.138 173.073 186.913 172.888C187.689 172.703 188.479 172.563 189.284 172.467C190.304 172.349 191.131 172.253 191.766 172.179C192.401 172.098 192.863 171.968 193.151 171.791C193.439 171.614 193.583 171.326 193.583 170.927V170.849C193.583 169.882 193.31 169.132 192.763 168.6C192.224 168.068 191.419 167.802 190.348 167.802C189.233 167.802 188.354 168.05 187.711 168.545C187.076 169.032 186.636 169.575 186.393 170.173L183.279 169.464C183.649 168.43 184.188 167.596 184.897 166.96C185.613 166.318 186.437 165.852 187.368 165.564C188.298 165.269 189.277 165.121 190.304 165.121C190.983 165.121 191.703 165.202 192.464 165.365C193.232 165.52 193.949 165.808 194.614 166.229C195.286 166.65 195.836 167.252 196.264 168.035C196.693 168.811 196.907 169.819 196.907 171.06V182.361H193.672V180.034H193.539C193.325 180.463 193.003 180.884 192.575 181.297C192.147 181.711 191.596 182.054 190.924 182.328C190.252 182.601 189.447 182.738 188.509 182.738ZM189.229 180.079C190.145 180.079 190.928 179.898 191.578 179.536C192.235 179.174 192.734 178.701 193.074 178.118C193.421 177.527 193.594 176.895 193.594 176.223V174.029C193.476 174.147 193.247 174.258 192.907 174.362C192.575 174.458 192.195 174.543 191.766 174.616C191.338 174.683 190.92 174.746 190.514 174.805C190.108 174.856 189.768 174.901 189.495 174.938C188.852 175.019 188.265 175.156 187.733 175.348C187.209 175.54 186.788 175.817 186.47 176.179C186.16 176.533 186.005 177.006 186.005 177.597C186.005 178.417 186.308 179.037 186.913 179.458C187.519 179.872 188.291 180.079 189.229 180.079Z" fill="white"/>
<path d="M204.632 159.67V182.361H201.32V159.67H204.632Z" fill="white"/>
<path d="M216.493 162.617V159.67H234.054V162.617H226.974V182.361H223.562V162.617H216.493Z" fill="white"/>
<path d="M242.535 182.704C240.859 182.704 239.415 182.346 238.203 181.63C236.999 180.906 236.069 179.89 235.411 178.583C234.761 177.268 234.436 175.728 234.436 173.963C234.436 172.22 234.761 170.683 235.411 169.354C236.069 168.024 236.985 166.986 238.159 166.24C239.341 165.494 240.722 165.121 242.303 165.121C243.263 165.121 244.194 165.28 245.095 165.598C245.996 165.915 246.805 166.414 247.521 167.093C248.238 167.773 248.803 168.656 249.216 169.741C249.63 170.82 249.837 172.131 249.837 173.675V174.849H236.309V172.367H246.591C246.591 171.496 246.413 170.724 246.059 170.052C245.704 169.372 245.206 168.837 244.563 168.445C243.928 168.054 243.182 167.858 242.325 167.858C241.394 167.858 240.582 168.087 239.887 168.545C239.201 168.995 238.669 169.586 238.292 170.318C237.923 171.041 237.738 171.828 237.738 172.677V174.616C237.738 175.754 237.937 176.722 238.336 177.519C238.743 178.317 239.308 178.926 240.031 179.347C240.755 179.761 241.601 179.968 242.569 179.968C243.197 179.968 243.769 179.879 244.286 179.702C244.803 179.517 245.25 179.244 245.627 178.882C246.003 178.52 246.291 178.073 246.491 177.541L249.626 178.106C249.375 179.03 248.925 179.839 248.275 180.533C247.632 181.22 246.823 181.755 245.848 182.139C244.881 182.516 243.776 182.704 242.535 182.704Z" fill="white"/>
<path d="M260.681 182.704C259.034 182.704 257.616 182.331 256.426 181.585C255.245 180.832 254.336 179.794 253.701 178.472C253.066 177.15 252.748 175.636 252.748 173.929C252.748 172.201 253.073 170.676 253.723 169.354C254.373 168.024 255.289 166.986 256.471 166.24C257.653 165.494 259.045 165.121 260.648 165.121C261.94 165.121 263.093 165.361 264.105 165.841C265.116 166.314 265.933 166.979 266.553 167.836C267.181 168.693 267.554 169.693 267.672 170.838H264.448C264.271 170.041 263.865 169.354 263.229 168.777C262.601 168.201 261.759 167.913 260.703 167.913C259.78 167.913 258.971 168.157 258.277 168.645C257.59 169.125 257.054 169.812 256.67 170.705C256.286 171.592 256.094 172.641 256.094 173.852C256.094 175.093 256.282 176.164 256.659 177.065C257.036 177.966 257.568 178.664 258.255 179.159C258.949 179.654 259.765 179.901 260.703 179.901C261.331 179.901 261.9 179.787 262.409 179.558C262.926 179.322 263.359 178.985 263.706 178.55C264.06 178.114 264.308 177.589 264.448 176.976H267.672C267.554 178.077 267.196 179.059 266.597 179.923C265.999 180.788 265.198 181.467 264.193 181.962C263.196 182.457 262.025 182.704 260.681 182.704Z" fill="white"/>
<path d="M274.528 172.256V182.361H271.215V159.67H274.483V168.113H274.694C275.093 167.197 275.702 166.469 276.522 165.93C277.342 165.391 278.413 165.121 279.735 165.121C280.902 165.121 281.921 165.361 282.793 165.841C283.672 166.322 284.352 167.038 284.832 167.991C285.319 168.936 285.563 170.118 285.563 171.536V182.361H282.25V171.935C282.25 170.687 281.929 169.719 281.286 169.032C280.644 168.338 279.75 167.991 278.605 167.991C277.822 167.991 277.12 168.157 276.5 168.489C275.887 168.822 275.403 169.309 275.048 169.952C274.701 170.587 274.528 171.355 274.528 172.256Z" fill="white"/>
<path d="M293.296 172.256V182.361H289.984V165.343H293.163V168.113H293.374C293.765 167.212 294.378 166.488 295.213 165.941C296.055 165.395 297.115 165.121 298.393 165.121C299.553 165.121 300.568 165.365 301.44 165.852C302.311 166.333 302.987 167.049 303.467 168.002C303.948 168.955 304.188 170.133 304.188 171.536V182.361H300.875V171.935C300.875 170.702 300.553 169.738 299.911 169.043C299.268 168.342 298.386 167.991 297.263 167.991C296.495 167.991 295.811 168.157 295.213 168.489C294.622 168.822 294.153 169.309 293.806 169.952C293.466 170.587 293.296 171.355 293.296 172.256Z" fill="white"/>
<path d="M315.799 182.704C314.203 182.704 312.811 182.339 311.622 181.608C310.433 180.876 309.509 179.853 308.852 178.539C308.195 177.224 307.866 175.687 307.866 173.929C307.866 172.164 308.195 170.62 308.852 169.298C309.509 167.976 310.433 166.949 311.622 166.218C312.811 165.487 314.203 165.121 315.799 165.121C317.394 165.121 318.787 165.487 319.976 166.218C321.165 166.949 322.088 167.976 322.746 169.298C323.403 170.62 323.732 172.164 323.732 173.929C323.732 175.687 323.403 177.224 322.746 178.539C322.088 179.853 321.165 180.876 319.976 181.608C318.787 182.339 317.394 182.704 315.799 182.704ZM315.81 179.923C316.844 179.923 317.701 179.65 318.38 179.104C319.06 178.557 319.562 177.829 319.887 176.921C320.22 176.012 320.386 175.012 320.386 173.918C320.386 172.833 320.22 171.835 319.887 170.927C319.562 170.011 319.06 169.276 318.38 168.722C317.701 168.168 316.844 167.891 315.81 167.891C314.769 167.891 313.904 168.168 313.217 168.722C312.538 169.276 312.032 170.011 311.7 170.927C311.375 171.835 311.212 172.833 311.212 173.918C311.212 175.012 311.375 176.012 311.7 176.921C312.032 177.829 312.538 178.557 313.217 179.104C313.904 179.65 314.769 179.923 315.81 179.923Z" fill="white"/>
<path d="M330.742 159.67V182.361H327.43V159.67H330.742Z" fill="white"/>
<path d="M342.368 182.704C340.772 182.704 339.38 182.339 338.191 181.608C337.001 180.876 336.078 179.853 335.421 178.539C334.763 177.224 334.435 175.687 334.435 173.929C334.435 172.164 334.763 170.62 335.421 169.298C336.078 167.976 337.001 166.949 338.191 166.218C339.38 165.487 340.772 165.121 342.368 165.121C343.963 165.121 345.355 165.487 346.545 166.218C347.734 166.949 348.657 167.976 349.315 169.298C349.972 170.62 350.301 172.164 350.301 173.929C350.301 175.687 349.972 177.224 349.315 178.539C348.657 179.853 347.734 180.876 346.545 181.608C345.355 182.339 343.963 182.704 342.368 182.704ZM342.379 179.923C343.413 179.923 344.27 179.65 344.949 179.104C345.629 178.557 346.131 177.829 346.456 176.921C346.788 176.012 346.955 175.012 346.955 173.918C346.955 172.833 346.788 171.835 346.456 170.927C346.131 170.011 345.629 169.276 344.949 168.722C344.27 168.168 343.413 167.891 342.379 167.891C341.337 167.891 340.473 168.168 339.786 168.722C339.107 169.276 338.601 170.011 338.268 170.927C337.943 171.835 337.781 172.833 337.781 173.918C337.781 175.012 337.943 176.012 338.268 176.921C338.601 177.829 339.107 178.557 339.786 179.104C340.473 179.65 341.337 179.923 342.379 179.923Z" fill="white"/>
<path d="M361.134 189.097C359.782 189.097 358.619 188.92 357.644 188.566C356.676 188.211 355.886 187.742 355.273 187.158C354.66 186.575 354.202 185.936 353.899 185.242L356.746 184.067C356.946 184.392 357.212 184.736 357.544 185.098C357.884 185.467 358.342 185.781 358.918 186.039C359.501 186.298 360.251 186.427 361.167 186.427C362.423 186.427 363.46 186.121 364.28 185.508C365.1 184.902 365.51 183.934 365.51 182.605V179.259H365.3C365.1 179.621 364.812 180.023 364.435 180.466C364.066 180.91 363.556 181.294 362.906 181.619C362.256 181.944 361.411 182.106 360.369 182.106C359.025 182.106 357.814 181.792 356.735 181.164C355.664 180.529 354.815 179.595 354.187 178.361C353.566 177.12 353.256 175.595 353.256 173.785C353.256 171.976 353.563 170.425 354.176 169.132C354.796 167.839 355.646 166.85 356.724 166.163C357.802 165.468 359.025 165.121 360.391 165.121C361.448 165.121 362.301 165.298 362.951 165.653C363.601 166 364.107 166.406 364.469 166.872C364.838 167.337 365.122 167.747 365.322 168.102H365.565V165.343H368.812V182.738C368.812 184.2 368.472 185.4 367.792 186.339C367.113 187.277 366.193 187.971 365.034 188.422C363.881 188.872 362.581 189.097 361.134 189.097ZM361.1 179.358C362.053 179.358 362.858 179.137 363.516 178.694C364.181 178.243 364.683 177.6 365.023 176.766C365.37 175.924 365.543 174.916 365.543 173.741C365.543 172.596 365.373 171.588 365.034 170.716C364.694 169.845 364.195 169.165 363.538 168.678C362.881 168.183 362.068 167.935 361.1 167.935C360.103 167.935 359.272 168.194 358.608 168.711C357.943 169.221 357.44 169.915 357.101 170.794C356.768 171.673 356.602 172.655 356.602 173.741C356.602 174.856 356.772 175.835 357.112 176.677C357.452 177.519 357.954 178.177 358.619 178.649C359.291 179.122 360.118 179.358 361.1 179.358Z" fill="white"/>
<path d="M373.255 182.361V165.343H376.567V182.361H373.255ZM374.928 162.717C374.352 162.717 373.857 162.525 373.443 162.141C373.037 161.749 372.834 161.284 372.834 160.745C372.834 160.198 373.037 159.733 373.443 159.349C373.857 158.957 374.352 158.762 374.928 158.762C375.504 158.762 375.995 158.957 376.401 159.349C376.815 159.733 377.022 160.198 377.022 160.745C377.022 161.284 376.815 161.749 376.401 162.141C375.995 162.525 375.504 162.717 374.928 162.717Z" fill="white"/>
<path d="M388.359 182.704C386.682 182.704 385.238 182.346 384.027 181.63C382.823 180.906 381.892 179.89 381.235 178.583C380.585 177.268 380.26 175.728 380.26 173.963C380.26 172.22 380.585 170.683 381.235 169.354C381.892 168.024 382.808 166.986 383.982 166.24C385.164 165.494 386.546 165.121 388.126 165.121C389.086 165.121 390.017 165.28 390.918 165.598C391.819 165.915 392.628 166.414 393.345 167.093C394.061 167.773 394.626 168.656 395.04 169.741C395.453 170.82 395.66 172.131 395.66 173.675V174.849H382.132V172.367H392.414C392.414 171.496 392.237 170.724 391.882 170.052C391.528 169.372 391.029 168.837 390.386 168.445C389.751 168.054 389.005 167.858 388.148 167.858C387.218 167.858 386.405 168.087 385.711 168.545C385.024 168.995 384.492 169.586 384.115 170.318C383.746 171.041 383.561 171.828 383.561 172.677V174.616C383.561 175.754 383.761 176.722 384.16 177.519C384.566 178.317 385.131 178.926 385.855 179.347C386.579 179.761 387.424 179.968 388.392 179.968C389.02 179.968 389.592 179.879 390.109 179.702C390.627 179.517 391.073 179.244 391.45 178.882C391.827 178.52 392.115 178.073 392.314 177.541L395.45 178.106C395.199 179.03 394.748 179.839 394.098 180.533C393.455 181.22 392.647 181.755 391.672 182.139C390.704 182.516 389.6 182.704 388.359 182.704Z" fill="white"/>
<path d="M412.089 169.498L409.086 170.029C408.96 169.645 408.761 169.28 408.488 168.933C408.222 168.585 407.86 168.301 407.402 168.079C406.944 167.858 406.371 167.747 405.685 167.747C404.746 167.747 403.964 167.958 403.336 168.379C402.708 168.792 402.394 169.328 402.394 169.985C402.394 170.554 402.604 171.012 403.025 171.359C403.446 171.706 404.126 171.991 405.064 172.212L407.768 172.833C409.333 173.195 410.5 173.752 411.269 174.506C412.037 175.259 412.421 176.238 412.421 177.442C412.421 178.461 412.125 179.37 411.535 180.167C410.951 180.958 410.135 181.578 409.086 182.029C408.044 182.479 406.837 182.704 405.463 182.704C403.557 182.704 402.002 182.298 400.798 181.486C399.594 180.666 398.856 179.502 398.583 177.996L401.785 177.508C401.984 178.343 402.394 178.974 403.014 179.403C403.635 179.824 404.444 180.034 405.441 180.034C406.527 180.034 407.395 179.809 408.044 179.358C408.694 178.9 409.02 178.343 409.02 177.685C409.02 177.154 408.82 176.707 408.421 176.345C408.03 175.983 407.428 175.71 406.615 175.525L403.735 174.893C402.146 174.531 400.972 173.955 400.211 173.165C399.458 172.375 399.081 171.374 399.081 170.162C399.081 169.158 399.362 168.279 399.923 167.525C400.485 166.772 401.26 166.185 402.25 165.764C403.24 165.335 404.373 165.121 405.651 165.121C407.491 165.121 408.938 165.52 409.994 166.318C411.051 167.108 411.749 168.168 412.089 169.498Z" fill="white"/>
<path d="M432.419 165.343V168.002H422.802V165.343H432.419ZM425.439 182.361V163.371C425.439 162.307 425.672 161.424 426.137 160.723C426.603 160.014 427.219 159.485 427.988 159.138C428.756 158.784 429.591 158.606 430.492 158.606C431.156 158.606 431.725 158.662 432.198 158.773C432.671 158.876 433.021 158.972 433.25 159.061L432.475 161.742C432.32 161.698 432.12 161.646 431.877 161.587C431.633 161.52 431.337 161.487 430.99 161.487C430.185 161.487 429.609 161.687 429.262 162.085C428.922 162.484 428.752 163.06 428.752 163.814V182.361H425.439Z" fill="white"/>
<path d="M442.336 182.704C440.74 182.704 439.348 182.339 438.159 181.608C436.969 180.876 436.046 179.853 435.389 178.539C434.731 177.224 434.403 175.687 434.403 173.929C434.403 172.164 434.731 170.62 435.389 169.298C436.046 167.976 436.969 166.949 438.159 166.218C439.348 165.487 440.74 165.121 442.336 165.121C443.931 165.121 445.323 165.487 446.513 166.218C447.702 166.949 448.625 167.976 449.283 169.298C449.94 170.62 450.269 172.164 450.269 173.929C450.269 175.687 449.94 177.224 449.283 178.539C448.625 179.853 447.702 180.876 446.513 181.608C445.323 182.339 443.931 182.704 442.336 182.704ZM442.347 179.923C443.381 179.923 444.238 179.65 444.917 179.104C445.597 178.557 446.099 177.829 446.424 176.921C446.756 176.012 446.923 175.012 446.923 173.918C446.923 172.833 446.756 171.835 446.424 170.927C446.099 170.011 445.597 169.276 444.917 168.722C444.238 168.168 443.381 167.891 442.347 167.891C441.305 167.891 440.441 168.168 439.754 168.722C439.075 169.276 438.569 170.011 438.236 170.927C437.911 171.835 437.749 172.833 437.749 173.918C437.749 175.012 437.911 176.012 438.236 176.921C438.569 177.829 439.075 178.557 439.754 179.104C440.441 179.65 441.305 179.923 442.347 179.923Z" fill="white"/>
<path d="M453.966 182.361V165.343H457.168V168.046H457.346C457.656 167.13 458.203 166.41 458.985 165.886C459.776 165.354 460.67 165.088 461.667 165.088C461.874 165.088 462.117 165.095 462.398 165.11C462.686 165.125 462.911 165.143 463.074 165.166V168.334C462.941 168.297 462.704 168.257 462.365 168.212C462.025 168.161 461.685 168.135 461.345 168.135C460.562 168.135 459.864 168.301 459.251 168.633C458.646 168.958 458.166 169.413 457.811 169.996C457.456 170.572 457.279 171.23 457.279 171.968V182.361H453.966Z" fill="white"/>
<path d="M474.464 182.361V159.67H482.773C484.383 159.67 485.717 159.936 486.773 160.468C487.829 160.992 488.62 161.705 489.144 162.606C489.668 163.5 489.931 164.508 489.931 165.631C489.931 166.576 489.757 167.374 489.41 168.024C489.063 168.667 488.597 169.184 488.014 169.575C487.438 169.959 486.803 170.24 486.108 170.417V170.639C486.862 170.676 487.597 170.92 488.313 171.37C489.037 171.813 489.635 172.445 490.108 173.265C490.581 174.085 490.817 175.082 490.817 176.256C490.817 177.416 490.544 178.457 489.997 179.381C489.458 180.297 488.623 181.024 487.493 181.563C486.363 182.095 484.919 182.361 483.161 182.361H474.464ZM477.887 179.425H482.829C484.468 179.425 485.643 179.107 486.352 178.472C487.061 177.837 487.416 177.043 487.416 176.09C487.416 175.373 487.235 174.716 486.873 174.118C486.511 173.52 485.994 173.043 485.322 172.689C484.657 172.334 483.866 172.157 482.951 172.157H477.887V179.425ZM477.887 169.487H482.474C483.242 169.487 483.933 169.339 484.546 169.043C485.166 168.748 485.658 168.334 486.02 167.802C486.389 167.263 486.574 166.628 486.574 165.897C486.574 164.959 486.245 164.172 485.587 163.537C484.93 162.902 483.922 162.584 482.563 162.584H477.887V169.487Z" fill="white"/>
<path d="M501.946 182.704C500.27 182.704 498.826 182.346 497.614 181.63C496.41 180.906 495.48 179.89 494.822 178.583C494.172 177.268 493.847 175.728 493.847 173.963C493.847 172.22 494.172 170.683 494.822 169.354C495.48 168.024 496.396 166.986 497.57 166.24C498.752 165.494 500.133 165.121 501.714 165.121C502.674 165.121 503.605 165.28 504.506 165.598C505.407 165.915 506.216 166.414 506.932 167.093C507.649 167.773 508.214 168.656 508.627 169.741C509.041 170.82 509.248 172.131 509.248 173.675V174.849H495.72V172.367H506.002C506.002 171.496 505.824 170.724 505.47 170.052C505.115 169.372 504.617 168.837 503.974 168.445C503.339 168.054 502.593 167.858 501.736 167.858C500.805 167.858 499.993 168.087 499.298 168.545C498.611 168.995 498.08 169.586 497.703 170.318C497.334 171.041 497.149 171.828 497.149 172.677V174.616C497.149 175.754 497.348 176.722 497.747 177.519C498.154 178.317 498.719 178.926 499.442 179.347C500.166 179.761 501.012 179.968 501.98 179.968C502.607 179.968 503.18 179.879 503.697 179.702C504.214 179.517 504.661 179.244 505.038 178.882C505.414 178.52 505.702 178.073 505.902 177.541L509.037 178.106C508.786 179.03 508.336 179.839 507.686 180.533C507.043 181.22 506.234 181.755 505.259 182.139C504.292 182.516 503.187 182.704 501.946 182.704Z" fill="white"/>
<path d="M520.867 165.343V168.002H511.572V165.343H520.867ZM514.065 161.266H517.377V177.364C517.377 178.007 517.473 178.491 517.665 178.816C517.858 179.133 518.105 179.351 518.408 179.469C518.718 179.58 519.054 179.635 519.416 179.635C519.682 179.635 519.915 179.617 520.114 179.58C520.314 179.543 520.469 179.514 520.579 179.491L521.178 182.228C520.986 182.302 520.712 182.376 520.358 182.45C520.003 182.531 519.56 182.575 519.028 182.583C518.157 182.597 517.344 182.442 516.591 182.117C515.837 181.792 515.228 181.29 514.763 180.61C514.297 179.931 514.065 179.078 514.065 178.051V161.266Z" fill="white"/>
<path d="M532.476 165.343V168.002H523.18V165.343H532.476ZM525.673 161.266H528.986V177.364C528.986 178.007 529.082 178.491 529.274 178.816C529.466 179.133 529.714 179.351 530.016 179.469C530.327 179.58 530.663 179.635 531.025 179.635C531.291 179.635 531.523 179.617 531.723 179.58C531.922 179.543 532.077 179.514 532.188 179.491L532.786 182.228C532.594 182.302 532.321 182.376 531.966 182.45C531.612 182.531 531.169 182.575 530.637 182.583C529.765 182.597 528.953 182.442 528.199 182.117C527.446 181.792 526.837 181.29 526.371 180.61C525.906 179.931 525.673 179.078 525.673 178.051V161.266Z" fill="white"/>
<path d="M543.293 182.704C541.616 182.704 540.172 182.346 538.96 181.63C537.756 180.906 536.826 179.89 536.168 178.583C535.518 177.268 535.193 175.728 535.193 173.963C535.193 172.22 535.518 170.683 536.168 169.354C536.826 168.024 537.742 166.986 538.916 166.24C540.098 165.494 541.479 165.121 543.06 165.121C544.02 165.121 544.951 165.28 545.852 165.598C546.753 165.915 547.562 166.414 548.278 167.093C548.995 167.773 549.56 168.656 549.973 169.741C550.387 170.82 550.594 172.131 550.594 173.675V174.849H537.066V172.367H547.348C547.348 171.496 547.17 170.724 546.816 170.052C546.461 169.372 545.963 168.837 545.32 168.445C544.685 168.054 543.939 167.858 543.082 167.858C542.151 167.858 541.339 168.087 540.645 168.545C539.958 168.995 539.426 169.586 539.049 170.318C538.68 171.041 538.495 171.828 538.495 172.677V174.616C538.495 175.754 538.694 176.722 539.093 177.519C539.5 178.317 540.065 178.926 540.789 179.347C541.512 179.761 542.358 179.968 543.326 179.968C543.954 179.968 544.526 179.879 545.043 179.702C545.56 179.517 546.007 179.244 546.384 178.882C546.76 178.52 547.048 178.073 547.248 177.541L550.383 178.106C550.132 179.03 549.682 179.839 549.032 180.533C548.389 181.22 547.58 181.755 546.605 182.139C545.638 182.516 544.533 182.704 543.293 182.704Z" fill="white"/>
<path d="M554.27 182.361V165.343H557.472V168.046H557.649C557.959 167.13 558.506 166.41 559.289 165.886C560.079 165.354 560.973 165.088 561.97 165.088C562.177 165.088 562.42 165.095 562.701 165.11C562.989 165.125 563.214 165.143 563.377 165.166V168.334C563.244 168.297 563.008 168.257 562.668 168.212C562.328 168.161 561.988 168.135 561.649 168.135C560.866 168.135 560.168 168.301 559.555 168.633C558.949 168.958 558.469 169.413 558.114 169.996C557.76 170.572 557.582 171.23 557.582 171.968V182.361H554.27Z" fill="white"/>
<path d="M582.112 182.361H574.767V159.67H582.345C584.568 159.67 586.478 160.124 588.073 161.033C589.669 161.934 590.891 163.23 591.741 164.922C592.597 166.606 593.026 168.626 593.026 170.982C593.026 173.346 592.594 175.377 591.73 177.076C590.873 178.775 589.632 180.082 588.007 180.998C586.382 181.907 584.417 182.361 582.112 182.361ZM578.19 179.37H581.924C583.653 179.37 585.089 179.045 586.234 178.395C587.379 177.737 588.236 176.788 588.805 175.547C589.373 174.299 589.658 172.777 589.658 170.982C589.658 169.202 589.373 167.692 588.805 166.451C588.243 165.21 587.405 164.268 586.289 163.625C585.174 162.983 583.789 162.662 582.135 162.662H578.19V179.37Z" fill="white"/>
<path d="M604.352 182.704C602.675 182.704 601.231 182.346 600.02 181.63C598.816 180.906 597.885 179.89 597.228 178.583C596.578 177.268 596.253 175.728 596.253 173.963C596.253 172.22 596.578 170.683 597.228 169.354C597.885 168.024 598.801 166.986 599.975 166.24C601.157 165.494 602.539 165.121 604.119 165.121C605.079 165.121 606.01 165.28 606.911 165.598C607.812 165.915 608.621 166.414 609.338 167.093C610.054 167.773 610.619 168.656 611.033 169.741C611.446 170.82 611.653 172.131 611.653 173.675V174.849H598.125V172.367H608.407C608.407 171.496 608.23 170.724 607.875 170.052C607.521 169.372 607.022 168.837 606.379 168.445C605.744 168.054 604.998 167.858 604.141 167.858C603.211 167.858 602.398 168.087 601.704 168.545C601.017 168.995 600.485 169.586 600.108 170.318C599.739 171.041 599.554 171.828 599.554 172.677V174.616C599.554 175.754 599.754 176.722 600.153 177.519C600.559 178.317 601.124 178.926 601.848 179.347C602.572 179.761 603.417 179.968 604.385 179.968C605.013 179.968 605.585 179.879 606.102 179.702C606.62 179.517 607.066 179.244 607.443 178.882C607.82 178.52 608.108 178.073 608.307 177.541L611.443 178.106C611.192 179.03 610.741 179.839 610.091 180.533C609.448 181.22 608.64 181.755 607.665 182.139C606.697 182.516 605.593 182.704 604.352 182.704Z" fill="white"/>
<path d="M629.4 165.343L623.229 182.361H619.683L613.501 165.343H617.057L621.367 178.439H621.545L625.843 165.343H629.4Z" fill="white"/>
<path d="M639.269 182.704C637.592 182.704 636.148 182.346 634.937 181.63C633.733 180.906 632.802 179.89 632.145 178.583C631.495 177.268 631.17 175.728 631.17 173.963C631.17 172.22 631.495 170.683 632.145 169.354C632.802 168.024 633.718 166.986 634.893 166.24C636.074 165.494 637.456 165.121 639.036 165.121C639.997 165.121 640.927 165.28 641.828 165.598C642.73 165.915 643.538 166.414 644.255 167.093C644.971 167.773 645.536 168.656 645.95 169.741C646.364 170.82 646.57 172.131 646.57 173.675V174.849H633.042V172.367H643.324C643.324 171.496 643.147 170.724 642.792 170.052C642.438 169.372 641.939 168.837 641.297 168.445C640.661 168.054 639.915 167.858 639.059 167.858C638.128 167.858 637.315 168.087 636.621 168.545C635.934 168.995 635.402 169.586 635.026 170.318C634.656 171.041 634.472 171.828 634.472 172.677V174.616C634.472 175.754 634.671 176.722 635.07 177.519C635.476 178.317 636.041 178.926 636.765 179.347C637.489 179.761 638.335 179.968 639.302 179.968C639.93 179.968 640.503 179.879 641.02 179.702C641.537 179.517 641.984 179.244 642.36 178.882C642.737 178.52 643.025 178.073 643.224 177.541L646.36 178.106C646.109 179.03 645.658 179.839 645.008 180.533C644.366 181.22 643.557 181.755 642.582 182.139C641.614 182.516 640.51 182.704 639.269 182.704Z" fill="white"/>
<path d="M653.559 159.67V182.361H650.246V159.67H653.559Z" fill="white"/>
<path d="M665.184 182.704C663.589 182.704 662.196 182.339 661.007 181.608C659.818 180.876 658.895 179.853 658.237 178.539C657.58 177.224 657.251 175.687 657.251 173.929C657.251 172.164 657.58 170.62 658.237 169.298C658.895 167.976 659.818 166.949 661.007 166.218C662.196 165.487 663.589 165.121 665.184 165.121C666.78 165.121 668.172 165.487 669.361 166.218C670.55 166.949 671.474 167.976 672.131 169.298C672.788 170.62 673.117 172.164 673.117 173.929C673.117 175.687 672.788 177.224 672.131 178.539C671.474 179.853 670.55 180.876 669.361 181.608C668.172 182.339 666.78 182.704 665.184 182.704ZM665.195 179.923C666.229 179.923 667.086 179.65 667.766 179.104C668.445 178.557 668.947 177.829 669.272 176.921C669.605 176.012 669.771 175.012 669.771 173.918C669.771 172.833 669.605 171.835 669.272 170.927C668.947 170.011 668.445 169.276 667.766 168.722C667.086 168.168 666.229 167.891 665.195 167.891C664.154 167.891 663.289 168.168 662.603 168.722C661.923 169.276 661.417 170.011 661.085 170.927C660.76 171.835 660.597 172.833 660.597 173.918C660.597 175.012 660.76 176.012 661.085 176.921C661.417 177.829 661.923 178.557 662.603 179.104C663.289 179.65 664.154 179.923 665.195 179.923Z" fill="white"/>
<path d="M676.815 188.743V165.343H680.05V168.102H680.327C680.519 167.747 680.796 167.337 681.158 166.872C681.52 166.406 682.022 166 682.665 165.653C683.307 165.298 684.157 165.121 685.213 165.121C686.587 165.121 687.813 165.468 688.892 166.163C689.97 166.857 690.816 167.858 691.429 169.165C692.049 170.473 692.359 172.046 692.359 173.885C692.359 175.724 692.053 177.301 691.44 178.616C690.827 179.923 689.985 180.932 688.914 181.641C687.843 182.343 686.62 182.693 685.246 182.693C684.212 182.693 683.367 182.52 682.709 182.173C682.059 181.825 681.549 181.419 681.18 180.954C680.811 180.489 680.526 180.075 680.327 179.713H680.128V188.743H676.815ZM680.061 173.852C680.061 175.048 680.235 176.097 680.582 176.998C680.929 177.9 681.431 178.605 682.089 179.115C682.746 179.617 683.551 179.868 684.504 179.868C685.494 179.868 686.321 179.606 686.986 179.081C687.651 178.55 688.153 177.829 688.493 176.921C688.84 176.012 689.013 174.989 689.013 173.852C689.013 172.729 688.844 171.721 688.504 170.827C688.171 169.933 687.669 169.228 686.997 168.711C686.332 168.194 685.501 167.935 684.504 167.935C683.544 167.935 682.731 168.183 682.067 168.678C681.409 169.173 680.911 169.863 680.571 170.75C680.231 171.636 680.061 172.67 680.061 173.852Z" fill="white"/>
<path d="M696.071 182.361V165.343H699.251V168.113H699.461C699.816 167.175 700.396 166.443 701.201 165.919C702.006 165.387 702.97 165.121 704.093 165.121C705.23 165.121 706.183 165.387 706.951 165.919C707.727 166.451 708.299 167.182 708.669 168.113H708.846C709.252 167.204 709.898 166.48 710.785 165.941C711.671 165.395 712.727 165.121 713.953 165.121C715.497 165.121 716.757 165.605 717.732 166.573C718.714 167.54 719.205 168.999 719.205 170.949V182.361H715.892V171.259C715.892 170.107 715.578 169.272 714.951 168.755C714.323 168.238 713.573 167.98 712.701 167.98C711.623 167.98 710.785 168.312 710.186 168.977C709.588 169.634 709.289 170.48 709.289 171.514V182.361H705.987V171.049C705.987 170.125 705.699 169.383 705.123 168.822C704.547 168.26 703.797 167.98 702.874 167.98C702.246 167.98 701.666 168.146 701.134 168.478C700.61 168.803 700.185 169.258 699.86 169.841C699.543 170.425 699.384 171.1 699.384 171.869V182.361H696.071Z" fill="white"/>
<path d="M730.98 182.704C729.303 182.704 727.859 182.346 726.648 181.63C725.444 180.906 724.513 179.89 723.856 178.583C723.206 177.268 722.881 175.728 722.881 173.963C722.881 172.22 723.206 170.683 723.856 169.354C724.513 168.024 725.429 166.986 726.604 166.24C727.785 165.494 729.167 165.121 730.747 165.121C731.708 165.121 732.638 165.28 733.539 165.598C734.44 165.915 735.249 166.414 735.966 167.093C736.682 167.773 737.247 168.656 737.661 169.741C738.075 170.82 738.281 172.131 738.281 173.675V174.849H724.753V172.367H735.035C735.035 171.496 734.858 170.724 734.503 170.052C734.149 169.372 733.65 168.837 733.008 168.445C732.372 168.054 731.626 167.858 730.769 167.858C729.839 167.858 729.026 168.087 728.332 168.545C727.645 168.995 727.113 169.586 726.737 170.318C726.367 171.041 726.183 171.828 726.183 172.677V174.616C726.183 175.754 726.382 176.722 726.781 177.519C727.187 178.317 727.752 178.926 728.476 179.347C729.2 179.761 730.046 179.968 731.013 179.968C731.641 179.968 732.214 179.879 732.731 179.702C733.248 179.517 733.694 179.244 734.071 178.882C734.448 178.52 734.736 178.073 734.935 177.541L738.071 178.106C737.82 179.03 737.369 179.839 736.719 180.533C736.077 181.22 735.268 181.755 734.293 182.139C733.325 182.516 732.221 182.704 730.98 182.704Z" fill="white"/>
<path d="M745.27 172.256V182.361H741.957V165.343H745.137V168.113H745.347C745.739 167.212 746.352 166.488 747.187 165.941C748.029 165.395 749.089 165.121 750.366 165.121C751.526 165.121 752.542 165.365 753.413 165.852C754.285 166.333 754.961 167.049 755.441 168.002C755.921 168.955 756.161 170.133 756.161 171.536V182.361H752.848V171.935C752.848 170.702 752.527 169.738 751.884 169.043C751.242 168.342 750.359 167.991 749.236 167.991C748.468 167.991 747.785 168.157 747.187 168.489C746.596 168.822 746.127 169.309 745.779 169.952C745.44 170.587 745.27 171.355 745.27 172.256Z" fill="white"/>
<path d="M768.548 165.343V168.002H759.252V165.343H768.548ZM761.745 161.266H765.058V177.364C765.058 178.007 765.154 178.491 765.346 178.816C765.538 179.133 765.785 179.351 766.088 179.469C766.399 179.58 766.735 179.635 767.097 179.635C767.362 179.635 767.595 179.617 767.795 179.58C767.994 179.543 768.149 179.514 768.26 179.491L768.858 182.228C768.666 182.302 768.393 182.376 768.038 182.45C767.684 182.531 767.241 182.575 766.709 182.583C765.837 182.597 765.025 182.442 764.271 182.117C763.518 181.792 762.909 181.29 762.443 180.61C761.978 179.931 761.745 179.078 761.745 178.051V161.266Z" fill="white"/>
</svg>
