<svg width="769" height="139" viewBox="0 0 769 139" fill="none" xmlns="http://www.w3.org/2000/svg">
<path d="M560.723 69.3807V115.417H537.705V69.3807C537.705 65.1352 536.196 61.529 533.178 58.5622C530.212 55.5442 526.605 54.0353 522.36 54.0353C518.114 54.0353 514.483 55.5442 511.465 58.5622C508.498 61.529 507.014 65.1352 507.014 69.3807V115.417H483.996V69.3807C483.996 65.1352 482.487 61.529 479.469 58.5622C476.503 55.5442 472.896 54.0353 468.651 54.0353C464.405 54.0353 460.773 55.5442 457.756 58.5622C454.789 61.529 453.305 65.1352 453.305 69.3807V115.417H430.287V69.3807C430.287 58.7924 434.021 49.7641 441.489 42.296C449.009 34.7767 458.062 31.0171 468.651 31.0171C479.137 31.0171 488.088 34.6744 495.505 41.9891C502.922 34.6744 511.874 31.0171 522.36 31.0171C532.948 31.0171 541.976 34.7767 549.444 42.296C556.964 49.7641 560.723 58.7924 560.723 69.3807Z" fill="white"/>
<path d="M591.741 115.409H568.723V31.0088H591.741V115.409ZM580.232 23.3361C577.061 23.3361 574.35 22.2107 572.099 19.9601C569.849 17.7094 568.723 14.9984 568.723 11.827C568.723 8.65556 569.849 5.94454 572.099 3.69387C574.35 1.4432 577.061 0.317871 580.232 0.317871C583.404 0.317871 586.115 1.4432 588.365 3.69387C590.616 5.94454 591.741 8.65556 591.741 11.827C591.741 14.9984 590.616 17.7094 588.365 19.9601C586.115 22.2107 583.404 23.3361 580.232 23.3361Z" fill="white"/>
<path d="M676.469 69.3807V115.417H653.451V69.3807C653.451 65.1352 651.942 61.529 648.924 58.5622C645.957 55.5442 642.351 54.0353 638.105 54.0353C633.86 54.0353 630.228 55.5442 627.21 58.5622C624.243 61.529 622.76 65.1352 622.76 69.3807V115.417H599.741V69.3807C599.741 58.7924 603.476 49.7641 610.944 42.296C618.463 34.7767 627.517 31.0171 638.105 31.0171C648.693 31.0171 657.722 34.7767 665.19 42.296C672.709 49.7641 676.469 58.7924 676.469 69.3807Z" fill="white"/>
<path d="M768.869 73.2088C768.869 84.8713 764.751 94.8203 756.515 103.056C748.28 111.291 738.331 115.409 726.669 115.409C715.006 115.409 705.057 111.291 696.822 103.056C688.586 94.8203 684.469 84.8713 684.469 73.2088C684.469 61.5462 688.586 51.5973 696.822 43.3619C705.057 35.1265 715.006 31.0088 726.669 31.0088H745.85V54.027H726.669C721.349 54.027 716.822 55.894 713.088 59.6281C709.354 63.3621 707.487 67.889 707.487 73.2088C707.487 78.5285 709.354 83.0554 713.088 86.7895C716.822 90.5236 721.349 92.3906 726.669 92.3906C731.988 92.3906 736.515 90.5236 740.249 86.7895C743.983 83.0554 745.85 78.5285 745.85 73.2088V0.317871H768.869V73.2088Z" fill="white"/>
<path d="M182.922 73.2171C182.922 61.5545 187.04 51.6055 195.275 43.3702C203.51 35.1348 213.459 31.0171 225.122 31.0171C236.784 31.0171 246.733 35.1348 254.968 43.3702C263.204 51.6055 267.322 61.5545 267.322 73.2171C267.322 84.8796 263.204 94.8286 254.968 103.064C246.733 111.299 236.784 115.417 225.122 115.417H205.94V92.3989H225.122C230.441 92.3989 234.968 90.5318 238.702 86.7978C242.436 83.0637 244.303 78.5368 244.303 73.2171C244.303 67.8973 242.436 63.3704 238.702 59.6363C234.968 55.9023 230.441 54.0352 225.122 54.0352C219.802 54.0352 215.275 55.9023 211.541 59.6363C207.807 63.3704 205.94 67.8973 205.94 73.2171V138.435H182.922V73.2171Z" fill="white"/>
<path d="M317.522 92.3989C322.841 92.3989 327.368 90.5318 331.102 86.7978C334.836 83.0637 336.703 78.5368 336.703 73.2171C336.703 67.8973 334.836 63.3704 331.102 59.6363C327.368 55.9023 322.841 54.0352 317.522 54.0352C312.202 54.0352 307.675 55.9023 303.941 59.6363C300.207 63.3704 298.34 67.8973 298.34 73.2171C298.34 78.5368 300.207 83.0637 303.941 86.7978C307.675 90.5318 312.202 92.3989 317.522 92.3989ZM317.522 115.417C305.859 115.417 295.91 111.299 287.675 103.064C279.439 94.8286 275.322 84.8796 275.322 73.2171C275.322 61.5545 279.439 51.6055 287.675 43.3702C295.91 35.1348 305.859 31.0171 317.522 31.0171C329.184 31.0171 339.133 35.1348 347.368 43.3702C355.604 51.6055 359.722 61.5545 359.722 73.2171C359.722 84.8796 355.604 94.8286 347.368 103.064C339.133 111.299 329.184 115.417 317.522 115.417Z" fill="white"/>
<path d="M390.741 31.0353H410.383V54.0534H390.741V77.0716C390.741 81.3172 392.224 84.9489 395.191 87.9669C398.209 90.9337 401.84 92.4171 406.086 92.4171H421.735L421.738 115.435H406.086C395.498 115.435 386.444 111.701 378.925 104.233C371.456 96.7138 367.722 87.66 367.722 77.0716V8.01709H390.741V31.0353Z" fill="white"/>
<path d="M132.722 31.0171H167.247L167.249 54.0353H132.722C131.648 54.0353 130.727 54.4189 129.96 55.1862C129.243 55.9023 128.885 56.7975 128.885 57.8716C128.885 58.9458 129.243 59.8666 129.96 60.6338C130.727 61.3499 131.648 61.708 132.722 61.708H148.067C155.484 61.708 161.801 64.3423 167.019 69.6109C172.287 74.8284 174.922 81.1456 174.922 88.5625C174.922 95.9795 172.287 102.322 167.019 107.591C161.801 112.808 155.484 115.417 148.067 115.417H109.867V92.3989H148.067C149.141 92.3989 150.036 92.0408 150.753 91.3247C151.52 90.5574 151.903 89.6367 151.903 88.5625C151.903 87.4884 151.52 86.5932 150.753 85.8771C150.036 85.1098 149.141 84.7262 148.067 84.7262H132.722C125.305 84.7262 118.962 82.1175 113.693 76.9C108.476 71.6314 105.867 65.2886 105.867 57.8716C105.867 50.4547 108.476 44.1375 113.693 38.92C118.962 33.6514 125.305 31.0171 132.722 31.0171Z" fill="white"/>
<path fill-rule="evenodd" clip-rule="evenodd" d="M78.1477 37.8382L84.8677 52.1182L91.5876 37.8382L105.867 31.1182L91.5876 24.3982L84.8677 10.1182L78.1477 24.3982L63.8679 31.1182L78.1477 37.8382ZM7.26123 63.264C3.03989 53.0726 0.867188 42.1496 0.867188 31.1186L42.8667 31.1185C42.8667 36.6341 43.953 42.0956 46.0637 47.1913C48.1743 52.2869 51.268 56.917 55.168 60.8171C59.068 64.7171 63.698 67.8108 68.7936 69.9215C73.8892 72.0322 79.3507 73.1186 84.8661 73.1186L84.8661 115.119C73.8352 115.119 62.9123 112.946 52.7211 108.724C42.5299 104.503 33.2699 98.3157 25.4699 90.5156C17.6699 82.7154 11.4826 73.4553 7.26123 63.264Z" fill="white"/>
</svg>
