<svg width="343" height="345" viewBox="0 0 343 345" fill="none" xmlns="http://www.w3.org/2000/svg">
<path d="M132.154 295.944V341.98H109.136V295.944C109.136 291.698 107.627 288.092 104.609 285.125C101.642 282.107 98.0361 280.598 93.7905 280.598C89.5449 280.598 85.9132 282.107 82.8952 285.125C79.9284 288.092 78.445 291.698 78.445 295.944V341.98H55.4269V295.944C55.4269 291.698 53.9179 288.092 50.9 285.125C47.9332 282.107 44.327 280.598 40.0814 280.598C35.8358 280.598 32.2041 282.107 29.1862 285.125C26.2194 288.092 24.736 291.698 24.736 295.944V341.98H1.71777V295.944C1.71777 285.355 5.45183 276.327 12.92 268.859C20.4392 261.34 29.4931 257.58 40.0814 257.58C50.5675 257.58 59.519 261.237 66.936 268.552C74.3529 261.237 83.3044 257.58 93.7905 257.58C104.379 257.58 113.407 261.34 120.875 268.859C128.395 276.327 132.154 285.355 132.154 295.944Z" fill="black"/>
<path d="M163.172 341.972H140.154V257.572H163.172V341.972ZM151.663 249.899C148.492 249.899 145.781 248.774 143.53 246.523C141.28 244.272 140.154 241.561 140.154 238.39C140.154 235.219 141.28 232.508 143.53 230.257C145.781 228.006 148.492 226.881 151.663 226.881C154.835 226.881 157.546 228.006 159.796 230.257C162.047 232.508 163.172 235.219 163.172 238.39C163.172 241.561 162.047 244.272 159.796 246.523C157.546 248.774 154.835 249.899 151.663 249.899Z" fill="black"/>
<path d="M247.9 295.944V341.98H224.882V295.944C224.882 291.698 223.373 288.092 220.355 285.125C217.388 282.107 213.782 280.598 209.536 280.598C205.291 280.598 201.659 282.107 198.641 285.125C195.674 288.092 194.191 291.698 194.191 295.944V341.98H171.172V295.944C171.172 285.355 174.907 276.327 182.375 268.859C189.894 261.34 198.948 257.58 209.536 257.58C220.124 257.58 229.153 261.34 236.621 268.859C244.14 276.327 247.9 285.355 247.9 295.944Z" fill="black"/>
<path d="M340.3 299.772C340.3 311.434 336.182 321.383 327.946 329.619C319.711 337.854 309.762 341.972 298.1 341.972C286.437 341.972 276.488 337.854 268.253 329.619C260.017 321.383 255.9 311.434 255.9 299.772C255.9 288.109 260.017 278.16 268.253 269.925C276.488 261.689 286.437 257.572 298.1 257.572H317.281V280.59H298.1C292.78 280.59 288.253 282.457 284.519 286.191C280.785 289.925 278.918 294.452 278.918 299.772C278.918 305.091 280.785 309.618 284.519 313.352C288.253 317.087 292.78 318.954 298.1 318.954C303.419 318.954 307.946 317.087 311.68 313.352C315.414 309.618 317.281 305.091 317.281 299.772V226.881H340.3V299.772Z" fill="black"/>
<path d="M89.7725 172.081C89.7725 160.418 93.8902 150.469 102.126 142.234C110.361 133.999 120.31 129.881 131.973 129.881C143.635 129.881 153.584 133.999 161.819 142.234C170.055 150.469 174.173 160.418 174.173 172.081C174.173 183.743 170.055 193.692 161.819 201.928C153.584 210.163 143.635 214.281 131.973 214.281H112.791V191.263H131.973C137.292 191.263 141.819 189.396 145.553 185.662C149.287 181.927 151.154 177.401 151.154 172.081C151.154 166.761 149.287 162.234 145.553 158.5C141.819 154.766 137.292 152.899 131.973 152.899C126.653 152.899 122.126 154.766 118.392 158.5C114.658 162.234 112.791 166.761 112.791 172.081V237.299H89.7725V172.081Z" fill="black"/>
<path d="M224.373 191.263C229.692 191.263 234.219 189.396 237.953 185.662C241.687 181.927 243.554 177.401 243.554 172.081C243.554 166.761 241.687 162.234 237.953 158.5C234.219 154.766 229.692 152.899 224.373 152.899C219.053 152.899 214.526 154.766 210.792 158.5C207.058 162.234 205.191 166.761 205.191 172.081C205.191 177.401 207.058 181.927 210.792 185.662C214.526 189.396 219.053 191.263 224.373 191.263ZM224.373 214.281C212.71 214.281 202.761 210.163 194.526 201.928C186.29 193.692 182.173 183.743 182.173 172.081C182.173 160.418 186.29 150.469 194.526 142.234C202.761 133.999 212.71 129.881 224.373 129.881C236.035 129.881 245.984 133.999 254.219 142.234C262.455 150.469 266.573 160.418 266.573 172.081C266.573 183.743 262.455 193.692 254.219 201.928C245.984 210.163 236.035 214.281 224.373 214.281Z" fill="black"/>
<path d="M297.591 129.899H317.233V152.917H297.591V175.935C297.591 180.181 299.074 183.813 302.041 186.831C305.059 189.797 308.69 191.281 312.936 191.281H328.585L328.588 214.299H312.936C302.348 214.299 293.294 210.565 285.775 203.097C278.306 195.578 274.572 186.524 274.572 175.935V106.881H297.591V129.899Z" fill="black"/>
<path d="M39.5723 129.881H74.0978L74.0996 152.899H39.5723C38.4982 152.899 37.5774 153.283 36.8102 154.05C36.094 154.766 35.736 155.661 35.736 156.735C35.736 157.81 36.094 158.73 36.8102 159.498C37.5774 160.214 38.4982 160.572 39.5723 160.572H54.9178C62.3347 160.572 68.652 163.206 73.8694 168.475C79.138 173.692 81.7723 180.009 81.7723 187.426C81.7723 194.843 79.138 201.186 73.8694 206.455C68.652 211.672 62.3347 214.281 54.9178 214.281H16.7178V191.263H54.9178C55.992 191.263 56.8871 190.905 57.6032 190.188C58.3705 189.421 58.7541 188.5 58.7541 187.426C58.7541 186.352 58.3705 185.457 57.6032 184.741C56.8871 183.974 55.992 183.59 54.9178 183.59H39.5723C32.1554 183.59 25.8126 180.981 20.544 175.764C15.3265 170.495 12.7178 164.152 12.7178 156.735C12.7178 149.318 15.3265 143.001 20.544 137.784C25.8126 132.515 32.1554 129.881 39.5723 129.881Z" fill="black"/>
<path fill-rule="evenodd" clip-rule="evenodd" d="M195.998 29.6009L202.718 43.8809L209.438 29.6009L223.718 22.8809L209.438 16.1609L202.718 1.88086L195.998 16.1609L181.719 22.8809L195.998 29.6009ZM125.112 55.0267C120.89 44.8353 118.718 33.9123 118.718 22.8812L160.717 22.8812C160.717 28.3968 161.804 33.8583 163.914 38.954C166.025 44.0496 169.119 48.6797 173.019 52.5798C176.919 56.4798 181.549 59.5735 186.644 61.6842C191.74 63.7949 197.201 64.8813 202.717 64.8813L202.717 106.881C191.686 106.881 180.763 104.709 170.572 100.487C160.38 96.2658 151.121 90.0784 143.32 82.2783C135.52 74.4781 129.333 65.218 125.112 55.0267Z" fill="black"/>
</svg>
