<svg width="343" height="345" viewBox="0 0 343 345" fill="none" xmlns="http://www.w3.org/2000/svg">
<path d="M132.348 295.917V341.953H109.33V295.917C109.33 291.671 107.821 288.065 104.803 285.098C101.837 282.08 98.2304 280.571 93.9848 280.571C89.7392 280.571 86.1075 282.08 83.0895 285.098C80.1227 288.065 78.6393 291.671 78.6393 295.917V341.953H55.6212V295.917C55.6212 291.671 54.1122 288.065 51.0943 285.098C48.1275 282.08 44.5213 280.571 40.2757 280.571C36.0301 280.571 32.3984 282.08 29.3805 285.098C26.4137 288.065 24.9303 291.671 24.9303 295.917V341.953H1.91211V295.917C1.91211 285.329 5.64617 276.3 13.1143 268.832C20.6335 261.313 29.6874 257.553 40.2757 257.553C50.7618 257.553 59.7133 261.211 67.1303 268.525C74.5472 261.211 83.4987 257.553 93.9848 257.553C104.573 257.553 113.601 261.313 121.069 268.832C128.589 276.3 132.348 285.329 132.348 295.917Z" fill="#67707E"/>
<path d="M163.366 341.945H140.348V257.545H163.366V341.945ZM151.857 249.872C148.686 249.872 145.975 248.747 143.724 246.496C141.474 244.246 140.348 241.535 140.348 238.363C140.348 235.192 141.474 232.481 143.724 230.23C145.975 227.979 148.686 226.854 151.857 226.854C155.029 226.854 157.74 227.979 159.99 230.23C162.241 232.481 163.366 235.192 163.366 238.363C163.366 241.535 162.241 244.246 159.99 246.496C157.74 248.747 155.029 249.872 151.857 249.872Z" fill="#67707E"/>
<path d="M248.094 295.917V341.953H225.076V295.917C225.076 291.671 223.567 288.065 220.549 285.098C217.582 282.08 213.976 280.571 209.73 280.571C205.485 280.571 201.853 282.08 198.835 285.098C195.868 288.065 194.385 291.671 194.385 295.917V341.953H171.366V295.917C171.366 285.329 175.101 276.3 182.569 268.832C190.088 261.313 199.142 257.553 209.73 257.553C220.318 257.553 229.347 261.313 236.815 268.832C244.334 276.3 248.094 285.329 248.094 295.917Z" fill="#67707E"/>
<path d="M340.494 299.745C340.494 311.407 336.376 321.356 328.14 329.592C319.905 337.827 309.956 341.945 298.294 341.945C286.631 341.945 276.682 337.827 268.447 329.592C260.211 321.356 256.094 311.407 256.094 299.745C256.094 288.082 260.211 278.133 268.447 269.898C276.682 261.663 286.631 257.545 298.294 257.545H317.475V280.563H298.294C292.974 280.563 288.447 282.43 284.713 286.164C280.979 289.898 279.112 294.425 279.112 299.745C279.112 305.065 280.979 309.592 284.713 313.326C288.447 317.06 292.974 318.927 298.294 318.927C303.613 318.927 308.14 317.06 311.874 313.326C315.608 309.592 317.475 305.065 317.475 299.745V226.854H340.494V299.745Z" fill="#67707E"/>
<path d="M89.9668 172.054C89.9668 160.391 94.0845 150.442 102.32 142.207C110.555 133.972 120.504 129.854 132.167 129.854C143.829 129.854 153.778 133.972 162.013 142.207C170.249 150.442 174.367 160.391 174.367 172.054C174.367 183.717 170.249 193.666 162.013 201.901C153.778 210.136 143.829 214.254 132.167 214.254H112.985V191.236H132.167C137.486 191.236 142.013 189.369 145.747 185.635C149.481 181.901 151.348 177.374 151.348 172.054C151.348 166.734 149.481 162.207 145.747 158.473C142.013 154.739 137.486 152.872 132.167 152.872C126.847 152.872 122.32 154.739 118.586 158.473C114.852 162.207 112.985 166.734 112.985 172.054V237.272H89.9668V172.054Z" fill="#67707E"/>
<path d="M224.567 191.236C229.886 191.236 234.413 189.369 238.147 185.635C241.881 181.901 243.748 177.374 243.748 172.054C243.748 166.734 241.881 162.207 238.147 158.473C234.413 154.739 229.886 152.872 224.567 152.872C219.247 152.872 214.72 154.739 210.986 158.473C207.252 162.207 205.385 166.734 205.385 172.054C205.385 177.374 207.252 181.901 210.986 185.635C214.72 189.369 219.247 191.236 224.567 191.236ZM224.567 214.254C212.904 214.254 202.955 210.136 194.72 201.901C186.484 193.666 182.367 183.717 182.367 172.054C182.367 160.391 186.484 150.442 194.72 142.207C202.955 133.972 212.904 129.854 224.567 129.854C236.229 129.854 246.178 133.972 254.413 142.207C262.649 150.442 266.767 160.391 266.767 172.054C266.767 183.717 262.649 193.666 254.413 201.901C246.178 210.136 236.229 214.254 224.567 214.254Z" fill="#67707E"/>
<path d="M297.787 129.872H317.429V152.89H297.787V175.909C297.787 180.154 299.27 183.786 302.237 186.804C305.255 189.771 308.886 191.254 313.132 191.254H328.781L328.784 214.272H313.132C302.544 214.272 293.49 210.538 285.971 203.07C278.502 195.551 274.768 186.497 274.768 175.909V106.854H297.787V129.872Z" fill="#67707E"/>
<path d="M39.7666 129.854H74.2921L74.2939 152.872H39.7666C38.6925 152.872 37.7717 153.256 37.0045 154.023C36.2883 154.739 35.9303 155.634 35.9303 156.709C35.9303 157.783 36.2883 158.704 37.0045 159.471C37.7717 160.187 38.6925 160.545 39.7666 160.545H55.1121C62.529 160.545 68.8463 163.179 74.0637 168.448C79.3323 173.665 81.9666 179.982 81.9666 187.399C81.9666 194.816 79.3323 201.159 74.0637 206.428C68.8463 211.645 62.529 214.254 55.1121 214.254H16.9121V191.236H55.1121C56.1863 191.236 57.0814 190.878 57.7975 190.162C58.5648 189.394 58.9484 188.474 58.9484 187.399C58.9484 186.325 58.5648 185.43 57.7975 184.714C57.0814 183.947 56.1863 183.563 55.1121 183.563H39.7666C32.3497 183.563 26.0069 180.954 20.7383 175.737C15.5208 170.468 12.9121 164.126 12.9121 156.709C12.9121 149.292 15.5208 142.974 20.7383 137.757C26.0069 132.488 32.3497 129.854 39.7666 129.854Z" fill="#67707E"/>
<path fill-rule="evenodd" clip-rule="evenodd" d="M196.193 29.574L202.913 43.854L209.632 29.574L223.912 22.854L209.632 16.134L202.913 1.854L196.193 16.134L181.913 22.854L196.193 29.574ZM125.306 54.9998C121.085 44.8085 118.912 33.8854 118.912 22.8544L160.912 22.8544C160.912 28.3699 161.998 33.8314 164.109 38.9271C166.219 44.0228 169.313 48.6528 173.213 52.5529C177.113 56.453 181.743 59.5467 186.839 61.6574C191.934 63.7681 197.396 64.8544 202.911 64.8544L202.911 106.854C191.88 106.854 180.957 104.682 170.766 100.46C160.575 96.2389 151.315 90.0515 143.515 82.2514C135.715 74.4513 129.527 65.1912 125.306 54.9998Z" fill="#67707E"/>
</svg>
