<svg width="343" height="345" viewBox="0 0 343 345" fill="none" xmlns="http://www.w3.org/2000/svg">
<path d="M132.348 295.909V341.946H109.33V295.909C109.33 291.664 107.821 288.058 104.803 285.091C101.837 282.073 98.2304 280.564 93.9848 280.564C89.7392 280.564 86.1075 282.073 83.0895 285.091C80.1227 288.058 78.6393 291.664 78.6393 295.909V341.946H55.6212V295.909C55.6212 291.664 54.1122 288.058 51.0943 285.091C48.1275 282.073 44.5213 280.564 40.2757 280.564C36.0301 280.564 32.3984 282.073 29.3805 285.091C26.4137 288.058 24.9303 291.664 24.9303 295.909V341.946H1.91211V295.909C1.91211 285.321 5.64617 276.293 13.1143 268.825C20.6335 261.305 29.6874 257.546 40.2757 257.546C50.7618 257.546 59.7133 261.203 67.1303 268.518C74.5472 261.203 83.4987 257.546 93.9848 257.546C104.573 257.546 113.601 261.305 121.069 268.825C128.589 276.293 132.348 285.321 132.348 295.909Z" fill="#141B4D"/>
<path d="M163.366 341.938H140.348V257.538H163.366V341.938ZM151.857 249.865C148.686 249.865 145.975 248.739 143.724 246.489C141.474 244.238 140.348 241.527 140.348 238.356C140.348 235.184 141.474 232.473 143.724 230.223C145.975 227.972 148.686 226.847 151.857 226.847C155.029 226.847 157.74 227.972 159.99 230.223C162.241 232.473 163.366 235.184 163.366 238.356C163.366 241.527 162.241 244.238 159.99 246.489C157.74 248.739 155.029 249.865 151.857 249.865Z" fill="#141B4D"/>
<path d="M248.094 295.909V341.946H225.076V295.909C225.076 291.664 223.567 288.058 220.549 285.091C217.582 282.073 213.976 280.564 209.73 280.564C205.485 280.564 201.853 282.073 198.835 285.091C195.868 288.058 194.385 291.664 194.385 295.909V341.946H171.366V295.909C171.366 285.321 175.101 276.293 182.569 268.825C190.088 261.305 199.142 257.546 209.73 257.546C220.318 257.546 229.347 261.305 236.815 268.825C244.334 276.293 248.094 285.321 248.094 295.909Z" fill="#141B4D"/>
<path d="M340.494 299.738C340.494 311.4 336.376 321.349 328.14 329.585C319.905 337.82 309.956 341.938 298.294 341.938C286.631 341.938 276.682 337.82 268.447 329.585C260.211 321.349 256.094 311.4 256.094 299.738C256.094 288.075 260.211 278.126 268.447 269.891C276.682 261.655 286.631 257.538 298.294 257.538H317.475V280.556H298.294C292.974 280.556 288.447 282.423 284.713 286.157C280.979 289.891 279.112 294.418 279.112 299.738C279.112 305.057 280.979 309.584 284.713 313.318C288.447 317.052 292.974 318.919 298.294 318.919C303.613 318.919 308.14 317.052 311.874 313.318C315.608 309.584 317.475 305.057 317.475 299.738V226.847H340.494V299.738Z" fill="#141B4D"/>
<path d="M89.9668 172.047C89.9668 160.384 94.0845 150.435 102.32 142.2C110.555 133.964 120.504 129.847 132.167 129.847C143.829 129.847 153.778 133.964 162.013 142.2C170.249 150.435 174.367 160.384 174.367 172.047C174.367 183.709 170.249 193.658 162.013 201.893C153.778 210.128 143.829 214.246 132.167 214.246H112.985V191.228H132.167C137.486 191.228 142.013 189.361 145.747 185.627C149.481 181.893 151.348 177.366 151.348 172.047C151.348 166.727 149.481 162.2 145.747 158.466C142.013 154.732 137.486 152.865 132.167 152.865C126.847 152.865 122.32 154.732 118.586 158.466C114.852 162.2 112.985 166.727 112.985 172.047V237.264H89.9668V172.047Z" fill="#FF6000"/>
<path d="M224.567 191.228C229.886 191.228 234.413 189.361 238.147 185.627C241.881 181.893 243.748 177.366 243.748 172.047C243.748 166.727 241.881 162.2 238.147 158.466C234.413 154.732 229.886 152.865 224.567 152.865C219.247 152.865 214.72 154.732 210.986 158.466C207.252 162.2 205.385 166.727 205.385 172.047C205.385 177.366 207.252 181.893 210.986 185.627C214.72 189.361 219.247 191.228 224.567 191.228ZM224.567 214.246C212.904 214.246 202.955 210.128 194.72 201.893C186.484 193.658 182.367 183.709 182.367 172.047C182.367 160.384 186.484 150.435 194.72 142.2C202.955 133.964 212.904 129.847 224.567 129.847C236.229 129.847 246.178 133.964 254.413 142.2C262.649 150.435 266.767 160.384 266.767 172.047C266.767 183.709 262.649 193.658 254.413 201.893C246.178 210.128 236.229 214.246 224.567 214.246Z" fill="#FF6000"/>
<path d="M297.787 129.865H317.429V152.883H297.787V175.901C297.787 180.147 299.27 183.778 302.237 186.796C305.255 189.763 308.886 191.247 313.132 191.247H328.781L328.784 214.265H313.132C302.544 214.265 293.49 210.531 285.971 203.063C278.502 195.543 274.768 186.49 274.768 175.901V106.847H297.787V129.865Z" fill="#FF6000"/>
<path d="M39.7666 129.847H74.2921L74.2939 152.865H39.7666C38.6925 152.865 37.7717 153.248 37.0045 154.016C36.2883 154.732 35.9303 155.627 35.9303 156.701C35.9303 157.775 36.2883 158.696 37.0045 159.463C37.7717 160.179 38.6925 160.538 39.7666 160.538H55.1121C62.529 160.538 68.8463 163.172 74.0637 168.44C79.3323 173.658 81.9666 179.975 81.9666 187.392C81.9666 194.809 79.3323 201.152 74.0637 206.421C68.8463 211.638 62.529 214.247 55.1121 214.247H16.9121V191.228H55.1121C56.1863 191.228 57.0814 190.87 57.7975 190.154C58.5648 189.387 58.9484 188.466 58.9484 187.392C58.9484 186.318 58.5648 185.423 57.7975 184.707C57.0814 183.939 56.1863 183.556 55.1121 183.556H39.7666C32.3497 183.556 26.0069 180.947 20.7383 175.73C15.5208 170.461 12.9121 164.118 12.9121 156.701C12.9121 149.284 15.5208 142.967 20.7383 137.75C26.0069 132.481 32.3497 129.847 39.7666 129.847Z" fill="#FF6000"/>
<path fill-rule="evenodd" clip-rule="evenodd" d="M196.193 29.5667L202.913 43.8467L209.632 29.5667L223.912 22.8467L209.632 16.1267L202.913 1.84668L196.193 16.1267L181.913 22.8467L196.193 29.5667ZM125.306 54.9925C121.085 44.8011 118.912 33.8781 118.912 22.8471L160.912 22.8471C160.912 28.3626 161.998 33.8241 164.109 38.9198C166.219 44.0155 169.313 48.6455 173.213 52.5456C177.113 56.4456 181.743 59.5393 186.839 61.65C191.934 63.7607 197.396 64.8471 202.911 64.8471L202.911 106.847C191.88 106.847 180.957 104.674 170.766 100.453C160.575 96.2316 151.315 90.0442 143.515 82.2441C135.715 74.444 129.527 65.1839 125.306 54.9925Z" fill="#FF6000"/>
</svg>
