<svg width="769" height="139" viewBox="0 0 769 139" fill="none" xmlns="http://www.w3.org/2000/svg">
<path d="M559.855 69.1351V115.172H536.837V69.1351C536.837 64.8896 535.328 61.2834 532.31 58.3166C529.344 55.2986 525.738 53.7897 521.492 53.7897C517.247 53.7897 513.615 55.2986 510.597 58.3166C507.63 61.2834 506.147 64.8896 506.147 69.1351V115.172H483.129V69.1351C483.129 64.8896 481.62 61.2834 478.602 58.3166C475.635 55.2986 472.029 53.7897 467.783 53.7897C463.537 53.7897 459.906 55.2986 456.888 58.3166C453.921 61.2834 452.438 64.8896 452.438 69.1351V115.172H429.419V69.1351C429.419 58.5468 433.153 49.5185 440.622 42.0504C448.141 34.5311 457.195 30.7715 467.783 30.7715C478.269 30.7715 487.221 34.4288 494.638 41.7435C502.055 34.4288 511.006 30.7715 521.492 30.7715C532.08 30.7715 541.108 34.5311 548.576 42.0504C556.096 49.5185 559.855 58.5468 559.855 69.1351Z" fill="black"/>
<path d="M590.873 115.163H567.855V30.7632H590.873V115.163ZM579.364 23.0905C576.193 23.0905 573.482 21.9651 571.231 19.7145C568.981 17.4638 567.855 14.7528 567.855 11.5814C567.855 8.40996 568.981 5.69894 571.231 3.44827C573.482 1.1976 576.193 0.0722656 579.364 0.0722656C582.536 0.0722656 585.247 1.1976 587.497 3.44827C589.748 5.69894 590.873 8.40996 590.873 11.5814C590.873 14.7528 589.748 17.4638 587.497 19.7145C585.247 21.9651 582.536 23.0905 579.364 23.0905Z" fill="black"/>
<path d="M675.602 69.1351V115.172H652.584V69.1351C652.584 64.8896 651.075 61.2834 648.057 58.3166C645.09 55.2986 641.484 53.7897 637.238 53.7897C632.993 53.7897 629.361 55.2986 626.343 58.3166C623.376 61.2834 621.893 64.8896 621.893 69.1351V115.172H598.874V69.1351C598.874 58.5468 602.609 49.5185 610.077 42.0504C617.596 34.5311 626.65 30.7715 637.238 30.7715C647.826 30.7715 656.855 34.5311 664.323 42.0504C671.842 49.5185 675.602 58.5468 675.602 69.1351Z" fill="black"/>
<path d="M768.002 72.9632C768.002 84.6257 763.884 94.5747 755.648 102.81C747.413 111.045 737.464 115.163 725.802 115.163C714.139 115.163 704.19 111.045 695.955 102.81C687.719 94.5747 683.602 84.6257 683.602 72.9632C683.602 61.3006 687.719 51.3517 695.955 43.1163C704.19 34.8809 714.139 30.7632 725.802 30.7632H744.983V53.7814H725.802C720.482 53.7814 715.955 55.6484 712.221 59.3825C708.487 63.1165 706.62 67.6434 706.62 72.9632C706.62 78.2829 708.487 82.8098 712.221 86.5439C715.955 90.278 720.482 92.145 725.802 92.145C731.121 92.145 735.648 90.278 739.382 86.5439C743.116 82.8098 744.983 78.2829 744.983 72.9632V0.0722656H768.002V72.9632Z" fill="black"/>
<path d="M182.054 72.9715C182.054 61.3089 186.172 51.3599 194.407 43.1246C202.643 34.8892 212.592 30.7715 224.255 30.7715C235.917 30.7715 245.866 34.8892 254.101 43.1246C262.337 51.3599 266.455 61.3089 266.455 72.9715C266.455 84.634 262.337 94.583 254.101 102.818C245.866 111.053 235.917 115.171 224.255 115.171H205.072V92.1533H224.255C229.574 92.1533 234.101 90.2862 237.835 86.5522C241.569 82.8181 243.436 78.2912 243.436 72.9715C243.436 67.6517 241.569 63.1248 237.835 59.3907C234.101 55.6567 229.574 53.7896 224.255 53.7896C218.935 53.7896 214.408 55.6567 210.674 59.3907C206.94 63.1248 205.072 67.6517 205.072 72.9715V138.189H182.054V72.9715Z" fill="black"/>
<path d="M316.655 92.1533C321.974 92.1533 326.501 90.2862 330.235 86.5522C333.969 82.8181 335.836 78.2912 335.836 72.9715C335.836 67.6517 333.969 63.1248 330.235 59.3907C326.501 55.6567 321.974 53.7896 316.655 53.7896C311.335 53.7896 306.808 55.6567 303.074 59.3907C299.34 63.1248 297.473 67.6517 297.473 72.9715C297.473 78.2912 299.34 82.8181 303.074 86.5522C306.808 90.2862 311.335 92.1533 316.655 92.1533ZM316.655 115.171C304.992 115.171 295.043 111.053 286.808 102.818C278.572 94.583 274.455 84.634 274.455 72.9715C274.455 61.3089 278.572 51.3599 286.808 43.1246C295.043 34.8892 304.992 30.7715 316.655 30.7715C328.317 30.7715 338.266 34.8892 346.501 43.1246C354.737 51.3599 358.855 61.3089 358.855 72.9715C358.855 84.634 354.737 94.583 346.501 102.818C338.266 111.053 328.317 115.171 316.655 115.171Z" fill="black"/>
<path d="M389.874 30.7897H409.516V53.8078H389.874V76.826C389.874 81.0716 391.356 84.7033 394.323 87.7213C397.341 90.6881 400.973 92.1715 405.219 92.1715H420.867L420.871 115.189H405.219C394.631 115.189 385.576 111.455 378.057 103.987C370.588 96.4682 366.854 87.4144 366.854 76.826V7.77148H389.874V30.7897Z" fill="black"/>
<path d="M131.854 30.7715H166.38L166.381 53.7897H131.854C130.78 53.7897 129.859 54.1733 129.092 54.9406C128.376 55.6567 128.018 56.5519 128.018 57.626C128.018 58.7002 128.376 59.621 129.092 60.3882C129.859 61.1043 130.78 61.4624 131.854 61.4624H147.2C154.616 61.4624 160.934 64.0967 166.151 69.3653C171.42 74.5828 174.054 80.9 174.054 88.3169C174.054 95.7339 171.42 102.077 166.151 107.345C160.934 112.562 154.616 115.171 147.2 115.171H109V92.1533H147.2C148.274 92.1533 149.169 91.7952 149.885 91.0791C150.652 90.3118 151.036 89.3911 151.036 88.3169C151.036 87.2428 150.652 86.3476 149.885 85.6315C149.169 84.8642 148.274 84.4806 147.2 84.4806H131.854C124.437 84.4806 118.094 81.8719 112.826 76.6544C107.608 71.3858 105 65.043 105 57.626C105 50.2091 107.608 43.8919 112.826 38.6744C118.094 33.4058 124.437 30.7715 131.854 30.7715Z" fill="black"/>
<path fill-rule="evenodd" clip-rule="evenodd" d="M77.2801 37.8382L84 52.1182L90.7199 37.8382L105 31.1182L90.7199 24.3982L84 10.1182L77.2801 24.3982L63.0002 31.1182L77.2801 37.8382ZM6.39355 63.264C2.17221 53.0726 -0.000488281 42.1496 -0.000488281 31.1186L41.999 31.1185C41.999 36.6341 43.0853 42.0956 45.196 47.1913C47.3067 52.2869 50.4003 56.917 54.3003 60.8171C58.2004 64.7171 62.8303 67.8108 67.9259 69.9215C73.0216 72.0322 78.483 73.1186 83.9985 73.1186L83.9985 115.119C72.9676 115.119 62.0447 112.946 51.8535 108.724C41.6622 104.503 32.4023 98.3157 24.6022 90.5156C16.8022 82.7154 10.6149 73.4553 6.39355 63.264Z" fill="black"/>
</svg>
