<svg width="769" height="189" viewBox="0 0 769 189" fill="none" xmlns="http://www.w3.org/2000/svg">
<path d="M559.856 69.4237V115.46H536.838V69.4237C536.838 65.1782 535.329 61.572 532.311 58.6052C529.344 55.5872 525.738 54.0783 521.493 54.0783C517.247 54.0783 513.615 55.5872 510.597 58.6052C507.631 61.572 506.147 65.1782 506.147 69.4237V115.46H483.129V69.4237C483.129 65.1782 481.62 61.572 478.602 58.6052C475.635 55.5872 472.029 54.0783 467.784 54.0783C463.538 54.0783 459.906 55.5872 456.888 58.6052C453.922 61.572 452.438 65.1782 452.438 69.4237V115.46H429.42V69.4237C429.42 58.8354 433.154 49.8071 440.622 42.339C448.141 34.8197 457.195 31.0601 467.784 31.0601C478.27 31.0601 487.221 34.7174 494.638 42.0321C502.055 34.7174 511.007 31.0601 521.493 31.0601C532.081 31.0601 541.109 34.8197 548.577 42.339C556.097 49.8071 559.856 58.8354 559.856 69.4237Z" fill="black"/>
<path d="M590.874 115.452H567.856V31.0517H590.874V115.452ZM579.365 23.379C576.194 23.379 573.483 22.2536 571.232 20.003C568.982 17.7523 567.856 15.0413 567.856 11.8699C567.856 8.69853 568.982 5.98751 571.232 3.73684C573.483 1.48617 576.194 0.36084 579.365 0.36084C582.537 0.36084 585.248 1.48617 587.498 3.73684C589.749 5.98751 590.874 8.69853 590.874 11.8699C590.874 15.0413 589.749 17.7523 587.498 20.003C585.248 22.2536 582.537 23.379 579.365 23.379Z" fill="black"/>
<path d="M675.602 69.4237V115.46H652.584V69.4237C652.584 65.1782 651.075 61.572 648.057 58.6052C645.09 55.5872 641.484 54.0783 637.238 54.0783C632.993 54.0783 629.361 55.5872 626.343 58.6052C623.376 61.572 621.893 65.1782 621.893 69.4237V115.46H598.874V69.4237C598.874 58.8354 602.609 49.8071 610.077 42.339C617.596 34.8197 626.65 31.0601 637.238 31.0601C647.826 31.0601 656.855 34.8197 664.323 42.339C671.842 49.8071 675.602 58.8354 675.602 69.4237Z" fill="black"/>
<path d="M768.002 73.2517C768.002 84.9142 763.884 94.8632 755.648 103.099C747.413 111.334 737.464 115.452 725.802 115.452C714.139 115.452 704.19 111.334 695.955 103.099C687.719 94.8632 683.602 84.9142 683.602 73.2517C683.602 61.5891 687.719 51.6402 695.955 43.4048C704.19 35.1694 714.139 31.0517 725.802 31.0517H744.983V54.0699H725.802C720.482 54.0699 715.955 55.9369 712.221 59.671C708.487 63.405 706.62 67.9319 706.62 73.2517C706.62 78.5714 708.487 83.0983 712.221 86.8324C715.955 90.5665 720.482 92.4335 725.802 92.4335C731.121 92.4335 735.648 90.5665 739.382 86.8324C743.116 83.0983 744.983 78.5714 744.983 73.2517V0.36084H768.002V73.2517Z" fill="black"/>
<path d="M182.055 73.2601C182.055 61.5975 186.172 51.6485 194.408 43.4132C202.643 35.1778 212.592 31.0601 224.255 31.0601C235.917 31.0601 245.866 35.1778 254.101 43.4132C262.337 51.6485 266.455 61.5975 266.455 73.2601C266.455 84.9226 262.337 94.8716 254.101 103.107C245.866 111.342 235.917 115.46 224.255 115.46H205.073V92.4419H224.255C229.574 92.4419 234.101 90.5748 237.835 86.8408C241.569 83.1067 243.436 78.5798 243.436 73.2601C243.436 67.9403 241.569 63.4134 237.835 59.6793C234.101 55.9453 229.574 54.0782 224.255 54.0782C218.935 54.0782 214.408 55.9453 210.674 59.6793C206.94 63.4134 205.073 67.9403 205.073 73.2601V138.478H182.055V73.2601Z" fill="black"/>
<path d="M316.655 92.4419C321.974 92.4419 326.501 90.5748 330.235 86.8408C333.969 83.1067 335.836 78.5798 335.836 73.2601C335.836 67.9403 333.969 63.4134 330.235 59.6793C326.501 55.9453 321.974 54.0782 316.655 54.0782C311.335 54.0782 306.808 55.9453 303.074 59.6793C299.34 63.4134 297.473 67.9403 297.473 73.2601C297.473 78.5798 299.34 83.1067 303.074 86.8408C306.808 90.5748 311.335 92.4419 316.655 92.4419ZM316.655 115.46C304.992 115.46 295.043 111.342 286.808 103.107C278.572 94.8716 274.455 84.9226 274.455 73.2601C274.455 61.5975 278.572 51.6485 286.808 43.4132C295.043 35.1778 304.992 31.0601 316.655 31.0601C328.317 31.0601 338.266 35.1778 346.501 43.4132C354.737 51.6485 358.855 61.5975 358.855 73.2601C358.855 84.9226 354.737 94.8716 346.501 103.107C338.266 111.342 328.317 115.46 316.655 115.46Z" fill="black"/>
<path d="M389.874 31.0783H409.516V54.0964H389.874V77.1146C389.874 81.3602 391.357 84.9919 394.324 88.0099C397.342 90.9767 400.973 92.4601 405.219 92.4601H420.868L420.871 115.478H405.219C394.631 115.478 385.577 111.744 378.058 104.276C370.589 96.7568 366.855 87.703 366.855 77.1146V8.06006H389.874V31.0783Z" fill="black"/>
<path d="M131.854 31.0601H166.38L166.382 54.0783H131.854C130.78 54.0783 129.86 54.4619 129.092 55.2292C128.376 55.9453 128.018 56.8405 128.018 57.9146C128.018 58.9888 128.376 59.9096 129.092 60.6768C129.86 61.3929 130.78 61.751 131.854 61.751H147.2C154.617 61.751 160.934 64.3853 166.152 69.6539C171.42 74.8714 174.054 81.1886 174.054 88.6055C174.054 96.0225 171.42 102.365 166.152 107.634C160.934 112.851 154.617 115.46 147.2 115.46H109V92.4419H147.2C148.274 92.4419 149.169 92.0838 149.885 91.3677C150.653 90.6004 151.036 89.6797 151.036 88.6055C151.036 87.5314 150.653 86.6362 149.885 85.9201C149.169 85.1528 148.274 84.7692 147.2 84.7692H131.854C124.438 84.7692 118.095 82.1605 112.826 76.943C107.609 71.6744 105 65.3316 105 57.9146C105 50.4977 107.609 44.1805 112.826 38.963C118.095 33.6944 124.438 31.0601 131.854 31.0601Z" fill="black"/>
<path fill-rule="evenodd" clip-rule="evenodd" d="M77.2805 37.8191L84.0005 52.0992L90.7204 37.8191L105 31.0991L90.7204 24.3791L84.0005 10.0991L77.2805 24.3791L63.0007 31.0991L77.2805 37.8191ZM6.39404 63.2449C2.1727 53.0536 0 42.1306 0 31.0995L41.9995 31.0995C41.9995 36.615 43.0858 42.0765 45.1965 47.1722C47.3072 52.2679 50.4008 56.8979 54.3008 60.798C58.2008 64.6981 62.8308 67.7918 67.9264 69.9025C73.022 72.0132 78.4835 73.0995 83.9989 73.0995L83.9989 115.1C72.968 115.1 62.0452 112.927 51.8539 108.705C41.6627 104.484 32.4027 98.2966 24.6027 90.4965C16.8027 82.6964 10.6154 73.4363 6.39404 63.2449Z" fill="black"/>
<path d="M121.346 182.115H114V159.424H121.578C123.802 159.424 125.711 159.879 127.307 160.787C128.902 161.688 130.124 162.985 130.974 164.676C131.831 166.36 132.259 168.38 132.259 170.737C132.259 173.1 131.827 175.132 130.963 176.83C130.106 178.529 128.865 179.837 127.24 180.753C125.615 181.661 123.65 182.115 121.346 182.115ZM117.424 179.124H121.157C122.886 179.124 124.322 178.799 125.467 178.149C126.612 177.492 127.469 176.542 128.038 175.301C128.607 174.053 128.891 172.532 128.891 170.737C128.891 168.957 128.607 167.446 128.038 166.205C127.476 164.964 126.638 164.022 125.523 163.38C124.407 162.737 123.022 162.416 121.368 162.416H117.424V179.124Z" fill="black"/>
<path d="M136.25 182.115V165.097H139.563V182.115H136.25ZM137.924 162.471C137.347 162.471 136.852 162.279 136.439 161.895C136.033 161.504 135.829 161.038 135.829 160.499C135.829 159.953 136.033 159.487 136.439 159.103C136.852 158.712 137.347 158.516 137.924 158.516C138.5 158.516 138.991 158.712 139.397 159.103C139.811 159.487 140.018 159.953 140.018 160.499C140.018 161.038 139.811 161.504 139.397 161.895C138.991 162.279 138.5 162.471 137.924 162.471Z" fill="black"/>
<path d="M151.155 188.852C149.804 188.852 148.64 188.674 147.665 188.32C146.698 187.965 145.907 187.496 145.294 186.913C144.681 186.329 144.223 185.69 143.92 184.996L146.768 183.822C146.967 184.147 147.233 184.49 147.565 184.852C147.905 185.221 148.363 185.535 148.939 185.794C149.523 186.052 150.273 186.182 151.188 186.182C152.444 186.182 153.482 185.875 154.302 185.262C155.122 184.656 155.532 183.689 155.532 182.359V179.013H155.321C155.122 179.375 154.834 179.778 154.457 180.221C154.088 180.664 153.578 181.048 152.928 181.373C152.278 181.698 151.432 181.861 150.391 181.861C149.046 181.861 147.835 181.547 146.757 180.919C145.686 180.284 144.836 179.349 144.208 178.116C143.588 176.875 143.278 175.349 143.278 173.54C143.278 171.73 143.584 170.179 144.197 168.886C144.818 167.594 145.667 166.604 146.746 165.917C147.824 165.223 149.046 164.876 150.413 164.876C151.469 164.876 152.322 165.053 152.972 165.407C153.622 165.755 154.128 166.161 154.49 166.626C154.86 167.092 155.144 167.501 155.343 167.856H155.587V165.097H158.833V182.492C158.833 183.955 158.494 185.155 157.814 186.093C157.135 187.031 156.215 187.725 155.055 188.176C153.903 188.626 152.603 188.852 151.155 188.852ZM151.122 179.113C152.075 179.113 152.88 178.891 153.537 178.448C154.202 177.997 154.704 177.355 155.044 176.52C155.391 175.678 155.565 174.67 155.565 173.496C155.565 172.351 155.395 171.342 155.055 170.471C154.715 169.599 154.217 168.92 153.56 168.432C152.902 167.937 152.09 167.69 151.122 167.69C150.125 167.69 149.294 167.948 148.629 168.465C147.964 168.975 147.462 169.669 147.122 170.548C146.79 171.427 146.624 172.41 146.624 173.496C146.624 174.611 146.794 175.59 147.133 176.432C147.473 177.274 147.975 177.931 148.64 178.404C149.312 178.876 150.14 179.113 151.122 179.113Z" fill="black"/>
<path d="M163.276 182.115V165.097H166.589V182.115H163.276ZM164.949 162.471C164.373 162.471 163.878 162.279 163.465 161.895C163.058 161.504 162.855 161.038 162.855 160.499C162.855 159.953 163.058 159.487 163.465 159.103C163.878 158.712 164.373 158.516 164.949 158.516C165.525 158.516 166.017 158.712 166.423 159.103C166.837 159.487 167.043 159.953 167.043 160.499C167.043 161.038 166.837 161.504 166.423 161.895C166.017 162.279 165.525 162.471 164.949 162.471Z" fill="black"/>
<path d="M178.99 165.097V167.756H169.694V165.097H178.99ZM172.187 161.02H175.5V177.119C175.5 177.761 175.596 178.245 175.788 178.57C175.98 178.888 176.227 179.105 176.53 179.224C176.84 179.334 177.176 179.39 177.538 179.39C177.804 179.39 178.037 179.371 178.236 179.334C178.436 179.297 178.591 179.268 178.702 179.246L179.3 181.982C179.108 182.056 178.835 182.13 178.48 182.204C178.126 182.285 177.682 182.33 177.151 182.337C176.279 182.352 175.467 182.197 174.713 181.872C173.96 181.547 173.35 181.044 172.885 180.365C172.42 179.685 172.187 178.832 172.187 177.805V161.02Z" fill="black"/>
<path d="M187.607 182.492C186.529 182.492 185.554 182.293 184.682 181.894C183.81 181.488 183.12 180.9 182.61 180.132C182.108 179.364 181.857 178.422 181.857 177.307C181.857 176.347 182.041 175.556 182.411 174.936C182.78 174.315 183.279 173.824 183.906 173.462C184.534 173.1 185.236 172.827 186.012 172.642C186.787 172.458 187.577 172.317 188.383 172.221C189.402 172.103 190.229 172.007 190.864 171.933C191.5 171.852 191.961 171.723 192.249 171.546C192.537 171.368 192.681 171.08 192.681 170.681V170.604C192.681 169.636 192.408 168.886 191.862 168.355C191.322 167.823 190.517 167.557 189.446 167.557C188.331 167.557 187.452 167.804 186.809 168.299C186.174 168.787 185.735 169.33 185.491 169.928L182.377 169.219C182.747 168.185 183.286 167.35 183.995 166.715C184.712 166.072 185.535 165.607 186.466 165.319C187.396 165.023 188.375 164.876 189.402 164.876C190.081 164.876 190.802 164.957 191.562 165.119C192.331 165.274 193.047 165.563 193.712 165.984C194.384 166.405 194.934 167.007 195.363 167.79C195.791 168.565 196.005 169.573 196.005 170.814V182.115H192.77V179.789H192.637C192.423 180.217 192.102 180.638 191.673 181.052C191.245 181.465 190.694 181.809 190.022 182.082C189.35 182.355 188.545 182.492 187.607 182.492ZM188.327 179.833C189.243 179.833 190.026 179.652 190.676 179.29C191.333 178.928 191.832 178.455 192.172 177.872C192.519 177.281 192.692 176.649 192.692 175.977V173.784C192.574 173.902 192.345 174.013 192.006 174.116C191.673 174.212 191.293 174.297 190.864 174.371C190.436 174.437 190.019 174.5 189.612 174.559C189.206 174.611 188.866 174.655 188.593 174.692C187.95 174.773 187.363 174.91 186.831 175.102C186.307 175.294 185.886 175.571 185.568 175.933C185.258 176.288 185.103 176.76 185.103 177.351C185.103 178.171 185.406 178.792 186.012 179.213C186.617 179.626 187.389 179.833 188.327 179.833Z" fill="black"/>
<path d="M203.73 159.424V182.115H200.418V159.424H203.73Z" fill="black"/>
<path d="M215.591 162.372V159.424H233.152V162.372H226.072V182.115H222.66V162.372H215.591Z" fill="black"/>
<path d="M241.634 182.459C239.957 182.459 238.513 182.101 237.301 181.384C236.098 180.66 235.167 179.645 234.509 178.337C233.859 177.022 233.534 175.482 233.534 173.717C233.534 171.974 233.859 170.438 234.509 169.108C235.167 167.778 236.083 166.741 237.257 165.995C238.439 165.249 239.82 164.876 241.401 164.876C242.361 164.876 243.292 165.034 244.193 165.352C245.094 165.67 245.903 166.168 246.619 166.848C247.336 167.527 247.901 168.41 248.315 169.496C248.728 170.574 248.935 171.885 248.935 173.429V174.603H235.407V172.122H245.689C245.689 171.25 245.511 170.478 245.157 169.806C244.802 169.126 244.304 168.591 243.661 168.199C243.026 167.808 242.28 167.612 241.423 167.612C240.492 167.612 239.68 167.841 238.986 168.299C238.299 168.75 237.767 169.341 237.39 170.072C237.021 170.796 236.836 171.582 236.836 172.432V174.371C236.836 175.508 237.036 176.476 237.434 177.274C237.841 178.071 238.406 178.681 239.13 179.102C239.853 179.515 240.699 179.722 241.667 179.722C242.295 179.722 242.867 179.634 243.384 179.456C243.901 179.272 244.348 178.998 244.725 178.636C245.102 178.274 245.39 177.828 245.589 177.296L248.725 177.861C248.473 178.784 248.023 179.593 247.373 180.287C246.73 180.974 245.921 181.51 244.946 181.894C243.979 182.271 242.875 182.459 241.634 182.459Z" fill="black"/>
<path d="M259.779 182.459C258.132 182.459 256.714 182.086 255.525 181.34C254.343 180.586 253.434 179.549 252.799 178.226C252.164 176.904 251.846 175.39 251.846 173.684C251.846 171.955 252.171 170.43 252.821 169.108C253.471 167.778 254.387 166.741 255.569 165.995C256.751 165.249 258.143 164.876 259.746 164.876C261.038 164.876 262.191 165.116 263.203 165.596C264.215 166.069 265.031 166.733 265.651 167.59C266.279 168.447 266.652 169.448 266.77 170.593H263.546C263.369 169.795 262.963 169.108 262.327 168.532C261.7 167.956 260.858 167.668 259.801 167.668C258.878 167.668 258.069 167.911 257.375 168.399C256.688 168.879 256.152 169.566 255.768 170.46C255.384 171.346 255.192 172.395 255.192 173.606C255.192 174.847 255.381 175.918 255.757 176.819C256.134 177.721 256.666 178.419 257.353 178.913C258.047 179.408 258.863 179.656 259.801 179.656C260.429 179.656 260.998 179.541 261.508 179.312C262.025 179.076 262.457 178.74 262.804 178.304C263.158 177.868 263.406 177.344 263.546 176.731H266.77C266.652 177.831 266.294 178.814 265.696 179.678C265.097 180.542 264.296 181.222 263.291 181.717C262.294 182.211 261.123 182.459 259.779 182.459Z" fill="black"/>
<path d="M273.626 172.011V182.115H270.313V159.424H273.581V167.867H273.792C274.191 166.951 274.8 166.224 275.62 165.684C276.44 165.145 277.511 164.876 278.833 164.876C280 164.876 281.02 165.116 281.891 165.596C282.77 166.076 283.45 166.792 283.93 167.745C284.417 168.691 284.661 169.872 284.661 171.291V182.115H281.348V171.69C281.348 170.441 281.027 169.474 280.384 168.787C279.742 168.092 278.848 167.745 277.703 167.745C276.92 167.745 276.218 167.911 275.598 168.244C274.985 168.576 274.501 169.064 274.147 169.706C273.799 170.342 273.626 171.11 273.626 172.011Z" fill="black"/>
<path d="M292.395 172.011V182.115H289.082V165.097H292.262V167.867H292.472C292.864 166.966 293.477 166.242 294.311 165.695C295.153 165.149 296.213 164.876 297.491 164.876C298.651 164.876 299.666 165.119 300.538 165.607C301.41 166.087 302.085 166.803 302.566 167.756C303.046 168.709 303.286 169.887 303.286 171.291V182.115H299.973V171.69C299.973 170.456 299.652 169.492 299.009 168.798C298.366 168.096 297.484 167.745 296.361 167.745C295.593 167.745 294.91 167.911 294.311 168.244C293.72 168.576 293.251 169.064 292.904 169.706C292.564 170.342 292.395 171.11 292.395 172.011Z" fill="black"/>
<path d="M314.897 182.459C313.302 182.459 311.909 182.093 310.72 181.362C309.531 180.631 308.608 179.608 307.95 178.293C307.293 176.978 306.964 175.442 306.964 173.684C306.964 171.919 307.293 170.375 307.95 169.053C308.608 167.73 309.531 166.704 310.72 165.972C311.909 165.241 313.302 164.876 314.897 164.876C316.493 164.876 317.885 165.241 319.074 165.972C320.263 166.704 321.187 167.73 321.844 169.053C322.501 170.375 322.83 171.919 322.83 173.684C322.83 175.442 322.501 176.978 321.844 178.293C321.187 179.608 320.263 180.631 319.074 181.362C317.885 182.093 316.493 182.459 314.897 182.459ZM314.908 179.678C315.942 179.678 316.799 179.405 317.479 178.858C318.158 178.311 318.66 177.584 318.985 176.675C319.318 175.767 319.484 174.766 319.484 173.673C319.484 172.587 319.318 171.59 318.985 170.681C318.66 169.765 318.158 169.03 317.479 168.476C316.799 167.922 315.942 167.645 314.908 167.645C313.867 167.645 313.002 167.922 312.316 168.476C311.636 169.03 311.13 169.765 310.798 170.681C310.473 171.59 310.31 172.587 310.31 173.673C310.31 174.766 310.473 175.767 310.798 176.675C311.13 177.584 311.636 178.311 312.316 178.858C313.002 179.405 313.867 179.678 314.908 179.678Z" fill="black"/>
<path d="M329.841 159.424V182.115H326.528V159.424H329.841Z" fill="black"/>
<path d="M341.466 182.459C339.87 182.459 338.478 182.093 337.289 181.362C336.1 180.631 335.176 179.608 334.519 178.293C333.862 176.978 333.533 175.442 333.533 173.684C333.533 171.919 333.862 170.375 334.519 169.053C335.176 167.73 336.1 166.704 337.289 165.972C338.478 165.241 339.87 164.876 341.466 164.876C343.061 164.876 344.454 165.241 345.643 165.972C346.832 166.704 347.755 167.73 348.413 169.053C349.07 170.375 349.399 171.919 349.399 173.684C349.399 175.442 349.07 176.978 348.413 178.293C347.755 179.608 346.832 180.631 345.643 181.362C344.454 182.093 343.061 182.459 341.466 182.459ZM341.477 179.678C342.511 179.678 343.368 179.405 344.047 178.858C344.727 178.311 345.229 177.584 345.554 176.675C345.887 175.767 346.053 174.766 346.053 173.673C346.053 172.587 345.887 171.59 345.554 170.681C345.229 169.765 344.727 169.03 344.047 168.476C343.368 167.922 342.511 167.645 341.477 167.645C340.435 167.645 339.571 167.922 338.884 168.476C338.205 169.03 337.699 169.765 337.366 170.681C337.041 171.59 336.879 172.587 336.879 173.673C336.879 174.766 337.041 175.767 337.366 176.675C337.699 177.584 338.205 178.311 338.884 178.858C339.571 179.405 340.435 179.678 341.477 179.678Z" fill="black"/>
<path d="M360.232 188.852C358.88 188.852 357.717 188.674 356.742 188.32C355.774 187.965 354.984 187.496 354.371 186.913C353.758 186.329 353.3 185.69 352.997 184.996L355.844 183.822C356.044 184.147 356.31 184.49 356.642 184.852C356.982 185.221 357.44 185.535 358.016 185.794C358.599 186.052 359.349 186.182 360.265 186.182C361.521 186.182 362.559 185.875 363.378 185.262C364.198 184.656 364.608 183.689 364.608 182.359V179.013H364.398C364.198 179.375 363.91 179.778 363.534 180.221C363.164 180.664 362.655 181.048 362.005 181.373C361.355 181.698 360.509 181.861 359.467 181.861C358.123 181.861 356.912 181.547 355.833 180.919C354.762 180.284 353.913 179.349 353.285 178.116C352.664 176.875 352.354 175.349 352.354 173.54C352.354 171.73 352.661 170.179 353.274 168.886C353.894 167.594 354.744 166.604 355.822 165.917C356.901 165.223 358.123 164.876 359.489 164.876C360.546 164.876 361.399 165.053 362.049 165.407C362.699 165.755 363.205 166.161 363.567 166.626C363.936 167.092 364.22 167.501 364.42 167.856H364.664V165.097H367.91V182.492C367.91 183.955 367.57 185.155 366.891 186.093C366.211 187.031 365.291 187.725 364.132 188.176C362.98 188.626 361.68 188.852 360.232 188.852ZM360.199 179.113C361.151 179.113 361.957 178.891 362.614 178.448C363.279 177.997 363.781 177.355 364.121 176.52C364.468 175.678 364.641 174.67 364.641 173.496C364.641 172.351 364.472 171.342 364.132 170.471C363.792 169.599 363.293 168.92 362.636 168.432C361.979 167.937 361.166 167.69 360.199 167.69C359.201 167.69 358.37 167.948 357.706 168.465C357.041 168.975 356.539 169.669 356.199 170.548C355.866 171.427 355.7 172.41 355.7 173.496C355.7 174.611 355.87 175.59 356.21 176.432C356.55 177.274 357.052 177.931 357.717 178.404C358.389 178.876 359.216 179.113 360.199 179.113Z" fill="black"/>
<path d="M372.353 182.115V165.097H375.666V182.115H372.353ZM374.026 162.471C373.45 162.471 372.955 162.279 372.541 161.895C372.135 161.504 371.932 161.038 371.932 160.499C371.932 159.953 372.135 159.487 372.541 159.103C372.955 158.712 373.45 158.516 374.026 158.516C374.602 158.516 375.093 158.712 375.499 159.103C375.913 159.487 376.12 159.953 376.12 160.499C376.12 161.038 375.913 161.504 375.499 161.895C375.093 162.279 374.602 162.471 374.026 162.471Z" fill="black"/>
<path d="M387.457 182.459C385.78 182.459 384.336 182.101 383.125 181.384C381.921 180.66 380.99 179.645 380.333 178.337C379.683 177.022 379.358 175.482 379.358 173.717C379.358 171.974 379.683 170.438 380.333 169.108C380.99 167.778 381.906 166.741 383.081 165.995C384.262 165.249 385.644 164.876 387.224 164.876C388.185 164.876 389.115 165.034 390.016 165.352C390.918 165.67 391.726 166.168 392.443 166.848C393.159 167.527 393.724 168.41 394.138 169.496C394.552 170.574 394.758 171.885 394.758 173.429V174.603H381.23V172.122H391.512C391.512 171.25 391.335 170.478 390.98 169.806C390.626 169.126 390.127 168.591 389.485 168.199C388.849 167.808 388.103 167.612 387.247 167.612C386.316 167.612 385.503 167.841 384.809 168.299C384.122 168.75 383.59 169.341 383.214 170.072C382.844 170.796 382.66 171.582 382.66 172.432V174.371C382.66 175.508 382.859 176.476 383.258 177.274C383.664 178.071 384.229 178.681 384.953 179.102C385.677 179.515 386.523 179.722 387.49 179.722C388.118 179.722 388.691 179.634 389.208 179.456C389.725 179.272 390.172 178.998 390.548 178.636C390.925 178.274 391.213 177.828 391.412 177.296L394.548 177.861C394.297 178.784 393.846 179.593 393.196 180.287C392.554 180.974 391.745 181.51 390.77 181.894C389.802 182.271 388.698 182.459 387.457 182.459Z" fill="black"/>
<path d="M411.187 169.252L408.184 169.784C408.059 169.4 407.859 169.034 407.586 168.687C407.32 168.34 406.958 168.055 406.5 167.834C406.042 167.612 405.47 167.501 404.783 167.501C403.845 167.501 403.062 167.712 402.434 168.133C401.806 168.547 401.492 169.082 401.492 169.74C401.492 170.308 401.703 170.766 402.124 171.113C402.545 171.461 403.224 171.745 404.162 171.967L406.866 172.587C408.432 172.949 409.599 173.507 410.367 174.26C411.135 175.013 411.519 175.992 411.519 177.196C411.519 178.215 411.224 179.124 410.633 179.922C410.049 180.712 409.233 181.332 408.184 181.783C407.143 182.234 405.935 182.459 404.561 182.459C402.655 182.459 401.101 182.053 399.897 181.24C398.693 180.42 397.954 179.257 397.681 177.75L400.883 177.263C401.082 178.097 401.492 178.729 402.113 179.157C402.733 179.578 403.542 179.789 404.539 179.789C405.625 179.789 406.493 179.563 407.143 179.113C407.793 178.655 408.118 178.097 408.118 177.44C408.118 176.908 407.918 176.461 407.519 176.099C407.128 175.737 406.526 175.464 405.713 175.279L402.833 174.648C401.245 174.286 400.07 173.71 399.309 172.919C398.556 172.129 398.179 171.128 398.179 169.917C398.179 168.912 398.46 168.033 399.021 167.28C399.583 166.526 400.358 165.939 401.348 165.518C402.338 165.09 403.472 164.876 404.749 164.876C406.589 164.876 408.036 165.274 409.093 166.072C410.149 166.863 410.847 167.922 411.187 169.252Z" fill="black"/>
<path d="M431.518 165.097V167.756H421.901V165.097H431.518ZM424.538 182.115V163.125C424.538 162.061 424.77 161.179 425.236 160.477C425.701 159.768 426.318 159.24 427.086 158.893C427.854 158.538 428.689 158.361 429.59 158.361C430.255 158.361 430.823 158.416 431.296 158.527C431.769 158.63 432.12 158.726 432.349 158.815L431.573 161.496C431.418 161.452 431.218 161.4 430.975 161.341C430.731 161.275 430.436 161.242 430.088 161.242C429.283 161.242 428.707 161.441 428.36 161.84C428.02 162.239 427.85 162.815 427.85 163.568V182.115H424.538Z" fill="black"/>
<path d="M441.434 182.459C439.838 182.459 438.446 182.093 437.257 181.362C436.068 180.631 435.144 179.608 434.487 178.293C433.83 176.978 433.501 175.442 433.501 173.684C433.501 171.919 433.83 170.375 434.487 169.053C435.144 167.73 436.068 166.704 437.257 165.972C438.446 165.241 439.838 164.876 441.434 164.876C443.029 164.876 444.422 165.241 445.611 165.972C446.8 166.704 447.723 167.73 448.381 169.053C449.038 170.375 449.367 171.919 449.367 173.684C449.367 175.442 449.038 176.978 448.381 178.293C447.723 179.608 446.8 180.631 445.611 181.362C444.422 182.093 443.029 182.459 441.434 182.459ZM441.445 179.678C442.479 179.678 443.336 179.405 444.015 178.858C444.695 178.311 445.197 177.584 445.522 176.675C445.855 175.767 446.021 174.766 446.021 173.673C446.021 172.587 445.855 171.59 445.522 170.681C445.197 169.765 444.695 169.03 444.015 168.476C443.336 167.922 442.479 167.645 441.445 167.645C440.403 167.645 439.539 167.922 438.852 168.476C438.173 169.03 437.667 169.765 437.334 170.681C437.009 171.59 436.847 172.587 436.847 173.673C436.847 174.766 437.009 175.767 437.334 176.675C437.667 177.584 438.173 178.311 438.852 178.858C439.539 179.405 440.403 179.678 441.445 179.678Z" fill="black"/>
<path d="M453.065 182.115V165.097H456.267V167.801H456.444C456.754 166.885 457.301 166.165 458.084 165.64C458.874 165.108 459.768 164.842 460.765 164.842C460.972 164.842 461.215 164.85 461.496 164.865C461.784 164.879 462.009 164.898 462.172 164.92V168.089C462.039 168.052 461.803 168.011 461.463 167.967C461.123 167.915 460.783 167.889 460.444 167.889C459.661 167.889 458.963 168.055 458.35 168.388C457.744 168.713 457.264 169.167 456.909 169.751C456.555 170.327 456.377 170.984 456.377 171.723V182.115H453.065Z" fill="black"/>
<path d="M473.562 182.115V159.424H481.871C483.482 159.424 484.815 159.69 485.871 160.222C486.927 160.747 487.718 161.459 488.242 162.361C488.767 163.254 489.029 164.263 489.029 165.385C489.029 166.331 488.855 167.128 488.508 167.778C488.161 168.421 487.696 168.938 487.112 169.33C486.536 169.714 485.901 169.994 485.206 170.172V170.393C485.96 170.43 486.695 170.674 487.411 171.124C488.135 171.568 488.733 172.199 489.206 173.019C489.679 173.839 489.915 174.836 489.915 176.011C489.915 177.17 489.642 178.212 489.095 179.135C488.556 180.051 487.721 180.778 486.591 181.318C485.461 181.849 484.017 182.115 482.259 182.115H473.562ZM476.985 179.179H481.927C483.567 179.179 484.741 178.862 485.45 178.226C486.159 177.591 486.514 176.797 486.514 175.844C486.514 175.128 486.333 174.471 485.971 173.872C485.609 173.274 485.092 172.797 484.42 172.443C483.755 172.088 482.965 171.911 482.049 171.911H476.985V179.179ZM476.985 169.241H481.572C482.34 169.241 483.031 169.093 483.644 168.798C484.265 168.502 484.756 168.089 485.118 167.557C485.487 167.018 485.672 166.382 485.672 165.651C485.672 164.713 485.343 163.926 484.686 163.291C484.028 162.656 483.02 162.338 481.661 162.338H476.985V169.241Z" fill="black"/>
<path d="M501.045 182.459C499.368 182.459 497.924 182.101 496.712 181.384C495.508 180.66 494.578 179.645 493.92 178.337C493.27 177.022 492.945 175.482 492.945 173.717C492.945 171.974 493.27 170.438 493.92 169.108C494.578 167.778 495.494 166.741 496.668 165.995C497.85 165.249 499.231 164.876 500.812 164.876C501.772 164.876 502.703 165.034 503.604 165.352C504.505 165.67 505.314 166.168 506.03 166.848C506.747 167.527 507.312 168.41 507.726 169.496C508.139 170.574 508.346 171.885 508.346 173.429V174.603H494.818V172.122H505.1C505.1 171.25 504.922 170.478 504.568 169.806C504.213 169.126 503.715 168.591 503.072 168.199C502.437 167.808 501.691 167.612 500.834 167.612C499.903 167.612 499.091 167.841 498.397 168.299C497.71 168.75 497.178 169.341 496.801 170.072C496.432 170.796 496.247 171.582 496.247 172.432V174.371C496.247 175.508 496.447 176.476 496.845 177.274C497.252 178.071 497.817 178.681 498.541 179.102C499.264 179.515 500.11 179.722 501.078 179.722C501.706 179.722 502.278 179.634 502.795 179.456C503.312 179.272 503.759 178.998 504.136 178.636C504.512 178.274 504.801 177.828 505 177.296L508.135 177.861C507.884 178.784 507.434 179.593 506.784 180.287C506.141 180.974 505.332 181.51 504.357 181.894C503.39 182.271 502.285 182.459 501.045 182.459Z" fill="black"/>
<path d="M519.966 165.097V167.756H510.67V165.097H519.966ZM513.163 161.02H516.476V177.119C516.476 177.761 516.572 178.245 516.764 178.57C516.956 178.888 517.203 179.105 517.506 179.224C517.816 179.334 518.152 179.39 518.514 179.39C518.78 179.39 519.013 179.371 519.212 179.334C519.412 179.297 519.567 179.268 519.678 179.246L520.276 181.982C520.084 182.056 519.811 182.13 519.456 182.204C519.101 182.285 518.658 182.33 518.126 182.337C517.255 182.352 516.442 182.197 515.689 181.872C514.936 181.547 514.326 181.044 513.861 180.365C513.395 179.685 513.163 178.832 513.163 177.805V161.02Z" fill="black"/>
<path d="M531.574 165.097V167.756H522.279V165.097H531.574ZM524.771 161.02H528.084V177.119C528.084 177.761 528.18 178.245 528.372 178.57C528.564 178.888 528.812 179.105 529.115 179.224C529.425 179.334 529.761 179.39 530.123 179.39C530.389 179.39 530.621 179.371 530.821 179.334C531.02 179.297 531.175 179.268 531.286 179.246L531.884 181.982C531.692 182.056 531.419 182.13 531.065 182.204C530.71 182.285 530.267 182.33 529.735 182.337C528.863 182.352 528.051 182.197 527.298 181.872C526.544 181.547 525.935 181.044 525.469 180.365C525.004 179.685 524.771 178.832 524.771 177.805V161.02Z" fill="black"/>
<path d="M542.391 182.459C540.714 182.459 539.27 182.101 538.059 181.384C536.855 180.66 535.924 179.645 535.267 178.337C534.617 177.022 534.292 175.482 534.292 173.717C534.292 171.974 534.617 170.438 535.267 169.108C535.924 167.778 536.84 166.741 538.014 165.995C539.196 165.249 540.577 164.876 542.158 164.876C543.118 164.876 544.049 165.034 544.95 165.352C545.851 165.67 546.66 166.168 547.376 166.848C548.093 167.527 548.658 168.41 549.072 169.496C549.485 170.574 549.692 171.885 549.692 173.429V174.603H536.164V172.122H546.446C546.446 171.25 546.268 170.478 545.914 169.806C545.559 169.126 545.061 168.591 544.418 168.199C543.783 167.808 543.037 167.612 542.18 167.612C541.249 167.612 540.437 167.841 539.743 168.299C539.056 168.75 538.524 169.341 538.147 170.072C537.778 170.796 537.593 171.582 537.593 172.432V174.371C537.593 175.508 537.793 176.476 538.191 177.274C538.598 178.071 539.163 178.681 539.887 179.102C540.611 179.515 541.456 179.722 542.424 179.722C543.052 179.722 543.624 179.634 544.141 179.456C544.658 179.272 545.105 178.998 545.482 178.636C545.859 178.274 546.147 177.828 546.346 177.296L549.482 177.861C549.23 178.784 548.78 179.593 548.13 180.287C547.487 180.974 546.678 181.51 545.703 181.894C544.736 182.271 543.632 182.459 542.391 182.459Z" fill="black"/>
<path d="M553.368 182.115V165.097H556.57V167.801H556.747C557.057 166.885 557.604 166.165 558.387 165.64C559.177 165.108 560.071 164.842 561.068 164.842C561.275 164.842 561.519 164.85 561.799 164.865C562.087 164.879 562.313 164.898 562.475 164.92V168.089C562.342 168.052 562.106 168.011 561.766 167.967C561.426 167.915 561.086 167.889 560.747 167.889C559.964 167.889 559.266 168.055 558.653 168.388C558.047 168.713 557.567 169.167 557.212 169.751C556.858 170.327 556.68 170.984 556.68 171.723V182.115H553.368Z" fill="black"/>
<path d="M581.211 182.115H573.865V159.424H581.443C583.667 159.424 585.576 159.879 587.171 160.787C588.767 161.688 589.989 162.985 590.839 164.676C591.696 166.36 592.124 168.38 592.124 170.737C592.124 173.1 591.692 175.132 590.828 176.83C589.971 178.529 588.73 179.837 587.105 180.753C585.48 181.661 583.515 182.115 581.211 182.115ZM577.288 179.124H581.022C582.751 179.124 584.187 178.799 585.332 178.149C586.477 177.492 587.334 176.542 587.903 175.301C588.471 174.053 588.756 172.532 588.756 170.737C588.756 168.957 588.471 167.446 587.903 166.205C587.341 164.964 586.503 164.022 585.388 163.38C584.272 162.737 582.887 162.416 581.233 162.416H577.288V179.124Z" fill="black"/>
<path d="M603.45 182.459C601.773 182.459 600.329 182.101 599.118 181.384C597.914 180.66 596.983 179.645 596.326 178.337C595.676 177.022 595.351 175.482 595.351 173.717C595.351 171.974 595.676 170.438 596.326 169.108C596.983 167.778 597.899 166.741 599.074 165.995C600.255 165.249 601.637 164.876 603.217 164.876C604.178 164.876 605.108 165.034 606.009 165.352C606.911 165.67 607.719 166.168 608.436 166.848C609.152 167.527 609.717 168.41 610.131 169.496C610.545 170.574 610.751 171.885 610.751 173.429V174.603H597.223V172.122H607.505C607.505 171.25 607.328 170.478 606.973 169.806C606.619 169.126 606.12 168.591 605.478 168.199C604.842 167.808 604.096 167.612 603.24 167.612C602.309 167.612 601.496 167.841 600.802 168.299C600.115 168.75 599.583 169.341 599.207 170.072C598.837 170.796 598.653 171.582 598.653 172.432V174.371C598.653 175.508 598.852 176.476 599.251 177.274C599.657 178.071 600.222 178.681 600.946 179.102C601.67 179.515 602.516 179.722 603.483 179.722C604.111 179.722 604.684 179.634 605.201 179.456C605.718 179.272 606.164 178.998 606.541 178.636C606.918 178.274 607.206 177.828 607.405 177.296L610.541 177.861C610.29 178.784 609.839 179.593 609.189 180.287C608.547 180.974 607.738 181.51 606.763 181.894C605.795 182.271 604.691 182.459 603.45 182.459Z" fill="black"/>
<path d="M628.498 165.097L622.327 182.115H618.781L612.599 165.097H616.155L620.465 178.193H620.643L624.942 165.097H628.498Z" fill="black"/>
<path d="M638.367 182.459C636.69 182.459 635.246 182.101 634.035 181.384C632.831 180.66 631.9 179.645 631.243 178.337C630.593 177.022 630.268 175.482 630.268 173.717C630.268 171.974 630.593 170.438 631.243 169.108C631.9 167.778 632.816 166.741 633.991 165.995C635.173 165.249 636.554 164.876 638.135 164.876C639.095 164.876 640.025 165.034 640.927 165.352C641.828 165.67 642.636 166.168 643.353 166.848C644.069 167.527 644.635 168.41 645.048 169.496C645.462 170.574 645.669 171.885 645.669 173.429V174.603H632.141V172.122H642.422C642.422 171.25 642.245 170.478 641.891 169.806C641.536 169.126 641.037 168.591 640.395 168.199C639.76 167.808 639.013 167.612 638.157 167.612C637.226 167.612 636.414 167.841 635.719 168.299C635.032 168.75 634.5 169.341 634.124 170.072C633.754 170.796 633.57 171.582 633.57 172.432V174.371C633.57 175.508 633.769 176.476 634.168 177.274C634.574 178.071 635.139 178.681 635.863 179.102C636.587 179.515 637.433 179.722 638.4 179.722C639.028 179.722 639.601 179.634 640.118 179.456C640.635 179.272 641.082 178.998 641.458 178.636C641.835 178.274 642.123 177.828 642.323 177.296L645.458 177.861C645.207 178.784 644.756 179.593 644.106 180.287C643.464 180.974 642.655 181.51 641.68 181.894C640.712 182.271 639.608 182.459 638.367 182.459Z" fill="black"/>
<path d="M652.657 159.424V182.115H649.344V159.424H652.657Z" fill="black"/>
<path d="M664.282 182.459C662.687 182.459 661.294 182.093 660.105 181.362C658.916 180.631 657.993 179.608 657.335 178.293C656.678 176.978 656.349 175.442 656.349 173.684C656.349 171.919 656.678 170.375 657.335 169.053C657.993 167.73 658.916 166.704 660.105 165.972C661.294 165.241 662.687 164.876 664.282 164.876C665.878 164.876 667.27 165.241 668.459 165.972C669.648 166.704 670.572 167.73 671.229 169.053C671.887 170.375 672.215 171.919 672.215 173.684C672.215 175.442 671.887 176.978 671.229 178.293C670.572 179.608 669.648 180.631 668.459 181.362C667.27 182.093 665.878 182.459 664.282 182.459ZM664.293 179.678C665.327 179.678 666.184 179.405 666.864 178.858C667.543 178.311 668.046 177.584 668.371 176.675C668.703 175.767 668.869 174.766 668.869 173.673C668.869 172.587 668.703 171.59 668.371 170.681C668.046 169.765 667.543 169.03 666.864 168.476C666.184 167.922 665.327 167.645 664.293 167.645C663.252 167.645 662.388 167.922 661.701 168.476C661.021 169.03 660.515 169.765 660.183 170.681C659.858 171.59 659.695 172.587 659.695 173.673C659.695 174.766 659.858 175.767 660.183 176.675C660.515 177.584 661.021 178.311 661.701 178.858C662.388 179.405 663.252 179.678 664.293 179.678Z" fill="black"/>
<path d="M675.913 188.497V165.097H679.148V167.856H679.425C679.617 167.501 679.894 167.092 680.256 166.626C680.618 166.161 681.12 165.755 681.763 165.407C682.406 165.053 683.255 164.876 684.311 164.876C685.685 164.876 686.911 165.223 687.99 165.917C689.068 166.611 689.914 167.612 690.527 168.92C691.147 170.227 691.458 171.8 691.458 173.64C691.458 175.479 691.151 177.056 690.538 178.371C689.925 179.678 689.083 180.686 688.012 181.395C686.941 182.097 685.718 182.448 684.344 182.448C683.31 182.448 682.465 182.274 681.807 181.927C681.157 181.58 680.648 181.174 680.278 180.708C679.909 180.243 679.625 179.829 679.425 179.467H679.226V188.497H675.913ZM679.159 173.606C679.159 174.803 679.333 175.852 679.68 176.753C680.027 177.654 680.529 178.359 681.187 178.869C681.844 179.371 682.649 179.622 683.602 179.622C684.592 179.622 685.419 179.36 686.084 178.836C686.749 178.304 687.251 177.584 687.591 176.675C687.938 175.767 688.112 174.744 688.112 173.606C688.112 172.484 687.942 171.475 687.602 170.582C687.269 169.688 686.767 168.982 686.095 168.465C685.43 167.948 684.599 167.69 683.602 167.69C682.642 167.69 681.829 167.937 681.165 168.432C680.507 168.927 680.009 169.618 679.669 170.504C679.329 171.39 679.159 172.424 679.159 173.606Z" fill="black"/>
<path d="M695.169 182.115V165.097H698.349V167.867H698.56C698.914 166.929 699.494 166.198 700.299 165.673C701.104 165.142 702.068 164.876 703.191 164.876C704.328 164.876 705.281 165.142 706.049 165.673C706.825 166.205 707.397 166.936 707.767 167.867H707.944C708.35 166.959 708.997 166.235 709.883 165.695C710.769 165.149 711.826 164.876 713.052 164.876C714.595 164.876 715.855 165.359 716.83 166.327C717.812 167.295 718.303 168.753 718.303 170.703V182.115H714.991V171.014C714.991 169.861 714.677 169.027 714.049 168.51C713.421 167.993 712.671 167.734 711.8 167.734C710.721 167.734 709.883 168.067 709.285 168.731C708.686 169.389 708.387 170.234 708.387 171.269V182.115H705.085V170.803C705.085 169.88 704.797 169.138 704.221 168.576C703.645 168.015 702.895 167.734 701.972 167.734C701.344 167.734 700.764 167.9 700.233 168.233C699.708 168.558 699.283 169.012 698.958 169.595C698.641 170.179 698.482 170.855 698.482 171.623V182.115H695.169Z" fill="black"/>
<path d="M730.078 182.459C728.401 182.459 726.957 182.101 725.746 181.384C724.542 180.66 723.611 179.645 722.954 178.337C722.304 177.022 721.979 175.482 721.979 173.717C721.979 171.974 722.304 170.438 722.954 169.108C723.611 167.778 724.527 166.741 725.702 165.995C726.884 165.249 728.265 164.876 729.845 164.876C730.806 164.876 731.736 165.034 732.638 165.352C733.539 165.67 734.347 166.168 735.064 166.848C735.78 167.527 736.345 168.41 736.759 169.496C737.173 170.574 737.38 171.885 737.38 173.429V174.603H723.851V172.122H734.133C734.133 171.25 733.956 170.478 733.601 169.806C733.247 169.126 732.748 168.591 732.106 168.199C731.47 167.808 730.724 167.612 729.868 167.612C728.937 167.612 728.124 167.841 727.43 168.299C726.743 168.75 726.211 169.341 725.835 170.072C725.465 170.796 725.281 171.582 725.281 172.432V174.371C725.281 175.508 725.48 176.476 725.879 177.274C726.285 178.071 726.85 178.681 727.574 179.102C728.298 179.515 729.144 179.722 730.111 179.722C730.739 179.722 731.312 179.634 731.829 179.456C732.346 179.272 732.793 178.998 733.169 178.636C733.546 178.274 733.834 177.828 734.034 177.296L737.169 177.861C736.918 178.784 736.467 179.593 735.817 180.287C735.175 180.974 734.366 181.51 733.391 181.894C732.423 182.271 731.319 182.459 730.078 182.459Z" fill="black"/>
<path d="M744.368 172.011V182.115H741.055V165.097H744.235V167.867H744.445C744.837 166.966 745.45 166.242 746.285 165.695C747.127 165.149 748.187 164.876 749.465 164.876C750.624 164.876 751.64 165.119 752.511 165.607C753.383 166.087 754.059 166.803 754.539 167.756C755.019 168.709 755.259 169.887 755.259 171.291V182.115H751.946V171.69C751.946 170.456 751.625 169.492 750.982 168.798C750.34 168.096 749.457 167.745 748.334 167.745C747.566 167.745 746.883 167.911 746.285 168.244C745.694 168.576 745.225 169.064 744.878 169.706C744.538 170.342 744.368 171.11 744.368 172.011Z" fill="black"/>
<path d="M767.646 165.097V167.756H758.35V165.097H767.646ZM760.843 161.02H764.156V177.119C764.156 177.761 764.252 178.245 764.444 178.57C764.636 178.888 764.884 179.105 765.186 179.224C765.497 179.334 765.833 179.39 766.195 179.39C766.461 179.39 766.693 179.371 766.893 179.334C767.092 179.297 767.247 179.268 767.358 179.246L767.956 181.982C767.764 182.056 767.491 182.13 767.136 182.204C766.782 182.285 766.339 182.33 765.807 182.337C764.935 182.352 764.123 182.197 763.369 181.872C762.616 181.547 762.007 181.044 761.541 180.365C761.076 179.685 760.843 178.832 760.843 177.805V161.02Z" fill="black"/>
</svg>
