<svg width="769" height="190" viewBox="0 0 769 190" fill="none" xmlns="http://www.w3.org/2000/svg">
<path d="M559.856 69.8172V115.854H536.838V69.8172C536.838 65.5717 535.329 61.9655 532.311 58.9987C529.344 55.9807 525.738 54.4718 521.493 54.4718C517.247 54.4718 513.615 55.9807 510.597 58.9987C507.631 61.9655 506.147 65.5717 506.147 69.8172V115.854H483.129V69.8172C483.129 65.5717 481.62 61.9655 478.602 58.9987C475.635 55.9807 472.029 54.4718 467.784 54.4718C463.538 54.4718 459.906 55.9807 456.888 58.9987C453.922 61.9655 452.438 65.5717 452.438 69.8172V115.854H429.42V69.8172C429.42 59.2289 433.154 50.2006 440.622 42.7325C448.141 35.2132 457.195 31.4536 467.784 31.4536C478.27 31.4536 487.221 35.1109 494.638 42.4256C502.055 35.1109 511.007 31.4536 521.493 31.4536C532.081 31.4536 541.109 35.2132 548.577 42.7325C556.097 50.2006 559.856 59.2289 559.856 69.8172Z" fill="#141B4D"/>
<path d="M590.874 115.845H567.856V31.4453H590.874V115.845ZM579.365 23.7726C576.194 23.7726 573.483 22.6472 571.232 20.3966C568.982 18.1459 567.856 15.4349 567.856 12.2635C567.856 9.09208 568.982 6.38106 571.232 4.13039C573.483 1.87972 576.194 0.754395 579.365 0.754395C582.537 0.754395 585.248 1.87972 587.498 4.13039C589.749 6.38106 590.874 9.09208 590.874 12.2635C590.874 15.4349 589.749 18.1459 587.498 20.3966C585.248 22.6472 582.537 23.7726 579.365 23.7726Z" fill="#141B4D"/>
<path d="M675.602 69.8172V115.854H652.584V69.8172C652.584 65.5717 651.075 61.9655 648.057 58.9987C645.09 55.9807 641.484 54.4718 637.238 54.4718C632.993 54.4718 629.361 55.9807 626.343 58.9987C623.376 61.9655 621.893 65.5717 621.893 69.8172V115.854H598.874V69.8172C598.874 59.2289 602.609 50.2006 610.077 42.7325C617.596 35.2132 626.65 31.4536 637.238 31.4536C647.826 31.4536 656.855 35.2132 664.323 42.7325C671.842 50.2006 675.602 59.2289 675.602 69.8172Z" fill="#141B4D"/>
<path d="M768.002 73.6453C768.002 85.3078 763.884 95.2568 755.648 103.492C747.413 111.727 737.464 115.845 725.802 115.845C714.139 115.845 704.19 111.727 695.955 103.492C687.719 95.2568 683.602 85.3078 683.602 73.6453C683.602 61.9827 687.719 52.0338 695.955 43.7984C704.19 35.563 714.139 31.4453 725.802 31.4453H744.983V54.4635H725.802C720.482 54.4635 715.955 56.3305 712.221 60.0646C708.487 63.7986 706.62 68.3255 706.62 73.6453C706.62 78.965 708.487 83.4919 712.221 87.226C715.955 90.9601 720.482 92.8271 725.802 92.8271C731.121 92.8271 735.648 90.9601 739.382 87.226C743.116 83.4919 744.983 78.965 744.983 73.6453V0.754395H768.002V73.6453Z" fill="#141B4D"/>
<path d="M182.055 73.6536C182.055 61.991 186.172 52.042 194.408 43.8067C202.643 35.5713 212.592 31.4536 224.255 31.4536C235.917 31.4536 245.866 35.5713 254.101 43.8067C262.337 52.042 266.455 61.991 266.455 73.6536C266.455 85.3161 262.337 95.2651 254.101 103.5C245.866 111.735 235.917 115.853 224.255 115.853H205.073V92.8354H224.255C229.574 92.8354 234.101 90.9683 237.835 87.2343C241.569 83.5002 243.436 78.9733 243.436 73.6536C243.436 68.3338 241.569 63.8069 237.835 60.0728C234.101 56.3388 229.574 54.4717 224.255 54.4717C218.935 54.4717 214.408 56.3388 210.674 60.0728C206.94 63.8069 205.073 68.3338 205.073 73.6536V138.871H182.055V73.6536Z" fill="#FF6000"/>
<path d="M316.655 92.8354C321.974 92.8354 326.501 90.9683 330.235 87.2343C333.969 83.5002 335.836 78.9733 335.836 73.6536C335.836 68.3338 333.969 63.8069 330.235 60.0728C326.501 56.3388 321.974 54.4717 316.655 54.4717C311.335 54.4717 306.808 56.3388 303.074 60.0728C299.34 63.8069 297.473 68.3338 297.473 73.6536C297.473 78.9733 299.34 83.5002 303.074 87.2343C306.808 90.9683 311.335 92.8354 316.655 92.8354ZM316.655 115.853C304.992 115.853 295.043 111.735 286.808 103.5C278.572 95.2651 274.455 85.3161 274.455 73.6536C274.455 61.991 278.572 52.042 286.808 43.8067C295.043 35.5713 304.992 31.4536 316.655 31.4536C328.317 31.4536 338.266 35.5713 346.501 43.8067C354.737 52.042 358.855 61.991 358.855 73.6536C358.855 85.3161 354.737 95.2651 346.501 103.5C338.266 111.735 328.317 115.853 316.655 115.853Z" fill="#FF6000"/>
<path d="M389.874 31.4718H409.516V54.4899H389.874V77.5081C389.874 81.7537 391.357 85.3854 394.324 88.4034C397.342 91.3702 400.973 92.8536 405.219 92.8536H420.868L420.871 115.872H405.219C394.631 115.872 385.577 112.138 378.058 104.67C370.589 97.1503 366.855 88.0965 366.855 77.5081V8.45361H389.874V31.4718Z" fill="#FF6000"/>
<path d="M131.854 31.4536H166.38L166.382 54.4718H131.854C130.78 54.4718 129.86 54.8554 129.092 55.6227C128.376 56.3388 128.018 57.234 128.018 58.3081C128.018 59.3823 128.376 60.3031 129.092 61.0703C129.86 61.7864 130.78 62.1445 131.854 62.1445H147.2C154.617 62.1445 160.934 64.7788 166.152 70.0474C171.42 75.2649 174.054 81.5821 174.054 88.999C174.054 96.416 171.42 102.759 166.152 108.028C160.934 113.245 154.617 115.854 147.2 115.854H109V92.8354H147.2C148.274 92.8354 149.169 92.4773 149.885 91.7612C150.653 90.9939 151.036 90.0732 151.036 88.999C151.036 87.9249 150.653 87.0297 149.885 86.3136C149.169 85.5463 148.274 85.1627 147.2 85.1627H131.854C124.438 85.1627 118.095 82.554 112.826 77.3365C107.609 72.0679 105 65.7251 105 58.3081C105 50.8912 107.609 44.574 112.826 39.3565C118.095 34.0879 124.438 31.4536 131.854 31.4536Z" fill="#FF6000"/>
<path fill-rule="evenodd" clip-rule="evenodd" d="M77.2805 38.4744L84.0005 52.7544L90.7204 38.4744L105 31.7544L90.7204 25.0344L84.0005 10.7544L77.2805 25.0344L63.0007 31.7544L77.2805 38.4744ZM6.39404 63.9002C2.1727 53.7089 0 42.7858 0 31.7548L41.9995 31.7548C41.9995 37.2703 43.0858 42.7318 45.1965 47.8275C47.3072 52.9232 50.4008 57.5532 54.3008 61.4533C58.2008 65.3533 62.8308 68.447 67.9264 70.5577C73.022 72.6684 78.4835 73.7548 83.9989 73.7548L83.9989 115.755C72.968 115.755 62.0452 113.582 51.8539 109.361C41.6627 105.139 32.4027 98.9519 24.6027 91.1518C16.8027 83.3517 10.6154 74.0916 6.39404 63.9002Z" fill="#FF6000"/>
<path d="M121.346 182.509H114V159.818H121.578C123.802 159.818 125.711 160.272 127.307 161.181C128.902 162.082 130.124 163.378 130.974 165.07C131.831 166.754 132.259 168.774 132.259 171.13C132.259 173.494 131.827 175.525 130.963 177.224C130.106 178.923 128.865 180.23 127.24 181.146C125.615 182.055 123.65 182.509 121.346 182.509ZM117.424 179.517H121.157C122.886 179.517 124.322 179.192 125.467 178.542C126.612 177.885 127.469 176.936 128.038 175.695C128.607 174.447 128.891 172.925 128.891 171.13C128.891 169.35 128.607 167.84 128.038 166.599C127.476 165.358 126.638 164.416 125.523 163.773C124.407 163.131 123.022 162.81 121.368 162.81H117.424V179.517Z" fill="#141B4D"/>
<path d="M136.25 182.509V165.491H139.563V182.509H136.25ZM137.924 162.865C137.347 162.865 136.852 162.673 136.439 162.289C136.033 161.897 135.829 161.432 135.829 160.893C135.829 160.346 136.033 159.881 136.439 159.497C136.852 159.105 137.347 158.91 137.924 158.91C138.5 158.91 138.991 159.105 139.397 159.497C139.811 159.881 140.018 160.346 140.018 160.893C140.018 161.432 139.811 161.897 139.397 162.289C138.991 162.673 138.5 162.865 137.924 162.865Z" fill="#141B4D"/>
<path d="M151.155 189.245C149.804 189.245 148.64 189.068 147.665 188.713C146.698 188.359 145.907 187.89 145.294 187.306C144.681 186.723 144.223 186.084 143.92 185.39L146.768 184.215C146.967 184.54 147.233 184.884 147.565 185.246C147.905 185.615 148.363 185.929 148.939 186.187C149.523 186.446 150.273 186.575 151.188 186.575C152.444 186.575 153.482 186.269 154.302 185.656C155.122 185.05 155.532 184.082 155.532 182.753V179.407H155.321C155.122 179.769 154.834 180.171 154.457 180.614C154.088 181.058 153.578 181.442 152.928 181.767C152.278 182.092 151.432 182.254 150.391 182.254C149.046 182.254 147.835 181.94 146.757 181.312C145.686 180.677 144.836 179.743 144.208 178.509C143.588 177.268 143.278 175.743 143.278 173.933C143.278 172.124 143.584 170.573 144.197 169.28C144.818 167.987 145.667 166.998 146.746 166.311C147.824 165.616 149.046 165.269 150.413 165.269C151.469 165.269 152.322 165.446 152.972 165.801C153.622 166.148 154.128 166.554 154.49 167.02C154.86 167.485 155.144 167.895 155.343 168.25H155.587V165.491H158.833V182.886C158.833 184.348 158.494 185.548 157.814 186.486C157.135 187.425 156.215 188.119 155.055 188.569C153.903 189.02 152.603 189.245 151.155 189.245ZM151.122 179.506C152.075 179.506 152.88 179.285 153.537 178.842C154.202 178.391 154.704 177.748 155.044 176.914C155.391 176.072 155.565 175.063 155.565 173.889C155.565 172.744 155.395 171.736 155.055 170.864C154.715 169.993 154.217 169.313 153.56 168.826C152.902 168.331 152.09 168.083 151.122 168.083C150.125 168.083 149.294 168.342 148.629 168.859C147.964 169.369 147.462 170.063 147.122 170.942C146.79 171.821 146.624 172.803 146.624 173.889C146.624 175.004 146.794 175.983 147.133 176.825C147.473 177.667 147.975 178.325 148.64 178.797C149.312 179.27 150.14 179.506 151.122 179.506Z" fill="#141B4D"/>
<path d="M163.276 182.509V165.491H166.589V182.509H163.276ZM164.949 162.865C164.373 162.865 163.878 162.673 163.465 162.289C163.058 161.897 162.855 161.432 162.855 160.893C162.855 160.346 163.058 159.881 163.465 159.497C163.878 159.105 164.373 158.91 164.949 158.91C165.525 158.91 166.017 159.105 166.423 159.497C166.837 159.881 167.043 160.346 167.043 160.893C167.043 161.432 166.837 161.897 166.423 162.289C166.017 162.673 165.525 162.865 164.949 162.865Z" fill="#141B4D"/>
<path d="M178.99 165.491V168.15H169.694V165.491H178.99ZM172.187 161.413H175.5V177.512C175.5 178.155 175.596 178.638 175.788 178.963C175.98 179.281 176.227 179.499 176.53 179.617C176.84 179.728 177.176 179.783 177.538 179.783C177.804 179.783 178.037 179.765 178.236 179.728C178.436 179.691 178.591 179.661 178.702 179.639L179.3 182.376C179.108 182.45 178.835 182.524 178.48 182.598C178.126 182.679 177.682 182.723 177.151 182.731C176.279 182.745 175.467 182.59 174.713 182.265C173.96 181.94 173.35 181.438 172.885 180.758C172.42 180.079 172.187 179.226 172.187 178.199V161.413Z" fill="#141B4D"/>
<path d="M187.607 182.886C186.529 182.886 185.554 182.686 184.682 182.287C183.81 181.881 183.12 181.294 182.61 180.526C182.108 179.758 181.857 178.816 181.857 177.7C181.857 176.74 182.041 175.95 182.411 175.329C182.78 174.709 183.279 174.218 183.906 173.856C184.534 173.494 185.236 173.221 186.012 173.036C186.787 172.851 187.577 172.711 188.383 172.615C189.402 172.497 190.229 172.401 190.864 172.327C191.5 172.246 191.961 172.116 192.249 171.939C192.537 171.762 192.681 171.474 192.681 171.075V170.997C192.681 170.03 192.408 169.28 191.862 168.748C191.322 168.216 190.517 167.95 189.446 167.95C188.331 167.95 187.452 168.198 186.809 168.693C186.174 169.18 185.735 169.723 185.491 170.321L182.377 169.612C182.747 168.578 183.286 167.744 183.995 167.108C184.712 166.466 185.535 166 186.466 165.712C187.396 165.417 188.375 165.269 189.402 165.269C190.081 165.269 190.802 165.35 191.562 165.513C192.331 165.668 193.047 165.956 193.712 166.377C194.384 166.798 194.934 167.4 195.363 168.183C195.791 168.959 196.005 169.967 196.005 171.208V182.509H192.77V180.182H192.637C192.423 180.611 192.102 181.032 191.673 181.445C191.245 181.859 190.694 182.202 190.022 182.476C189.35 182.749 188.545 182.886 187.607 182.886ZM188.327 180.227C189.243 180.227 190.026 180.046 190.676 179.684C191.333 179.322 191.832 178.849 192.172 178.265C192.519 177.675 192.692 177.043 192.692 176.371V174.177C192.574 174.295 192.345 174.406 192.006 174.51C191.673 174.606 191.293 174.69 190.864 174.764C190.436 174.831 190.019 174.894 189.612 174.953C189.206 175.004 188.866 175.049 188.593 175.086C187.95 175.167 187.363 175.304 186.831 175.496C186.307 175.688 185.886 175.965 185.568 176.327C185.258 176.681 185.103 177.154 185.103 177.745C185.103 178.565 185.406 179.185 186.012 179.606C186.617 180.02 187.389 180.227 188.327 180.227Z" fill="#141B4D"/>
<path d="M203.73 159.818V182.509H200.418V159.818H203.73Z" fill="#141B4D"/>
<path d="M215.591 162.765V159.818H233.152V162.765H226.072V182.509H222.66V162.765H215.591Z" fill="#141B4D"/>
<path d="M241.634 182.852C239.957 182.852 238.513 182.494 237.301 181.778C236.098 181.054 235.167 180.038 234.509 178.731C233.859 177.416 233.534 175.876 233.534 174.111C233.534 172.367 233.859 170.831 234.509 169.502C235.167 168.172 236.083 167.134 237.257 166.388C238.439 165.642 239.82 165.269 241.401 165.269C242.361 165.269 243.292 165.428 244.193 165.746C245.094 166.063 245.903 166.562 246.619 167.241C247.336 167.921 247.901 168.804 248.315 169.889C248.728 170.968 248.935 172.279 248.935 173.823V174.997H235.407V172.515H245.689C245.689 171.644 245.511 170.872 245.157 170.2C244.802 169.52 244.304 168.985 243.661 168.593C243.026 168.202 242.28 168.006 241.423 168.006C240.492 168.006 239.68 168.235 238.986 168.693C238.299 169.143 237.767 169.734 237.39 170.465C237.021 171.189 236.836 171.976 236.836 172.825V174.764C236.836 175.902 237.036 176.869 237.434 177.667C237.841 178.465 238.406 179.074 239.13 179.495C239.853 179.909 240.699 180.116 241.667 180.116C242.295 180.116 242.867 180.027 243.384 179.85C243.901 179.665 244.348 179.392 244.725 179.03C245.102 178.668 245.39 178.221 245.589 177.689L248.725 178.254C248.473 179.178 248.023 179.986 247.373 180.681C246.73 181.368 245.921 181.903 244.946 182.287C243.979 182.664 242.875 182.852 241.634 182.852Z" fill="#141B4D"/>
<path d="M259.779 182.852C258.132 182.852 256.714 182.479 255.525 181.733C254.343 180.98 253.434 179.942 252.799 178.62C252.164 177.298 251.846 175.784 251.846 174.077C251.846 172.349 252.171 170.824 252.821 169.502C253.471 168.172 254.387 167.134 255.569 166.388C256.751 165.642 258.143 165.269 259.746 165.269C261.038 165.269 262.191 165.509 263.203 165.989C264.215 166.462 265.031 167.127 265.651 167.984C266.279 168.84 266.652 169.841 266.77 170.986H263.546C263.369 170.188 262.963 169.502 262.327 168.925C261.7 168.349 260.858 168.061 259.801 168.061C258.878 168.061 258.069 168.305 257.375 168.792C256.688 169.273 256.152 169.96 255.768 170.853C255.384 171.74 255.192 172.788 255.192 174C255.192 175.241 255.381 176.312 255.757 177.213C256.134 178.114 256.666 178.812 257.353 179.307C258.047 179.802 258.863 180.049 259.801 180.049C260.429 180.049 260.998 179.935 261.508 179.706C262.025 179.469 262.457 179.133 262.804 178.698C263.158 178.262 263.406 177.737 263.546 177.124H266.77C266.652 178.225 266.294 179.207 265.696 180.071C265.097 180.936 264.296 181.615 263.291 182.11C262.294 182.605 261.123 182.852 259.779 182.852Z" fill="#141B4D"/>
<path d="M273.626 172.404V182.509H270.313V159.818H273.581V168.261H273.792C274.191 167.345 274.8 166.617 275.62 166.078C276.44 165.539 277.511 165.269 278.833 165.269C280 165.269 281.02 165.509 281.891 165.989C282.77 166.469 283.45 167.186 283.93 168.139C284.417 169.084 284.661 170.266 284.661 171.684V182.509H281.348V172.083C281.348 170.835 281.027 169.867 280.384 169.18C279.742 168.486 278.848 168.139 277.703 168.139C276.92 168.139 276.218 168.305 275.598 168.637C274.985 168.97 274.501 169.457 274.147 170.1C273.799 170.735 273.626 171.503 273.626 172.404Z" fill="#141B4D"/>
<path d="M292.395 172.404V182.509H289.082V165.491H292.262V168.261H292.472C292.864 167.36 293.477 166.636 294.311 166.089C295.153 165.542 296.213 165.269 297.491 165.269C298.651 165.269 299.666 165.513 300.538 166C301.41 166.481 302.085 167.197 302.566 168.15C303.046 169.103 303.286 170.281 303.286 171.684V182.509H299.973V172.083C299.973 170.85 299.652 169.886 299.009 169.191C298.366 168.49 297.484 168.139 296.361 168.139C295.593 168.139 294.91 168.305 294.311 168.637C293.72 168.97 293.251 169.457 292.904 170.1C292.564 170.735 292.395 171.503 292.395 172.404Z" fill="#141B4D"/>
<path d="M314.897 182.852C313.302 182.852 311.909 182.487 310.72 181.756C309.531 181.024 308.608 180.001 307.95 178.686C307.293 177.372 306.964 175.835 306.964 174.077C306.964 172.312 307.293 170.768 307.95 169.446C308.608 168.124 309.531 167.097 310.72 166.366C311.909 165.635 313.302 165.269 314.897 165.269C316.493 165.269 317.885 165.635 319.074 166.366C320.263 167.097 321.187 168.124 321.844 169.446C322.501 170.768 322.83 172.312 322.83 174.077C322.83 175.835 322.501 177.372 321.844 178.686C321.187 180.001 320.263 181.024 319.074 181.756C317.885 182.487 316.493 182.852 314.897 182.852ZM314.908 180.071C315.942 180.071 316.799 179.798 317.479 179.252C318.158 178.705 318.66 177.977 318.985 177.069C319.318 176.16 319.484 175.16 319.484 174.066C319.484 172.981 319.318 171.983 318.985 171.075C318.66 170.159 318.158 169.424 317.479 168.87C316.799 168.316 315.942 168.039 314.908 168.039C313.867 168.039 313.002 168.316 312.316 168.87C311.636 169.424 311.13 170.159 310.798 171.075C310.473 171.983 310.31 172.981 310.31 174.066C310.31 175.16 310.473 176.16 310.798 177.069C311.13 177.977 311.636 178.705 312.316 179.252C313.002 179.798 313.867 180.071 314.908 180.071Z" fill="#141B4D"/>
<path d="M329.841 159.818V182.509H326.528V159.818H329.841Z" fill="#141B4D"/>
<path d="M341.466 182.852C339.87 182.852 338.478 182.487 337.289 181.756C336.1 181.024 335.176 180.001 334.519 178.686C333.862 177.372 333.533 175.835 333.533 174.077C333.533 172.312 333.862 170.768 334.519 169.446C335.176 168.124 336.1 167.097 337.289 166.366C338.478 165.635 339.87 165.269 341.466 165.269C343.061 165.269 344.454 165.635 345.643 166.366C346.832 167.097 347.755 168.124 348.413 169.446C349.07 170.768 349.399 172.312 349.399 174.077C349.399 175.835 349.07 177.372 348.413 178.686C347.755 180.001 346.832 181.024 345.643 181.756C344.454 182.487 343.061 182.852 341.466 182.852ZM341.477 180.071C342.511 180.071 343.368 179.798 344.047 179.252C344.727 178.705 345.229 177.977 345.554 177.069C345.887 176.16 346.053 175.16 346.053 174.066C346.053 172.981 345.887 171.983 345.554 171.075C345.229 170.159 344.727 169.424 344.047 168.87C343.368 168.316 342.511 168.039 341.477 168.039C340.435 168.039 339.571 168.316 338.884 168.87C338.205 169.424 337.699 170.159 337.366 171.075C337.041 171.983 336.879 172.981 336.879 174.066C336.879 175.16 337.041 176.16 337.366 177.069C337.699 177.977 338.205 178.705 338.884 179.252C339.571 179.798 340.435 180.071 341.477 180.071Z" fill="#141B4D"/>
<path d="M360.232 189.245C358.88 189.245 357.717 189.068 356.742 188.713C355.774 188.359 354.984 187.89 354.371 187.306C353.758 186.723 353.3 186.084 352.997 185.39L355.844 184.215C356.044 184.54 356.31 184.884 356.642 185.246C356.982 185.615 357.44 185.929 358.016 186.187C358.599 186.446 359.349 186.575 360.265 186.575C361.521 186.575 362.559 186.269 363.378 185.656C364.198 185.05 364.608 184.082 364.608 182.753V179.407H364.398C364.198 179.769 363.91 180.171 363.534 180.614C363.164 181.058 362.655 181.442 362.005 181.767C361.355 182.092 360.509 182.254 359.467 182.254C358.123 182.254 356.912 181.94 355.833 181.312C354.762 180.677 353.913 179.743 353.285 178.509C352.664 177.268 352.354 175.743 352.354 173.933C352.354 172.124 352.661 170.573 353.274 169.28C353.894 167.987 354.744 166.998 355.822 166.311C356.901 165.616 358.123 165.269 359.489 165.269C360.546 165.269 361.399 165.446 362.049 165.801C362.699 166.148 363.205 166.554 363.567 167.02C363.936 167.485 364.22 167.895 364.42 168.25H364.664V165.491H367.91V182.886C367.91 184.348 367.57 185.548 366.891 186.486C366.211 187.425 365.291 188.119 364.132 188.569C362.98 189.02 361.68 189.245 360.232 189.245ZM360.199 179.506C361.151 179.506 361.957 179.285 362.614 178.842C363.279 178.391 363.781 177.748 364.121 176.914C364.468 176.072 364.641 175.063 364.641 173.889C364.641 172.744 364.472 171.736 364.132 170.864C363.792 169.993 363.293 169.313 362.636 168.826C361.979 168.331 361.166 168.083 360.199 168.083C359.201 168.083 358.37 168.342 357.706 168.859C357.041 169.369 356.539 170.063 356.199 170.942C355.866 171.821 355.7 172.803 355.7 173.889C355.7 175.004 355.87 175.983 356.21 176.825C356.55 177.667 357.052 178.325 357.717 178.797C358.389 179.27 359.216 179.506 360.199 179.506Z" fill="#141B4D"/>
<path d="M372.353 182.509V165.491H375.666V182.509H372.353ZM374.026 162.865C373.45 162.865 372.955 162.673 372.541 162.289C372.135 161.897 371.932 161.432 371.932 160.893C371.932 160.346 372.135 159.881 372.541 159.497C372.955 159.105 373.45 158.91 374.026 158.91C374.602 158.91 375.093 159.105 375.499 159.497C375.913 159.881 376.12 160.346 376.12 160.893C376.12 161.432 375.913 161.897 375.499 162.289C375.093 162.673 374.602 162.865 374.026 162.865Z" fill="#141B4D"/>
<path d="M387.457 182.852C385.78 182.852 384.336 182.494 383.125 181.778C381.921 181.054 380.99 180.038 380.333 178.731C379.683 177.416 379.358 175.876 379.358 174.111C379.358 172.367 379.683 170.831 380.333 169.502C380.99 168.172 381.906 167.134 383.081 166.388C384.262 165.642 385.644 165.269 387.224 165.269C388.185 165.269 389.115 165.428 390.016 165.746C390.918 166.063 391.726 166.562 392.443 167.241C393.159 167.921 393.724 168.804 394.138 169.889C394.552 170.968 394.758 172.279 394.758 173.823V174.997H381.23V172.515H391.512C391.512 171.644 391.335 170.872 390.98 170.2C390.626 169.52 390.127 168.985 389.485 168.593C388.849 168.202 388.103 168.006 387.247 168.006C386.316 168.006 385.503 168.235 384.809 168.693C384.122 169.143 383.59 169.734 383.214 170.465C382.844 171.189 382.66 171.976 382.66 172.825V174.764C382.66 175.902 382.859 176.869 383.258 177.667C383.664 178.465 384.229 179.074 384.953 179.495C385.677 179.909 386.523 180.116 387.49 180.116C388.118 180.116 388.691 180.027 389.208 179.85C389.725 179.665 390.172 179.392 390.548 179.03C390.925 178.668 391.213 178.221 391.412 177.689L394.548 178.254C394.297 179.178 393.846 179.986 393.196 180.681C392.554 181.368 391.745 181.903 390.77 182.287C389.802 182.664 388.698 182.852 387.457 182.852Z" fill="#141B4D"/>
<path d="M411.187 169.646L408.184 170.177C408.059 169.793 407.859 169.428 407.586 169.081C407.32 168.733 406.958 168.449 406.5 168.227C406.042 168.006 405.47 167.895 404.783 167.895C403.845 167.895 403.062 168.106 402.434 168.527C401.806 168.94 401.492 169.476 401.492 170.133C401.492 170.702 401.703 171.16 402.124 171.507C402.545 171.854 403.224 172.138 404.162 172.36L406.866 172.981C408.432 173.342 409.599 173.9 410.367 174.654C411.135 175.407 411.519 176.386 411.519 177.59C411.519 178.609 411.224 179.517 410.633 180.315C410.049 181.106 409.233 181.726 408.184 182.177C407.143 182.627 405.935 182.852 404.561 182.852C402.655 182.852 401.101 182.446 399.897 181.634C398.693 180.814 397.954 179.65 397.681 178.144L400.883 177.656C401.082 178.491 401.492 179.122 402.113 179.551C402.733 179.972 403.542 180.182 404.539 180.182C405.625 180.182 406.493 179.957 407.143 179.506C407.793 179.048 408.118 178.491 408.118 177.833C408.118 177.302 407.918 176.855 407.519 176.493C407.128 176.131 406.526 175.858 405.713 175.673L402.833 175.041C401.245 174.679 400.07 174.103 399.309 173.313C398.556 172.523 398.179 171.522 398.179 170.31C398.179 169.306 398.46 168.427 399.021 167.673C399.583 166.92 400.358 166.333 401.348 165.912C402.338 165.483 403.472 165.269 404.749 165.269C406.589 165.269 408.036 165.668 409.093 166.466C410.149 167.256 410.847 168.316 411.187 169.646Z" fill="#141B4D"/>
<path d="M431.518 165.491V168.15H421.901V165.491H431.518ZM424.538 182.509V163.519C424.538 162.455 424.77 161.572 425.236 160.871C425.701 160.161 426.318 159.633 427.086 159.286C427.854 158.932 428.689 158.754 429.59 158.754C430.255 158.754 430.823 158.81 431.296 158.921C431.769 159.024 432.12 159.12 432.349 159.209L431.573 161.89C431.418 161.846 431.218 161.794 430.975 161.735C430.731 161.668 430.436 161.635 430.088 161.635C429.283 161.635 428.707 161.835 428.36 162.233C428.02 162.632 427.85 163.208 427.85 163.962V182.509H424.538Z" fill="#141B4D"/>
<path d="M441.434 182.852C439.838 182.852 438.446 182.487 437.257 181.756C436.068 181.024 435.144 180.001 434.487 178.686C433.83 177.372 433.501 175.835 433.501 174.077C433.501 172.312 433.83 170.768 434.487 169.446C435.144 168.124 436.068 167.097 437.257 166.366C438.446 165.635 439.838 165.269 441.434 165.269C443.029 165.269 444.422 165.635 445.611 166.366C446.8 167.097 447.723 168.124 448.381 169.446C449.038 170.768 449.367 172.312 449.367 174.077C449.367 175.835 449.038 177.372 448.381 178.686C447.723 180.001 446.8 181.024 445.611 181.756C444.422 182.487 443.029 182.852 441.434 182.852ZM441.445 180.071C442.479 180.071 443.336 179.798 444.015 179.252C444.695 178.705 445.197 177.977 445.522 177.069C445.855 176.16 446.021 175.16 446.021 174.066C446.021 172.981 445.855 171.983 445.522 171.075C445.197 170.159 444.695 169.424 444.015 168.87C443.336 168.316 442.479 168.039 441.445 168.039C440.403 168.039 439.539 168.316 438.852 168.87C438.173 169.424 437.667 170.159 437.334 171.075C437.009 171.983 436.847 172.981 436.847 174.066C436.847 175.16 437.009 176.16 437.334 177.069C437.667 177.977 438.173 178.705 438.852 179.252C439.539 179.798 440.403 180.071 441.445 180.071Z" fill="#141B4D"/>
<path d="M453.065 182.509V165.491H456.267V168.194H456.444C456.754 167.278 457.301 166.558 458.084 166.034C458.874 165.502 459.768 165.236 460.765 165.236C460.972 165.236 461.215 165.243 461.496 165.258C461.784 165.273 462.009 165.291 462.172 165.313V168.482C462.039 168.445 461.803 168.405 461.463 168.36C461.123 168.309 460.783 168.283 460.444 168.283C459.661 168.283 458.963 168.449 458.35 168.781C457.744 169.106 457.264 169.561 456.909 170.144C456.555 170.72 456.377 171.378 456.377 172.116V182.509H453.065Z" fill="#141B4D"/>
<path d="M473.562 182.509V159.818H481.871C483.482 159.818 484.815 160.084 485.871 160.616C486.927 161.14 487.718 161.853 488.242 162.754C488.767 163.648 489.029 164.656 489.029 165.779C489.029 166.724 488.855 167.522 488.508 168.172C488.161 168.815 487.696 169.332 487.112 169.723C486.536 170.107 485.901 170.388 485.206 170.565V170.787C485.96 170.824 486.695 171.067 487.411 171.518C488.135 171.961 488.733 172.593 489.206 173.413C489.679 174.233 489.915 175.23 489.915 176.404C489.915 177.564 489.642 178.605 489.095 179.529C488.556 180.444 487.721 181.172 486.591 181.711C485.461 182.243 484.017 182.509 482.259 182.509H473.562ZM476.985 179.573H481.927C483.567 179.573 484.741 179.255 485.45 178.62C486.159 177.985 486.514 177.191 486.514 176.238C486.514 175.521 486.333 174.864 485.971 174.266C485.609 173.667 485.092 173.191 484.42 172.836C483.755 172.482 482.965 172.305 482.049 172.305H476.985V179.573ZM476.985 169.635H481.572C482.34 169.635 483.031 169.487 483.644 169.191C484.265 168.896 484.756 168.482 485.118 167.95C485.487 167.411 485.672 166.776 485.672 166.045C485.672 165.107 485.343 164.32 484.686 163.685C484.028 163.05 483.02 162.732 481.661 162.732H476.985V169.635Z" fill="#141B4D"/>
<path d="M501.045 182.852C499.368 182.852 497.924 182.494 496.712 181.778C495.508 181.054 494.578 180.038 493.92 178.731C493.27 177.416 492.945 175.876 492.945 174.111C492.945 172.367 493.27 170.831 493.92 169.502C494.578 168.172 495.494 167.134 496.668 166.388C497.85 165.642 499.231 165.269 500.812 165.269C501.772 165.269 502.703 165.428 503.604 165.746C504.505 166.063 505.314 166.562 506.03 167.241C506.747 167.921 507.312 168.804 507.726 169.889C508.139 170.968 508.346 172.279 508.346 173.823V174.997H494.818V172.515H505.1C505.1 171.644 504.922 170.872 504.568 170.2C504.213 169.52 503.715 168.985 503.072 168.593C502.437 168.202 501.691 168.006 500.834 168.006C499.903 168.006 499.091 168.235 498.397 168.693C497.71 169.143 497.178 169.734 496.801 170.465C496.432 171.189 496.247 171.976 496.247 172.825V174.764C496.247 175.902 496.447 176.869 496.845 177.667C497.252 178.465 497.817 179.074 498.541 179.495C499.264 179.909 500.11 180.116 501.078 180.116C501.706 180.116 502.278 180.027 502.795 179.85C503.312 179.665 503.759 179.392 504.136 179.03C504.512 178.668 504.801 178.221 505 177.689L508.135 178.254C507.884 179.178 507.434 179.986 506.784 180.681C506.141 181.368 505.332 181.903 504.357 182.287C503.39 182.664 502.285 182.852 501.045 182.852Z" fill="#141B4D"/>
<path d="M519.966 165.491V168.15H510.67V165.491H519.966ZM513.163 161.413H516.476V177.512C516.476 178.155 516.572 178.638 516.764 178.963C516.956 179.281 517.203 179.499 517.506 179.617C517.816 179.728 518.152 179.783 518.514 179.783C518.78 179.783 519.013 179.765 519.212 179.728C519.412 179.691 519.567 179.661 519.678 179.639L520.276 182.376C520.084 182.45 519.811 182.524 519.456 182.598C519.101 182.679 518.658 182.723 518.126 182.731C517.255 182.745 516.442 182.59 515.689 182.265C514.936 181.94 514.326 181.438 513.861 180.758C513.395 180.079 513.163 179.226 513.163 178.199V161.413Z" fill="#141B4D"/>
<path d="M531.574 165.491V168.15H522.279V165.491H531.574ZM524.771 161.413H528.084V177.512C528.084 178.155 528.18 178.638 528.372 178.963C528.564 179.281 528.812 179.499 529.115 179.617C529.425 179.728 529.761 179.783 530.123 179.783C530.389 179.783 530.621 179.765 530.821 179.728C531.02 179.691 531.175 179.661 531.286 179.639L531.884 182.376C531.692 182.45 531.419 182.524 531.065 182.598C530.71 182.679 530.267 182.723 529.735 182.731C528.863 182.745 528.051 182.59 527.298 182.265C526.544 181.94 525.935 181.438 525.469 180.758C525.004 180.079 524.771 179.226 524.771 178.199V161.413Z" fill="#141B4D"/>
<path d="M542.391 182.852C540.714 182.852 539.27 182.494 538.059 181.778C536.855 181.054 535.924 180.038 535.267 178.731C534.617 177.416 534.292 175.876 534.292 174.111C534.292 172.367 534.617 170.831 535.267 169.502C535.924 168.172 536.84 167.134 538.014 166.388C539.196 165.642 540.577 165.269 542.158 165.269C543.118 165.269 544.049 165.428 544.95 165.746C545.851 166.063 546.66 166.562 547.376 167.241C548.093 167.921 548.658 168.804 549.072 169.889C549.485 170.968 549.692 172.279 549.692 173.823V174.997H536.164V172.515H546.446C546.446 171.644 546.268 170.872 545.914 170.2C545.559 169.52 545.061 168.985 544.418 168.593C543.783 168.202 543.037 168.006 542.18 168.006C541.249 168.006 540.437 168.235 539.743 168.693C539.056 169.143 538.524 169.734 538.147 170.465C537.778 171.189 537.593 171.976 537.593 172.825V174.764C537.593 175.902 537.793 176.869 538.191 177.667C538.598 178.465 539.163 179.074 539.887 179.495C540.611 179.909 541.456 180.116 542.424 180.116C543.052 180.116 543.624 180.027 544.141 179.85C544.658 179.665 545.105 179.392 545.482 179.03C545.859 178.668 546.147 178.221 546.346 177.689L549.482 178.254C549.23 179.178 548.78 179.986 548.13 180.681C547.487 181.368 546.678 181.903 545.703 182.287C544.736 182.664 543.632 182.852 542.391 182.852Z" fill="#141B4D"/>
<path d="M553.368 182.509V165.491H556.57V168.194H556.747C557.057 167.278 557.604 166.558 558.387 166.034C559.177 165.502 560.071 165.236 561.068 165.236C561.275 165.236 561.519 165.243 561.799 165.258C562.087 165.273 562.313 165.291 562.475 165.313V168.482C562.342 168.445 562.106 168.405 561.766 168.36C561.426 168.309 561.086 168.283 560.747 168.283C559.964 168.283 559.266 168.449 558.653 168.781C558.047 169.106 557.567 169.561 557.212 170.144C556.858 170.72 556.68 171.378 556.68 172.116V182.509H553.368Z" fill="#141B4D"/>
<path d="M581.211 182.509H573.865V159.818H581.443C583.667 159.818 585.576 160.272 587.171 161.181C588.767 162.082 589.989 163.378 590.839 165.07C591.696 166.754 592.124 168.774 592.124 171.13C592.124 173.494 591.692 175.525 590.828 177.224C589.971 178.923 588.73 180.23 587.105 181.146C585.48 182.055 583.515 182.509 581.211 182.509ZM577.288 179.517H581.022C582.751 179.517 584.187 179.192 585.332 178.542C586.477 177.885 587.334 176.936 587.903 175.695C588.471 174.447 588.756 172.925 588.756 171.13C588.756 169.35 588.471 167.84 587.903 166.599C587.341 165.358 586.503 164.416 585.388 163.773C584.272 163.131 582.887 162.81 581.233 162.81H577.288V179.517Z" fill="#141B4D"/>
<path d="M603.45 182.852C601.773 182.852 600.329 182.494 599.118 181.778C597.914 181.054 596.983 180.038 596.326 178.731C595.676 177.416 595.351 175.876 595.351 174.111C595.351 172.367 595.676 170.831 596.326 169.502C596.983 168.172 597.899 167.134 599.074 166.388C600.255 165.642 601.637 165.269 603.217 165.269C604.178 165.269 605.108 165.428 606.009 165.746C606.911 166.063 607.719 166.562 608.436 167.241C609.152 167.921 609.717 168.804 610.131 169.889C610.545 170.968 610.751 172.279 610.751 173.823V174.997H597.223V172.515H607.505C607.505 171.644 607.328 170.872 606.973 170.2C606.619 169.52 606.12 168.985 605.478 168.593C604.842 168.202 604.096 168.006 603.24 168.006C602.309 168.006 601.496 168.235 600.802 168.693C600.115 169.143 599.583 169.734 599.207 170.465C598.837 171.189 598.653 171.976 598.653 172.825V174.764C598.653 175.902 598.852 176.869 599.251 177.667C599.657 178.465 600.222 179.074 600.946 179.495C601.67 179.909 602.516 180.116 603.483 180.116C604.111 180.116 604.684 180.027 605.201 179.85C605.718 179.665 606.164 179.392 606.541 179.03C606.918 178.668 607.206 178.221 607.405 177.689L610.541 178.254C610.29 179.178 609.839 179.986 609.189 180.681C608.547 181.368 607.738 181.903 606.763 182.287C605.795 182.664 604.691 182.852 603.45 182.852Z" fill="#141B4D"/>
<path d="M628.498 165.491L622.327 182.509H618.781L612.599 165.491H616.155L620.465 178.587H620.643L624.942 165.491H628.498Z" fill="#141B4D"/>
<path d="M638.367 182.852C636.69 182.852 635.246 182.494 634.035 181.778C632.831 181.054 631.9 180.038 631.243 178.731C630.593 177.416 630.268 175.876 630.268 174.111C630.268 172.367 630.593 170.831 631.243 169.502C631.9 168.172 632.816 167.134 633.991 166.388C635.173 165.642 636.554 165.269 638.135 165.269C639.095 165.269 640.025 165.428 640.927 165.746C641.828 166.063 642.636 166.562 643.353 167.241C644.069 167.921 644.635 168.804 645.048 169.889C645.462 170.968 645.669 172.279 645.669 173.823V174.997H632.141V172.515H642.422C642.422 171.644 642.245 170.872 641.891 170.2C641.536 169.52 641.037 168.985 640.395 168.593C639.76 168.202 639.013 168.006 638.157 168.006C637.226 168.006 636.414 168.235 635.719 168.693C635.032 169.143 634.5 169.734 634.124 170.465C633.754 171.189 633.57 171.976 633.57 172.825V174.764C633.57 175.902 633.769 176.869 634.168 177.667C634.574 178.465 635.139 179.074 635.863 179.495C636.587 179.909 637.433 180.116 638.4 180.116C639.028 180.116 639.601 180.027 640.118 179.85C640.635 179.665 641.082 179.392 641.458 179.03C641.835 178.668 642.123 178.221 642.323 177.689L645.458 178.254C645.207 179.178 644.756 179.986 644.106 180.681C643.464 181.368 642.655 181.903 641.68 182.287C640.712 182.664 639.608 182.852 638.367 182.852Z" fill="#141B4D"/>
<path d="M652.657 159.818V182.509H649.344V159.818H652.657Z" fill="#141B4D"/>
<path d="M664.282 182.852C662.687 182.852 661.294 182.487 660.105 181.756C658.916 181.024 657.993 180.001 657.335 178.686C656.678 177.372 656.349 175.835 656.349 174.077C656.349 172.312 656.678 170.768 657.335 169.446C657.993 168.124 658.916 167.097 660.105 166.366C661.294 165.635 662.687 165.269 664.282 165.269C665.878 165.269 667.27 165.635 668.459 166.366C669.648 167.097 670.572 168.124 671.229 169.446C671.887 170.768 672.215 172.312 672.215 174.077C672.215 175.835 671.887 177.372 671.229 178.686C670.572 180.001 669.648 181.024 668.459 181.756C667.27 182.487 665.878 182.852 664.282 182.852ZM664.293 180.071C665.327 180.071 666.184 179.798 666.864 179.252C667.543 178.705 668.046 177.977 668.371 177.069C668.703 176.16 668.869 175.16 668.869 174.066C668.869 172.981 668.703 171.983 668.371 171.075C668.046 170.159 667.543 169.424 666.864 168.87C666.184 168.316 665.327 168.039 664.293 168.039C663.252 168.039 662.388 168.316 661.701 168.87C661.021 169.424 660.515 170.159 660.183 171.075C659.858 171.983 659.695 172.981 659.695 174.066C659.695 175.16 659.858 176.16 660.183 177.069C660.515 177.977 661.021 178.705 661.701 179.252C662.388 179.798 663.252 180.071 664.293 180.071Z" fill="#141B4D"/>
<path d="M675.913 188.891V165.491H679.148V168.25H679.425C679.617 167.895 679.894 167.485 680.256 167.02C680.618 166.554 681.12 166.148 681.763 165.801C682.406 165.446 683.255 165.269 684.311 165.269C685.685 165.269 686.911 165.616 687.99 166.311C689.068 167.005 689.914 168.006 690.527 169.313C691.147 170.621 691.458 172.194 691.458 174.033C691.458 175.872 691.151 177.449 690.538 178.764C689.925 180.071 689.083 181.08 688.012 181.789C686.941 182.49 685.718 182.841 684.344 182.841C683.31 182.841 682.465 182.668 681.807 182.321C681.157 181.973 680.648 181.567 680.278 181.102C679.909 180.636 679.625 180.223 679.425 179.861H679.226V188.891H675.913ZM679.159 174C679.159 175.196 679.333 176.245 679.68 177.146C680.027 178.048 680.529 178.753 681.187 179.263C681.844 179.765 682.649 180.016 683.602 180.016C684.592 180.016 685.419 179.754 686.084 179.229C686.749 178.698 687.251 177.977 687.591 177.069C687.938 176.16 688.112 175.137 688.112 174C688.112 172.877 687.942 171.869 687.602 170.975C687.269 170.081 686.767 169.376 686.095 168.859C685.43 168.342 684.599 168.083 683.602 168.083C682.642 168.083 681.829 168.331 681.165 168.826C680.507 169.321 680.009 170.011 679.669 170.898C679.329 171.784 679.159 172.818 679.159 174Z" fill="#141B4D"/>
<path d="M695.169 182.509V165.491H698.349V168.261H698.56C698.914 167.323 699.494 166.591 700.299 166.067C701.104 165.535 702.068 165.269 703.191 165.269C704.328 165.269 705.281 165.535 706.049 166.067C706.825 166.599 707.397 167.33 707.767 168.261H707.944C708.35 167.352 708.997 166.628 709.883 166.089C710.769 165.542 711.826 165.269 713.052 165.269C714.595 165.269 715.855 165.753 716.83 166.721C717.812 167.688 718.303 169.147 718.303 171.097V182.509H714.991V171.407C714.991 170.255 714.677 169.42 714.049 168.903C713.421 168.386 712.671 168.128 711.8 168.128C710.721 168.128 709.883 168.46 709.285 169.125C708.686 169.782 708.387 170.628 708.387 171.662V182.509H705.085V171.197C705.085 170.273 704.797 169.531 704.221 168.97C703.645 168.408 702.895 168.128 701.972 168.128C701.344 168.128 700.764 168.294 700.233 168.626C699.708 168.951 699.283 169.406 698.958 169.989C698.641 170.573 698.482 171.248 698.482 172.017V182.509H695.169Z" fill="#141B4D"/>
<path d="M730.078 182.852C728.401 182.852 726.957 182.494 725.746 181.778C724.542 181.054 723.611 180.038 722.954 178.731C722.304 177.416 721.979 175.876 721.979 174.111C721.979 172.367 722.304 170.831 722.954 169.502C723.611 168.172 724.527 167.134 725.702 166.388C726.884 165.642 728.265 165.269 729.845 165.269C730.806 165.269 731.736 165.428 732.638 165.746C733.539 166.063 734.347 166.562 735.064 167.241C735.78 167.921 736.345 168.804 736.759 169.889C737.173 170.968 737.38 172.279 737.38 173.823V174.997H723.851V172.515H734.133C734.133 171.644 733.956 170.872 733.601 170.2C733.247 169.52 732.748 168.985 732.106 168.593C731.47 168.202 730.724 168.006 729.868 168.006C728.937 168.006 728.124 168.235 727.43 168.693C726.743 169.143 726.211 169.734 725.835 170.465C725.465 171.189 725.281 171.976 725.281 172.825V174.764C725.281 175.902 725.48 176.869 725.879 177.667C726.285 178.465 726.85 179.074 727.574 179.495C728.298 179.909 729.144 180.116 730.111 180.116C730.739 180.116 731.312 180.027 731.829 179.85C732.346 179.665 732.793 179.392 733.169 179.03C733.546 178.668 733.834 178.221 734.034 177.689L737.169 178.254C736.918 179.178 736.467 179.986 735.817 180.681C735.175 181.368 734.366 181.903 733.391 182.287C732.423 182.664 731.319 182.852 730.078 182.852Z" fill="#141B4D"/>
<path d="M744.368 172.404V182.509H741.055V165.491H744.235V168.261H744.445C744.837 167.36 745.45 166.636 746.285 166.089C747.127 165.542 748.187 165.269 749.465 165.269C750.624 165.269 751.64 165.513 752.511 166C753.383 166.481 754.059 167.197 754.539 168.15C755.019 169.103 755.259 170.281 755.259 171.684V182.509H751.946V172.083C751.946 170.85 751.625 169.886 750.982 169.191C750.34 168.49 749.457 168.139 748.334 168.139C747.566 168.139 746.883 168.305 746.285 168.637C745.694 168.97 745.225 169.457 744.878 170.1C744.538 170.735 744.368 171.503 744.368 172.404Z" fill="#141B4D"/>
<path d="M767.646 165.491V168.15H758.35V165.491H767.646ZM760.843 161.413H764.156V177.512C764.156 178.155 764.252 178.638 764.444 178.963C764.636 179.281 764.884 179.499 765.186 179.617C765.497 179.728 765.833 179.783 766.195 179.783C766.461 179.783 766.693 179.765 766.893 179.728C767.092 179.691 767.247 179.661 767.358 179.639L767.956 182.376C767.764 182.45 767.491 182.524 767.136 182.598C766.782 182.679 766.339 182.723 765.807 182.731C764.935 182.745 764.123 182.59 763.369 182.265C762.616 181.94 762.007 181.438 761.541 180.758C761.076 180.079 760.843 179.226 760.843 178.199V161.413Z" fill="#141B4D"/>
</svg>
