<svg width="769" height="139" viewBox="0 0 769 139" fill="none" xmlns="http://www.w3.org/2000/svg">
<path d="M559.855 69.557V115.593H536.837V69.557C536.837 65.3115 535.328 61.7053 532.31 58.7385C529.344 55.7205 525.738 54.2116 521.492 54.2116C517.247 54.2116 513.615 55.7205 510.597 58.7385C507.63 61.7053 506.147 65.3115 506.147 69.557V115.593H483.129V69.557C483.129 65.3115 481.62 61.7053 478.602 58.7385C475.635 55.7205 472.029 54.2116 467.783 54.2116C463.537 54.2116 459.906 55.7205 456.888 58.7385C453.921 61.7053 452.438 65.3115 452.438 69.557V115.593H429.419V69.557C429.419 58.9687 433.153 49.9404 440.622 42.4723C448.141 34.953 457.195 31.1934 467.783 31.1934C478.269 31.1934 487.221 34.8507 494.638 42.1654C502.055 34.8507 511.006 31.1934 521.492 31.1934C532.08 31.1934 541.108 34.953 548.576 42.4723C556.096 49.9404 559.855 58.9687 559.855 69.557Z" fill="#141B4D"/>
<path d="M590.873 115.585H567.855V31.185H590.873V115.585ZM579.364 23.5123C576.193 23.5123 573.482 22.3869 571.231 20.1363C568.981 17.8856 567.855 15.1746 567.855 12.0032C567.855 8.83183 568.981 6.12081 571.231 3.87014C573.482 1.61947 576.193 0.494141 579.364 0.494141C582.536 0.494141 585.247 1.61947 587.497 3.87014C589.748 6.12081 590.873 8.83183 590.873 12.0032C590.873 15.1746 589.748 17.8856 587.497 20.1363C585.247 22.3869 582.536 23.5123 579.364 23.5123Z" fill="#141B4D"/>
<path d="M675.602 69.557V115.593H652.584V69.557C652.584 65.3115 651.075 61.7053 648.057 58.7385C645.09 55.7205 641.484 54.2116 637.238 54.2116C632.993 54.2116 629.361 55.7205 626.343 58.7385C623.376 61.7053 621.893 65.3115 621.893 69.557V115.593H598.874V69.557C598.874 58.9687 602.609 49.9404 610.077 42.4723C617.596 34.953 626.65 31.1934 637.238 31.1934C647.826 31.1934 656.855 34.953 664.323 42.4723C671.842 49.9404 675.602 58.9687 675.602 69.557Z" fill="#141B4D"/>
<path d="M768.002 73.385C768.002 85.0475 763.884 94.9965 755.648 103.232C747.413 111.467 737.464 115.585 725.802 115.585C714.139 115.585 704.19 111.467 695.955 103.232C687.719 94.9965 683.602 85.0475 683.602 73.385C683.602 61.7224 687.719 51.7735 695.955 43.5381C704.19 35.3027 714.139 31.185 725.802 31.185H744.983V54.2032H725.802C720.482 54.2032 715.955 56.0702 712.221 59.8043C708.487 63.5383 706.62 68.0652 706.62 73.385C706.62 78.7047 708.487 83.2316 712.221 86.9657C715.955 90.6998 720.482 92.5668 725.802 92.5668C731.121 92.5668 735.648 90.6998 739.382 86.9657C743.116 83.2316 744.983 78.7047 744.983 73.385V0.494141H768.002V73.385Z" fill="#141B4D"/>
<path d="M182.054 73.3934C182.054 61.7308 186.172 51.7818 194.407 43.5465C202.643 35.3111 212.592 31.1934 224.255 31.1934C235.917 31.1934 245.866 35.3111 254.101 43.5465C262.337 51.7818 266.455 61.7308 266.455 73.3934C266.455 85.0559 262.337 95.0049 254.101 103.24C245.866 111.475 235.917 115.593 224.255 115.593H205.072V92.5752H224.255C229.574 92.5752 234.101 90.7081 237.835 86.9741C241.569 83.24 243.436 78.7131 243.436 73.3934C243.436 68.0736 241.569 63.5467 237.835 59.8126C234.101 56.0786 229.574 54.2115 224.255 54.2115C218.935 54.2115 214.408 56.0786 210.674 59.8126C206.94 63.5467 205.072 68.0736 205.072 73.3934V138.611H182.054V73.3934Z" fill="#FF6000"/>
<path d="M316.655 92.5752C321.974 92.5752 326.501 90.7081 330.235 86.9741C333.969 83.24 335.836 78.7131 335.836 73.3934C335.836 68.0736 333.969 63.5467 330.235 59.8126C326.501 56.0786 321.974 54.2115 316.655 54.2115C311.335 54.2115 306.808 56.0786 303.074 59.8126C299.34 63.5467 297.473 68.0736 297.473 73.3934C297.473 78.7131 299.34 83.24 303.074 86.9741C306.808 90.7081 311.335 92.5752 316.655 92.5752ZM316.655 115.593C304.992 115.593 295.043 111.475 286.808 103.24C278.572 95.0049 274.455 85.0559 274.455 73.3934C274.455 61.7308 278.572 51.7818 286.808 43.5465C295.043 35.3111 304.992 31.1934 316.655 31.1934C328.317 31.1934 338.266 35.3111 346.501 43.5465C354.737 51.7818 358.855 61.7308 358.855 73.3934C358.855 85.0559 354.737 95.0049 346.501 103.24C338.266 111.475 328.317 115.593 316.655 115.593Z" fill="#FF6000"/>
<path d="M389.874 31.2116H409.516V54.2297H389.874V77.2479C389.874 81.4935 391.356 85.1252 394.323 88.1432C397.341 91.11 400.973 92.5934 405.219 92.5934H420.867L420.871 115.611H405.219C394.631 115.611 385.576 111.877 378.057 104.409C370.588 96.8901 366.854 87.8363 366.854 77.2479V8.19336H389.874V31.2116Z" fill="#FF6000"/>
<path d="M131.854 31.1934H166.38L166.381 54.2116H131.854C130.78 54.2116 129.859 54.5952 129.092 55.3625C128.376 56.0786 128.018 56.9738 128.018 58.0479C128.018 59.1221 128.376 60.0429 129.092 60.8101C129.859 61.5262 130.78 61.8843 131.854 61.8843H147.2C154.616 61.8843 160.934 64.5186 166.151 69.7872C171.42 75.0047 174.054 81.3219 174.054 88.7388C174.054 96.1558 171.42 102.499 166.151 107.767C160.934 112.984 154.616 115.593 147.2 115.593H109V92.5752H147.2C148.274 92.5752 149.169 92.2171 149.885 91.501C150.652 90.7337 151.036 89.813 151.036 88.7388C151.036 87.6647 150.652 86.7695 149.885 86.0534C149.169 85.2861 148.274 84.9025 147.2 84.9025H131.854C124.437 84.9025 118.094 82.2938 112.826 77.0763C107.608 71.8077 105 65.4649 105 58.0479C105 50.631 107.608 44.3138 112.826 39.0963C118.094 33.8277 124.437 31.1934 131.854 31.1934Z" fill="#FF6000"/>
<path fill-rule="evenodd" clip-rule="evenodd" d="M77.2801 37.5174L84 51.7974L90.7199 37.5174L105 30.7974L90.7199 24.0774L84 9.79736L77.2801 24.0774L63.0002 30.7974L77.2801 37.5174ZM6.39355 62.9432C2.17221 52.7518 -0.000488281 41.8288 -0.000488281 30.7978L41.999 30.7977C41.999 36.3133 43.0853 41.7748 45.196 46.8705C47.3067 51.9661 50.4003 56.5962 54.3003 60.4963C58.2004 64.3963 62.8303 67.49 67.9259 69.6007C73.0216 71.7114 78.483 72.7978 83.9985 72.7978L83.9985 114.798C72.9676 114.798 62.0447 112.625 51.8535 108.404C41.6622 104.182 32.4023 97.9949 24.6022 90.1948C16.8022 82.3946 10.6149 73.1345 6.39355 62.9432Z" fill="#FF6000"/>
</svg>
