<svg width="769" height="190" viewBox="0 0 769 190" fill="none" xmlns="http://www.w3.org/2000/svg">
<path d="M559.855 69.9905V116.027H536.837V69.9905C536.837 65.745 535.328 62.1389 532.31 59.1721C529.344 56.1541 525.738 54.6452 521.492 54.6452C517.247 54.6452 513.615 56.1541 510.597 59.1721C507.63 62.1389 506.147 65.745 506.147 69.9905V116.027H483.129V69.9905C483.129 65.745 481.62 62.1389 478.602 59.1721C475.635 56.1541 472.029 54.6452 467.783 54.6452C463.537 54.6452 459.906 56.1541 456.888 59.1721C453.921 62.1389 452.438 65.745 452.438 69.9905V116.027H429.419V69.9905C429.419 59.4022 433.153 50.374 440.622 42.9059C448.141 35.3866 457.195 31.627 467.783 31.627C478.269 31.627 487.221 35.2843 494.638 42.599C502.055 35.2843 511.006 31.627 521.492 31.627C532.08 31.627 541.108 35.3866 548.576 42.9059C556.096 50.374 559.855 59.4022 559.855 69.9905Z" fill="#67707E"/>
<path d="M590.873 116.019H567.855V31.6186H590.873V116.019ZM579.364 23.9459C576.193 23.9459 573.482 22.8205 571.231 20.5699C568.981 18.3192 567.855 15.6082 567.855 12.4368C567.855 9.26542 568.981 6.5544 571.231 4.30373C573.482 2.05306 576.193 0.927734 579.364 0.927734C582.536 0.927734 585.247 2.05306 587.497 4.30373C589.748 6.5544 590.873 9.26542 590.873 12.4368C590.873 15.6082 589.748 18.3192 587.497 20.5699C585.247 22.8205 582.536 23.9459 579.364 23.9459Z" fill="#67707E"/>
<path d="M675.602 69.9905V116.027H652.584V69.9905C652.584 65.745 651.075 62.1389 648.057 59.1721C645.09 56.1541 641.484 54.6452 637.238 54.6452C632.993 54.6452 629.361 56.1541 626.343 59.1721C623.376 62.1389 621.893 65.745 621.893 69.9905V116.027H598.874V69.9905C598.874 59.4022 602.609 50.374 610.077 42.9059C617.596 35.3866 626.65 31.627 637.238 31.627C647.826 31.627 656.855 35.3866 664.323 42.9059C671.842 50.374 675.602 59.4022 675.602 69.9905Z" fill="#67707E"/>
<path d="M768.002 73.8186C768.002 85.4811 763.884 95.4301 755.648 103.666C747.413 111.901 737.464 116.019 725.802 116.019C714.139 116.019 704.19 111.901 695.955 103.666C687.719 95.4301 683.602 85.4811 683.602 73.8186C683.602 62.156 687.719 52.2071 695.955 43.9717C704.19 35.7363 714.139 31.6186 725.802 31.6186H744.983V54.6368H725.802C720.482 54.6368 715.955 56.5038 712.221 60.2379C708.487 63.9719 706.62 68.4988 706.62 73.8186C706.62 79.1383 708.487 83.6652 712.221 87.3993C715.955 91.1334 720.482 93.0004 725.802 93.0004C731.121 93.0004 735.648 91.1334 739.382 87.3993C743.116 83.6652 744.983 79.1383 744.983 73.8186V0.927734H768.002V73.8186Z" fill="#67707E"/>
<path d="M182.054 73.827C182.054 62.1644 186.172 52.2154 194.407 43.9801C202.643 35.7447 212.592 31.627 224.255 31.627C235.917 31.627 245.866 35.7447 254.101 43.9801C262.337 52.2154 266.455 62.1644 266.455 73.827C266.455 85.4895 262.337 95.4385 254.101 103.674C245.866 111.909 235.917 116.027 224.255 116.027H205.072V93.0088H224.255C229.574 93.0088 234.101 91.1417 237.835 87.4076C241.569 83.6735 243.436 79.1467 243.436 73.827C243.436 68.5072 241.569 63.9803 237.835 60.2462C234.101 56.5122 229.574 54.6451 224.255 54.6451C218.935 54.6451 214.408 56.5122 210.674 60.2462C206.94 63.9803 205.072 68.5072 205.072 73.827V139.045H182.054V73.827Z" fill="#67707E"/>
<path d="M316.655 93.0088C321.974 93.0088 326.501 91.1417 330.235 87.4076C333.969 83.6735 335.836 79.1467 335.836 73.827C335.836 68.5072 333.969 63.9803 330.235 60.2462C326.501 56.5122 321.974 54.6451 316.655 54.6451C311.335 54.6451 306.808 56.5122 303.074 60.2462C299.34 63.9803 297.473 68.5072 297.473 73.827C297.473 79.1467 299.34 83.6735 303.074 87.4076C306.808 91.1417 311.335 93.0088 316.655 93.0088ZM316.655 116.027C304.992 116.027 295.043 111.909 286.808 103.674C278.572 95.4385 274.455 85.4895 274.455 73.827C274.455 62.1644 278.572 52.2154 286.808 43.9801C295.043 35.7447 304.992 31.627 316.655 31.627C328.317 31.627 338.266 35.7447 346.501 43.9801C354.737 52.2154 358.855 62.1644 358.855 73.827C358.855 85.4895 354.737 95.4385 346.501 103.674C338.266 111.909 328.317 116.027 316.655 116.027Z" fill="#67707E"/>
<path d="M389.874 31.6452H409.516V54.6633H389.874V77.6814C389.874 81.927 391.356 85.5588 394.323 88.5768C397.341 91.5435 400.973 93.027 405.219 93.027H420.867L420.871 116.045H405.219C394.631 116.045 385.576 112.311 378.057 104.843C370.588 97.3237 366.854 88.2699 366.854 77.6814V8.62695H389.874V31.6452Z" fill="#67707E"/>
<path d="M131.854 31.627H166.38L166.381 54.6452H131.854C130.78 54.6452 129.859 55.0288 129.092 55.7961C128.376 56.5122 128.018 57.4074 128.018 58.4815C128.018 59.5557 128.376 60.4765 129.092 61.2437C129.859 61.9598 130.78 62.3179 131.854 62.3179H147.2C154.616 62.3179 160.934 64.9522 166.151 70.2208C171.42 75.4383 174.054 81.7554 174.054 89.1723C174.054 96.5893 171.42 102.932 166.151 108.201C160.934 113.418 154.616 116.027 147.2 116.027H109V93.0088H147.2C148.274 93.0088 149.169 92.6507 149.885 91.9346C150.652 91.1673 151.036 90.2465 151.036 89.1723C151.036 88.0982 150.652 87.2031 149.885 86.487C149.169 85.7197 148.274 85.3361 147.2 85.3361H131.854C124.437 85.3361 118.094 82.7273 112.826 77.5098C107.608 72.2412 105 65.8985 105 58.4815C105 51.0646 107.608 44.7474 112.826 39.5299C118.094 34.2613 124.437 31.627 131.854 31.627Z" fill="#67707E"/>
<path fill-rule="evenodd" clip-rule="evenodd" d="M77.2801 38.1683L84 52.4483L90.7199 38.1683L105 31.4483L90.7199 24.7283L84 10.4482L77.2801 24.7283L63.0002 31.4483L77.2801 38.1683ZM6.39355 63.5941C2.17221 53.4027 -0.000488281 42.4797 -0.000488281 31.4486L41.999 31.4486C41.999 36.9641 43.0853 42.4257 45.196 47.5213C47.3067 52.617 50.4003 57.2471 54.3003 61.1471C58.2004 65.0472 62.8303 68.1409 67.9259 70.2516C73.0216 72.3623 78.483 73.4487 83.9985 73.4487L83.9985 115.449C72.9676 115.449 62.0447 113.276 51.8535 109.055C41.6622 104.833 32.4023 98.6458 24.6022 90.8456C16.8022 83.0455 10.6149 73.7854 6.39355 63.5941Z" fill="#67707E"/>
<path d="M121.345 182.682H114V159.991H121.578C123.801 159.991 125.711 160.446 127.306 161.354C128.902 162.255 130.124 163.552 130.973 165.243C131.83 166.927 132.259 168.947 132.259 171.304C132.259 173.667 131.827 175.698 130.962 177.397C130.105 179.096 128.865 180.404 127.24 181.319C125.615 182.228 123.65 182.682 121.345 182.682ZM117.423 179.691H121.157C122.885 179.691 124.322 179.366 125.467 178.716C126.612 178.058 127.469 177.109 128.037 175.868C128.606 174.62 128.89 173.098 128.89 171.304C128.89 169.523 128.606 168.013 128.037 166.772C127.476 165.531 126.638 164.589 125.522 163.947C124.407 163.304 123.022 162.983 121.367 162.983H117.423V179.691Z" fill="#67707E"/>
<path d="M136.25 182.682V165.664H139.563V182.682H136.25ZM137.923 163.038C137.347 163.038 136.852 162.846 136.438 162.462C136.032 162.071 135.829 161.605 135.829 161.066C135.829 160.519 136.032 160.054 136.438 159.67C136.852 159.279 137.347 159.083 137.923 159.083C138.499 159.083 138.99 159.279 139.397 159.67C139.81 160.054 140.017 160.519 140.017 161.066C140.017 161.605 139.81 162.071 139.397 162.462C138.99 162.846 138.499 163.038 137.923 163.038Z" fill="#67707E"/>
<path d="M151.155 189.419C149.803 189.419 148.64 189.241 147.665 188.887C146.697 188.532 145.907 188.063 145.294 187.48C144.681 186.896 144.223 186.257 143.92 185.563L146.767 184.389C146.967 184.714 147.233 185.057 147.565 185.419C147.905 185.788 148.363 186.102 148.939 186.361C149.522 186.619 150.272 186.748 151.188 186.748C152.444 186.748 153.481 186.442 154.301 185.829C155.121 185.223 155.531 184.256 155.531 182.926V179.58H155.321C155.121 179.942 154.833 180.344 154.456 180.788C154.087 181.231 153.577 181.615 152.927 181.94C152.277 182.265 151.432 182.427 150.39 182.427C149.046 182.427 147.835 182.114 146.756 181.486C145.685 180.85 144.836 179.916 144.208 178.683C143.587 177.442 143.277 175.916 143.277 174.107C143.277 172.297 143.584 170.746 144.197 169.453C144.817 168.161 145.667 167.171 146.745 166.484C147.824 165.79 149.046 165.443 150.412 165.443C151.469 165.443 152.322 165.62 152.972 165.974C153.622 166.321 154.128 166.728 154.49 167.193C154.859 167.658 155.143 168.068 155.343 168.423H155.587V165.664H158.833V183.059C158.833 184.521 158.493 185.722 157.814 186.66C157.134 187.598 156.214 188.292 155.055 188.743C153.902 189.193 152.602 189.419 151.155 189.419ZM151.122 179.68C152.074 179.68 152.879 179.458 153.537 179.015C154.202 178.564 154.704 177.922 155.044 177.087C155.391 176.245 155.564 175.237 155.564 174.062C155.564 172.918 155.395 171.909 155.055 171.038C154.715 170.166 154.216 169.487 153.559 168.999C152.902 168.504 152.089 168.257 151.122 168.257C150.124 168.257 149.293 168.515 148.629 169.032C147.964 169.542 147.462 170.236 147.122 171.115C146.789 171.994 146.623 172.977 146.623 174.062C146.623 175.178 146.793 176.156 147.133 176.998C147.473 177.841 147.975 178.498 148.64 178.971C149.312 179.443 150.139 179.68 151.122 179.68Z" fill="#67707E"/>
<path d="M163.276 182.682V165.664H166.589V182.682H163.276ZM164.949 163.038C164.373 163.038 163.878 162.846 163.464 162.462C163.058 162.071 162.855 161.605 162.855 161.066C162.855 160.519 163.058 160.054 163.464 159.67C163.878 159.279 164.373 159.083 164.949 159.083C165.525 159.083 166.016 159.279 166.422 159.67C166.836 160.054 167.043 160.519 167.043 161.066C167.043 161.605 166.836 162.071 166.422 162.462C166.016 162.846 165.525 163.038 164.949 163.038Z" fill="#67707E"/>
<path d="M178.989 165.664V168.323H169.694V165.664H178.989ZM172.187 161.587H175.499V177.685C175.499 178.328 175.595 178.812 175.787 179.137C175.979 179.454 176.227 179.672 176.53 179.791C176.84 179.901 177.176 179.957 177.538 179.957C177.804 179.957 178.037 179.938 178.236 179.901C178.435 179.864 178.59 179.835 178.701 179.813L179.3 182.549C179.108 182.623 178.834 182.697 178.48 182.771C178.125 182.852 177.682 182.896 177.15 182.904C176.279 182.919 175.466 182.764 174.713 182.439C173.959 182.114 173.35 181.611 172.885 180.932C172.419 180.252 172.187 179.399 172.187 178.372V161.587Z" fill="#67707E"/>
<path d="M187.606 183.059C186.528 183.059 185.553 182.86 184.681 182.461C183.81 182.054 183.119 181.467 182.61 180.699C182.107 179.931 181.856 178.989 181.856 177.874C181.856 176.914 182.041 176.123 182.41 175.503C182.779 174.882 183.278 174.391 183.906 174.029C184.534 173.667 185.235 173.394 186.011 173.209C186.787 173.025 187.577 172.884 188.382 172.788C189.401 172.67 190.229 172.574 190.864 172.5C191.499 172.419 191.961 172.29 192.249 172.112C192.537 171.935 192.681 171.647 192.681 171.248V171.171C192.681 170.203 192.408 169.453 191.861 168.921C191.322 168.39 190.517 168.124 189.446 168.124C188.33 168.124 187.451 168.371 186.809 168.866C186.174 169.354 185.734 169.896 185.49 170.495L182.377 169.786C182.746 168.752 183.285 167.917 183.995 167.282C184.711 166.639 185.535 166.174 186.465 165.886C187.396 165.59 188.375 165.443 189.401 165.443C190.081 165.443 190.801 165.524 191.562 165.686C192.33 165.841 193.047 166.129 193.711 166.55C194.383 166.971 194.934 167.573 195.362 168.356C195.791 169.132 196.005 170.14 196.005 171.381V182.682H192.77V180.356H192.637C192.422 180.784 192.101 181.205 191.673 181.619C191.244 182.032 190.694 182.376 190.022 182.649C189.35 182.922 188.545 183.059 187.606 183.059ZM188.327 180.4C189.243 180.4 190.026 180.219 190.676 179.857C191.333 179.495 191.831 179.022 192.171 178.439C192.518 177.848 192.692 177.216 192.692 176.544V174.35C192.574 174.469 192.345 174.579 192.005 174.683C191.673 174.779 191.292 174.864 190.864 174.938C190.435 175.004 190.018 175.067 189.612 175.126C189.206 175.178 188.866 175.222 188.593 175.259C187.95 175.34 187.363 175.477 186.831 175.669C186.306 175.861 185.885 176.138 185.568 176.5C185.258 176.854 185.102 177.327 185.102 177.918C185.102 178.738 185.405 179.358 186.011 179.779C186.617 180.193 187.389 180.4 188.327 180.4Z" fill="#67707E"/>
<path d="M203.73 159.991V182.682H200.417V159.991H203.73Z" fill="#67707E"/>
<path d="M215.591 162.939V159.991H233.152V162.939H226.072V182.682H222.659V162.939H215.591Z" fill="#67707E"/>
<path d="M241.633 183.026C239.956 183.026 238.512 182.668 237.301 181.951C236.097 181.227 235.166 180.212 234.509 178.904C233.859 177.589 233.534 176.049 233.534 174.284C233.534 172.541 233.859 171.004 234.509 169.675C235.166 168.345 236.082 167.308 237.257 166.562C238.439 165.816 239.82 165.443 241.4 165.443C242.361 165.443 243.291 165.601 244.192 165.919C245.094 166.237 245.902 166.735 246.619 167.415C247.335 168.094 247.9 168.977 248.314 170.063C248.728 171.141 248.935 172.452 248.935 173.996V175.17H235.406V172.689H245.688C245.688 171.817 245.511 171.045 245.156 170.373C244.802 169.693 244.303 169.158 243.661 168.766C243.025 168.375 242.279 168.179 241.423 168.179C240.492 168.179 239.679 168.408 238.985 168.866C238.298 169.317 237.766 169.908 237.39 170.639C237.02 171.363 236.836 172.149 236.836 172.999V174.938C236.836 176.075 237.035 177.043 237.434 177.841C237.84 178.638 238.405 179.248 239.129 179.669C239.853 180.082 240.699 180.289 241.666 180.289C242.294 180.289 242.867 180.2 243.384 180.023C243.901 179.839 244.348 179.565 244.724 179.203C245.101 178.841 245.389 178.394 245.589 177.863L248.724 178.428C248.473 179.351 248.022 180.16 247.372 180.854C246.73 181.541 245.921 182.077 244.946 182.461C243.978 182.837 242.874 183.026 241.633 183.026Z" fill="#67707E"/>
<path d="M259.779 183.026C258.131 183.026 256.713 182.653 255.524 181.907C254.342 181.153 253.434 180.116 252.799 178.793C252.163 177.471 251.846 175.957 251.846 174.251C251.846 172.522 252.171 170.997 252.821 169.675C253.471 168.345 254.387 167.308 255.568 166.562C256.75 165.816 258.143 165.443 259.745 165.443C261.038 165.443 262.19 165.683 263.202 166.163C264.214 166.635 265.03 167.3 265.651 168.157C266.279 169.014 266.652 170.015 266.77 171.16H263.546C263.368 170.362 262.962 169.675 262.327 169.099C261.699 168.523 260.857 168.235 259.801 168.235C258.878 168.235 258.069 168.478 257.374 168.966C256.687 169.446 256.152 170.133 255.768 171.027C255.384 171.913 255.192 172.962 255.192 174.173C255.192 175.414 255.38 176.485 255.757 177.386C256.133 178.287 256.665 178.985 257.352 179.48C258.047 179.975 258.863 180.223 259.801 180.223C260.429 180.223 260.997 180.108 261.507 179.879C262.024 179.643 262.456 179.307 262.803 178.871C263.158 178.435 263.405 177.911 263.546 177.298H266.77C266.652 178.398 266.293 179.381 265.695 180.245C265.097 181.109 264.295 181.789 263.291 182.283C262.294 182.778 261.123 183.026 259.779 183.026Z" fill="#67707E"/>
<path d="M273.625 172.578V182.682H270.313V159.991H273.581V168.434H273.791C274.19 167.518 274.8 166.791 275.62 166.251C276.439 165.712 277.511 165.443 278.833 165.443C280 165.443 281.019 165.683 281.891 166.163C282.77 166.643 283.449 167.359 283.929 168.312C284.417 169.258 284.661 170.439 284.661 171.858V182.682H281.348V172.256C281.348 171.008 281.026 170.041 280.384 169.354C279.741 168.659 278.847 168.312 277.703 168.312C276.92 168.312 276.218 168.478 275.597 168.811C274.984 169.143 274.501 169.631 274.146 170.273C273.799 170.908 273.625 171.677 273.625 172.578Z" fill="#67707E"/>
<path d="M292.394 172.578V182.682H289.081V165.664H292.261V168.434H292.472C292.863 167.533 293.476 166.809 294.311 166.262C295.153 165.716 296.213 165.443 297.491 165.443C298.65 165.443 299.666 165.686 300.538 166.174C301.409 166.654 302.085 167.37 302.565 168.323C303.045 169.276 303.285 170.454 303.285 171.858V182.682H299.972V172.256C299.972 171.023 299.651 170.059 299.009 169.365C298.366 168.663 297.483 168.312 296.361 168.312C295.592 168.312 294.909 168.478 294.311 168.811C293.72 169.143 293.251 169.631 292.904 170.273C292.564 170.908 292.394 171.677 292.394 172.578Z" fill="#67707E"/>
<path d="M314.897 183.026C313.301 183.026 311.909 182.66 310.72 181.929C309.53 181.198 308.607 180.175 307.95 178.86C307.292 177.545 306.964 176.009 306.964 174.251C306.964 172.485 307.292 170.942 307.95 169.619C308.607 168.297 309.53 167.271 310.72 166.539C311.909 165.808 313.301 165.443 314.897 165.443C316.492 165.443 317.884 165.808 319.074 166.539C320.263 167.271 321.186 168.297 321.843 169.619C322.501 170.942 322.83 172.485 322.83 174.251C322.83 176.009 322.501 177.545 321.843 178.86C321.186 180.175 320.263 181.198 319.074 181.929C317.884 182.66 316.492 183.026 314.897 183.026ZM314.908 180.245C315.942 180.245 316.799 179.971 317.478 179.425C318.158 178.878 318.66 178.151 318.985 177.242C319.317 176.334 319.484 175.333 319.484 174.24C319.484 173.154 319.317 172.157 318.985 171.248C318.66 170.332 318.158 169.597 317.478 169.043C316.799 168.489 315.942 168.212 314.908 168.212C313.866 168.212 313.002 168.489 312.315 169.043C311.636 169.597 311.13 170.332 310.797 171.248C310.472 172.157 310.31 173.154 310.31 174.24C310.31 175.333 310.472 176.334 310.797 177.242C311.13 178.151 311.636 178.878 312.315 179.425C313.002 179.971 313.866 180.245 314.908 180.245Z" fill="#67707E"/>
<path d="M329.84 159.991V182.682H326.527V159.991H329.84Z" fill="#67707E"/>
<path d="M341.465 183.026C339.87 183.026 338.478 182.66 337.288 181.929C336.099 181.198 335.176 180.175 334.518 178.86C333.861 177.545 333.532 176.009 333.532 174.251C333.532 172.485 333.861 170.942 334.518 169.619C335.176 168.297 336.099 167.271 337.288 166.539C338.478 165.808 339.87 165.443 341.465 165.443C343.061 165.443 344.453 165.808 345.642 166.539C346.832 167.271 347.755 168.297 348.412 169.619C349.07 170.942 349.398 172.485 349.398 174.251C349.398 176.009 349.07 177.545 348.412 178.86C347.755 180.175 346.832 181.198 345.642 181.929C344.453 182.66 343.061 183.026 341.465 183.026ZM341.476 180.245C342.511 180.245 343.367 179.971 344.047 179.425C344.726 178.878 345.229 178.151 345.554 177.242C345.886 176.334 346.052 175.333 346.052 174.24C346.052 173.154 345.886 172.157 345.554 171.248C345.229 170.332 344.726 169.597 344.047 169.043C343.367 168.489 342.511 168.212 341.476 168.212C340.435 168.212 339.571 168.489 338.884 169.043C338.204 169.597 337.698 170.332 337.366 171.248C337.041 172.157 336.878 173.154 336.878 174.24C336.878 175.333 337.041 176.334 337.366 177.242C337.698 178.151 338.204 178.878 338.884 179.425C339.571 179.971 340.435 180.245 341.476 180.245Z" fill="#67707E"/>
<path d="M360.231 189.419C358.88 189.419 357.716 189.241 356.741 188.887C355.774 188.532 354.983 188.063 354.37 187.48C353.757 186.896 353.299 186.257 352.996 185.563L355.844 184.389C356.043 184.714 356.309 185.057 356.642 185.419C356.981 185.788 357.439 186.102 358.015 186.361C358.599 186.619 359.349 186.748 360.265 186.748C361.52 186.748 362.558 186.442 363.378 185.829C364.198 185.223 364.608 184.256 364.608 182.926V179.58H364.397C364.198 179.942 363.91 180.344 363.533 180.788C363.164 181.231 362.654 181.615 362.004 181.94C361.354 182.265 360.508 182.427 359.467 182.427C358.123 182.427 356.911 182.114 355.833 181.486C354.762 180.85 353.912 179.916 353.284 178.683C352.664 177.442 352.354 175.916 352.354 174.107C352.354 172.297 352.66 170.746 353.273 169.453C353.894 168.161 354.743 167.171 355.822 166.484C356.9 165.79 358.123 165.443 359.489 165.443C360.545 165.443 361.398 165.62 362.048 165.974C362.698 166.321 363.204 166.728 363.566 167.193C363.936 167.658 364.22 168.068 364.419 168.423H364.663V165.664H367.909V183.059C367.909 184.521 367.57 185.722 366.89 186.66C366.211 187.598 365.291 188.292 364.131 188.743C362.979 189.193 361.679 189.419 360.231 189.419ZM360.198 179.68C361.151 179.68 361.956 179.458 362.613 179.015C363.278 178.564 363.78 177.922 364.12 177.087C364.467 176.245 364.641 175.237 364.641 174.062C364.641 172.918 364.471 171.909 364.131 171.038C363.792 170.166 363.293 169.487 362.636 168.999C361.978 168.504 361.166 168.257 360.198 168.257C359.201 168.257 358.37 168.515 357.705 169.032C357.04 169.542 356.538 170.236 356.198 171.115C355.866 171.994 355.7 172.977 355.7 174.062C355.7 175.178 355.87 176.156 356.209 176.998C356.549 177.841 357.051 178.498 357.716 178.971C358.388 179.443 359.216 179.68 360.198 179.68Z" fill="#67707E"/>
<path d="M372.352 182.682V165.664H375.665V182.682H372.352ZM374.025 163.038C373.449 163.038 372.954 162.846 372.541 162.462C372.134 162.071 371.931 161.605 371.931 161.066C371.931 160.519 372.134 160.054 372.541 159.67C372.954 159.279 373.449 159.083 374.025 159.083C374.602 159.083 375.093 159.279 375.499 159.67C375.913 160.054 376.119 160.519 376.119 161.066C376.119 161.605 375.913 162.071 375.499 162.462C375.093 162.846 374.602 163.038 374.025 163.038Z" fill="#67707E"/>
<path d="M387.457 183.026C385.78 183.026 384.336 182.668 383.124 181.951C381.92 181.227 380.99 180.212 380.332 178.904C379.682 177.589 379.357 176.049 379.357 174.284C379.357 172.541 379.682 171.004 380.332 169.675C380.99 168.345 381.906 167.308 383.08 166.562C384.262 165.816 385.643 165.443 387.224 165.443C388.184 165.443 389.115 165.601 390.016 165.919C390.917 166.237 391.726 166.735 392.442 167.415C393.159 168.094 393.724 168.977 394.138 170.063C394.551 171.141 394.758 172.452 394.758 173.996V175.17H381.23V172.689H391.512C391.512 171.817 391.334 171.045 390.98 170.373C390.625 169.693 390.127 169.158 389.484 168.766C388.849 168.375 388.103 168.179 387.246 168.179C386.315 168.179 385.503 168.408 384.809 168.866C384.122 169.317 383.59 169.908 383.213 170.639C382.844 171.363 382.659 172.149 382.659 172.999V174.938C382.659 176.075 382.859 177.043 383.257 177.841C383.664 178.638 384.229 179.248 384.953 179.669C385.676 180.082 386.522 180.289 387.49 180.289C388.118 180.289 388.69 180.2 389.207 180.023C389.724 179.839 390.171 179.565 390.548 179.203C390.924 178.841 391.213 178.394 391.412 177.863L394.547 178.428C394.296 179.351 393.846 180.16 393.196 180.854C392.553 181.541 391.744 182.077 390.769 182.461C389.802 182.837 388.697 183.026 387.457 183.026Z" fill="#67707E"/>
<path d="M411.186 169.819L408.184 170.351C408.058 169.967 407.859 169.601 407.585 169.254C407.319 168.907 406.957 168.622 406.5 168.401C406.042 168.179 405.469 168.068 404.782 168.068C403.844 168.068 403.061 168.279 402.433 168.7C401.806 169.114 401.492 169.649 401.492 170.306C401.492 170.875 401.702 171.333 402.123 171.68C402.544 172.027 403.224 172.312 404.162 172.533L406.865 173.154C408.431 173.516 409.598 174.073 410.366 174.827C411.134 175.58 411.519 176.559 411.519 177.763C411.519 178.782 411.223 179.691 410.632 180.489C410.049 181.279 409.232 181.899 408.184 182.35C407.142 182.8 405.934 183.026 404.561 183.026C402.655 183.026 401.1 182.619 399.896 181.807C398.692 180.987 397.953 179.824 397.68 178.317L400.882 177.829C401.082 178.664 401.492 179.296 402.112 179.724C402.732 180.145 403.541 180.356 404.538 180.356C405.624 180.356 406.492 180.13 407.142 179.68C407.792 179.222 408.117 178.664 408.117 178.007C408.117 177.475 407.918 177.028 407.519 176.666C407.127 176.304 406.525 176.031 405.713 175.846L402.832 175.215C401.244 174.853 400.07 174.277 399.309 173.486C398.555 172.696 398.179 171.695 398.179 170.484C398.179 169.479 398.459 168.6 399.021 167.847C399.582 167.093 400.358 166.506 401.348 166.085C402.337 165.657 403.471 165.443 404.749 165.443C406.588 165.443 408.036 165.841 409.092 166.639C410.148 167.429 410.846 168.489 411.186 169.819Z" fill="#67707E"/>
<path d="M431.517 165.664V168.323H421.9V165.664H431.517ZM424.537 182.682V163.692C424.537 162.628 424.77 161.746 425.235 161.044C425.7 160.335 426.317 159.807 427.085 159.46C427.854 159.105 428.688 158.928 429.589 158.928C430.254 158.928 430.823 158.983 431.296 159.094C431.768 159.197 432.119 159.293 432.348 159.382L431.573 162.063C431.417 162.019 431.218 161.967 430.974 161.908C430.73 161.842 430.435 161.808 430.088 161.808C429.283 161.808 428.707 162.008 428.359 162.407C428.02 162.806 427.85 163.382 427.85 164.135V182.682H424.537Z" fill="#67707E"/>
<path d="M441.433 183.026C439.838 183.026 438.446 182.66 437.256 181.929C436.067 181.198 435.144 180.175 434.486 178.86C433.829 177.545 433.5 176.009 433.5 174.251C433.5 172.485 433.829 170.942 434.486 169.619C435.144 168.297 436.067 167.271 437.256 166.539C438.446 165.808 439.838 165.443 441.433 165.443C443.029 165.443 444.421 165.808 445.61 166.539C446.8 167.271 447.723 168.297 448.38 169.619C449.038 170.942 449.366 172.485 449.366 174.251C449.366 176.009 449.038 177.545 448.38 178.86C447.723 180.175 446.8 181.198 445.61 181.929C444.421 182.66 443.029 183.026 441.433 183.026ZM441.444 180.245C442.478 180.245 443.335 179.971 444.015 179.425C444.694 178.878 445.197 178.151 445.522 177.242C445.854 176.334 446.02 175.333 446.02 174.24C446.02 173.154 445.854 172.157 445.522 171.248C445.197 170.332 444.694 169.597 444.015 169.043C443.335 168.489 442.478 168.212 441.444 168.212C440.403 168.212 439.539 168.489 438.852 169.043C438.172 169.597 437.666 170.332 437.334 171.248C437.009 172.157 436.846 173.154 436.846 174.24C436.846 175.333 437.009 176.334 437.334 177.242C437.666 178.151 438.172 178.878 438.852 179.425C439.539 179.971 440.403 180.245 441.444 180.245Z" fill="#67707E"/>
<path d="M453.064 182.682V165.664H456.266V168.368H456.443C456.754 167.452 457.3 166.731 458.083 166.207C458.873 165.675 459.767 165.409 460.764 165.409C460.971 165.409 461.215 165.417 461.496 165.431C461.784 165.446 462.009 165.465 462.171 165.487V168.656C462.039 168.619 461.802 168.578 461.462 168.534C461.123 168.482 460.783 168.456 460.443 168.456C459.66 168.456 458.962 168.622 458.349 168.955C457.743 169.28 457.263 169.734 456.909 170.318C456.554 170.894 456.377 171.551 456.377 172.29V182.682H453.064Z" fill="#67707E"/>
<path d="M473.561 182.682V159.991H481.871C483.481 159.991 484.814 160.257 485.871 160.789C486.927 161.314 487.717 162.026 488.242 162.927C488.766 163.821 489.028 164.829 489.028 165.952C489.028 166.898 488.855 167.695 488.508 168.345C488.16 168.988 487.695 169.505 487.112 169.896C486.535 170.281 485.9 170.561 485.206 170.739V170.96C485.959 170.997 486.694 171.241 487.411 171.691C488.135 172.135 488.733 172.766 489.206 173.586C489.678 174.406 489.915 175.403 489.915 176.577C489.915 177.737 489.641 178.779 489.095 179.702C488.556 180.618 487.721 181.345 486.591 181.885C485.461 182.416 484.017 182.682 482.259 182.682H473.561ZM476.985 179.746H481.926C483.566 179.746 484.741 179.429 485.45 178.793C486.159 178.158 486.513 177.364 486.513 176.411C486.513 175.695 486.332 175.037 485.97 174.439C485.608 173.841 485.091 173.364 484.419 173.01C483.754 172.655 482.964 172.478 482.048 172.478H476.985V179.746ZM476.985 169.808H481.572C482.34 169.808 483.031 169.66 483.644 169.365C484.264 169.069 484.755 168.656 485.117 168.124C485.487 167.585 485.671 166.949 485.671 166.218C485.671 165.28 485.342 164.493 484.685 163.858C484.028 163.223 483.02 162.905 481.66 162.905H476.985V169.808Z" fill="#67707E"/>
<path d="M501.044 183.026C499.367 183.026 497.923 182.668 496.712 181.951C495.508 181.227 494.577 180.212 493.92 178.904C493.27 177.589 492.945 176.049 492.945 174.284C492.945 172.541 493.27 171.004 493.92 169.675C494.577 168.345 495.493 167.308 496.668 166.562C497.849 165.816 499.231 165.443 500.811 165.443C501.772 165.443 502.702 165.601 503.603 165.919C504.505 166.237 505.313 166.735 506.03 167.415C506.746 168.094 507.311 168.977 507.725 170.063C508.139 171.141 508.345 172.452 508.345 173.996V175.17H494.817V172.689H505.099C505.099 171.817 504.922 171.045 504.567 170.373C504.213 169.693 503.714 169.158 503.072 168.766C502.436 168.375 501.69 168.179 500.834 168.179C499.903 168.179 499.09 168.408 498.396 168.866C497.709 169.317 497.177 169.908 496.801 170.639C496.431 171.363 496.247 172.149 496.247 172.999V174.938C496.247 176.075 496.446 177.043 496.845 177.841C497.251 178.638 497.816 179.248 498.54 179.669C499.264 180.082 500.11 180.289 501.077 180.289C501.705 180.289 502.278 180.2 502.795 180.023C503.312 179.839 503.759 179.565 504.135 179.203C504.512 178.841 504.8 178.394 504.999 177.863L508.135 178.428C507.884 179.351 507.433 180.16 506.783 180.854C506.141 181.541 505.332 182.077 504.357 182.461C503.389 182.837 502.285 183.026 501.044 183.026Z" fill="#67707E"/>
<path d="M519.965 165.664V168.323H510.669V165.664H519.965ZM513.162 161.587H516.475V177.685C516.475 178.328 516.571 178.812 516.763 179.137C516.955 179.454 517.203 179.672 517.505 179.791C517.816 179.901 518.152 179.957 518.514 179.957C518.78 179.957 519.012 179.938 519.212 179.901C519.411 179.864 519.566 179.835 519.677 179.813L520.275 182.549C520.083 182.623 519.81 182.697 519.456 182.771C519.101 182.852 518.658 182.896 518.126 182.904C517.254 182.919 516.442 182.764 515.688 182.439C514.935 182.114 514.326 181.611 513.86 180.932C513.395 180.252 513.162 179.399 513.162 178.372V161.587Z" fill="#67707E"/>
<path d="M531.574 165.664V168.323H522.278V165.664H531.574ZM524.771 161.587H528.084V177.685C528.084 178.328 528.18 178.812 528.372 179.137C528.564 179.454 528.811 179.672 529.114 179.791C529.424 179.901 529.76 179.957 530.122 179.957C530.388 179.957 530.621 179.938 530.82 179.901C531.02 179.864 531.175 179.835 531.286 179.813L531.884 182.549C531.692 182.623 531.419 182.697 531.064 182.771C530.71 182.852 530.266 182.896 529.735 182.904C528.863 182.919 528.05 182.764 527.297 182.439C526.544 182.114 525.934 181.611 525.469 180.932C525.004 180.252 524.771 179.399 524.771 178.372V161.587Z" fill="#67707E"/>
<path d="M542.39 183.026C540.713 183.026 539.269 182.668 538.058 181.951C536.854 181.227 535.923 180.212 535.266 178.904C534.616 177.589 534.291 176.049 534.291 174.284C534.291 172.541 534.616 171.004 535.266 169.675C535.923 168.345 536.839 167.308 538.014 166.562C539.196 165.816 540.577 165.443 542.158 165.443C543.118 165.443 544.048 165.601 544.95 165.919C545.851 166.237 546.659 166.735 547.376 167.415C548.092 168.094 548.658 168.977 549.071 170.063C549.485 171.141 549.692 172.452 549.692 173.996V175.17H536.163V172.689H546.445C546.445 171.817 546.268 171.045 545.913 170.373C545.559 169.693 545.06 169.158 544.418 168.766C543.783 168.375 543.036 168.179 542.18 168.179C541.249 168.179 540.436 168.408 539.742 168.866C539.055 169.317 538.523 169.908 538.147 170.639C537.777 171.363 537.593 172.149 537.593 172.999V174.938C537.593 176.075 537.792 177.043 538.191 177.841C538.597 178.638 539.162 179.248 539.886 179.669C540.61 180.082 541.456 180.289 542.423 180.289C543.051 180.289 543.624 180.2 544.141 180.023C544.658 179.839 545.105 179.565 545.481 179.203C545.858 178.841 546.146 178.394 546.346 177.863L549.481 178.428C549.23 179.351 548.779 180.16 548.129 180.854C547.487 181.541 546.678 182.077 545.703 182.461C544.735 182.837 543.631 183.026 542.39 183.026Z" fill="#67707E"/>
<path d="M553.367 182.682V165.664H556.569V168.368H556.746C557.057 167.452 557.603 166.731 558.386 166.207C559.177 165.675 560.07 165.409 561.068 165.409C561.274 165.409 561.518 165.417 561.799 165.431C562.087 165.446 562.312 165.465 562.475 165.487V168.656C562.342 168.619 562.105 168.578 561.766 168.534C561.426 168.482 561.086 168.456 560.746 168.456C559.963 168.456 559.265 168.622 558.652 168.955C558.046 169.28 557.566 169.734 557.212 170.318C556.857 170.894 556.68 171.551 556.68 172.29V182.682H553.367Z" fill="#67707E"/>
<path d="M581.21 182.682H573.864V159.991H581.443C583.666 159.991 585.575 160.446 587.171 161.354C588.766 162.255 589.989 163.552 590.838 165.243C591.695 166.927 592.123 168.947 592.123 171.304C592.123 173.667 591.691 175.698 590.827 177.397C589.97 179.096 588.729 180.404 587.104 181.319C585.479 182.228 583.515 182.682 581.21 182.682ZM577.288 179.691H581.022C582.75 179.691 584.187 179.366 585.332 178.716C586.477 178.058 587.333 177.109 587.902 175.868C588.471 174.62 588.755 173.098 588.755 171.304C588.755 169.523 588.471 168.013 587.902 166.772C587.341 165.531 586.502 164.589 585.387 163.947C584.272 163.304 582.887 162.983 581.232 162.983H577.288V179.691Z" fill="#67707E"/>
<path d="M603.45 183.026C601.773 183.026 600.329 182.668 599.117 181.951C597.913 181.227 596.983 180.212 596.325 178.904C595.675 177.589 595.35 176.049 595.35 174.284C595.35 172.541 595.675 171.004 596.325 169.675C596.983 168.345 597.899 167.308 599.073 166.562C600.255 165.816 601.636 165.443 603.217 165.443C604.177 165.443 605.108 165.601 606.009 165.919C606.91 166.237 607.719 166.735 608.435 167.415C609.152 168.094 609.717 168.977 610.13 170.063C610.544 171.141 610.751 172.452 610.751 173.996V175.17H597.223V172.689H607.505C607.505 171.817 607.327 171.045 606.973 170.373C606.618 169.693 606.12 169.158 605.477 168.766C604.842 168.375 604.096 168.179 603.239 168.179C602.308 168.179 601.496 168.408 600.802 168.866C600.115 169.317 599.583 169.908 599.206 170.639C598.837 171.363 598.652 172.149 598.652 172.999V174.938C598.652 176.075 598.852 177.043 599.25 177.841C599.657 178.638 600.222 179.248 600.946 179.669C601.669 180.082 602.515 180.289 603.483 180.289C604.111 180.289 604.683 180.2 605.2 180.023C605.717 179.839 606.164 179.565 606.541 179.203C606.917 178.841 607.206 178.394 607.405 177.863L610.54 178.428C610.289 179.351 609.839 180.16 609.189 180.854C608.546 181.541 607.737 182.077 606.762 182.461C605.795 182.837 604.69 183.026 603.45 183.026Z" fill="#67707E"/>
<path d="M628.498 165.664L622.326 182.682H618.781L612.598 165.664H616.155L620.465 178.76H620.642L624.941 165.664H628.498Z" fill="#67707E"/>
<path d="M638.367 183.026C636.69 183.026 635.246 182.668 634.035 181.951C632.831 181.227 631.9 180.212 631.243 178.904C630.593 177.589 630.268 176.049 630.268 174.284C630.268 172.541 630.593 171.004 631.243 169.675C631.9 168.345 632.816 167.308 633.99 166.562C635.172 165.816 636.553 165.443 638.134 165.443C639.094 165.443 640.025 165.601 640.926 165.919C641.827 166.237 642.636 166.735 643.352 167.415C644.069 168.094 644.634 168.977 645.048 170.063C645.461 171.141 645.668 172.452 645.668 173.996V175.17H632.14V172.689H642.422C642.422 171.817 642.245 171.045 641.89 170.373C641.535 169.693 641.037 169.158 640.394 168.766C639.759 168.375 639.013 168.179 638.156 168.179C637.226 168.179 636.413 168.408 635.719 168.866C635.032 169.317 634.5 169.908 634.123 170.639C633.754 171.363 633.569 172.149 633.569 172.999V174.938C633.569 176.075 633.769 177.043 634.168 177.841C634.574 178.638 635.139 179.248 635.863 179.669C636.587 180.082 637.432 180.289 638.4 180.289C639.028 180.289 639.6 180.2 640.117 180.023C640.634 179.839 641.081 179.565 641.458 179.203C641.835 178.841 642.123 178.394 642.322 177.863L645.458 178.428C645.206 179.351 644.756 180.16 644.106 180.854C643.463 181.541 642.654 182.077 641.68 182.461C640.712 182.837 639.608 183.026 638.367 183.026Z" fill="#67707E"/>
<path d="M652.657 159.991V182.682H649.344V159.991H652.657Z" fill="#67707E"/>
<path d="M664.282 183.026C662.686 183.026 661.294 182.66 660.105 181.929C658.916 181.198 657.992 180.175 657.335 178.86C656.677 177.545 656.349 176.009 656.349 174.251C656.349 172.485 656.677 170.942 657.335 169.619C657.992 168.297 658.916 167.271 660.105 166.539C661.294 165.808 662.686 165.443 664.282 165.443C665.877 165.443 667.27 165.808 668.459 166.539C669.648 167.271 670.571 168.297 671.229 169.619C671.886 170.942 672.215 172.485 672.215 174.251C672.215 176.009 671.886 177.545 671.229 178.86C670.571 180.175 669.648 181.198 668.459 181.929C667.27 182.66 665.877 183.026 664.282 183.026ZM664.293 180.245C665.327 180.245 666.184 179.971 666.863 179.425C667.543 178.878 668.045 178.151 668.37 177.242C668.703 176.334 668.869 175.333 668.869 174.24C668.869 173.154 668.703 172.157 668.37 171.248C668.045 170.332 667.543 169.597 666.863 169.043C666.184 168.489 665.327 168.212 664.293 168.212C663.251 168.212 662.387 168.489 661.7 169.043C661.021 169.597 660.515 170.332 660.182 171.248C659.857 172.157 659.695 173.154 659.695 174.24C659.695 175.333 659.857 176.334 660.182 177.242C660.515 178.151 661.021 178.878 661.7 179.425C662.387 179.971 663.251 180.245 664.293 180.245Z" fill="#67707E"/>
<path d="M675.912 189.064V165.664H679.148V168.423H679.425C679.617 168.068 679.894 167.658 680.256 167.193C680.618 166.728 681.12 166.321 681.762 165.974C682.405 165.62 683.255 165.443 684.311 165.443C685.685 165.443 686.911 165.79 687.989 166.484C689.068 167.178 689.913 168.179 690.526 169.487C691.147 170.794 691.457 172.367 691.457 174.206C691.457 176.046 691.151 177.623 690.537 178.937C689.924 180.245 689.082 181.253 688.011 181.962C686.94 182.664 685.718 183.015 684.344 183.015C683.31 183.015 682.464 182.841 681.807 182.494C681.157 182.147 680.647 181.741 680.278 181.275C679.909 180.81 679.624 180.396 679.425 180.034H679.225V189.064H675.912ZM679.159 174.173C679.159 175.37 679.332 176.419 679.68 177.32C680.027 178.221 680.529 178.926 681.186 179.436C681.844 179.938 682.649 180.189 683.602 180.189C684.591 180.189 685.419 179.927 686.083 179.403C686.748 178.871 687.251 178.151 687.59 177.242C687.938 176.334 688.111 175.311 688.111 174.173C688.111 173.05 687.941 172.042 687.601 171.148C687.269 170.255 686.767 169.549 686.095 169.032C685.43 168.515 684.599 168.257 683.602 168.257C682.641 168.257 681.829 168.504 681.164 168.999C680.507 169.494 680.008 170.185 679.668 171.071C679.329 171.957 679.159 172.991 679.159 174.173Z" fill="#67707E"/>
<path d="M695.169 182.682V165.664H698.349V168.434H698.559C698.914 167.496 699.493 166.765 700.299 166.24C701.104 165.708 702.068 165.443 703.19 165.443C704.328 165.443 705.281 165.708 706.049 166.24C706.824 166.772 707.397 167.503 707.766 168.434H707.943C708.35 167.525 708.996 166.802 709.882 166.262C710.769 165.716 711.825 165.443 713.051 165.443C714.595 165.443 715.854 165.926 716.829 166.894C717.812 167.862 718.303 169.32 718.303 171.27V182.682H714.99V171.581C714.99 170.428 714.676 169.594 714.048 169.077C713.42 168.56 712.671 168.301 711.799 168.301C710.721 168.301 709.882 168.633 709.284 169.298C708.686 169.956 708.387 170.801 708.387 171.835V182.682H705.085V171.37C705.085 170.447 704.797 169.704 704.221 169.143C703.645 168.582 702.895 168.301 701.972 168.301C701.344 168.301 700.764 168.467 700.232 168.8C699.708 169.125 699.283 169.579 698.958 170.162C698.64 170.746 698.482 171.422 698.482 172.19V182.682H695.169Z" fill="#67707E"/>
<path d="M730.078 183.026C728.401 183.026 726.957 182.668 725.746 181.951C724.542 181.227 723.611 180.212 722.953 178.904C722.303 177.589 721.979 176.049 721.979 174.284C721.979 172.541 722.303 171.004 722.953 169.675C723.611 168.345 724.527 167.308 725.701 166.562C726.883 165.816 728.264 165.443 729.845 165.443C730.805 165.443 731.736 165.601 732.637 165.919C733.538 166.237 734.347 166.735 735.063 167.415C735.78 168.094 736.345 168.977 736.759 170.063C737.172 171.141 737.379 172.452 737.379 173.996V175.17H723.851V172.689H734.133C734.133 171.817 733.956 171.045 733.601 170.373C733.246 169.693 732.748 169.158 732.105 168.766C731.47 168.375 730.724 168.179 729.867 168.179C728.936 168.179 728.124 168.408 727.43 168.866C726.743 169.317 726.211 169.908 725.834 170.639C725.465 171.363 725.28 172.149 725.28 172.999V174.938C725.28 176.075 725.48 177.043 725.878 177.841C726.285 178.638 726.85 179.248 727.574 179.669C728.298 180.082 729.143 180.289 730.111 180.289C730.739 180.289 731.311 180.2 731.828 180.023C732.345 179.839 732.792 179.565 733.169 179.203C733.546 178.841 733.834 178.394 734.033 177.863L737.169 178.428C736.917 179.351 736.467 180.16 735.817 180.854C735.174 181.541 734.365 182.077 733.39 182.461C732.423 182.837 731.319 183.026 730.078 183.026Z" fill="#67707E"/>
<path d="M744.367 172.578V182.682H741.055V165.664H744.234V168.434H744.445C744.836 167.533 745.45 166.809 746.284 166.262C747.126 165.716 748.186 165.443 749.464 165.443C750.624 165.443 751.639 165.686 752.511 166.174C753.383 166.654 754.058 167.37 754.539 168.323C755.019 169.276 755.259 170.454 755.259 171.858V182.682H751.946V172.256C751.946 171.023 751.625 170.059 750.982 169.365C750.339 168.663 749.457 168.312 748.334 168.312C747.566 168.312 746.883 168.478 746.284 168.811C745.693 169.143 745.224 169.631 744.877 170.273C744.537 170.908 744.367 171.677 744.367 172.578Z" fill="#67707E"/>
<path d="M767.646 165.664V168.323H758.35V165.664H767.646ZM760.843 161.587H764.156V177.685C764.156 178.328 764.252 178.812 764.444 179.137C764.636 179.454 764.883 179.672 765.186 179.791C765.496 179.901 765.832 179.957 766.194 179.957C766.46 179.957 766.693 179.938 766.892 179.901C767.092 179.864 767.247 179.835 767.358 179.813L767.956 182.549C767.764 182.623 767.491 182.697 767.136 182.771C766.781 182.852 766.338 182.896 765.806 182.904C764.935 182.919 764.122 182.764 763.369 182.439C762.616 182.114 762.006 181.611 761.541 180.932C761.076 180.252 760.843 179.399 760.843 178.372V161.587Z" fill="#67707E"/>
</svg>
