<svg width="769" height="140" viewBox="0 0 769 140" fill="none" xmlns="http://www.w3.org/2000/svg">
<path d="M559.855 69.6737V115.71H536.837V69.6737C536.837 65.4282 535.328 61.822 532.31 58.8552C529.344 55.8372 525.738 54.3283 521.492 54.3283C517.247 54.3283 513.615 55.8372 510.597 58.8552C507.63 61.822 506.147 65.4282 506.147 69.6737V115.71H483.129V69.6737C483.129 65.4282 481.62 61.822 478.602 58.8552C475.635 55.8372 472.029 54.3283 467.783 54.3283C463.537 54.3283 459.906 55.8372 456.888 58.8552C453.921 61.822 452.438 65.4282 452.438 69.6737V115.71H429.419V69.6737C429.419 59.0854 433.153 50.0571 440.622 42.589C448.141 35.0697 457.195 31.3101 467.783 31.3101C478.269 31.3101 487.221 34.9674 494.638 42.2821C502.055 34.9674 511.006 31.3101 521.492 31.3101C532.08 31.3101 541.108 35.0697 548.576 42.589C556.096 50.0571 559.855 59.0854 559.855 69.6737Z" fill="#67707E"/>
<path d="M590.873 115.702H567.855V31.3017H590.873V115.702ZM579.364 23.629C576.193 23.629 573.482 22.5036 571.231 20.253C568.981 18.0023 567.855 15.2913 567.855 12.1199C567.855 8.94853 568.981 6.23751 571.231 3.98684C573.482 1.73617 576.193 0.61084 579.364 0.61084C582.536 0.61084 585.247 1.73617 587.497 3.98684C589.748 6.23751 590.873 8.94853 590.873 12.1199C590.873 15.2913 589.748 18.0023 587.497 20.253C585.247 22.5036 582.536 23.629 579.364 23.629Z" fill="#67707E"/>
<path d="M675.602 69.6737V115.71H652.584V69.6737C652.584 65.4282 651.075 61.822 648.057 58.8552C645.09 55.8372 641.484 54.3283 637.238 54.3283C632.993 54.3283 629.361 55.8372 626.343 58.8552C623.376 61.822 621.893 65.4282 621.893 69.6737V115.71H598.874V69.6737C598.874 59.0854 602.609 50.0571 610.077 42.589C617.596 35.0697 626.65 31.3101 637.238 31.3101C647.826 31.3101 656.855 35.0697 664.323 42.589C671.842 50.0571 675.602 59.0854 675.602 69.6737Z" fill="#67707E"/>
<path d="M768.002 73.5017C768.002 85.1642 763.884 95.1132 755.648 103.349C747.413 111.584 737.464 115.702 725.802 115.702C714.139 115.702 704.19 111.584 695.955 103.349C687.719 95.1132 683.602 85.1642 683.602 73.5017C683.602 61.8391 687.719 51.8902 695.955 43.6548C704.19 35.4194 714.139 31.3017 725.802 31.3017H744.983V54.3199H725.802C720.482 54.3199 715.955 56.1869 712.221 59.921C708.487 63.655 706.62 68.1819 706.62 73.5017C706.62 78.8214 708.487 83.3483 712.221 87.0824C715.955 90.8165 720.482 92.6835 725.802 92.6835C731.121 92.6835 735.648 90.8165 739.382 87.0824C743.116 83.3483 744.983 78.8214 744.983 73.5017V0.61084H768.002V73.5017Z" fill="#67707E"/>
<path d="M182.054 73.5101C182.054 61.8475 186.172 51.8985 194.407 43.6632C202.643 35.4278 212.592 31.3101 224.255 31.3101C235.917 31.3101 245.866 35.4278 254.101 43.6632C262.337 51.8985 266.455 61.8475 266.455 73.5101C266.455 85.1726 262.337 95.1216 254.101 103.357C245.866 111.592 235.917 115.71 224.255 115.71H205.072V92.6919H224.255C229.574 92.6919 234.101 90.8248 237.835 87.0908C241.569 83.3567 243.436 78.8298 243.436 73.5101C243.436 68.1903 241.569 63.6634 237.835 59.9293C234.101 56.1953 229.574 54.3282 224.255 54.3282C218.935 54.3282 214.408 56.1953 210.674 59.9293C206.94 63.6634 205.072 68.1903 205.072 73.5101V138.728H182.054V73.5101Z" fill="#67707E"/>
<path d="M316.655 92.6919C321.974 92.6919 326.501 90.8248 330.235 87.0908C333.969 83.3567 335.836 78.8298 335.836 73.5101C335.836 68.1903 333.969 63.6634 330.235 59.9293C326.501 56.1953 321.974 54.3282 316.655 54.3282C311.335 54.3282 306.808 56.1953 303.074 59.9293C299.34 63.6634 297.473 68.1903 297.473 73.5101C297.473 78.8298 299.34 83.3567 303.074 87.0908C306.808 90.8248 311.335 92.6919 316.655 92.6919ZM316.655 115.71C304.992 115.71 295.043 111.592 286.808 103.357C278.572 95.1216 274.455 85.1726 274.455 73.5101C274.455 61.8475 278.572 51.8985 286.808 43.6632C295.043 35.4278 304.992 31.3101 316.655 31.3101C328.317 31.3101 338.266 35.4278 346.501 43.6632C354.737 51.8985 358.855 61.8475 358.855 73.5101C358.855 85.1726 354.737 95.1216 346.501 103.357C338.266 111.592 328.317 115.71 316.655 115.71Z" fill="#67707E"/>
<path d="M389.874 31.3283H409.516V54.3464H389.874V77.3646C389.874 81.6102 391.356 85.2419 394.323 88.2599C397.341 91.2267 400.973 92.7101 405.219 92.7101H420.867L420.871 115.728H405.219C394.631 115.728 385.576 111.994 378.057 104.526C370.588 97.0068 366.854 87.953 366.854 77.3646V8.31006H389.874V31.3283Z" fill="#67707E"/>
<path d="M131.854 31.3101H166.38L166.381 54.3283H131.854C130.78 54.3283 129.859 54.7119 129.092 55.4792C128.376 56.1953 128.018 57.0905 128.018 58.1646C128.018 59.2388 128.376 60.1596 129.092 60.9268C129.859 61.6429 130.78 62.001 131.854 62.001H147.2C154.616 62.001 160.934 64.6353 166.151 69.9039C171.42 75.1214 174.054 81.4386 174.054 88.8555C174.054 96.2725 171.42 102.615 166.151 107.884C160.934 113.101 154.616 115.71 147.2 115.71H109V92.6919H147.2C148.274 92.6919 149.169 92.3338 149.885 91.6177C150.652 90.8504 151.036 89.9297 151.036 88.8555C151.036 87.7814 150.652 86.8862 149.885 86.1701C149.169 85.4028 148.274 85.0192 147.2 85.0192H131.854C124.437 85.0192 118.094 82.4105 112.826 77.193C107.608 71.9244 105 65.5816 105 58.1646C105 50.7477 107.608 44.4305 112.826 39.213C118.094 33.9444 124.437 31.3101 131.854 31.3101Z" fill="#67707E"/>
<path fill-rule="evenodd" clip-rule="evenodd" d="M77.2801 38.159L84 52.439L90.7199 38.159L105 31.439L90.7199 24.719L84 10.439L77.2801 24.719L63.0002 31.439L77.2801 38.159ZM6.39355 63.5848C2.17221 53.3934 -0.000488281 42.4704 -0.000488281 31.4394L41.999 31.4394C41.999 36.9549 43.0853 42.4164 45.196 47.5121C47.3067 52.6077 50.4003 57.2378 54.3003 61.1379C58.2004 65.0379 62.8303 68.1316 67.9259 70.2423C73.0216 72.353 78.483 73.4394 83.9985 73.4394L83.9985 115.439C72.9676 115.439 62.0447 113.267 51.8535 109.045C41.6622 104.824 32.4023 98.6365 24.6022 90.8364C16.8022 83.0362 10.6149 73.7761 6.39355 63.5848Z" fill="#67707E"/>
</svg>
