<svg width="274" height="66" viewBox="0 0 274 66" fill="none" xmlns="http://www.w3.org/2000/svg">
<path d="M47.7897 10.8286H59.9896L60.0714 18.8944H47.7897C47.4076 18.8944 47.0801 19.0289 46.8072 19.2977C46.5525 19.5487 46.4251 19.8623 46.4251 20.2387C46.4251 20.6151 46.5525 20.9378 46.8072 21.2066C47.0801 21.4576 47.4076 21.583 47.7897 21.583H53.2483C55.8866 21.583 58.1337 22.5061 59.9896 24.3523C61.8636 26.1806 62.8007 28.3942 62.8007 30.9932C62.8007 33.5922 61.8636 35.8148 59.9896 37.661C58.1337 39.4893 55.8866 40.4034 53.2483 40.4034H41.0212L40.9666 32.3375H53.2483C53.6304 32.3375 53.9488 32.2121 54.2035 31.9611C54.4764 31.6923 54.6129 31.3696 54.6129 30.9932C54.6129 30.6168 54.4764 30.3031 54.2035 30.0522C53.9488 29.7833 53.6304 29.6489 53.2483 29.6489H47.7897C45.1514 29.6489 42.8953 28.7348 41.0212 26.9065C39.1653 25.0603 38.2373 22.8377 38.2373 20.2387C38.2373 17.6397 39.1653 15.4261 41.0212 13.5978C42.8953 11.7516 45.1514 10.8286 47.7897 10.8286Z" fill="#FF7F32"/>
<path d="M65.0933 25.616C65.0933 21.5293 66.558 18.043 69.4874 15.1572C72.4168 12.2715 75.9558 10.8286 80.1042 10.8286C84.2527 10.8286 87.7917 12.2715 90.7211 15.1572C93.6505 18.043 95.1152 21.5293 95.1152 25.616C95.1152 29.7027 93.6505 33.1889 90.7211 36.0747C87.7917 38.9605 84.2527 40.4034 80.1042 40.4034H72.5715L72.4623 32.3375H80.1042C81.9965 32.3375 83.6068 31.6833 84.935 30.3748C86.2633 29.0664 86.9274 27.4801 86.9274 25.616C86.9274 23.7519 86.2633 22.1656 84.935 20.8571C83.6068 19.5487 81.9965 18.8944 80.1042 18.8944C78.212 18.8944 76.6017 19.5487 75.2734 20.8571C73.9452 22.1656 73.2811 23.7519 73.2811 25.616V48.4692H65.0933V25.616Z" fill="#FF7F32"/>
<path d="M112.528 32.3375C114.42 32.3375 116.03 31.6833 117.359 30.3748C118.687 29.0664 119.351 27.4801 119.351 25.616C119.351 23.7519 118.687 22.1656 117.359 20.8571C116.03 19.5487 114.42 18.8944 112.528 18.8944C110.636 18.8944 109.025 19.5487 107.697 20.8571C106.369 22.1656 105.705 23.7519 105.705 25.616C105.705 27.4801 106.369 29.0664 107.697 30.3748C109.025 31.6833 110.636 32.3375 112.528 32.3375ZM112.528 40.4034C108.379 40.4034 104.84 38.9605 101.911 36.0747C98.9817 33.1889 97.517 29.7027 97.517 25.616C97.517 21.5293 98.9817 18.043 101.911 15.1572C104.84 12.2715 108.379 10.8286 112.528 10.8286C116.676 10.8286 120.215 12.2715 123.145 15.1572C126.074 18.043 127.539 21.5293 127.539 25.616C127.539 29.7027 126.074 33.1889 123.145 36.0747C120.215 38.9605 116.676 40.4034 112.528 40.4034Z" fill="#FF7F32"/>
<path d="M138.347 10.8286H145.334V18.8944H138.347V26.9603C138.347 28.448 138.874 29.7206 139.93 30.7781C141.003 31.8177 142.295 32.3375 143.805 32.3375H149.264L149.373 40.4034H143.805C140.039 40.4034 136.818 39.0949 134.144 36.478C131.487 33.8431 130.159 30.6706 130.159 26.9603V2.7627H138.347V10.8286Z" fill="#FF7F32"/>
<path d="M30.371 18.1925L27.7387 13.4819L22.9177 10.8955L27.7392 8.32537L30.3719 3.61188L33.0038 8.32983L37.8252 10.9089L33.0113 13.4794L30.371 18.1925Z" fill="black"/>
<path d="M0.5 10.9026C0.5 14.7669 1.27265 18.5935 2.77383 22.1637C4.27501 25.7339 6.47532 28.9778 9.24914 31.7103C12.023 34.4428 15.316 36.6104 18.9401 38.0892C22.5643 39.568 26.4487 40.3292 30.3715 40.3292V25.6381C28.4071 25.6381 26.462 25.257 24.6472 24.5164C22.8323 23.7759 21.1833 22.6905 19.7943 21.3222C18.4053 19.9539 17.3035 18.3294 16.5518 16.5416C15.8001 14.7538 15.4132 12.8377 15.4132 10.9026H0.5Z" fill="#FF7F32"/>
<path d="M30.371 18.1925L27.7387 13.4819L22.9177 10.8955L27.7392 8.32537L30.3719 3.61188L33.0038 8.32983L37.8252 10.9089L33.0113 13.4794L30.371 18.1925Z" fill="#FF7F32"/>
<path d="M43.4381 63.6396H40.8252V55.6884H43.5209C44.3118 55.6884 44.9909 55.8476 45.5585 56.1659C46.126 56.4817 46.5608 56.9359 46.863 57.5287C47.1678 58.1188 47.3201 58.8267 47.3201 59.6523C47.3201 60.4806 47.1664 61.1924 46.859 61.7877C46.5543 62.383 46.1128 62.8411 45.5348 63.162C44.9568 63.4804 44.2579 63.6396 43.4381 63.6396ZM42.043 62.5913H43.3712C43.986 62.5913 44.497 62.4774 44.9042 62.2497C45.3115 62.0193 45.6163 61.6867 45.8186 61.2519C46.0209 60.8145 46.122 60.2813 46.122 59.6523C46.122 59.0286 46.0209 58.4993 45.8186 58.0644C45.6189 57.6296 45.3207 57.2996 44.9239 57.0744C44.5272 56.8492 44.0346 56.7366 43.446 56.7366H42.043V62.5913Z" fill="white"/>
<path d="M48.7399 63.6396V57.6762H49.9183V63.6396H48.7399ZM49.335 56.756C49.1301 56.756 48.9541 56.6888 48.8069 56.5542C48.6624 56.417 48.5902 56.2539 48.5902 56.065C48.5902 55.8734 48.6624 55.7104 48.8069 55.5758C48.9541 55.4386 49.1301 55.37 49.335 55.37C49.54 55.37 49.7147 55.4386 49.8592 55.5758C50.0063 55.7104 50.0799 55.8734 50.0799 56.065C50.0799 56.2539 50.0063 56.417 49.8592 56.5542C49.7147 56.6888 49.54 56.756 49.335 56.756Z" fill="white"/>
<path d="M54.0417 66.0001C53.5609 66.0001 53.1471 65.938 52.8002 65.8137C52.4561 65.6895 52.1749 65.5251 51.9569 65.3207C51.7388 65.1162 51.5759 64.8923 51.4682 64.649L52.481 64.2375C52.552 64.3513 52.6465 64.4717 52.7648 64.5985C52.8856 64.7279 53.0485 64.8379 53.2535 64.9285C53.461 65.0191 53.7277 65.0644 54.0535 65.0644C54.5002 65.0644 54.8693 64.957 55.161 64.7422C55.4526 64.5299 55.5984 64.1909 55.5984 63.725V62.5525H55.5236C55.4526 62.6793 55.3501 62.8204 55.2161 62.9757C55.0848 63.131 54.9035 63.2656 54.6723 63.3794C54.4411 63.4933 54.1402 63.5503 53.7698 63.5503C53.2916 63.5503 52.8607 63.4403 52.4771 63.2203C52.0961 62.9977 51.794 62.6703 51.5706 62.238C51.3499 61.8032 51.2396 61.2687 51.2396 60.6346C51.2396 60.0005 51.3486 59.4569 51.5667 59.004C51.7874 58.551 52.0895 58.2042 52.4731 57.9635C52.8567 57.7202 53.2916 57.5985 53.7776 57.5985C54.1534 57.5985 54.4568 57.6607 54.688 57.7849C54.9193 57.9065 55.0992 58.0489 55.228 58.212C55.3593 58.375 55.4605 58.5187 55.5314 58.6429H55.6181V57.6762H56.7729V63.7716C56.7729 64.284 56.652 64.7046 56.4103 65.0334C56.1686 65.3621 55.8415 65.6054 55.429 65.7632C55.0191 65.9211 54.5567 66.0001 54.0417 66.0001ZM54.0299 62.5874C54.3688 62.5874 54.6552 62.5098 54.889 62.3545C55.1255 62.1966 55.3042 61.9714 55.425 61.6789C55.5485 61.3839 55.6103 61.0306 55.6103 60.6191C55.6103 60.2179 55.5498 59.8646 55.429 59.5592C55.3081 59.2537 55.1308 59.0156 54.8969 58.8448C54.6631 58.6714 54.3741 58.5847 54.0299 58.5847C53.6752 58.5847 53.3796 58.6753 53.1431 58.8564C52.9067 59.035 52.728 59.2783 52.6071 59.5863C52.4889 59.8943 52.4298 60.2386 52.4298 60.6191C52.4298 61.0099 52.4902 61.3528 52.6111 61.6479C52.7319 61.943 52.9106 62.1733 53.1471 62.339C53.3862 62.5046 53.6804 62.5874 54.0299 62.5874Z" fill="white"/>
<path d="M58.3533 63.6396V57.6762H59.5317V63.6396H58.3533ZM58.9484 56.756C58.7434 56.756 58.5674 56.6888 58.4203 56.5542C58.2758 56.417 58.2035 56.2539 58.2035 56.065C58.2035 55.8734 58.2758 55.7104 58.4203 55.5758C58.5674 55.4386 58.7434 55.37 58.9484 55.37C59.1533 55.37 59.328 55.4386 59.4725 55.5758C59.6197 55.7104 59.6932 55.8734 59.6932 56.065C59.6932 56.2539 59.6197 56.417 59.4725 56.5542C59.328 56.6888 59.1533 56.756 58.9484 56.756Z" fill="white"/>
<path d="M63.9427 57.6762V58.608H60.6362V57.6762H63.9427ZM61.5229 56.2475H62.7013V61.8886C62.7013 62.1138 62.7355 62.2833 62.8038 62.3972C62.8721 62.5085 62.9601 62.5848 63.0678 62.6263C63.1782 62.6651 63.2977 62.6845 63.4265 62.6845C63.521 62.6845 63.6038 62.678 63.6747 62.6651C63.7457 62.6521 63.8009 62.6418 63.8403 62.634L64.0531 63.593C63.9848 63.6189 63.8876 63.6447 63.7615 63.6706C63.6353 63.6991 63.4777 63.7146 63.2885 63.7172C62.9785 63.7224 62.6895 63.668 62.4215 63.5542C62.1535 63.4403 61.9367 63.2643 61.7712 63.0261C61.6057 62.788 61.5229 62.4891 61.5229 62.1293V56.2475Z" fill="white"/>
<path d="M67.0079 63.7716C66.6243 63.7716 66.2775 63.7017 65.9675 63.5619C65.6575 63.4196 65.4118 63.2138 65.2305 62.9446C65.0518 62.6754 64.9625 62.3454 64.9625 61.9546C64.9625 61.6181 65.0282 61.3412 65.1596 61.1238C65.2909 60.9064 65.4683 60.7342 65.6916 60.6074C65.9149 60.4806 66.1645 60.3848 66.4404 60.3201C66.7163 60.2554 66.9974 60.2062 67.2838 60.1726C67.6464 60.1312 67.9407 60.0975 68.1666 60.0716C68.3926 60.0432 68.5568 59.9979 68.6593 59.9357C68.7617 59.8736 68.813 59.7727 68.813 59.6329V59.6057C68.813 59.2667 68.7158 59.004 68.5213 58.8176C68.3295 58.6313 68.0431 58.5381 67.6622 58.5381C67.2654 58.5381 66.9528 58.6248 66.7242 58.7982C66.4982 58.969 66.3419 59.1593 66.2552 59.3689L65.1477 59.1204C65.2791 58.7581 65.4709 58.4656 65.7231 58.243C65.978 58.0178 66.271 57.8548 66.602 57.7538C66.9331 57.6503 67.2812 57.5985 67.6464 57.5985C67.8881 57.5985 68.1443 57.627 68.4149 57.6839C68.6882 57.7383 68.943 57.8392 69.1795 57.9868C69.4186 58.1343 69.6143 58.3453 69.7667 58.6196C69.9191 58.8914 69.9953 59.2447 69.9953 59.6795V63.6396H68.8445V62.8243H68.7972C68.721 62.9744 68.6067 63.1219 68.4543 63.2669C68.3019 63.4118 68.1062 63.5322 67.8671 63.6279C67.628 63.7237 67.3416 63.7716 67.0079 63.7716ZM67.2641 62.8398C67.5899 62.8398 67.8684 62.7764 68.0996 62.6496C68.3335 62.5227 68.5108 62.3571 68.6317 62.1526C68.7552 61.9455 68.8169 61.7242 68.8169 61.4887V60.72C68.7749 60.7614 68.6934 60.8002 68.5726 60.8365C68.4543 60.8701 68.319 60.8999 68.1666 60.9258C68.0142 60.9491 67.8658 60.9711 67.7213 60.9918C67.5768 61.0099 67.4559 61.0254 67.3587 61.0384C67.1301 61.0668 66.9212 61.1147 66.7321 61.182C66.5455 61.2493 66.3958 61.3464 66.2828 61.4732C66.1724 61.5974 66.1173 61.7631 66.1173 61.9701C66.1173 62.2574 66.225 62.4748 66.4404 62.6224C66.6559 62.7673 66.9304 62.8398 67.2641 62.8398Z" fill="white"/>
<path d="M72.7432 55.6884V63.6396H71.5648V55.6884H72.7432Z" fill="white"/>
<path d="M76.9622 56.7211V55.6884H83.2088V56.7211H80.6905V63.6396H79.4766V56.7211H76.9622Z" fill="white"/>
<path d="M86.2258 63.7599C85.6293 63.7599 85.1157 63.6344 84.6848 63.3833C84.2565 63.1297 83.9255 62.7738 83.6916 62.3157C83.4604 61.855 83.3448 61.3153 83.3448 60.6967C83.3448 60.0859 83.4604 59.5475 83.6916 59.0816C83.9255 58.6157 84.2513 58.2521 84.669 57.9907C85.0894 57.7292 85.5807 57.5985 86.143 57.5985C86.4846 57.5985 86.8156 57.6542 87.1362 57.7655C87.4567 57.8768 87.7444 58.0515 87.9993 58.2896C88.2541 58.5277 88.4551 58.837 88.6023 59.2175C88.7494 59.5954 88.823 60.0548 88.823 60.5958V61.0073H84.0109V60.1376H87.6682C87.6682 59.8322 87.6052 59.5617 87.479 59.3262C87.3529 59.0881 87.1756 58.9004 86.947 58.7633C86.721 58.6261 86.4557 58.5575 86.1509 58.5575C85.8198 58.5575 85.5308 58.6377 85.2838 58.7982C85.0395 58.9561 84.8503 59.1631 84.7163 59.4194C84.585 59.673 84.5193 59.9487 84.5193 60.2463V60.9258C84.5193 61.3244 84.5902 61.6634 84.7321 61.943C84.8766 62.2225 85.0776 62.436 85.3351 62.5836C85.5926 62.7285 85.8934 62.801 86.2376 62.801C86.4609 62.801 86.6645 62.7699 86.8485 62.7078C87.0324 62.6431 87.1913 62.5473 87.3253 62.4205C87.4593 62.2937 87.5618 62.1371 87.6327 61.9507L88.7481 62.1487C88.6587 62.4723 88.4985 62.7557 88.2673 62.999C88.0387 63.2397 87.751 63.4273 87.4042 63.5619C87.06 63.6939 86.6672 63.7599 86.2258 63.7599Z" fill="white"/>
<path d="M92.6803 63.7599C92.0944 63.7599 91.5899 63.6292 91.1669 63.3678C90.7465 63.1038 90.4234 62.7401 90.1974 62.2768C89.9715 61.8135 89.8585 61.2829 89.8585 60.6851C89.8585 60.0794 89.9741 59.5449 90.2053 59.0816C90.4365 58.6157 90.7623 58.2521 91.1827 57.9907C91.6031 57.7292 92.0983 57.5985 92.6685 57.5985C93.1283 57.5985 93.5382 57.6827 93.8981 57.8509C94.2581 58.0165 94.5484 58.2495 94.7691 58.5497C94.9924 58.85 95.1251 59.2007 95.1671 59.6019H94.0203C93.9572 59.3223 93.8127 59.0816 93.5868 58.8797C93.3634 58.6778 93.0639 58.5769 92.6882 58.5769C92.3598 58.5769 92.0721 58.6623 91.8251 58.8331C91.5807 59.0014 91.3903 59.2421 91.2536 59.5553C91.117 59.8659 91.0487 60.2334 91.0487 60.6579C91.0487 61.0927 91.1157 61.468 91.2497 61.7838C91.3837 62.0995 91.5729 62.3441 91.8172 62.5176C92.0642 62.691 92.3545 62.7777 92.6882 62.7777C92.9115 62.7777 93.1138 62.7376 93.2951 62.6573C93.479 62.5745 93.6327 62.4567 93.7562 62.304C93.8823 62.1513 93.9704 61.9675 94.0203 61.7527H95.1671C95.1251 62.1384 94.9977 62.4826 94.7849 62.7854C94.572 63.0883 94.287 63.3264 93.9296 63.4998C93.5749 63.6732 93.1585 63.7599 92.6803 63.7599Z" fill="white"/>
<path d="M97.6057 60.0988V63.6396H96.4273V55.6884H97.5899V58.6468H97.6648C97.8067 58.3258 98.0235 58.0709 98.3151 57.8819C98.6068 57.693 98.9877 57.5985 99.458 57.5985C99.8732 57.5985 100.236 57.6827 100.546 57.8509C100.858 58.0191 101.1 58.2702 101.271 58.6041C101.444 58.9354 101.531 59.3495 101.531 59.8465V63.6396H100.353V59.9862C100.353 59.5488 100.238 59.2097 100.01 58.969C99.7812 58.7257 99.4633 58.6041 99.056 58.6041C98.7775 58.6041 98.5279 58.6623 98.3072 58.7788C98.0892 58.8953 97.9171 59.0661 97.7909 59.2913C97.6675 59.5139 97.6057 59.783 97.6057 60.0988Z" fill="white"/>
<path d="M104.282 60.0988V63.6396H103.104V57.6762H104.235V58.6468H104.31C104.449 58.331 104.667 58.0774 104.964 57.8858C105.263 57.6943 105.64 57.5985 106.095 57.5985C106.507 57.5985 106.869 57.6839 107.179 57.8548C107.489 58.023 107.729 58.2741 107.9 58.608C108.071 58.9418 108.156 59.3547 108.156 59.8465V63.6396H106.978V59.9862C106.978 59.554 106.863 59.2162 106.635 58.9729C106.406 58.727 106.092 58.6041 105.693 58.6041C105.42 58.6041 105.177 58.6623 104.964 58.7788C104.754 58.8953 104.587 59.0661 104.463 59.2913C104.342 59.5139 104.282 59.783 104.282 60.0988Z" fill="white"/>
<path d="M112.286 63.7599C111.719 63.7599 111.224 63.6318 110.801 63.3756C110.378 63.1193 110.049 62.7608 109.815 62.3001C109.581 61.8394 109.465 61.3011 109.465 60.6851C109.465 60.0665 109.581 59.5255 109.815 59.0622C110.049 58.5989 110.378 58.2391 110.801 57.9829C111.224 57.7267 111.719 57.5985 112.286 57.5985C112.854 57.5985 113.349 57.7267 113.772 57.9829C114.195 58.2391 114.524 58.5989 114.757 59.0622C114.991 59.5255 115.108 60.0665 115.108 60.6851C115.108 61.3011 114.991 61.8394 114.757 62.3001C114.524 62.7608 114.195 63.1193 113.772 63.3756C113.349 63.6318 112.854 63.7599 112.286 63.7599ZM112.29 62.7854C112.658 62.7854 112.963 62.6897 113.205 62.4981C113.446 62.3066 113.625 62.0517 113.741 61.7333C113.859 61.4149 113.918 61.0642 113.918 60.6812C113.918 60.3007 113.859 59.9513 113.741 59.6329C113.625 59.312 113.446 59.0544 113.205 58.8603C112.963 58.6662 112.658 58.5691 112.29 58.5691C111.92 58.5691 111.612 58.6662 111.368 58.8603C111.126 59.0544 110.946 59.312 110.828 59.6329C110.713 59.9513 110.655 60.3007 110.655 60.6812C110.655 61.0642 110.713 61.4149 110.828 61.7333C110.946 62.0517 111.126 62.3066 111.368 62.4981C111.612 62.6897 111.92 62.7854 112.29 62.7854Z" fill="white"/>
<path d="M117.602 55.6884V63.6396H116.424V55.6884H117.602Z" fill="white"/>
<path d="M121.737 63.7599C121.17 63.7599 120.674 63.6318 120.251 63.3756C119.828 63.1193 119.5 62.7608 119.266 62.3001C119.032 61.8394 118.915 61.3011 118.915 60.6851C118.915 60.0665 119.032 59.5255 119.266 59.0622C119.5 58.5989 119.828 58.2391 120.251 57.9829C120.674 57.7267 121.17 57.5985 121.737 57.5985C122.305 57.5985 122.8 57.7267 123.223 57.9829C123.646 58.2391 123.974 58.5989 124.208 59.0622C124.442 59.5255 124.559 60.0665 124.559 60.6851C124.559 61.3011 124.442 61.8394 124.208 62.3001C123.974 62.7608 123.646 63.1193 123.223 63.3756C122.8 63.6318 122.305 63.7599 121.737 63.7599ZM121.741 62.7854C122.109 62.7854 122.414 62.6897 122.655 62.4981C122.897 62.3066 123.076 62.0517 123.191 61.7333C123.31 61.4149 123.369 61.0642 123.369 60.6812C123.369 60.3007 123.31 59.9513 123.191 59.6329C123.076 59.312 122.897 59.0544 122.655 58.8603C122.414 58.6662 122.109 58.5691 121.741 58.5691C121.371 58.5691 121.063 58.6662 120.819 58.8603C120.577 59.0544 120.397 59.312 120.279 59.6329C120.163 59.9513 120.105 60.3007 120.105 60.6812C120.105 61.0642 120.163 61.4149 120.279 61.7333C120.397 62.0517 120.577 62.3066 120.819 62.4981C121.063 62.6897 121.371 62.7854 121.741 62.7854Z" fill="white"/>
<path d="M128.412 66.0001C127.932 66.0001 127.518 65.938 127.171 65.8137C126.827 65.6895 126.546 65.5251 126.328 65.3207C126.109 65.1162 125.947 64.8923 125.839 64.649L126.852 64.2375C126.923 64.3513 127.017 64.4717 127.135 64.5985C127.256 64.7279 127.419 64.8379 127.624 64.9285C127.832 65.0191 128.098 65.0644 128.424 65.0644C128.871 65.0644 129.24 64.957 129.532 64.7422C129.823 64.5299 129.969 64.1909 129.969 63.725V62.5525H129.894C129.823 62.6793 129.721 62.8204 129.587 62.9757C129.455 63.131 129.274 63.2656 129.043 63.3794C128.812 63.4933 128.511 63.5503 128.14 63.5503C127.662 63.5503 127.231 63.4403 126.848 63.2203C126.467 62.9977 126.165 62.6703 125.941 62.238C125.721 61.8032 125.61 61.2687 125.61 60.6346C125.61 60.0005 125.719 59.4569 125.937 59.004C126.158 58.551 126.46 58.2042 126.844 57.9635C127.227 57.7202 127.662 57.5985 128.148 57.5985C128.524 57.5985 128.827 57.6607 129.059 57.7849C129.29 57.9065 129.47 58.0489 129.599 58.212C129.73 58.375 129.831 58.5187 129.902 58.6429H129.989V57.6762H131.144V63.7716C131.144 64.284 131.023 64.7046 130.781 65.0334C130.539 65.3621 130.212 65.6054 129.8 65.7632C129.39 65.9211 128.927 66.0001 128.412 66.0001ZM128.401 62.5874C128.739 62.5874 129.026 62.5098 129.26 62.3545C129.496 62.1966 129.675 61.9714 129.796 61.6789C129.919 61.3839 129.981 61.0306 129.981 60.6191C129.981 60.2179 129.92 59.8646 129.8 59.5592C129.679 59.2537 129.501 59.0156 129.268 58.8448C129.034 58.6714 128.745 58.5847 128.401 58.5847C128.046 58.5847 127.75 58.6753 127.514 58.8564C127.277 59.035 127.099 59.2783 126.978 59.5863C126.86 59.8943 126.8 60.2386 126.8 60.6191C126.8 61.0099 126.861 61.3528 126.982 61.6479C127.103 61.943 127.281 62.1733 127.518 62.339C127.757 62.5046 128.051 62.5874 128.401 62.5874Z" fill="white"/>
<path d="M132.724 63.6396V57.6762H133.902V63.6396H132.724ZM133.319 56.756C133.114 56.756 132.938 56.6888 132.791 56.5542C132.646 56.417 132.574 56.2539 132.574 56.065C132.574 55.8734 132.646 55.7104 132.791 55.5758C132.938 55.4386 133.114 55.37 133.319 55.37C133.524 55.37 133.699 55.4386 133.843 55.5758C133.99 55.7104 134.064 55.8734 134.064 56.065C134.064 56.2539 133.99 56.417 133.843 56.5542C133.699 56.6888 133.524 56.756 133.319 56.756Z" fill="white"/>
<path d="M138.097 63.7599C137.5 63.7599 136.987 63.6344 136.556 63.3833C136.127 63.1297 135.796 62.7738 135.563 62.3157C135.331 61.855 135.216 61.3153 135.216 60.6967C135.216 60.0859 135.331 59.5475 135.563 59.0816C135.796 58.6157 136.122 58.2521 136.54 57.9907C136.96 57.7292 137.452 57.5985 138.014 57.5985C138.355 57.5985 138.687 57.6542 139.007 57.7655C139.328 57.8768 139.615 58.0515 139.87 58.2896C140.125 58.5277 140.326 58.837 140.473 59.2175C140.62 59.5954 140.694 60.0548 140.694 60.5958V61.0073H135.882V60.1376H139.539C139.539 59.8322 139.476 59.5617 139.35 59.3262C139.224 59.0881 139.046 58.9004 138.818 58.7633C138.592 58.6261 138.327 58.5575 138.022 58.5575C137.691 58.5575 137.402 58.6377 137.155 58.7982C136.91 58.9561 136.721 59.1631 136.587 59.4194C136.456 59.673 136.39 59.9487 136.39 60.2463V60.9258C136.39 61.3244 136.461 61.6634 136.603 61.943C136.747 62.2225 136.948 62.436 137.206 62.5836C137.463 62.7285 137.764 62.801 138.108 62.801C138.332 62.801 138.535 62.7699 138.719 62.7078C138.903 62.6431 139.062 62.5473 139.196 62.4205C139.33 62.2937 139.433 62.1371 139.504 61.9507L140.619 62.1487C140.53 62.4723 140.369 62.7557 140.138 62.999C139.91 63.2397 139.622 63.4273 139.275 63.5619C138.931 63.6939 138.538 63.7599 138.097 63.7599Z" fill="white"/>
<path d="M146.538 59.1321L145.469 59.3184C145.425 59.1839 145.354 59.0557 145.257 58.9341C145.162 58.8124 145.033 58.7128 144.87 58.6351C144.708 58.5575 144.504 58.5187 144.26 58.5187C143.926 58.5187 143.647 58.5924 143.424 58.74C143.201 58.8849 143.089 59.0726 143.089 59.3029C143.089 59.5022 143.164 59.6627 143.314 59.7843C143.463 59.906 143.705 60.0056 144.039 60.0833L145 60.3007C145.558 60.4275 145.973 60.6229 146.246 60.8869C146.519 61.1509 146.656 61.4939 146.656 61.9158C146.656 62.273 146.551 62.5913 146.34 62.8709C146.133 63.1478 145.843 63.3652 145.469 63.5231C145.099 63.681 144.669 63.7599 144.181 63.7599C143.503 63.7599 142.95 63.6176 142.522 63.3329C142.093 63.0456 141.831 62.6379 141.733 62.1099L142.872 61.9391C142.943 62.2315 143.089 62.4528 143.31 62.603C143.53 62.7505 143.818 62.8243 144.173 62.8243C144.559 62.8243 144.868 62.7453 145.099 62.5874C145.33 62.427 145.446 62.2315 145.446 62.0012C145.446 61.8148 145.375 61.6582 145.233 61.5314C145.094 61.4046 144.88 61.3088 144.591 61.2441L143.566 61.0228C143.001 60.896 142.583 60.6941 142.313 60.4172C142.045 60.1402 141.911 59.7895 141.911 59.365C141.911 59.013 142.01 58.705 142.21 58.441C142.41 58.177 142.686 57.9712 143.038 57.8237C143.39 57.6736 143.793 57.5985 144.248 57.5985C144.902 57.5985 145.417 57.7383 145.793 58.0178C146.168 58.2948 146.417 58.6662 146.538 59.1321Z" fill="white"/>
<path d="M153.769 57.6762V58.608H150.349V57.6762H153.769ZM151.287 63.6396V56.9851C151.287 56.6124 151.369 56.3031 151.535 56.0572C151.7 55.8087 151.92 55.6237 152.193 55.502C152.466 55.3778 152.763 55.3157 153.084 55.3157C153.32 55.3157 153.522 55.3351 153.691 55.3739C153.859 55.4101 153.984 55.4438 154.065 55.4749L153.789 56.4144C153.734 56.3989 153.663 56.3807 153.576 56.36C153.49 56.3367 153.385 56.3251 153.261 56.3251C152.975 56.3251 152.77 56.395 152.646 56.5348C152.525 56.6745 152.465 56.8764 152.465 57.1404V63.6396H151.287Z" fill="white"/>
<path d="M157.297 63.7599C156.729 63.7599 156.234 63.6318 155.811 63.3756C155.388 63.1193 155.06 62.7608 154.826 62.3001C154.592 61.8394 154.475 61.3011 154.475 60.6851C154.475 60.0665 154.592 59.5255 154.826 59.0622C155.06 58.5989 155.388 58.2391 155.811 57.9829C156.234 57.7267 156.729 57.5985 157.297 57.5985C157.864 57.5985 158.36 57.7267 158.783 57.9829C159.206 58.2391 159.534 58.5989 159.768 59.0622C160.002 59.5255 160.119 60.0665 160.119 60.6851C160.119 61.3011 160.002 61.8394 159.768 62.3001C159.534 62.7608 159.206 63.1193 158.783 63.3756C158.36 63.6318 157.864 63.7599 157.297 63.7599ZM157.301 62.7854C157.669 62.7854 157.973 62.6897 158.215 62.4981C158.457 62.3066 158.635 62.0517 158.751 61.7333C158.869 61.4149 158.928 61.0642 158.928 60.6812C158.928 60.3007 158.869 59.9513 158.751 59.6329C158.635 59.312 158.457 59.0544 158.215 58.8603C157.973 58.6662 157.669 58.5691 157.301 58.5691C156.93 58.5691 156.623 58.6662 156.378 58.8603C156.137 59.0544 155.957 59.312 155.839 59.6329C155.723 59.9513 155.665 60.3007 155.665 60.6812C155.665 61.0642 155.723 61.4149 155.839 61.7333C155.957 62.0517 156.137 62.3066 156.378 62.4981C156.623 62.6897 156.93 62.7854 157.301 62.7854Z" fill="white"/>
<path d="M161.434 63.6396V57.6762H162.573V58.6235H162.636C162.746 58.3025 162.941 58.0502 163.219 57.8664C163.5 57.6801 163.818 57.5869 164.173 57.5869C164.247 57.5869 164.333 57.5895 164.433 57.5947C164.536 57.5998 164.616 57.6063 164.674 57.6141V58.7244C164.626 58.7115 164.542 58.6973 164.421 58.6817C164.3 58.6636 164.18 58.6545 164.059 58.6545C163.78 58.6545 163.532 58.7128 163.314 58.8293C163.098 58.9431 162.928 59.1023 162.801 59.3068C162.675 59.5087 162.612 59.739 162.612 59.9979V63.6396H161.434Z" fill="white"/>
<path d="M168.725 63.6396V55.6884H171.681C172.254 55.6884 172.728 55.7816 173.104 55.9679C173.479 56.1517 173.76 56.4015 173.947 56.7172C174.133 57.0304 174.227 57.3837 174.227 57.7771C174.227 58.1084 174.165 58.388 174.042 58.6157C173.918 58.8409 173.753 59.0221 173.545 59.1593C173.34 59.2939 173.114 59.3922 172.867 59.4543V59.532C173.135 59.5449 173.396 59.6303 173.651 59.7882C173.909 59.9435 174.122 60.1648 174.29 60.4521C174.458 60.7394 174.542 61.0888 174.542 61.5004C174.542 61.9067 174.445 62.2717 174.25 62.5952C174.059 62.9161 173.762 63.1711 173.36 63.36C172.958 63.5464 172.444 63.6396 171.819 63.6396H168.725ZM169.943 62.6107H171.701C172.284 62.6107 172.702 62.4994 172.954 62.2768C173.206 62.0543 173.332 61.776 173.332 61.4421C173.332 61.1911 173.268 60.9607 173.139 60.7511C173.01 60.5414 172.826 60.3745 172.587 60.2502C172.351 60.126 172.07 60.0639 171.744 60.0639H169.943V62.6107ZM169.943 59.1282H171.574C171.848 59.1282 172.093 59.0764 172.311 58.9729C172.532 58.8694 172.707 58.7244 172.836 58.5381C172.967 58.3491 173.033 58.1265 173.033 57.8703C173.033 57.5416 172.916 57.2659 172.682 57.0433C172.448 56.8208 172.089 56.7095 171.606 56.7095H169.943V59.1282Z" fill="white"/>
<path d="M178.501 63.7599C177.904 63.7599 177.391 63.6344 176.96 63.3833C176.532 63.1297 176.201 62.7738 175.967 62.3157C175.736 61.855 175.62 61.3153 175.62 60.6967C175.62 60.0859 175.736 59.5475 175.967 59.0816C176.201 58.6157 176.526 58.2521 176.944 57.9907C177.365 57.7292 177.856 57.5985 178.418 57.5985C178.76 57.5985 179.091 57.6542 179.411 57.7655C179.732 57.8768 180.02 58.0515 180.274 58.2896C180.529 58.5277 180.73 58.837 180.877 59.2175C181.025 59.5954 181.098 60.0548 181.098 60.5958V61.0073H176.286V60.1376H179.943C179.943 59.8322 179.88 59.5617 179.754 59.3262C179.628 59.0881 179.451 58.9004 179.222 58.7633C178.996 58.6261 178.731 58.5575 178.426 58.5575C178.095 58.5575 177.806 58.6377 177.559 58.7982C177.315 58.9561 177.125 59.1631 176.991 59.4194C176.86 59.673 176.794 59.9487 176.794 60.2463V60.9258C176.794 61.3244 176.865 61.6634 177.007 61.943C177.152 62.2225 177.353 62.436 177.61 62.5836C177.868 62.7285 178.169 62.801 178.513 62.801C178.736 62.801 178.94 62.7699 179.124 62.7078C179.307 62.6431 179.466 62.5473 179.6 62.4205C179.734 62.2937 179.837 62.1371 179.908 61.9507L181.023 62.1487C180.934 62.4723 180.774 62.7557 180.542 62.999C180.314 63.2397 180.026 63.4273 179.679 63.5619C179.335 63.6939 178.942 63.7599 178.501 63.7599Z" fill="white"/>
<path d="M185.231 57.6762V58.608H181.925V57.6762H185.231ZM182.811 56.2475H183.99V61.8886C183.99 62.1138 184.024 62.2833 184.092 62.3972C184.161 62.5085 184.249 62.5848 184.356 62.6263C184.467 62.6651 184.586 62.6845 184.715 62.6845C184.81 62.6845 184.892 62.678 184.963 62.6651C185.034 62.6521 185.089 62.6418 185.129 62.634L185.342 63.593C185.273 63.6189 185.176 63.6447 185.05 63.6706C184.924 63.6991 184.766 63.7146 184.577 63.7172C184.267 63.7224 183.978 63.668 183.71 63.5542C183.442 63.4403 183.225 63.2643 183.06 63.0261C182.894 62.788 182.811 62.4891 182.811 62.1293V56.2475Z" fill="white"/>
<path d="M189.361 57.6762V58.608H186.054V57.6762H189.361ZM186.941 56.2475H188.119V61.8886C188.119 62.1138 188.153 62.2833 188.222 62.3972C188.29 62.5085 188.378 62.5848 188.486 62.6263C188.596 62.6651 188.716 62.6845 188.844 62.6845C188.939 62.6845 189.022 62.678 189.093 62.6651C189.164 62.6521 189.219 62.6418 189.258 62.634L189.471 63.593C189.403 63.6189 189.305 63.6447 189.179 63.6706C189.053 63.6991 188.896 63.7146 188.706 63.7172C188.396 63.7224 188.107 63.668 187.839 63.5542C187.571 63.4403 187.355 63.2643 187.189 63.0261C187.024 62.788 186.941 62.4891 186.941 62.1293V56.2475Z" fill="white"/>
<path d="M193.208 63.7599C192.612 63.7599 192.098 63.6344 191.667 63.3833C191.239 63.1297 190.908 62.7738 190.674 62.3157C190.443 61.855 190.327 61.3153 190.327 60.6967C190.327 60.0859 190.443 59.5475 190.674 59.0816C190.908 58.6157 191.234 58.2521 191.651 57.9907C192.072 57.7292 192.563 57.5985 193.125 57.5985C193.467 57.5985 193.798 57.6542 194.119 57.7655C194.439 57.8768 194.727 58.0515 194.982 58.2896C195.236 58.5277 195.437 58.837 195.585 59.2175C195.732 59.5954 195.805 60.0548 195.805 60.5958V61.0073H190.993V60.1376H194.651C194.651 59.8322 194.587 59.5617 194.461 59.3262C194.335 59.0881 194.158 58.9004 193.929 58.7633C193.703 58.6261 193.438 58.5575 193.133 58.5575C192.802 58.5575 192.513 58.6377 192.266 58.7982C192.022 58.9561 191.833 59.1631 191.699 59.4194C191.567 59.673 191.502 59.9487 191.502 60.2463V60.9258C191.502 61.3244 191.573 61.6634 191.714 61.943C191.859 62.2225 192.06 62.436 192.317 62.5836C192.575 62.7285 192.876 62.801 193.22 62.801C193.443 62.801 193.647 62.7699 193.831 62.7078C194.015 62.6431 194.174 62.5473 194.308 62.4205C194.442 62.2937 194.544 62.1371 194.615 61.9507L195.73 62.1487C195.641 62.4723 195.481 62.7557 195.25 62.999C195.021 63.2397 194.733 63.4273 194.387 63.5619C194.042 63.6939 193.65 63.7599 193.208 63.7599Z" fill="white"/>
<path d="M197.113 63.6396V57.6762H198.252V58.6235H198.315C198.425 58.3025 198.62 58.0502 198.898 57.8664C199.179 57.6801 199.497 57.5869 199.852 57.5869C199.925 57.5869 200.012 57.5895 200.112 57.5947C200.214 57.5998 200.295 57.6063 200.352 57.6141V58.7244C200.305 58.7115 200.221 58.6973 200.1 58.6817C199.979 58.6636 199.858 58.6545 199.738 58.6545C199.459 58.6545 199.211 58.7128 198.993 58.8293C198.777 58.9431 198.606 59.1023 198.48 59.3068C198.354 59.5087 198.291 59.739 198.291 59.9979V63.6396H197.113Z" fill="white"/>
<path d="M207.017 63.6396H204.404V55.6884H207.1C207.89 55.6884 208.57 55.8476 209.137 56.1659C209.705 56.4817 210.139 56.9359 210.442 57.5287C210.746 58.1188 210.899 58.8267 210.899 59.6523C210.899 60.4806 210.745 61.1924 210.438 61.7877C210.133 62.383 209.691 62.8411 209.113 63.162C208.535 63.4804 207.837 63.6396 207.017 63.6396ZM205.622 62.5913H206.95C207.565 62.5913 208.076 62.4774 208.483 62.2497C208.89 62.0193 209.195 61.6867 209.397 61.2519C209.6 60.8145 209.701 60.2813 209.701 59.6523C209.701 59.0286 209.6 58.4993 209.397 58.0644C209.198 57.6296 208.899 57.2996 208.503 57.0744C208.106 56.8492 207.613 56.7366 207.025 56.7366H205.622V62.5913Z" fill="white"/>
<path d="M214.928 63.7599C214.331 63.7599 213.817 63.6344 213.387 63.3833C212.958 63.1297 212.627 62.7738 212.393 62.3157C212.162 61.855 212.047 61.3153 212.047 60.6967C212.047 60.0859 212.162 59.5475 212.393 59.0816C212.627 58.6157 212.953 58.2521 213.371 57.9907C213.791 57.7292 214.283 57.5985 214.845 57.5985C215.186 57.5985 215.517 57.6542 215.838 57.7655C216.158 57.8768 216.446 58.0515 216.701 58.2896C216.956 58.5277 217.157 58.837 217.304 59.2175C217.451 59.5954 217.525 60.0548 217.525 60.5958V61.0073H212.713V60.1376H216.37C216.37 59.8322 216.307 59.5617 216.181 59.3262C216.055 59.0881 215.877 58.9004 215.649 58.7633C215.423 58.6261 215.157 58.5575 214.853 58.5575C214.522 58.5575 214.233 58.6377 213.986 58.7982C213.741 58.9561 213.552 59.1631 213.418 59.4194C213.287 59.673 213.221 59.9487 213.221 60.2463V60.9258C213.221 61.3244 213.292 61.6634 213.434 61.943C213.578 62.2225 213.779 62.436 214.037 62.5836C214.294 62.7285 214.595 62.801 214.939 62.801C215.163 62.801 215.366 62.7699 215.55 62.7078C215.734 62.6431 215.893 62.5473 216.027 62.4205C216.161 62.2937 216.264 62.1371 216.335 61.9507L217.45 62.1487C217.361 62.4723 217.2 62.7557 216.969 62.999C216.74 63.2397 216.453 63.4273 216.106 63.5619C215.762 63.6939 215.369 63.7599 214.928 63.7599Z" fill="white"/>
<path d="M223.837 57.6762L221.642 63.6396H220.381L218.182 57.6762H219.447L220.98 62.2652H221.043L222.572 57.6762H223.837Z" fill="white"/>
<path d="M227.348 63.7599C226.752 63.7599 226.238 63.6344 225.807 63.3833C225.379 63.1297 225.048 62.7738 224.814 62.3157C224.583 61.855 224.467 61.3153 224.467 60.6967C224.467 60.0859 224.583 59.5475 224.814 59.0816C225.048 58.6157 225.373 58.2521 225.791 57.9907C226.212 57.7292 226.703 57.5985 227.265 57.5985C227.607 57.5985 227.938 57.6542 228.258 57.7655C228.579 57.8768 228.867 58.0515 229.121 58.2896C229.376 58.5277 229.577 58.837 229.724 59.2175C229.872 59.5954 229.945 60.0548 229.945 60.5958V61.0073H225.133V60.1376H228.79C228.79 59.8322 228.727 59.5617 228.601 59.3262C228.475 59.0881 228.298 58.9004 228.069 58.7633C227.843 58.6261 227.578 58.5575 227.273 58.5575C226.942 58.5575 226.653 58.6377 226.406 58.7982C226.162 58.9561 225.972 59.1631 225.839 59.4194C225.707 59.673 225.641 59.9487 225.641 60.2463V60.9258C225.641 61.3244 225.712 61.6634 225.854 61.943C225.999 62.2225 226.2 62.436 226.457 62.5836C226.715 62.7285 227.016 62.801 227.36 62.801C227.583 62.801 227.787 62.7699 227.971 62.7078C228.155 62.6431 228.314 62.5473 228.448 62.4205C228.582 62.2937 228.684 62.1371 228.755 61.9507L229.87 62.1487C229.781 62.4723 229.621 62.7557 229.389 62.999C229.161 63.2397 228.873 63.4273 228.526 63.5619C228.182 63.6939 227.789 63.7599 227.348 63.7599Z" fill="white"/>
<path d="M232.431 55.6884V63.6396H231.253V55.6884H232.431Z" fill="white"/>
<path d="M236.566 63.7599C235.999 63.7599 235.503 63.6318 235.08 63.3756C234.657 63.1193 234.329 62.7608 234.095 62.3001C233.861 61.8394 233.744 61.3011 233.744 60.6851C233.744 60.0665 233.861 59.5255 234.095 59.0622C234.329 58.5989 234.657 58.2391 235.08 57.9829C235.503 57.7267 235.999 57.5985 236.566 57.5985C237.134 57.5985 237.629 57.7267 238.052 57.9829C238.475 58.2391 238.803 58.5989 239.037 59.0622C239.271 59.5255 239.388 60.0665 239.388 60.6851C239.388 61.3011 239.271 61.8394 239.037 62.3001C238.803 62.7608 238.475 63.1193 238.052 63.3756C237.629 63.6318 237.134 63.7599 236.566 63.7599ZM236.57 62.7854C236.938 62.7854 237.243 62.6897 237.484 62.4981C237.726 62.3066 237.905 62.0517 238.02 61.7333C238.139 61.4149 238.198 61.0642 238.198 60.6812C238.198 60.3007 238.139 59.9513 238.02 59.6329C237.905 59.312 237.726 59.0544 237.484 58.8603C237.243 58.6662 236.938 58.5691 236.57 58.5691C236.2 58.5691 235.892 58.6662 235.648 58.8603C235.406 59.0544 235.226 59.312 235.108 59.6329C234.992 59.9513 234.935 60.3007 234.935 60.6812C234.935 61.0642 234.992 61.4149 235.108 61.7333C235.226 62.0517 235.406 62.3066 235.648 62.4981C235.892 62.6897 236.2 62.7854 236.57 62.7854Z" fill="white"/>
<path d="M240.703 65.8758V57.6762H241.854V58.6429H241.953C242.021 58.5187 242.12 58.375 242.248 58.212C242.377 58.0489 242.556 57.9065 242.784 57.7849C243.013 57.6607 243.315 57.5985 243.691 57.5985C244.179 57.5985 244.616 57.7202 244.999 57.9635C245.383 58.2068 245.684 58.5575 245.902 59.0156C246.122 59.4737 246.233 60.025 246.233 60.6695C246.233 61.314 246.124 61.8666 245.906 62.3273C245.688 62.7854 245.388 63.1387 245.007 63.3872C244.626 63.6331 244.191 63.756 243.703 63.756C243.335 63.756 243.034 63.6952 242.8 63.5736C242.569 63.4519 242.388 63.3096 242.256 63.1465C242.125 62.9834 242.024 62.8385 241.953 62.7117H241.882V65.8758H240.703ZM241.858 60.6579C241.858 61.0772 241.92 61.4447 242.043 61.7605C242.167 62.0763 242.345 62.3234 242.579 62.502C242.813 62.678 243.1 62.766 243.438 62.766C243.791 62.766 244.085 62.6741 244.321 62.4904C244.558 62.304 244.736 62.0517 244.857 61.7333C244.981 61.4149 245.043 61.0565 245.043 60.6579C245.043 60.2645 244.982 59.9112 244.861 59.598C244.743 59.2848 244.564 59.0376 244.325 58.8564C244.089 58.6753 243.793 58.5847 243.438 58.5847C243.097 58.5847 242.808 58.6714 242.571 58.8448C242.338 59.0182 242.16 59.2602 242.039 59.5708C241.919 59.8814 241.858 60.2438 241.858 60.6579Z" fill="white"/>
<path d="M247.553 63.6396V57.6762H248.684V58.6468H248.759C248.885 58.3181 249.091 58.0618 249.378 57.8781C249.664 57.6917 250.007 57.5985 250.406 57.5985C250.811 57.5985 251.15 57.6917 251.423 57.8781C251.699 58.0644 251.903 58.3207 252.034 58.6468H252.097C252.242 58.3284 252.472 58.0748 252.787 57.8858C253.102 57.6943 253.478 57.5985 253.914 57.5985C254.463 57.5985 254.911 57.7681 255.258 58.1071C255.607 58.4462 255.782 58.9574 255.782 59.6407V63.6396H254.604V59.7494C254.604 59.3456 254.492 59.0531 254.269 58.872C254.045 58.6908 253.779 58.6002 253.469 58.6002C253.085 58.6002 252.787 58.7167 252.574 58.9496C252.361 59.18 252.255 59.4763 252.255 59.8387V63.6396H251.08V59.6756C251.08 59.3521 250.978 59.092 250.773 58.8953C250.568 58.6986 250.301 58.6002 249.973 58.6002C249.75 58.6002 249.543 58.6584 249.354 58.7749C249.168 58.8888 249.016 59.048 248.901 59.2524C248.788 59.4569 248.731 59.6937 248.731 59.9629V63.6396H247.553Z" fill="white"/>
<path d="M259.97 63.7599C259.374 63.7599 258.86 63.6344 258.429 63.3833C258.001 63.1297 257.67 62.7738 257.436 62.3157C257.205 61.855 257.09 61.3153 257.09 60.6967C257.09 60.0859 257.205 59.5475 257.436 59.0816C257.67 58.6157 257.996 58.2521 258.414 57.9907C258.834 57.7292 259.325 57.5985 259.888 57.5985C260.229 57.5985 260.56 57.6542 260.881 57.7655C261.201 57.8768 261.489 58.0515 261.744 58.2896C261.999 58.5277 262.2 58.837 262.347 59.2175C262.494 59.5954 262.568 60.0548 262.568 60.5958V61.0073H257.756V60.1376H261.413C261.413 59.8322 261.35 59.5617 261.224 59.3262C261.098 59.0881 260.92 58.9004 260.692 58.7633C260.466 58.6261 260.2 58.5575 259.896 58.5575C259.565 58.5575 259.276 58.6377 259.029 58.7982C258.784 58.9561 258.595 59.1631 258.461 59.4194C258.33 59.673 258.264 59.9487 258.264 60.2463V60.9258C258.264 61.3244 258.335 61.6634 258.477 61.943C258.621 62.2225 258.822 62.436 259.08 62.5836C259.337 62.7285 259.638 62.801 259.982 62.801C260.206 62.801 260.409 62.7699 260.593 62.7078C260.777 62.6431 260.936 62.5473 261.07 62.4205C261.204 62.2937 261.306 62.1371 261.377 61.9507L262.493 62.1487C262.403 62.4723 262.243 62.7557 262.012 62.999C261.783 63.2397 261.496 63.4273 261.149 63.5619C260.805 63.6939 260.412 63.7599 259.97 63.7599Z" fill="white"/>
<path d="M265.053 60.0988V63.6396H263.875V57.6762H265.006V58.6468H265.081C265.22 58.331 265.438 58.0774 265.735 57.8858C266.035 57.6943 266.412 57.5985 266.866 57.5985C267.279 57.5985 267.64 57.6839 267.95 57.8548C268.26 58.023 268.501 58.2741 268.671 58.608C268.842 58.9418 268.928 59.3547 268.928 59.8465V63.6396H267.749V59.9862C267.749 59.554 267.635 59.2162 267.406 58.9729C267.178 58.727 266.864 58.6041 266.464 58.6041C266.191 58.6041 265.948 58.6623 265.735 58.7788C265.525 58.8953 265.358 59.0661 265.235 59.2913C265.114 59.5139 265.053 59.783 265.053 60.0988Z" fill="white"/>
<path d="M273.334 57.6762V58.608H270.027V57.6762H273.334ZM270.914 56.2475H272.092V61.8886C272.092 62.1138 272.126 62.2833 272.195 62.3972C272.263 62.5085 272.351 62.5848 272.459 62.6263C272.569 62.6651 272.689 62.6845 272.817 62.6845C272.912 62.6845 272.995 62.678 273.066 62.6651C273.137 62.6521 273.192 62.6418 273.231 62.634L273.444 63.593C273.376 63.6189 273.279 63.6447 273.152 63.6706C273.026 63.6991 272.869 63.7146 272.68 63.7172C272.37 63.7224 272.081 63.668 271.813 63.5542C271.545 63.4403 271.328 63.2643 271.162 63.0261C270.997 62.788 270.914 62.4891 270.914 62.1293V56.2475Z" fill="white"/>
<path d="M198.172 24.1976V40.3293H189.984V24.1976C189.984 22.7099 189.447 21.4462 188.374 20.4066C187.319 19.3491 186.036 18.8203 184.526 18.8203C183.015 18.8203 181.724 19.3491 180.65 20.4066C179.595 21.4462 179.067 22.7099 179.067 24.1976V40.3293H170.879V24.1976C170.879 22.7099 170.343 21.4462 169.269 20.4066C168.214 19.3491 166.931 18.8203 165.421 18.8203C163.911 18.8203 162.619 19.3491 161.545 20.4066C160.49 21.4462 159.962 22.7099 159.962 24.1976V40.3293H151.774V24.1976C151.774 20.4873 153.103 17.3237 155.759 14.7068C158.434 12.0719 161.654 10.7545 165.421 10.7545C169.151 10.7545 172.335 12.0361 174.973 14.5992C177.611 12.0361 180.796 10.7545 184.526 10.7545C188.292 10.7545 191.503 12.0719 194.16 14.7068C196.835 17.3237 198.172 20.4873 198.172 24.1976Z" fill="white"/>
<path d="M209.962 40.3293H201.775V10.7545H209.962V40.3293ZM205.868 8.06586C204.74 8.06586 203.776 7.67153 202.975 6.88287C202.175 6.09421 201.775 5.14423 201.775 4.03293C201.775 2.92163 202.175 1.97166 202.975 1.18299C203.776 0.394331 204.74 0 205.868 0C206.997 0 207.961 0.394331 208.761 1.18299C209.562 1.97166 209.962 2.92163 209.962 4.03293C209.962 5.14423 209.562 6.09421 208.761 6.88287C207.961 7.67153 206.997 8.06586 205.868 8.06586Z" fill="white"/>
<path d="M240.858 24.1976V40.3293H232.67V24.1976C232.67 22.7099 232.133 21.4462 231.06 20.4066C230.004 19.3491 228.722 18.8203 227.211 18.8203C225.701 18.8203 224.409 19.3491 223.336 20.4066C222.28 21.4462 221.753 22.7099 221.753 24.1976V40.3293H213.565V24.1976C213.565 20.4873 214.893 17.3237 217.55 14.7068C220.224 12.0719 223.445 10.7545 227.211 10.7545C230.978 10.7545 234.189 12.0719 236.846 14.7068C239.52 17.3237 240.858 20.4873 240.858 24.1976Z" fill="white"/>
<path d="M273.5 25.5419C273.5 29.6286 272.035 33.1148 269.106 36.0006C266.176 38.8864 262.637 40.3293 258.489 40.3293C254.34 40.3293 250.801 38.8864 247.872 36.0006C244.942 33.1148 243.478 29.6286 243.478 25.5419C243.478 21.4552 244.942 17.9689 247.872 15.0832C250.801 12.1974 254.34 10.7545 258.489 10.7545H266.093V18.8203H258.489C256.596 18.8203 254.986 19.4746 253.658 20.783C252.33 22.0915 251.666 23.6778 251.666 25.5419C251.666 27.406 252.33 28.9923 253.658 30.3008C254.986 31.6092 256.596 32.2635 258.489 32.2635C260.381 32.2635 261.991 31.6092 263.32 30.3008C264.648 28.9923 265.312 27.406 265.312 25.5419V0H273.5V25.5419Z" fill="white"/>
</svg>
